G04 #@! TF.GenerationSoftware,KiCad,Pcbnew,(5.1.2)-2*
G04 #@! TF.CreationDate,2020-01-18T23:29:07-05:00*
G04 #@! TF.ProjectId,PowerSenseModule,506f7765-7253-4656-9e73-654d6f64756c,1.0*
G04 #@! TF.SameCoordinates,Original*
G04 #@! TF.FileFunction,Legend,Bot*
G04 #@! TF.FilePolarity,Positive*
%FSLAX46Y46*%
G04 Gerber Fmt 4.6, Leading zero omitted, Abs format (unit mm)*
G04 Created by KiCad (PCBNEW (5.1.2)-2) date 2020-01-18 23:29:07*
%MOMM*%
%LPD*%
G04 APERTURE LIST*
%ADD10C,0.152400*%
%ADD11C,0.120000*%
%ADD12C,0.150000*%
G04 APERTURE END LIST*
D10*
X130461000Y-68009000D02*
G75*
G03X130461000Y-68009000I-381000J0D01*
G01*
D11*
X122260000Y-85520000D02*
X122260000Y-78220000D01*
X117960000Y-85520000D02*
X117960000Y-78220000D01*
X122260000Y-85520000D02*
X117960000Y-85520000D01*
X117810000Y-98270000D02*
X117810000Y-105570000D01*
X122110000Y-98270000D02*
X122110000Y-105570000D01*
X117810000Y-98270000D02*
X122110000Y-98270000D01*
D12*
X158602857Y-88647380D02*
X158602857Y-87647380D01*
X158031428Y-88647380D01*
X158031428Y-87647380D01*
X157698095Y-87647380D02*
X157126666Y-87647380D01*
X157412380Y-88647380D02*
X157412380Y-87647380D01*
X156269523Y-88647380D02*
X156840952Y-88647380D01*
X156555238Y-88647380D02*
X156555238Y-87647380D01*
X156650476Y-87790238D01*
X156745714Y-87885476D01*
X156840952Y-87933095D01*
X123562380Y-80181904D02*
X122562380Y-80181904D01*
X122562380Y-80420000D01*
X122610000Y-80562857D01*
X122705238Y-80658095D01*
X122800476Y-80705714D01*
X122990952Y-80753333D01*
X123133809Y-80753333D01*
X123324285Y-80705714D01*
X123419523Y-80658095D01*
X123514761Y-80562857D01*
X123562380Y-80420000D01*
X123562380Y-80181904D01*
X123562380Y-81229523D02*
X123562380Y-81420000D01*
X123514761Y-81515238D01*
X123467142Y-81562857D01*
X123324285Y-81658095D01*
X123133809Y-81705714D01*
X122752857Y-81705714D01*
X122657619Y-81658095D01*
X122610000Y-81610476D01*
X122562380Y-81515238D01*
X122562380Y-81324761D01*
X122610000Y-81229523D01*
X122657619Y-81181904D01*
X122752857Y-81134285D01*
X122990952Y-81134285D01*
X123086190Y-81181904D01*
X123133809Y-81229523D01*
X123181428Y-81324761D01*
X123181428Y-81515238D01*
X123133809Y-81610476D01*
X123086190Y-81658095D01*
X122990952Y-81705714D01*
X117412380Y-102131904D02*
X116412380Y-102131904D01*
X116412380Y-102370000D01*
X116460000Y-102512857D01*
X116555238Y-102608095D01*
X116650476Y-102655714D01*
X116840952Y-102703333D01*
X116983809Y-102703333D01*
X117174285Y-102655714D01*
X117269523Y-102608095D01*
X117364761Y-102512857D01*
X117412380Y-102370000D01*
X117412380Y-102131904D01*
X116840952Y-103274761D02*
X116793333Y-103179523D01*
X116745714Y-103131904D01*
X116650476Y-103084285D01*
X116602857Y-103084285D01*
X116507619Y-103131904D01*
X116460000Y-103179523D01*
X116412380Y-103274761D01*
X116412380Y-103465238D01*
X116460000Y-103560476D01*
X116507619Y-103608095D01*
X116602857Y-103655714D01*
X116650476Y-103655714D01*
X116745714Y-103608095D01*
X116793333Y-103560476D01*
X116840952Y-103465238D01*
X116840952Y-103274761D01*
X116888571Y-103179523D01*
X116936190Y-103131904D01*
X117031428Y-103084285D01*
X117221904Y-103084285D01*
X117317142Y-103131904D01*
X117364761Y-103179523D01*
X117412380Y-103274761D01*
X117412380Y-103465238D01*
X117364761Y-103560476D01*
X117317142Y-103608095D01*
X117221904Y-103655714D01*
X117031428Y-103655714D01*
X116936190Y-103608095D01*
X116888571Y-103560476D01*
X116840952Y-103465238D01*
M02*
