G04 #@! TF.GenerationSoftware,KiCad,Pcbnew,(5.1.2)-1*
G04 #@! TF.CreationDate,2019-12-18T19:38:25-05:00*
G04 #@! TF.ProjectId,PowerSenseModule,506f7765-7253-4656-9e73-654d6f64756c,1.0*
G04 #@! TF.SameCoordinates,Original*
G04 #@! TF.FileFunction,Legend,Top*
G04 #@! TF.FilePolarity,Positive*
%FSLAX46Y46*%
G04 Gerber Fmt 4.6, Leading zero omitted, Abs format (unit mm)*
G04 Created by KiCad (PCBNEW (5.1.2)-1) date 2019-12-18 19:38:25*
%MOMM*%
%LPD*%
G04 APERTURE LIST*
%ADD10C,0.100000*%
%ADD11C,0.150000*%
%ADD12C,0.300000*%
%ADD13C,0.400000*%
%ADD14C,0.500000*%
%ADD15C,0.152400*%
%ADD16C,0.010000*%
%ADD17C,0.120000*%
G04 APERTURE END LIST*
D10*
D11*
X177002200Y-166007200D02*
X177002200Y-198007200D01*
X285002200Y-198007200D01*
X285002200Y-166007200D01*
X177002200Y-166007200D01*
D10*
D11*
X10000000Y-10000000D02*
X10000000Y-200007200D01*
X287002200Y-200007200D01*
X287002200Y-10000000D01*
X10000000Y-10000000D01*
D10*
D11*
X12000000Y-12000000D02*
X12000000Y-198007200D01*
X285002200Y-198007200D01*
X285002200Y-12000000D01*
X12000000Y-12000000D01*
D10*
D11*
X60000000Y-12000000D02*
X60000000Y-10000000D01*
D10*
D11*
X110000000Y-12000000D02*
X110000000Y-10000000D01*
D10*
D11*
X160000000Y-12000000D02*
X160000000Y-10000000D01*
D10*
D11*
X210000000Y-12000000D02*
X210000000Y-10000000D01*
D10*
D11*
X260000000Y-12000000D02*
X260000000Y-10000000D01*
D10*
D11*
X36065476Y-11588095D02*
X35322619Y-11588095D01*
X35694047Y-11588095D02*
X35694047Y-10288095D01*
X35570238Y-10473809D01*
X35446428Y-10597619D01*
X35322619Y-10659523D01*
D10*
D11*
X85322619Y-10411904D02*
X85384523Y-10350000D01*
X85508333Y-10288095D01*
X85817857Y-10288095D01*
X85941666Y-10350000D01*
X86003571Y-10411904D01*
X86065476Y-10535714D01*
X86065476Y-10659523D01*
X86003571Y-10845238D01*
X85260714Y-11588095D01*
X86065476Y-11588095D01*
D10*
D11*
X135260714Y-10288095D02*
X136065476Y-10288095D01*
X135632142Y-10783333D01*
X135817857Y-10783333D01*
X135941666Y-10845238D01*
X136003571Y-10907142D01*
X136065476Y-11030952D01*
X136065476Y-11340476D01*
X136003571Y-11464285D01*
X135941666Y-11526190D01*
X135817857Y-11588095D01*
X135446428Y-11588095D01*
X135322619Y-11526190D01*
X135260714Y-11464285D01*
D10*
D11*
X185941666Y-10721428D02*
X185941666Y-11588095D01*
X185632142Y-10226190D02*
X185322619Y-11154761D01*
X186127380Y-11154761D01*
D10*
D11*
X236003571Y-10288095D02*
X235384523Y-10288095D01*
X235322619Y-10907142D01*
X235384523Y-10845238D01*
X235508333Y-10783333D01*
X235817857Y-10783333D01*
X235941666Y-10845238D01*
X236003571Y-10907142D01*
X236065476Y-11030952D01*
X236065476Y-11340476D01*
X236003571Y-11464285D01*
X235941666Y-11526190D01*
X235817857Y-11588095D01*
X235508333Y-11588095D01*
X235384523Y-11526190D01*
X235322619Y-11464285D01*
D10*
D11*
X285941666Y-10288095D02*
X285694047Y-10288095D01*
X285570238Y-10350000D01*
X285508333Y-10411904D01*
X285384523Y-10597619D01*
X285322619Y-10845238D01*
X285322619Y-11340476D01*
X285384523Y-11464285D01*
X285446428Y-11526190D01*
X285570238Y-11588095D01*
X285817857Y-11588095D01*
X285941666Y-11526190D01*
X286003571Y-11464285D01*
X286065476Y-11340476D01*
X286065476Y-11030952D01*
X286003571Y-10907142D01*
X285941666Y-10845238D01*
X285817857Y-10783333D01*
X285570238Y-10783333D01*
X285446428Y-10845238D01*
X285384523Y-10907142D01*
X285322619Y-11030952D01*
D10*
D11*
X60000000Y-198007200D02*
X60000000Y-200007200D01*
D10*
D11*
X110000000Y-198007200D02*
X110000000Y-200007200D01*
D10*
D11*
X160000000Y-198007200D02*
X160000000Y-200007200D01*
D10*
D11*
X210000000Y-198007200D02*
X210000000Y-200007200D01*
D10*
D11*
X260000000Y-198007200D02*
X260000000Y-200007200D01*
D10*
D11*
X36065476Y-199595295D02*
X35322619Y-199595295D01*
X35694047Y-199595295D02*
X35694047Y-198295295D01*
X35570238Y-198481009D01*
X35446428Y-198604819D01*
X35322619Y-198666723D01*
D10*
D11*
X85322619Y-198419104D02*
X85384523Y-198357200D01*
X85508333Y-198295295D01*
X85817857Y-198295295D01*
X85941666Y-198357200D01*
X86003571Y-198419104D01*
X86065476Y-198542914D01*
X86065476Y-198666723D01*
X86003571Y-198852438D01*
X85260714Y-199595295D01*
X86065476Y-199595295D01*
D10*
D11*
X135260714Y-198295295D02*
X136065476Y-198295295D01*
X135632142Y-198790533D01*
X135817857Y-198790533D01*
X135941666Y-198852438D01*
X136003571Y-198914342D01*
X136065476Y-199038152D01*
X136065476Y-199347676D01*
X136003571Y-199471485D01*
X135941666Y-199533390D01*
X135817857Y-199595295D01*
X135446428Y-199595295D01*
X135322619Y-199533390D01*
X135260714Y-199471485D01*
D10*
D11*
X185941666Y-198728628D02*
X185941666Y-199595295D01*
X185632142Y-198233390D02*
X185322619Y-199161961D01*
X186127380Y-199161961D01*
D10*
D11*
X236003571Y-198295295D02*
X235384523Y-198295295D01*
X235322619Y-198914342D01*
X235384523Y-198852438D01*
X235508333Y-198790533D01*
X235817857Y-198790533D01*
X235941666Y-198852438D01*
X236003571Y-198914342D01*
X236065476Y-199038152D01*
X236065476Y-199347676D01*
X236003571Y-199471485D01*
X235941666Y-199533390D01*
X235817857Y-199595295D01*
X235508333Y-199595295D01*
X235384523Y-199533390D01*
X235322619Y-199471485D01*
D10*
D11*
X285941666Y-198295295D02*
X285694047Y-198295295D01*
X285570238Y-198357200D01*
X285508333Y-198419104D01*
X285384523Y-198604819D01*
X285322619Y-198852438D01*
X285322619Y-199347676D01*
X285384523Y-199471485D01*
X285446428Y-199533390D01*
X285570238Y-199595295D01*
X285817857Y-199595295D01*
X285941666Y-199533390D01*
X286003571Y-199471485D01*
X286065476Y-199347676D01*
X286065476Y-199038152D01*
X286003571Y-198914342D01*
X285941666Y-198852438D01*
X285817857Y-198790533D01*
X285570238Y-198790533D01*
X285446428Y-198852438D01*
X285384523Y-198914342D01*
X285322619Y-199038152D01*
D10*
D11*
X10000000Y-60000000D02*
X12000000Y-60000000D01*
D10*
D11*
X10000000Y-110000000D02*
X12000000Y-110000000D01*
D10*
D11*
X10000000Y-160000000D02*
X12000000Y-160000000D01*
D10*
D11*
X10690476Y-35216666D02*
X11309523Y-35216666D01*
X10566666Y-35588095D02*
X11000000Y-34288095D01*
X11433333Y-35588095D01*
D10*
D11*
X11092857Y-84907142D02*
X11278571Y-84969047D01*
X11340476Y-85030952D01*
X11402380Y-85154761D01*
X11402380Y-85340476D01*
X11340476Y-85464285D01*
X11278571Y-85526190D01*
X11154761Y-85588095D01*
X10659523Y-85588095D01*
X10659523Y-84288095D01*
X11092857Y-84288095D01*
X11216666Y-84350000D01*
X11278571Y-84411904D01*
X11340476Y-84535714D01*
X11340476Y-84659523D01*
X11278571Y-84783333D01*
X11216666Y-84845238D01*
X11092857Y-84907142D01*
X10659523Y-84907142D01*
D10*
D11*
X11402380Y-135464285D02*
X11340476Y-135526190D01*
X11154761Y-135588095D01*
X11030952Y-135588095D01*
X10845238Y-135526190D01*
X10721428Y-135402380D01*
X10659523Y-135278571D01*
X10597619Y-135030952D01*
X10597619Y-134845238D01*
X10659523Y-134597619D01*
X10721428Y-134473809D01*
X10845238Y-134350000D01*
X11030952Y-134288095D01*
X11154761Y-134288095D01*
X11340476Y-134350000D01*
X11402380Y-134411904D01*
D10*
D11*
X10659523Y-185588095D02*
X10659523Y-184288095D01*
X10969047Y-184288095D01*
X11154761Y-184350000D01*
X11278571Y-184473809D01*
X11340476Y-184597619D01*
X11402380Y-184845238D01*
X11402380Y-185030952D01*
X11340476Y-185278571D01*
X11278571Y-185402380D01*
X11154761Y-185526190D01*
X10969047Y-185588095D01*
X10659523Y-185588095D01*
D10*
D11*
X287002200Y-60000000D02*
X285002200Y-60000000D01*
D10*
D11*
X287002200Y-110000000D02*
X285002200Y-110000000D01*
D10*
D11*
X287002200Y-160000000D02*
X285002200Y-160000000D01*
D10*
D11*
X285692676Y-35216666D02*
X286311723Y-35216666D01*
X285568866Y-35588095D02*
X286002200Y-34288095D01*
X286435533Y-35588095D01*
D10*
D11*
X286095057Y-84907142D02*
X286280771Y-84969047D01*
X286342676Y-85030952D01*
X286404580Y-85154761D01*
X286404580Y-85340476D01*
X286342676Y-85464285D01*
X286280771Y-85526190D01*
X286156961Y-85588095D01*
X285661723Y-85588095D01*
X285661723Y-84288095D01*
X286095057Y-84288095D01*
X286218866Y-84350000D01*
X286280771Y-84411904D01*
X286342676Y-84535714D01*
X286342676Y-84659523D01*
X286280771Y-84783333D01*
X286218866Y-84845238D01*
X286095057Y-84907142D01*
X285661723Y-84907142D01*
D10*
D11*
X286404580Y-135464285D02*
X286342676Y-135526190D01*
X286156961Y-135588095D01*
X286033152Y-135588095D01*
X285847438Y-135526190D01*
X285723628Y-135402380D01*
X285661723Y-135278571D01*
X285599819Y-135030952D01*
X285599819Y-134845238D01*
X285661723Y-134597619D01*
X285723628Y-134473809D01*
X285847438Y-134350000D01*
X286033152Y-134288095D01*
X286156961Y-134288095D01*
X286342676Y-134350000D01*
X286404580Y-134411904D01*
D10*
D11*
X285661723Y-185588095D02*
X285661723Y-184288095D01*
X285971247Y-184288095D01*
X286156961Y-184350000D01*
X286280771Y-184473809D01*
X286342676Y-184597619D01*
X286404580Y-184845238D01*
X286404580Y-185030952D01*
X286342676Y-185278571D01*
X286280771Y-185402380D01*
X286156961Y-185526190D01*
X285971247Y-185588095D01*
X285661723Y-185588095D01*
D10*
D11*
X200434342Y-193785771D02*
X200434342Y-192285771D01*
X200791485Y-192285771D01*
X201005771Y-192357200D01*
X201148628Y-192500057D01*
X201220057Y-192642914D01*
X201291485Y-192928628D01*
X201291485Y-193142914D01*
X201220057Y-193428628D01*
X201148628Y-193571485D01*
X201005771Y-193714342D01*
X200791485Y-193785771D01*
X200434342Y-193785771D01*
X202577200Y-193785771D02*
X202577200Y-193000057D01*
X202505771Y-192857200D01*
X202362914Y-192785771D01*
X202077200Y-192785771D01*
X201934342Y-192857200D01*
X202577200Y-193714342D02*
X202434342Y-193785771D01*
X202077200Y-193785771D01*
X201934342Y-193714342D01*
X201862914Y-193571485D01*
X201862914Y-193428628D01*
X201934342Y-193285771D01*
X202077200Y-193214342D01*
X202434342Y-193214342D01*
X202577200Y-193142914D01*
X203077200Y-192785771D02*
X203648628Y-192785771D01*
X203291485Y-192285771D02*
X203291485Y-193571485D01*
X203362914Y-193714342D01*
X203505771Y-193785771D01*
X203648628Y-193785771D01*
X204720057Y-193714342D02*
X204577200Y-193785771D01*
X204291485Y-193785771D01*
X204148628Y-193714342D01*
X204077200Y-193571485D01*
X204077200Y-193000057D01*
X204148628Y-192857200D01*
X204291485Y-192785771D01*
X204577200Y-192785771D01*
X204720057Y-192857200D01*
X204791485Y-193000057D01*
X204791485Y-193142914D01*
X204077200Y-193285771D01*
X205434342Y-193642914D02*
X205505771Y-193714342D01*
X205434342Y-193785771D01*
X205362914Y-193714342D01*
X205434342Y-193642914D01*
X205434342Y-193785771D01*
X205434342Y-192857200D02*
X205505771Y-192928628D01*
X205434342Y-193000057D01*
X205362914Y-192928628D01*
X205434342Y-192857200D01*
X205434342Y-193000057D01*
X207220057Y-192428628D02*
X207291485Y-192357200D01*
X207434342Y-192285771D01*
X207791485Y-192285771D01*
X207934342Y-192357200D01*
X208005771Y-192428628D01*
X208077200Y-192571485D01*
X208077200Y-192714342D01*
X208005771Y-192928628D01*
X207148628Y-193785771D01*
X208077200Y-193785771D01*
X209005771Y-192285771D02*
X209148628Y-192285771D01*
X209291485Y-192357200D01*
X209362914Y-192428628D01*
X209434342Y-192571485D01*
X209505771Y-192857200D01*
X209505771Y-193214342D01*
X209434342Y-193500057D01*
X209362914Y-193642914D01*
X209291485Y-193714342D01*
X209148628Y-193785771D01*
X209005771Y-193785771D01*
X208862914Y-193714342D01*
X208791485Y-193642914D01*
X208720057Y-193500057D01*
X208648628Y-193214342D01*
X208648628Y-192857200D01*
X208720057Y-192571485D01*
X208791485Y-192428628D01*
X208862914Y-192357200D01*
X209005771Y-192285771D01*
X210934342Y-193785771D02*
X210077200Y-193785771D01*
X210505771Y-193785771D02*
X210505771Y-192285771D01*
X210362914Y-192500057D01*
X210220057Y-192642914D01*
X210077200Y-192714342D01*
X211648628Y-193785771D02*
X211934342Y-193785771D01*
X212077200Y-193714342D01*
X212148628Y-193642914D01*
X212291485Y-193428628D01*
X212362914Y-193142914D01*
X212362914Y-192571485D01*
X212291485Y-192428628D01*
X212220057Y-192357200D01*
X212077200Y-192285771D01*
X211791485Y-192285771D01*
X211648628Y-192357200D01*
X211577200Y-192428628D01*
X211505771Y-192571485D01*
X211505771Y-192928628D01*
X211577200Y-193071485D01*
X211648628Y-193142914D01*
X211791485Y-193214342D01*
X212077200Y-193214342D01*
X212220057Y-193142914D01*
X212291485Y-193071485D01*
X212362914Y-192928628D01*
X213005771Y-193214342D02*
X214148628Y-193214342D01*
X215648628Y-193785771D02*
X214791485Y-193785771D01*
X215220057Y-193785771D02*
X215220057Y-192285771D01*
X215077200Y-192500057D01*
X214934342Y-192642914D01*
X214791485Y-192714342D01*
X216220057Y-192428628D02*
X216291485Y-192357200D01*
X216434342Y-192285771D01*
X216791485Y-192285771D01*
X216934342Y-192357200D01*
X217005771Y-192428628D01*
X217077200Y-192571485D01*
X217077200Y-192714342D01*
X217005771Y-192928628D01*
X216148628Y-193785771D01*
X217077200Y-193785771D01*
X217720057Y-193214342D02*
X218862914Y-193214342D01*
X220362914Y-193785771D02*
X219505771Y-193785771D01*
X219934342Y-193785771D02*
X219934342Y-192285771D01*
X219791485Y-192500057D01*
X219648628Y-192642914D01*
X219505771Y-192714342D01*
X221220057Y-192928628D02*
X221077200Y-192857200D01*
X221005771Y-192785771D01*
X220934342Y-192642914D01*
X220934342Y-192571485D01*
X221005771Y-192428628D01*
X221077200Y-192357200D01*
X221220057Y-192285771D01*
X221505771Y-192285771D01*
X221648628Y-192357200D01*
X221720057Y-192428628D01*
X221791485Y-192571485D01*
X221791485Y-192642914D01*
X221720057Y-192785771D01*
X221648628Y-192857200D01*
X221505771Y-192928628D01*
X221220057Y-192928628D01*
X221077200Y-193000057D01*
X221005771Y-193071485D01*
X220934342Y-193214342D01*
X220934342Y-193500057D01*
X221005771Y-193642914D01*
X221077200Y-193714342D01*
X221220057Y-193785771D01*
X221505771Y-193785771D01*
X221648628Y-193714342D01*
X221720057Y-193642914D01*
X221791485Y-193500057D01*
X221791485Y-193214342D01*
X221720057Y-193071485D01*
X221648628Y-193000057D01*
X221505771Y-192928628D01*
D10*
D11*
X177002200Y-194507200D02*
X285002200Y-194507200D01*
D10*
D11*
X178434342Y-196585771D02*
X178434342Y-195085771D01*
X179291485Y-196585771D02*
X178648628Y-195728628D01*
X179291485Y-195085771D02*
X178434342Y-195942914D01*
X179934342Y-196585771D02*
X179934342Y-195585771D01*
X179934342Y-195085771D02*
X179862914Y-195157200D01*
X179934342Y-195228628D01*
X180005771Y-195157200D01*
X179934342Y-195085771D01*
X179934342Y-195228628D01*
X181505771Y-196442914D02*
X181434342Y-196514342D01*
X181220057Y-196585771D01*
X181077200Y-196585771D01*
X180862914Y-196514342D01*
X180720057Y-196371485D01*
X180648628Y-196228628D01*
X180577200Y-195942914D01*
X180577200Y-195728628D01*
X180648628Y-195442914D01*
X180720057Y-195300057D01*
X180862914Y-195157200D01*
X181077200Y-195085771D01*
X181220057Y-195085771D01*
X181434342Y-195157200D01*
X181505771Y-195228628D01*
X182791485Y-196585771D02*
X182791485Y-195800057D01*
X182720057Y-195657200D01*
X182577200Y-195585771D01*
X182291485Y-195585771D01*
X182148628Y-195657200D01*
X182791485Y-196514342D02*
X182648628Y-196585771D01*
X182291485Y-196585771D01*
X182148628Y-196514342D01*
X182077200Y-196371485D01*
X182077200Y-196228628D01*
X182148628Y-196085771D01*
X182291485Y-196014342D01*
X182648628Y-196014342D01*
X182791485Y-195942914D01*
X184148628Y-196585771D02*
X184148628Y-195085771D01*
X184148628Y-196514342D02*
X184005771Y-196585771D01*
X183720057Y-196585771D01*
X183577200Y-196514342D01*
X183505771Y-196442914D01*
X183434342Y-196300057D01*
X183434342Y-195871485D01*
X183505771Y-195728628D01*
X183577200Y-195657200D01*
X183720057Y-195585771D01*
X184005771Y-195585771D01*
X184148628Y-195657200D01*
X186005771Y-195800057D02*
X186505771Y-195800057D01*
X186720057Y-196585771D02*
X186005771Y-196585771D01*
X186005771Y-195085771D01*
X186720057Y-195085771D01*
X187362914Y-196442914D02*
X187434342Y-196514342D01*
X187362914Y-196585771D01*
X187291485Y-196514342D01*
X187362914Y-196442914D01*
X187362914Y-196585771D01*
X188077200Y-196585771D02*
X188077200Y-195085771D01*
X188434342Y-195085771D01*
X188648628Y-195157200D01*
X188791485Y-195300057D01*
X188862914Y-195442914D01*
X188934342Y-195728628D01*
X188934342Y-195942914D01*
X188862914Y-196228628D01*
X188791485Y-196371485D01*
X188648628Y-196514342D01*
X188434342Y-196585771D01*
X188077200Y-196585771D01*
X189577200Y-196442914D02*
X189648628Y-196514342D01*
X189577200Y-196585771D01*
X189505771Y-196514342D01*
X189577200Y-196442914D01*
X189577200Y-196585771D01*
X190220057Y-196157200D02*
X190934342Y-196157200D01*
X190077200Y-196585771D02*
X190577200Y-195085771D01*
X191077200Y-196585771D01*
X191577200Y-196442914D02*
X191648628Y-196514342D01*
X191577200Y-196585771D01*
X191505771Y-196514342D01*
X191577200Y-196442914D01*
X191577200Y-196585771D01*
X194577200Y-196585771D02*
X194577200Y-195085771D01*
X194720057Y-196014342D02*
X195148628Y-196585771D01*
X195148628Y-195585771D02*
X194577200Y-196157200D01*
X195791485Y-196585771D02*
X195791485Y-195585771D01*
X195791485Y-195085771D02*
X195720057Y-195157200D01*
X195791485Y-195228628D01*
X195862914Y-195157200D01*
X195791485Y-195085771D01*
X195791485Y-195228628D01*
X197148628Y-196514342D02*
X197005771Y-196585771D01*
X196720057Y-196585771D01*
X196577200Y-196514342D01*
X196505771Y-196442914D01*
X196434342Y-196300057D01*
X196434342Y-195871485D01*
X196505771Y-195728628D01*
X196577200Y-195657200D01*
X196720057Y-195585771D01*
X197005771Y-195585771D01*
X197148628Y-195657200D01*
X198434342Y-196585771D02*
X198434342Y-195800057D01*
X198362914Y-195657200D01*
X198220057Y-195585771D01*
X197934342Y-195585771D01*
X197791485Y-195657200D01*
X198434342Y-196514342D02*
X198291485Y-196585771D01*
X197934342Y-196585771D01*
X197791485Y-196514342D01*
X197720057Y-196371485D01*
X197720057Y-196228628D01*
X197791485Y-196085771D01*
X197934342Y-196014342D01*
X198291485Y-196014342D01*
X198434342Y-195942914D01*
X199791485Y-196585771D02*
X199791485Y-195085771D01*
X199791485Y-196514342D02*
X199648628Y-196585771D01*
X199362914Y-196585771D01*
X199220057Y-196514342D01*
X199148628Y-196442914D01*
X199077200Y-196300057D01*
X199077200Y-195871485D01*
X199148628Y-195728628D01*
X199220057Y-195657200D01*
X199362914Y-195585771D01*
X199648628Y-195585771D01*
X199791485Y-195657200D01*
X202077200Y-197157200D02*
X202005771Y-197085771D01*
X201862914Y-196871485D01*
X201791485Y-196728628D01*
X201720057Y-196514342D01*
X201648628Y-196157200D01*
X201648628Y-195871485D01*
X201720057Y-195514342D01*
X201791485Y-195300057D01*
X201862914Y-195157200D01*
X202005771Y-194942914D01*
X202077200Y-194871485D01*
X203362914Y-195085771D02*
X202648628Y-195085771D01*
X202577200Y-195800057D01*
X202648628Y-195728628D01*
X202791485Y-195657200D01*
X203148628Y-195657200D01*
X203291485Y-195728628D01*
X203362914Y-195800057D01*
X203434342Y-195942914D01*
X203434342Y-196300057D01*
X203362914Y-196442914D01*
X203291485Y-196514342D01*
X203148628Y-196585771D01*
X202791485Y-196585771D01*
X202648628Y-196514342D01*
X202577200Y-196442914D01*
X204077200Y-196442914D02*
X204148628Y-196514342D01*
X204077200Y-196585771D01*
X204005771Y-196514342D01*
X204077200Y-196442914D01*
X204077200Y-196585771D01*
X205577200Y-196585771D02*
X204720057Y-196585771D01*
X205148628Y-196585771D02*
X205148628Y-195085771D01*
X205005771Y-195300057D01*
X204862914Y-195442914D01*
X204720057Y-195514342D01*
X206220057Y-196442914D02*
X206291485Y-196514342D01*
X206220057Y-196585771D01*
X206148628Y-196514342D01*
X206220057Y-196442914D01*
X206220057Y-196585771D01*
X206862914Y-195228628D02*
X206934342Y-195157200D01*
X207077200Y-195085771D01*
X207434342Y-195085771D01*
X207577200Y-195157200D01*
X207648628Y-195228628D01*
X207720057Y-195371485D01*
X207720057Y-195514342D01*
X207648628Y-195728628D01*
X206791485Y-196585771D01*
X207720057Y-196585771D01*
X208220057Y-197157200D02*
X208291485Y-197085771D01*
X208434342Y-196871485D01*
X208505771Y-196728628D01*
X208577200Y-196514342D01*
X208648628Y-196157200D01*
X208648628Y-195871485D01*
X208577200Y-195514342D01*
X208505771Y-195300057D01*
X208434342Y-195157200D01*
X208291485Y-194942914D01*
X208220057Y-194871485D01*
X209362914Y-196014342D02*
X210505771Y-196014342D01*
X212005771Y-196585771D02*
X211148628Y-196585771D01*
X211577200Y-196585771D02*
X211577200Y-195085771D01*
X211434342Y-195300057D01*
X211291485Y-195442914D01*
X211148628Y-195514342D01*
D10*
D11*
X177002200Y-191507200D02*
X285002200Y-191507200D01*
D10*
D12*
X264411485Y-193785771D02*
X263911485Y-193071485D01*
X263554342Y-193785771D02*
X263554342Y-192285771D01*
X264125771Y-192285771D01*
X264268628Y-192357200D01*
X264340057Y-192428628D01*
X264411485Y-192571485D01*
X264411485Y-192785771D01*
X264340057Y-192928628D01*
X264268628Y-193000057D01*
X264125771Y-193071485D01*
X263554342Y-193071485D01*
X265625771Y-193714342D02*
X265482914Y-193785771D01*
X265197200Y-193785771D01*
X265054342Y-193714342D01*
X264982914Y-193571485D01*
X264982914Y-193000057D01*
X265054342Y-192857200D01*
X265197200Y-192785771D01*
X265482914Y-192785771D01*
X265625771Y-192857200D01*
X265697200Y-193000057D01*
X265697200Y-193142914D01*
X264982914Y-193285771D01*
X266197200Y-192785771D02*
X266554342Y-193785771D01*
X266911485Y-192785771D01*
X267482914Y-193642914D02*
X267554342Y-193714342D01*
X267482914Y-193785771D01*
X267411485Y-193714342D01*
X267482914Y-193642914D01*
X267482914Y-193785771D01*
X267482914Y-192857200D02*
X267554342Y-192928628D01*
X267482914Y-193000057D01*
X267411485Y-192928628D01*
X267482914Y-192857200D01*
X267482914Y-193000057D01*
X270125771Y-193785771D02*
X269268628Y-193785771D01*
X269697200Y-193785771D02*
X269697200Y-192285771D01*
X269554342Y-192500057D01*
X269411485Y-192642914D01*
X269268628Y-192714342D01*
X270768628Y-193642914D02*
X270840057Y-193714342D01*
X270768628Y-193785771D01*
X270697200Y-193714342D01*
X270768628Y-193642914D01*
X270768628Y-193785771D01*
X271768628Y-192285771D02*
X271911485Y-192285771D01*
X272054342Y-192357200D01*
X272125771Y-192428628D01*
X272197200Y-192571485D01*
X272268628Y-192857200D01*
X272268628Y-193214342D01*
X272197200Y-193500057D01*
X272125771Y-193642914D01*
X272054342Y-193714342D01*
X271911485Y-193785771D01*
X271768628Y-193785771D01*
X271625771Y-193714342D01*
X271554342Y-193642914D01*
X271482914Y-193500057D01*
X271411485Y-193214342D01*
X271411485Y-192857200D01*
X271482914Y-192571485D01*
X271554342Y-192428628D01*
X271625771Y-192357200D01*
X271768628Y-192285771D01*
D10*
D11*
X178362914Y-193714342D02*
X178577200Y-193785771D01*
X178934342Y-193785771D01*
X179077200Y-193714342D01*
X179148628Y-193642914D01*
X179220057Y-193500057D01*
X179220057Y-193357200D01*
X179148628Y-193214342D01*
X179077200Y-193142914D01*
X178934342Y-193071485D01*
X178648628Y-193000057D01*
X178505771Y-192928628D01*
X178434342Y-192857200D01*
X178362914Y-192714342D01*
X178362914Y-192571485D01*
X178434342Y-192428628D01*
X178505771Y-192357200D01*
X178648628Y-192285771D01*
X179005771Y-192285771D01*
X179220057Y-192357200D01*
X179862914Y-193785771D02*
X179862914Y-192785771D01*
X179862914Y-192285771D02*
X179791485Y-192357200D01*
X179862914Y-192428628D01*
X179934342Y-192357200D01*
X179862914Y-192285771D01*
X179862914Y-192428628D01*
X180434342Y-192785771D02*
X181220057Y-192785771D01*
X180434342Y-193785771D01*
X181220057Y-193785771D01*
X182362914Y-193714342D02*
X182220057Y-193785771D01*
X181934342Y-193785771D01*
X181791485Y-193714342D01*
X181720057Y-193571485D01*
X181720057Y-193000057D01*
X181791485Y-192857200D01*
X181934342Y-192785771D01*
X182220057Y-192785771D01*
X182362914Y-192857200D01*
X182434342Y-193000057D01*
X182434342Y-193142914D01*
X181720057Y-193285771D01*
X183077200Y-193642914D02*
X183148628Y-193714342D01*
X183077200Y-193785771D01*
X183005771Y-193714342D01*
X183077200Y-193642914D01*
X183077200Y-193785771D01*
X183077200Y-192857200D02*
X183148628Y-192928628D01*
X183077200Y-193000057D01*
X183005771Y-192928628D01*
X183077200Y-192857200D01*
X183077200Y-193000057D01*
X184862914Y-193357200D02*
X185577200Y-193357200D01*
X184720057Y-193785771D02*
X185220057Y-192285771D01*
X185720057Y-193785771D01*
X186862914Y-192785771D02*
X186862914Y-193785771D01*
X186505771Y-192214342D02*
X186148628Y-193285771D01*
X187077200Y-193285771D01*
D10*
D11*
X263434342Y-196585771D02*
X263434342Y-195085771D01*
X264791485Y-196585771D02*
X264791485Y-195085771D01*
X264791485Y-196514342D02*
X264648628Y-196585771D01*
X264362914Y-196585771D01*
X264220057Y-196514342D01*
X264148628Y-196442914D01*
X264077200Y-196300057D01*
X264077200Y-195871485D01*
X264148628Y-195728628D01*
X264220057Y-195657200D01*
X264362914Y-195585771D01*
X264648628Y-195585771D01*
X264791485Y-195657200D01*
X265505771Y-196442914D02*
X265577200Y-196514342D01*
X265505771Y-196585771D01*
X265434342Y-196514342D01*
X265505771Y-196442914D01*
X265505771Y-196585771D01*
X265505771Y-195657200D02*
X265577200Y-195728628D01*
X265505771Y-195800057D01*
X265434342Y-195728628D01*
X265505771Y-195657200D01*
X265505771Y-195800057D01*
X268148628Y-196585771D02*
X267291485Y-196585771D01*
X267720057Y-196585771D02*
X267720057Y-195085771D01*
X267577200Y-195300057D01*
X267434342Y-195442914D01*
X267291485Y-195514342D01*
X269862914Y-195014342D02*
X268577200Y-196942914D01*
X271148628Y-196585771D02*
X270291485Y-196585771D01*
X270720057Y-196585771D02*
X270720057Y-195085771D01*
X270577200Y-195300057D01*
X270434342Y-195442914D01*
X270291485Y-195514342D01*
D10*
D11*
X177002200Y-187507200D02*
X285002200Y-187507200D01*
D10*
D13*
X178714580Y-188211961D02*
X179857438Y-188211961D01*
X179036009Y-190211961D02*
X179286009Y-188211961D01*
X180274104Y-190211961D02*
X180440771Y-188878628D01*
X180524104Y-188211961D02*
X180416961Y-188307200D01*
X180500295Y-188402438D01*
X180607438Y-188307200D01*
X180524104Y-188211961D01*
X180500295Y-188402438D01*
X181107438Y-188878628D02*
X181869342Y-188878628D01*
X181476485Y-188211961D02*
X181262200Y-189926247D01*
X181333628Y-190116723D01*
X181512200Y-190211961D01*
X181702676Y-190211961D01*
X182655057Y-190211961D02*
X182476485Y-190116723D01*
X182405057Y-189926247D01*
X182619342Y-188211961D01*
X184190771Y-190116723D02*
X183988390Y-190211961D01*
X183607438Y-190211961D01*
X183428866Y-190116723D01*
X183357438Y-189926247D01*
X183452676Y-189164342D01*
X183571723Y-188973866D01*
X183774104Y-188878628D01*
X184155057Y-188878628D01*
X184333628Y-188973866D01*
X184405057Y-189164342D01*
X184381247Y-189354819D01*
X183405057Y-189545295D01*
X185155057Y-190021485D02*
X185238390Y-190116723D01*
X185131247Y-190211961D01*
X185047914Y-190116723D01*
X185155057Y-190021485D01*
X185131247Y-190211961D01*
X185286009Y-188973866D02*
X185369342Y-189069104D01*
X185262200Y-189164342D01*
X185178866Y-189069104D01*
X185286009Y-188973866D01*
X185262200Y-189164342D01*
X187607438Y-190211961D02*
X187857438Y-188211961D01*
X188619342Y-188211961D01*
X188797914Y-188307200D01*
X188881247Y-188402438D01*
X188952676Y-188592914D01*
X188916961Y-188878628D01*
X188797914Y-189069104D01*
X188690771Y-189164342D01*
X188488390Y-189259580D01*
X187726485Y-189259580D01*
X189893152Y-190211961D02*
X189714580Y-190116723D01*
X189631247Y-190021485D01*
X189559819Y-189831009D01*
X189631247Y-189259580D01*
X189750295Y-189069104D01*
X189857438Y-188973866D01*
X190059819Y-188878628D01*
X190345533Y-188878628D01*
X190524104Y-188973866D01*
X190607438Y-189069104D01*
X190678866Y-189259580D01*
X190607438Y-189831009D01*
X190488390Y-190021485D01*
X190381247Y-190116723D01*
X190178866Y-190211961D01*
X189893152Y-190211961D01*
X191393152Y-188878628D02*
X191607438Y-190211961D01*
X192107438Y-189259580D01*
X192369342Y-190211961D01*
X192916961Y-188878628D01*
X194286009Y-190116723D02*
X194083628Y-190211961D01*
X193702676Y-190211961D01*
X193524104Y-190116723D01*
X193452676Y-189926247D01*
X193547914Y-189164342D01*
X193666961Y-188973866D01*
X193869342Y-188878628D01*
X194250295Y-188878628D01*
X194428866Y-188973866D01*
X194500295Y-189164342D01*
X194476485Y-189354819D01*
X193500295Y-189545295D01*
X195226485Y-190211961D02*
X195393152Y-188878628D01*
X195345533Y-189259580D02*
X195464580Y-189069104D01*
X195571723Y-188973866D01*
X195774104Y-188878628D01*
X195964580Y-188878628D01*
X197905057Y-190116723D02*
X198178866Y-190211961D01*
X198655057Y-190211961D01*
X198857438Y-190116723D01*
X198964580Y-190021485D01*
X199083628Y-189831009D01*
X199107438Y-189640533D01*
X199036009Y-189450057D01*
X198952676Y-189354819D01*
X198774104Y-189259580D01*
X198405057Y-189164342D01*
X198226485Y-189069104D01*
X198143152Y-188973866D01*
X198071723Y-188783390D01*
X198095533Y-188592914D01*
X198214580Y-188402438D01*
X198321723Y-188307200D01*
X198524104Y-188211961D01*
X199000295Y-188211961D01*
X199274104Y-188307200D01*
X200666961Y-190116723D02*
X200464580Y-190211961D01*
X200083628Y-190211961D01*
X199905057Y-190116723D01*
X199833628Y-189926247D01*
X199928866Y-189164342D01*
X200047914Y-188973866D01*
X200250295Y-188878628D01*
X200631247Y-188878628D01*
X200809819Y-188973866D01*
X200881247Y-189164342D01*
X200857438Y-189354819D01*
X199881247Y-189545295D01*
X201774104Y-188878628D02*
X201607438Y-190211961D01*
X201750295Y-189069104D02*
X201857438Y-188973866D01*
X202059819Y-188878628D01*
X202345533Y-188878628D01*
X202524104Y-188973866D01*
X202595533Y-189164342D01*
X202464580Y-190211961D01*
X203333628Y-190116723D02*
X203512200Y-190211961D01*
X203893152Y-190211961D01*
X204095533Y-190116723D01*
X204214580Y-189926247D01*
X204226485Y-189831009D01*
X204155057Y-189640533D01*
X203976485Y-189545295D01*
X203690771Y-189545295D01*
X203512200Y-189450057D01*
X203440771Y-189259580D01*
X203452676Y-189164342D01*
X203571723Y-188973866D01*
X203774104Y-188878628D01*
X204059819Y-188878628D01*
X204238390Y-188973866D01*
X205809819Y-190116723D02*
X205607438Y-190211961D01*
X205226485Y-190211961D01*
X205047914Y-190116723D01*
X204976485Y-189926247D01*
X205071723Y-189164342D01*
X205190771Y-188973866D01*
X205393152Y-188878628D01*
X205774104Y-188878628D01*
X205952676Y-188973866D01*
X206024104Y-189164342D01*
X206000295Y-189354819D01*
X205024104Y-189545295D01*
X208274104Y-190211961D02*
X208524104Y-188211961D01*
X209012200Y-189640533D01*
X209857438Y-188211961D01*
X209607438Y-190211961D01*
X210845533Y-190211961D02*
X210666961Y-190116723D01*
X210583628Y-190021485D01*
X210512200Y-189831009D01*
X210583628Y-189259580D01*
X210702676Y-189069104D01*
X210809819Y-188973866D01*
X211012200Y-188878628D01*
X211297914Y-188878628D01*
X211476485Y-188973866D01*
X211559819Y-189069104D01*
X211631247Y-189259580D01*
X211559819Y-189831009D01*
X211440771Y-190021485D01*
X211333628Y-190116723D01*
X211131247Y-190211961D01*
X210845533Y-190211961D01*
X213226485Y-190211961D02*
X213476485Y-188211961D01*
X213238390Y-190116723D02*
X213036009Y-190211961D01*
X212655057Y-190211961D01*
X212476485Y-190116723D01*
X212393152Y-190021485D01*
X212321723Y-189831009D01*
X212393152Y-189259580D01*
X212512200Y-189069104D01*
X212619342Y-188973866D01*
X212821723Y-188878628D01*
X213202676Y-188878628D01*
X213381247Y-188973866D01*
X215202676Y-188878628D02*
X215036009Y-190211961D01*
X214345533Y-188878628D02*
X214214580Y-189926247D01*
X214286009Y-190116723D01*
X214464580Y-190211961D01*
X214750295Y-190211961D01*
X214952676Y-190116723D01*
X215059819Y-190021485D01*
X216274104Y-190211961D02*
X216095533Y-190116723D01*
X216024104Y-189926247D01*
X216238390Y-188211961D01*
X217809819Y-190116723D02*
X217607438Y-190211961D01*
X217226485Y-190211961D01*
X217047914Y-190116723D01*
X216976485Y-189926247D01*
X217071723Y-189164342D01*
X217190771Y-188973866D01*
X217393152Y-188878628D01*
X217774104Y-188878628D01*
X217952676Y-188973866D01*
X218024104Y-189164342D01*
X218000295Y-189354819D01*
X217024104Y-189545295D01*
D10*
D11*
X178934342Y-185600057D02*
X178434342Y-185600057D01*
X178434342Y-186385771D02*
X178434342Y-184885771D01*
X179148628Y-184885771D01*
X179720057Y-186385771D02*
X179720057Y-185385771D01*
X179720057Y-184885771D02*
X179648628Y-184957200D01*
X179720057Y-185028628D01*
X179791485Y-184957200D01*
X179720057Y-184885771D01*
X179720057Y-185028628D01*
X180648628Y-186385771D02*
X180505771Y-186314342D01*
X180434342Y-186171485D01*
X180434342Y-184885771D01*
X181791485Y-186314342D02*
X181648628Y-186385771D01*
X181362914Y-186385771D01*
X181220057Y-186314342D01*
X181148628Y-186171485D01*
X181148628Y-185600057D01*
X181220057Y-185457200D01*
X181362914Y-185385771D01*
X181648628Y-185385771D01*
X181791485Y-185457200D01*
X181862914Y-185600057D01*
X181862914Y-185742914D01*
X181148628Y-185885771D01*
X182505771Y-186242914D02*
X182577200Y-186314342D01*
X182505771Y-186385771D01*
X182434342Y-186314342D01*
X182505771Y-186242914D01*
X182505771Y-186385771D01*
X182505771Y-185457200D02*
X182577200Y-185528628D01*
X182505771Y-185600057D01*
X182434342Y-185528628D01*
X182505771Y-185457200D01*
X182505771Y-185600057D01*
X184362914Y-186385771D02*
X184362914Y-184885771D01*
X184934342Y-184885771D01*
X185077200Y-184957200D01*
X185148628Y-185028628D01*
X185220057Y-185171485D01*
X185220057Y-185385771D01*
X185148628Y-185528628D01*
X185077200Y-185600057D01*
X184934342Y-185671485D01*
X184362914Y-185671485D01*
X186077200Y-186385771D02*
X185934342Y-186314342D01*
X185862914Y-186242914D01*
X185791485Y-186100057D01*
X185791485Y-185671485D01*
X185862914Y-185528628D01*
X185934342Y-185457200D01*
X186077200Y-185385771D01*
X186291485Y-185385771D01*
X186434342Y-185457200D01*
X186505771Y-185528628D01*
X186577200Y-185671485D01*
X186577200Y-186100057D01*
X186505771Y-186242914D01*
X186434342Y-186314342D01*
X186291485Y-186385771D01*
X186077200Y-186385771D01*
X187077200Y-185385771D02*
X187362914Y-186385771D01*
X187648628Y-185671485D01*
X187934342Y-186385771D01*
X188220057Y-185385771D01*
X189362914Y-186314342D02*
X189220057Y-186385771D01*
X188934342Y-186385771D01*
X188791485Y-186314342D01*
X188720057Y-186171485D01*
X188720057Y-185600057D01*
X188791485Y-185457200D01*
X188934342Y-185385771D01*
X189220057Y-185385771D01*
X189362914Y-185457200D01*
X189434342Y-185600057D01*
X189434342Y-185742914D01*
X188720057Y-185885771D01*
X190077200Y-186385771D02*
X190077200Y-185385771D01*
X190077200Y-185671485D02*
X190148628Y-185528628D01*
X190220057Y-185457200D01*
X190362914Y-185385771D01*
X190505771Y-185385771D01*
X190934342Y-186314342D02*
X191148628Y-186385771D01*
X191505771Y-186385771D01*
X191648628Y-186314342D01*
X191720057Y-186242914D01*
X191791485Y-186100057D01*
X191791485Y-185957200D01*
X191720057Y-185814342D01*
X191648628Y-185742914D01*
X191505771Y-185671485D01*
X191220057Y-185600057D01*
X191077200Y-185528628D01*
X191005771Y-185457200D01*
X190934342Y-185314342D01*
X190934342Y-185171485D01*
X191005771Y-185028628D01*
X191077200Y-184957200D01*
X191220057Y-184885771D01*
X191577200Y-184885771D01*
X191791485Y-184957200D01*
X193005771Y-186314342D02*
X192862914Y-186385771D01*
X192577200Y-186385771D01*
X192434342Y-186314342D01*
X192362914Y-186171485D01*
X192362914Y-185600057D01*
X192434342Y-185457200D01*
X192577200Y-185385771D01*
X192862914Y-185385771D01*
X193005771Y-185457200D01*
X193077200Y-185600057D01*
X193077200Y-185742914D01*
X192362914Y-185885771D01*
X193720057Y-185385771D02*
X193720057Y-186385771D01*
X193720057Y-185528628D02*
X193791485Y-185457200D01*
X193934342Y-185385771D01*
X194148628Y-185385771D01*
X194291485Y-185457200D01*
X194362914Y-185600057D01*
X194362914Y-186385771D01*
X195005771Y-186314342D02*
X195148628Y-186385771D01*
X195434342Y-186385771D01*
X195577200Y-186314342D01*
X195648628Y-186171485D01*
X195648628Y-186100057D01*
X195577200Y-185957200D01*
X195434342Y-185885771D01*
X195220057Y-185885771D01*
X195077200Y-185814342D01*
X195005771Y-185671485D01*
X195005771Y-185600057D01*
X195077200Y-185457200D01*
X195220057Y-185385771D01*
X195434342Y-185385771D01*
X195577200Y-185457200D01*
X196862914Y-186314342D02*
X196720057Y-186385771D01*
X196434342Y-186385771D01*
X196291485Y-186314342D01*
X196220057Y-186171485D01*
X196220057Y-185600057D01*
X196291485Y-185457200D01*
X196434342Y-185385771D01*
X196720057Y-185385771D01*
X196862914Y-185457200D01*
X196934342Y-185600057D01*
X196934342Y-185742914D01*
X196220057Y-185885771D01*
X197577200Y-186385771D02*
X197577200Y-184885771D01*
X198077200Y-185957200D01*
X198577200Y-184885771D01*
X198577200Y-186385771D01*
X199505771Y-186385771D02*
X199362914Y-186314342D01*
X199291485Y-186242914D01*
X199220057Y-186100057D01*
X199220057Y-185671485D01*
X199291485Y-185528628D01*
X199362914Y-185457200D01*
X199505771Y-185385771D01*
X199720057Y-185385771D01*
X199862914Y-185457200D01*
X199934342Y-185528628D01*
X200005771Y-185671485D01*
X200005771Y-186100057D01*
X199934342Y-186242914D01*
X199862914Y-186314342D01*
X199720057Y-186385771D01*
X199505771Y-186385771D01*
X201291485Y-186385771D02*
X201291485Y-184885771D01*
X201291485Y-186314342D02*
X201148628Y-186385771D01*
X200862914Y-186385771D01*
X200720057Y-186314342D01*
X200648628Y-186242914D01*
X200577200Y-186100057D01*
X200577200Y-185671485D01*
X200648628Y-185528628D01*
X200720057Y-185457200D01*
X200862914Y-185385771D01*
X201148628Y-185385771D01*
X201291485Y-185457200D01*
X202648628Y-185385771D02*
X202648628Y-186385771D01*
X202005771Y-185385771D02*
X202005771Y-186171485D01*
X202077200Y-186314342D01*
X202220057Y-186385771D01*
X202434342Y-186385771D01*
X202577200Y-186314342D01*
X202648628Y-186242914D01*
X203577200Y-186385771D02*
X203434342Y-186314342D01*
X203362914Y-186171485D01*
X203362914Y-184885771D01*
X204720057Y-186314342D02*
X204577200Y-186385771D01*
X204291485Y-186385771D01*
X204148628Y-186314342D01*
X204077200Y-186171485D01*
X204077200Y-185600057D01*
X204148628Y-185457200D01*
X204291485Y-185385771D01*
X204577200Y-185385771D01*
X204720057Y-185457200D01*
X204791485Y-185600057D01*
X204791485Y-185742914D01*
X204077200Y-185885771D01*
X205434342Y-186242914D02*
X205505771Y-186314342D01*
X205434342Y-186385771D01*
X205362914Y-186314342D01*
X205434342Y-186242914D01*
X205434342Y-186385771D01*
X206148628Y-186385771D02*
X206148628Y-184885771D01*
X206291485Y-185814342D02*
X206720057Y-186385771D01*
X206720057Y-185385771D02*
X206148628Y-185957200D01*
X207362914Y-186385771D02*
X207362914Y-185385771D01*
X207362914Y-184885771D02*
X207291485Y-184957200D01*
X207362914Y-185028628D01*
X207434342Y-184957200D01*
X207362914Y-184885771D01*
X207362914Y-185028628D01*
X208720057Y-186314342D02*
X208577200Y-186385771D01*
X208291485Y-186385771D01*
X208148628Y-186314342D01*
X208077200Y-186242914D01*
X208005771Y-186100057D01*
X208005771Y-185671485D01*
X208077200Y-185528628D01*
X208148628Y-185457200D01*
X208291485Y-185385771D01*
X208577200Y-185385771D01*
X208720057Y-185457200D01*
X210005771Y-186385771D02*
X210005771Y-185600057D01*
X209934342Y-185457200D01*
X209791485Y-185385771D01*
X209505771Y-185385771D01*
X209362914Y-185457200D01*
X210005771Y-186314342D02*
X209862914Y-186385771D01*
X209505771Y-186385771D01*
X209362914Y-186314342D01*
X209291485Y-186171485D01*
X209291485Y-186028628D01*
X209362914Y-185885771D01*
X209505771Y-185814342D01*
X209862914Y-185814342D01*
X210005771Y-185742914D01*
X211362914Y-186385771D02*
X211362914Y-184885771D01*
X211362914Y-186314342D02*
X211220057Y-186385771D01*
X210934342Y-186385771D01*
X210791485Y-186314342D01*
X210720057Y-186242914D01*
X210648628Y-186100057D01*
X210648628Y-185671485D01*
X210720057Y-185528628D01*
X210791485Y-185457200D01*
X210934342Y-185385771D01*
X211220057Y-185385771D01*
X211362914Y-185457200D01*
X211720057Y-186528628D02*
X212862914Y-186528628D01*
X213220057Y-185385771D02*
X213220057Y-186885771D01*
X213220057Y-185457200D02*
X213362914Y-185385771D01*
X213648628Y-185385771D01*
X213791485Y-185457200D01*
X213862914Y-185528628D01*
X213934342Y-185671485D01*
X213934342Y-186100057D01*
X213862914Y-186242914D01*
X213791485Y-186314342D01*
X213648628Y-186385771D01*
X213362914Y-186385771D01*
X213220057Y-186314342D01*
X215220057Y-186314342D02*
X215077200Y-186385771D01*
X214791485Y-186385771D01*
X214648628Y-186314342D01*
X214577200Y-186242914D01*
X214505771Y-186100057D01*
X214505771Y-185671485D01*
X214577200Y-185528628D01*
X214648628Y-185457200D01*
X214791485Y-185385771D01*
X215077200Y-185385771D01*
X215220057Y-185457200D01*
X215862914Y-186385771D02*
X215862914Y-184885771D01*
X215862914Y-185457200D02*
X216005771Y-185385771D01*
X216291485Y-185385771D01*
X216434342Y-185457200D01*
X216505771Y-185528628D01*
X216577200Y-185671485D01*
X216577200Y-186100057D01*
X216505771Y-186242914D01*
X216434342Y-186314342D01*
X216291485Y-186385771D01*
X216005771Y-186385771D01*
X215862914Y-186314342D01*
D10*
D11*
X177002200Y-181507200D02*
X285002200Y-181507200D01*
D10*
D11*
X178362914Y-183614342D02*
X178577200Y-183685771D01*
X178934342Y-183685771D01*
X179077200Y-183614342D01*
X179148628Y-183542914D01*
X179220057Y-183400057D01*
X179220057Y-183257200D01*
X179148628Y-183114342D01*
X179077200Y-183042914D01*
X178934342Y-182971485D01*
X178648628Y-182900057D01*
X178505771Y-182828628D01*
X178434342Y-182757200D01*
X178362914Y-182614342D01*
X178362914Y-182471485D01*
X178434342Y-182328628D01*
X178505771Y-182257200D01*
X178648628Y-182185771D01*
X179005771Y-182185771D01*
X179220057Y-182257200D01*
X179862914Y-183685771D02*
X179862914Y-182185771D01*
X180505771Y-183685771D02*
X180505771Y-182900057D01*
X180434342Y-182757200D01*
X180291485Y-182685771D01*
X180077200Y-182685771D01*
X179934342Y-182757200D01*
X179862914Y-182828628D01*
X181791485Y-183614342D02*
X181648628Y-183685771D01*
X181362914Y-183685771D01*
X181220057Y-183614342D01*
X181148628Y-183471485D01*
X181148628Y-182900057D01*
X181220057Y-182757200D01*
X181362914Y-182685771D01*
X181648628Y-182685771D01*
X181791485Y-182757200D01*
X181862914Y-182900057D01*
X181862914Y-183042914D01*
X181148628Y-183185771D01*
X183077200Y-183614342D02*
X182934342Y-183685771D01*
X182648628Y-183685771D01*
X182505771Y-183614342D01*
X182434342Y-183471485D01*
X182434342Y-182900057D01*
X182505771Y-182757200D01*
X182648628Y-182685771D01*
X182934342Y-182685771D01*
X183077200Y-182757200D01*
X183148628Y-182900057D01*
X183148628Y-183042914D01*
X182434342Y-183185771D01*
X183577200Y-182685771D02*
X184148628Y-182685771D01*
X183791485Y-182185771D02*
X183791485Y-183471485D01*
X183862914Y-183614342D01*
X184005771Y-183685771D01*
X184148628Y-183685771D01*
X184648628Y-183542914D02*
X184720057Y-183614342D01*
X184648628Y-183685771D01*
X184577200Y-183614342D01*
X184648628Y-183542914D01*
X184648628Y-183685771D01*
X184648628Y-182757200D02*
X184720057Y-182828628D01*
X184648628Y-182900057D01*
X184577200Y-182828628D01*
X184648628Y-182757200D01*
X184648628Y-182900057D01*
D10*
D12*
X178554342Y-179185771D02*
X178554342Y-180400057D01*
X178625771Y-180542914D01*
X178697200Y-180614342D01*
X178840057Y-180685771D01*
X179125771Y-180685771D01*
X179268628Y-180614342D01*
X179340057Y-180542914D01*
X179411485Y-180400057D01*
X179411485Y-179185771D01*
X180125771Y-179685771D02*
X180125771Y-180685771D01*
X180125771Y-179828628D02*
X180197200Y-179757200D01*
X180340057Y-179685771D01*
X180554342Y-179685771D01*
X180697200Y-179757200D01*
X180768628Y-179900057D01*
X180768628Y-180685771D01*
X181482914Y-180685771D02*
X181482914Y-179685771D01*
X181482914Y-179185771D02*
X181411485Y-179257200D01*
X181482914Y-179328628D01*
X181554342Y-179257200D01*
X181482914Y-179185771D01*
X181482914Y-179328628D01*
X182054342Y-179685771D02*
X182411485Y-180685771D01*
X182768628Y-179685771D01*
X183911485Y-180614342D02*
X183768628Y-180685771D01*
X183482914Y-180685771D01*
X183340057Y-180614342D01*
X183268628Y-180471485D01*
X183268628Y-179900057D01*
X183340057Y-179757200D01*
X183482914Y-179685771D01*
X183768628Y-179685771D01*
X183911485Y-179757200D01*
X183982914Y-179900057D01*
X183982914Y-180042914D01*
X183268628Y-180185771D01*
X184625771Y-180685771D02*
X184625771Y-179685771D01*
X184625771Y-179971485D02*
X184697200Y-179828628D01*
X184768628Y-179757200D01*
X184911485Y-179685771D01*
X185054342Y-179685771D01*
X185482914Y-180614342D02*
X185625771Y-180685771D01*
X185911485Y-180685771D01*
X186054342Y-180614342D01*
X186125771Y-180471485D01*
X186125771Y-180400057D01*
X186054342Y-180257200D01*
X185911485Y-180185771D01*
X185697200Y-180185771D01*
X185554342Y-180114342D01*
X185482914Y-179971485D01*
X185482914Y-179900057D01*
X185554342Y-179757200D01*
X185697200Y-179685771D01*
X185911485Y-179685771D01*
X186054342Y-179757200D01*
X186768628Y-180685771D02*
X186768628Y-179685771D01*
X186768628Y-179185771D02*
X186697200Y-179257200D01*
X186768628Y-179328628D01*
X186840057Y-179257200D01*
X186768628Y-179185771D01*
X186768628Y-179328628D01*
X187268628Y-179685771D02*
X187840057Y-179685771D01*
X187482914Y-179185771D02*
X187482914Y-180471485D01*
X187554342Y-180614342D01*
X187697200Y-180685771D01*
X187840057Y-180685771D01*
X188197200Y-179685771D02*
X188554342Y-180685771D01*
X188911485Y-179685771D02*
X188554342Y-180685771D01*
X188411485Y-181042914D01*
X188340057Y-181114342D01*
X188197200Y-181185771D01*
X190840057Y-180685771D02*
X190697200Y-180614342D01*
X190625771Y-180542914D01*
X190554342Y-180400057D01*
X190554342Y-179971485D01*
X190625771Y-179828628D01*
X190697200Y-179757200D01*
X190840057Y-179685771D01*
X191054342Y-179685771D01*
X191197200Y-179757200D01*
X191268628Y-179828628D01*
X191340057Y-179971485D01*
X191340057Y-180400057D01*
X191268628Y-180542914D01*
X191197200Y-180614342D01*
X191054342Y-180685771D01*
X190840057Y-180685771D01*
X191768628Y-179685771D02*
X192340057Y-179685771D01*
X191982914Y-180685771D02*
X191982914Y-179400057D01*
X192054342Y-179257200D01*
X192197200Y-179185771D01*
X192340057Y-179185771D01*
X194840057Y-180542914D02*
X194768628Y-180614342D01*
X194554342Y-180685771D01*
X194411485Y-180685771D01*
X194197200Y-180614342D01*
X194054342Y-180471485D01*
X193982914Y-180328628D01*
X193911485Y-180042914D01*
X193911485Y-179828628D01*
X193982914Y-179542914D01*
X194054342Y-179400057D01*
X194197200Y-179257200D01*
X194411485Y-179185771D01*
X194554342Y-179185771D01*
X194768628Y-179257200D01*
X194840057Y-179328628D01*
X196054342Y-180614342D02*
X195911485Y-180685771D01*
X195625771Y-180685771D01*
X195482914Y-180614342D01*
X195411485Y-180471485D01*
X195411485Y-179900057D01*
X195482914Y-179757200D01*
X195625771Y-179685771D01*
X195911485Y-179685771D01*
X196054342Y-179757200D01*
X196125771Y-179900057D01*
X196125771Y-180042914D01*
X195411485Y-180185771D01*
X196768628Y-179685771D02*
X196768628Y-180685771D01*
X196768628Y-179828628D02*
X196840057Y-179757200D01*
X196982914Y-179685771D01*
X197197200Y-179685771D01*
X197340057Y-179757200D01*
X197411485Y-179900057D01*
X197411485Y-180685771D01*
X197911485Y-179685771D02*
X198482914Y-179685771D01*
X198125771Y-179185771D02*
X198125771Y-180471485D01*
X198197200Y-180614342D01*
X198340057Y-180685771D01*
X198482914Y-180685771D01*
X198982914Y-180685771D02*
X198982914Y-179685771D01*
X198982914Y-179971485D02*
X199054342Y-179828628D01*
X199125771Y-179757200D01*
X199268628Y-179685771D01*
X199411485Y-179685771D01*
X200554342Y-180685771D02*
X200554342Y-179900057D01*
X200482914Y-179757200D01*
X200340057Y-179685771D01*
X200054342Y-179685771D01*
X199911485Y-179757200D01*
X200554342Y-180614342D02*
X200411485Y-180685771D01*
X200054342Y-180685771D01*
X199911485Y-180614342D01*
X199840057Y-180471485D01*
X199840057Y-180328628D01*
X199911485Y-180185771D01*
X200054342Y-180114342D01*
X200411485Y-180114342D01*
X200554342Y-180042914D01*
X201482914Y-180685771D02*
X201340057Y-180614342D01*
X201268628Y-180471485D01*
X201268628Y-179185771D01*
X203697200Y-179900057D02*
X203197200Y-179900057D01*
X203197200Y-180685771D02*
X203197200Y-179185771D01*
X203911485Y-179185771D01*
X204697200Y-180685771D02*
X204554342Y-180614342D01*
X204482914Y-180471485D01*
X204482914Y-179185771D01*
X205482914Y-180685771D02*
X205340057Y-180614342D01*
X205268628Y-180542914D01*
X205197200Y-180400057D01*
X205197200Y-179971485D01*
X205268628Y-179828628D01*
X205340057Y-179757200D01*
X205482914Y-179685771D01*
X205697200Y-179685771D01*
X205840057Y-179757200D01*
X205911485Y-179828628D01*
X205982914Y-179971485D01*
X205982914Y-180400057D01*
X205911485Y-180542914D01*
X205840057Y-180614342D01*
X205697200Y-180685771D01*
X205482914Y-180685771D01*
X206625771Y-180685771D02*
X206625771Y-179685771D01*
X206625771Y-179971485D02*
X206697200Y-179828628D01*
X206768628Y-179757200D01*
X206911485Y-179685771D01*
X207054342Y-179685771D01*
X207554342Y-180685771D02*
X207554342Y-179685771D01*
X207554342Y-179185771D02*
X207482914Y-179257200D01*
X207554342Y-179328628D01*
X207625771Y-179257200D01*
X207554342Y-179185771D01*
X207554342Y-179328628D01*
X208911485Y-180685771D02*
X208911485Y-179185771D01*
X208911485Y-180614342D02*
X208768628Y-180685771D01*
X208482914Y-180685771D01*
X208340057Y-180614342D01*
X208268628Y-180542914D01*
X208197200Y-180400057D01*
X208197200Y-179971485D01*
X208268628Y-179828628D01*
X208340057Y-179757200D01*
X208482914Y-179685771D01*
X208768628Y-179685771D01*
X208911485Y-179757200D01*
X210268628Y-180685771D02*
X210268628Y-179900057D01*
X210197200Y-179757200D01*
X210054342Y-179685771D01*
X209768628Y-179685771D01*
X209625771Y-179757200D01*
X210268628Y-180614342D02*
X210125771Y-180685771D01*
X209768628Y-180685771D01*
X209625771Y-180614342D01*
X209554342Y-180471485D01*
X209554342Y-180328628D01*
X209625771Y-180185771D01*
X209768628Y-180114342D01*
X210125771Y-180114342D01*
X210268628Y-180042914D01*
X212125771Y-180114342D02*
X213268628Y-180114342D01*
X215125771Y-180685771D02*
X215125771Y-179185771D01*
X215125771Y-179900057D02*
X215982914Y-179900057D01*
X215982914Y-180685771D02*
X215982914Y-179185771D01*
X216697200Y-180685771D02*
X216697200Y-179185771D01*
X217554342Y-180685771D02*
X216911485Y-179828628D01*
X217554342Y-179185771D02*
X216697200Y-180042914D01*
X218197200Y-180685771D02*
X218197200Y-179185771D01*
X219054342Y-180685771D01*
X219054342Y-179185771D01*
X220768628Y-179185771D02*
X221768628Y-179185771D01*
X220768628Y-180685771D01*
X221768628Y-180685771D01*
X222911485Y-180614342D02*
X222768628Y-180685771D01*
X222482914Y-180685771D01*
X222340057Y-180614342D01*
X222268628Y-180471485D01*
X222268628Y-179900057D01*
X222340057Y-179757200D01*
X222482914Y-179685771D01*
X222768628Y-179685771D01*
X222911485Y-179757200D01*
X222982914Y-179900057D01*
X222982914Y-180042914D01*
X222268628Y-180185771D01*
X223411485Y-179685771D02*
X223982914Y-179685771D01*
X223625771Y-179185771D02*
X223625771Y-180471485D01*
X223697200Y-180614342D01*
X223840057Y-180685771D01*
X223982914Y-180685771D01*
X225125771Y-180685771D02*
X225125771Y-179900057D01*
X225054342Y-179757200D01*
X224911485Y-179685771D01*
X224625771Y-179685771D01*
X224482914Y-179757200D01*
X225125771Y-180614342D02*
X224982914Y-180685771D01*
X224625771Y-180685771D01*
X224482914Y-180614342D01*
X224411485Y-180471485D01*
X224411485Y-180328628D01*
X224482914Y-180185771D01*
X224625771Y-180114342D01*
X224982914Y-180114342D01*
X225125771Y-180042914D01*
X227840057Y-180542914D02*
X227768628Y-180614342D01*
X227554342Y-180685771D01*
X227411485Y-180685771D01*
X227197200Y-180614342D01*
X227054342Y-180471485D01*
X226982914Y-180328628D01*
X226911485Y-180042914D01*
X226911485Y-179828628D01*
X226982914Y-179542914D01*
X227054342Y-179400057D01*
X227197200Y-179257200D01*
X227411485Y-179185771D01*
X227554342Y-179185771D01*
X227768628Y-179257200D01*
X227840057Y-179328628D01*
X228482914Y-180685771D02*
X228482914Y-179185771D01*
X229125771Y-180685771D02*
X229125771Y-179900057D01*
X229054342Y-179757200D01*
X228911485Y-179685771D01*
X228697200Y-179685771D01*
X228554342Y-179757200D01*
X228482914Y-179828628D01*
X229840057Y-180685771D02*
X229840057Y-179685771D01*
X229840057Y-179185771D02*
X229768628Y-179257200D01*
X229840057Y-179328628D01*
X229911485Y-179257200D01*
X229840057Y-179185771D01*
X229840057Y-179328628D01*
D10*
D11*
X197002200Y-191507200D02*
X197002200Y-194507200D01*
D10*
D11*
X261002200Y-191507200D02*
X261002200Y-198007200D01*
X191962380Y-97300952D02*
X190962380Y-97300952D01*
X190962380Y-96920000D01*
X191010000Y-96824761D01*
X191057619Y-96777142D01*
X191152857Y-96729523D01*
X191295714Y-96729523D01*
X191390952Y-96777142D01*
X191438571Y-96824761D01*
X191486190Y-96920000D01*
X191486190Y-97300952D01*
X191962380Y-96300952D02*
X191295714Y-96300952D01*
X191486190Y-96300952D02*
X191390952Y-96253333D01*
X191343333Y-96205714D01*
X191295714Y-96110476D01*
X191295714Y-96015238D01*
X191962380Y-95539047D02*
X191914761Y-95634285D01*
X191867142Y-95681904D01*
X191771904Y-95729523D01*
X191486190Y-95729523D01*
X191390952Y-95681904D01*
X191343333Y-95634285D01*
X191295714Y-95539047D01*
X191295714Y-95396190D01*
X191343333Y-95300952D01*
X191390952Y-95253333D01*
X191486190Y-95205714D01*
X191771904Y-95205714D01*
X191867142Y-95253333D01*
X191914761Y-95300952D01*
X191962380Y-95396190D01*
X191962380Y-95539047D01*
X191295714Y-94348571D02*
X192105238Y-94348571D01*
X192200476Y-94396190D01*
X192248095Y-94443809D01*
X192295714Y-94539047D01*
X192295714Y-94681904D01*
X192248095Y-94777142D01*
X191914761Y-94348571D02*
X191962380Y-94443809D01*
X191962380Y-94634285D01*
X191914761Y-94729523D01*
X191867142Y-94777142D01*
X191771904Y-94824761D01*
X191486190Y-94824761D01*
X191390952Y-94777142D01*
X191343333Y-94729523D01*
X191295714Y-94634285D01*
X191295714Y-94443809D01*
X191343333Y-94348571D01*
X191962380Y-93872380D02*
X191295714Y-93872380D01*
X191486190Y-93872380D02*
X191390952Y-93824761D01*
X191343333Y-93777142D01*
X191295714Y-93681904D01*
X191295714Y-93586666D01*
X191962380Y-92824761D02*
X191438571Y-92824761D01*
X191343333Y-92872380D01*
X191295714Y-92967619D01*
X191295714Y-93158095D01*
X191343333Y-93253333D01*
X191914761Y-92824761D02*
X191962380Y-92920000D01*
X191962380Y-93158095D01*
X191914761Y-93253333D01*
X191819523Y-93300952D01*
X191724285Y-93300952D01*
X191629047Y-93253333D01*
X191581428Y-93158095D01*
X191581428Y-92920000D01*
X191533809Y-92824761D01*
X191962380Y-92348571D02*
X191295714Y-92348571D01*
X191390952Y-92348571D02*
X191343333Y-92300952D01*
X191295714Y-92205714D01*
X191295714Y-92062857D01*
X191343333Y-91967619D01*
X191438571Y-91920000D01*
X191962380Y-91920000D01*
X191438571Y-91920000D02*
X191343333Y-91872380D01*
X191295714Y-91777142D01*
X191295714Y-91634285D01*
X191343333Y-91539047D01*
X191438571Y-91491428D01*
X191962380Y-91491428D01*
X191962380Y-90253333D02*
X190962380Y-90253333D01*
X191438571Y-90253333D02*
X191438571Y-89681904D01*
X191962380Y-89681904D02*
X190962380Y-89681904D01*
X191914761Y-88824761D02*
X191962380Y-88920000D01*
X191962380Y-89110476D01*
X191914761Y-89205714D01*
X191819523Y-89253333D01*
X191438571Y-89253333D01*
X191343333Y-89205714D01*
X191295714Y-89110476D01*
X191295714Y-88920000D01*
X191343333Y-88824761D01*
X191438571Y-88777142D01*
X191533809Y-88777142D01*
X191629047Y-89253333D01*
X191962380Y-87920000D02*
X191438571Y-87920000D01*
X191343333Y-87967619D01*
X191295714Y-88062857D01*
X191295714Y-88253333D01*
X191343333Y-88348571D01*
X191914761Y-87920000D02*
X191962380Y-88015238D01*
X191962380Y-88253333D01*
X191914761Y-88348571D01*
X191819523Y-88396190D01*
X191724285Y-88396190D01*
X191629047Y-88348571D01*
X191581428Y-88253333D01*
X191581428Y-88015238D01*
X191533809Y-87920000D01*
X191962380Y-87015238D02*
X190962380Y-87015238D01*
X191914761Y-87015238D02*
X191962380Y-87110476D01*
X191962380Y-87300952D01*
X191914761Y-87396190D01*
X191867142Y-87443809D01*
X191771904Y-87491428D01*
X191486190Y-87491428D01*
X191390952Y-87443809D01*
X191343333Y-87396190D01*
X191295714Y-87300952D01*
X191295714Y-87110476D01*
X191343333Y-87015238D01*
X191914761Y-86158095D02*
X191962380Y-86253333D01*
X191962380Y-86443809D01*
X191914761Y-86539047D01*
X191819523Y-86586666D01*
X191438571Y-86586666D01*
X191343333Y-86539047D01*
X191295714Y-86443809D01*
X191295714Y-86253333D01*
X191343333Y-86158095D01*
X191438571Y-86110476D01*
X191533809Y-86110476D01*
X191629047Y-86586666D01*
X191962380Y-85681904D02*
X191295714Y-85681904D01*
X191486190Y-85681904D02*
X191390952Y-85634285D01*
X191343333Y-85586666D01*
X191295714Y-85491428D01*
X191295714Y-85396190D01*
D14*
X156526666Y-116253333D02*
X156526666Y-112753333D01*
X157860000Y-112753333D01*
X158193333Y-112920000D01*
X158360000Y-113086666D01*
X158526666Y-113420000D01*
X158526666Y-113920000D01*
X158360000Y-114253333D01*
X158193333Y-114420000D01*
X157860000Y-114586666D01*
X156526666Y-114586666D01*
X160526666Y-116253333D02*
X160193333Y-116086666D01*
X160026666Y-115920000D01*
X159860000Y-115586666D01*
X159860000Y-114586666D01*
X160026666Y-114253333D01*
X160193333Y-114086666D01*
X160526666Y-113920000D01*
X161026666Y-113920000D01*
X161360000Y-114086666D01*
X161526666Y-114253333D01*
X161693333Y-114586666D01*
X161693333Y-115586666D01*
X161526666Y-115920000D01*
X161360000Y-116086666D01*
X161026666Y-116253333D01*
X160526666Y-116253333D01*
X162860000Y-113920000D02*
X163526666Y-116253333D01*
X164193333Y-114586666D01*
X164860000Y-116253333D01*
X165526666Y-113920000D01*
X168193333Y-116086666D02*
X167860000Y-116253333D01*
X167193333Y-116253333D01*
X166860000Y-116086666D01*
X166693333Y-115753333D01*
X166693333Y-114420000D01*
X166860000Y-114086666D01*
X167193333Y-113920000D01*
X167860000Y-113920000D01*
X168193333Y-114086666D01*
X168360000Y-114420000D01*
X168360000Y-114753333D01*
X166693333Y-115086666D01*
X169860000Y-116253333D02*
X169860000Y-113920000D01*
X169860000Y-114586666D02*
X170026666Y-114253333D01*
X170193333Y-114086666D01*
X170526666Y-113920000D01*
X170860000Y-113920000D01*
X174526666Y-116086666D02*
X175026666Y-116253333D01*
X175860000Y-116253333D01*
X176193333Y-116086666D01*
X176360000Y-115920000D01*
X176526666Y-115586666D01*
X176526666Y-115253333D01*
X176360000Y-114920000D01*
X176193333Y-114753333D01*
X175860000Y-114586666D01*
X175193333Y-114420000D01*
X174860000Y-114253333D01*
X174693333Y-114086666D01*
X174526666Y-113753333D01*
X174526666Y-113420000D01*
X174693333Y-113086666D01*
X174860000Y-112920000D01*
X175193333Y-112753333D01*
X176026666Y-112753333D01*
X176526666Y-112920000D01*
X179360000Y-116086666D02*
X179026666Y-116253333D01*
X178360000Y-116253333D01*
X178026666Y-116086666D01*
X177860000Y-115753333D01*
X177860000Y-114420000D01*
X178026666Y-114086666D01*
X178360000Y-113920000D01*
X179026666Y-113920000D01*
X179360000Y-114086666D01*
X179526666Y-114420000D01*
X179526666Y-114753333D01*
X177860000Y-115086666D01*
X181026666Y-113920000D02*
X181026666Y-116253333D01*
X181026666Y-114253333D02*
X181193333Y-114086666D01*
X181526666Y-113920000D01*
X182026666Y-113920000D01*
X182360000Y-114086666D01*
X182526666Y-114420000D01*
X182526666Y-116253333D01*
X184026666Y-116086666D02*
X184360000Y-116253333D01*
X185026666Y-116253333D01*
X185360000Y-116086666D01*
X185526666Y-115753333D01*
X185526666Y-115586666D01*
X185360000Y-115253333D01*
X185026666Y-115086666D01*
X184526666Y-115086666D01*
X184193333Y-114920000D01*
X184026666Y-114586666D01*
X184026666Y-114420000D01*
X184193333Y-114086666D01*
X184526666Y-113920000D01*
X185026666Y-113920000D01*
X185360000Y-114086666D01*
X187526666Y-116253333D02*
X187193333Y-116086666D01*
X187026666Y-115920000D01*
X186860000Y-115586666D01*
X186860000Y-114586666D01*
X187026666Y-114253333D01*
X187193333Y-114086666D01*
X187526666Y-113920000D01*
X188026666Y-113920000D01*
X188360000Y-114086666D01*
X188526666Y-114253333D01*
X188693333Y-114586666D01*
X188693333Y-115586666D01*
X188526666Y-115920000D01*
X188360000Y-116086666D01*
X188026666Y-116253333D01*
X187526666Y-116253333D01*
X190193333Y-116253333D02*
X190193333Y-113920000D01*
X190193333Y-114586666D02*
X190360000Y-114253333D01*
X190526666Y-114086666D01*
X190860000Y-113920000D01*
X191193333Y-113920000D01*
D11*
X170667142Y-119622380D02*
X170333809Y-119146190D01*
X170095714Y-119622380D02*
X170095714Y-118622380D01*
X170476666Y-118622380D01*
X170571904Y-118670000D01*
X170619523Y-118717619D01*
X170667142Y-118812857D01*
X170667142Y-118955714D01*
X170619523Y-119050952D01*
X170571904Y-119098571D01*
X170476666Y-119146190D01*
X170095714Y-119146190D01*
X171095714Y-119098571D02*
X171429047Y-119098571D01*
X171571904Y-119622380D02*
X171095714Y-119622380D01*
X171095714Y-118622380D01*
X171571904Y-118622380D01*
X171857619Y-118622380D02*
X172190952Y-119622380D01*
X172524285Y-118622380D01*
X174143333Y-119622380D02*
X173571904Y-119622380D01*
X173857619Y-119622380D02*
X173857619Y-118622380D01*
X173762380Y-118765238D01*
X173667142Y-118860476D01*
X173571904Y-118908095D01*
X174571904Y-119527142D02*
X174619523Y-119574761D01*
X174571904Y-119622380D01*
X174524285Y-119574761D01*
X174571904Y-119527142D01*
X174571904Y-119622380D01*
X175238571Y-118622380D02*
X175333809Y-118622380D01*
X175429047Y-118670000D01*
X175476666Y-118717619D01*
X175524285Y-118812857D01*
X175571904Y-119003333D01*
X175571904Y-119241428D01*
X175524285Y-119431904D01*
X175476666Y-119527142D01*
X175429047Y-119574761D01*
X175333809Y-119622380D01*
X175238571Y-119622380D01*
X175143333Y-119574761D01*
X175095714Y-119527142D01*
X175048095Y-119431904D01*
X175000476Y-119241428D01*
X175000476Y-119003333D01*
X175048095Y-118812857D01*
X175095714Y-118717619D01*
X175143333Y-118670000D01*
X175238571Y-118622380D01*
X190287380Y-107470000D02*
X189287380Y-107470000D01*
X189620714Y-106993809D02*
X190287380Y-106993809D01*
X189715952Y-106993809D02*
X189668333Y-106946190D01*
X189620714Y-106850952D01*
X189620714Y-106708095D01*
X189668333Y-106612857D01*
X189763571Y-106565238D01*
X190287380Y-106565238D01*
X190239761Y-106136666D02*
X190287380Y-106041428D01*
X190287380Y-105850952D01*
X190239761Y-105755714D01*
X190144523Y-105708095D01*
X190096904Y-105708095D01*
X190001666Y-105755714D01*
X189954047Y-105850952D01*
X189954047Y-105993809D01*
X189906428Y-106089047D01*
X189811190Y-106136666D01*
X189763571Y-106136666D01*
X189668333Y-106089047D01*
X189620714Y-105993809D01*
X189620714Y-105850952D01*
X189668333Y-105755714D01*
X190239761Y-104898571D02*
X190287380Y-104993809D01*
X190287380Y-105184285D01*
X190239761Y-105279523D01*
X190144523Y-105327142D01*
X189763571Y-105327142D01*
X189668333Y-105279523D01*
X189620714Y-105184285D01*
X189620714Y-104993809D01*
X189668333Y-104898571D01*
X189763571Y-104850952D01*
X189858809Y-104850952D01*
X189954047Y-105327142D01*
X190287380Y-104422380D02*
X189620714Y-104422380D01*
X189811190Y-104422380D02*
X189715952Y-104374761D01*
X189668333Y-104327142D01*
X189620714Y-104231904D01*
X189620714Y-104136666D01*
X189620714Y-103946190D02*
X189620714Y-103565238D01*
X189287380Y-103803333D02*
X190144523Y-103803333D01*
X190239761Y-103755714D01*
X190287380Y-103660476D01*
X190287380Y-103565238D01*
X189620714Y-102612857D02*
X189620714Y-102231904D01*
X189287380Y-102470000D02*
X190144523Y-102470000D01*
X190239761Y-102422380D01*
X190287380Y-102327142D01*
X190287380Y-102231904D01*
X190287380Y-101755714D02*
X190239761Y-101850952D01*
X190192142Y-101898571D01*
X190096904Y-101946190D01*
X189811190Y-101946190D01*
X189715952Y-101898571D01*
X189668333Y-101850952D01*
X189620714Y-101755714D01*
X189620714Y-101612857D01*
X189668333Y-101517619D01*
X189715952Y-101470000D01*
X189811190Y-101422380D01*
X190096904Y-101422380D01*
X190192142Y-101470000D01*
X190239761Y-101517619D01*
X190287380Y-101612857D01*
X190287380Y-101755714D01*
X191270714Y-106112857D02*
X192270714Y-106112857D01*
X191318333Y-106112857D02*
X191270714Y-106017619D01*
X191270714Y-105827142D01*
X191318333Y-105731904D01*
X191365952Y-105684285D01*
X191461190Y-105636666D01*
X191746904Y-105636666D01*
X191842142Y-105684285D01*
X191889761Y-105731904D01*
X191937380Y-105827142D01*
X191937380Y-106017619D01*
X191889761Y-106112857D01*
X191937380Y-105208095D02*
X191270714Y-105208095D01*
X191461190Y-105208095D02*
X191365952Y-105160476D01*
X191318333Y-105112857D01*
X191270714Y-105017619D01*
X191270714Y-104922380D01*
X191270714Y-104160476D02*
X192080238Y-104160476D01*
X192175476Y-104208095D01*
X192223095Y-104255714D01*
X192270714Y-104350952D01*
X192270714Y-104493809D01*
X192223095Y-104589047D01*
X191889761Y-104160476D02*
X191937380Y-104255714D01*
X191937380Y-104446190D01*
X191889761Y-104541428D01*
X191842142Y-104589047D01*
X191746904Y-104636666D01*
X191461190Y-104636666D01*
X191365952Y-104589047D01*
X191318333Y-104541428D01*
X191270714Y-104446190D01*
X191270714Y-104255714D01*
X191318333Y-104160476D01*
X191937380Y-103684285D02*
X191270714Y-103684285D01*
X191365952Y-103684285D02*
X191318333Y-103636666D01*
X191270714Y-103541428D01*
X191270714Y-103398571D01*
X191318333Y-103303333D01*
X191413571Y-103255714D01*
X191937380Y-103255714D01*
X191413571Y-103255714D02*
X191318333Y-103208095D01*
X191270714Y-103112857D01*
X191270714Y-102970000D01*
X191318333Y-102874761D01*
X191413571Y-102827142D01*
X191937380Y-102827142D01*
X188936190Y-81474761D02*
X189079047Y-81522380D01*
X189317142Y-81522380D01*
X189412380Y-81474761D01*
X189460000Y-81427142D01*
X189507619Y-81331904D01*
X189507619Y-81236666D01*
X189460000Y-81141428D01*
X189412380Y-81093809D01*
X189317142Y-81046190D01*
X189126666Y-80998571D01*
X189031428Y-80950952D01*
X188983809Y-80903333D01*
X188936190Y-80808095D01*
X188936190Y-80712857D01*
X188983809Y-80617619D01*
X189031428Y-80570000D01*
X189126666Y-80522380D01*
X189364761Y-80522380D01*
X189507619Y-80570000D01*
X189793333Y-80855714D02*
X190174285Y-80855714D01*
X189936190Y-80522380D02*
X189936190Y-81379523D01*
X189983809Y-81474761D01*
X190079047Y-81522380D01*
X190174285Y-81522380D01*
X190936190Y-81522380D02*
X190936190Y-80998571D01*
X190888571Y-80903333D01*
X190793333Y-80855714D01*
X190602857Y-80855714D01*
X190507619Y-80903333D01*
X190936190Y-81474761D02*
X190840952Y-81522380D01*
X190602857Y-81522380D01*
X190507619Y-81474761D01*
X190460000Y-81379523D01*
X190460000Y-81284285D01*
X190507619Y-81189047D01*
X190602857Y-81141428D01*
X190840952Y-81141428D01*
X190936190Y-81093809D01*
X191269523Y-80855714D02*
X191650476Y-80855714D01*
X191412380Y-80522380D02*
X191412380Y-81379523D01*
X191460000Y-81474761D01*
X191555238Y-81522380D01*
X191650476Y-81522380D01*
X192412380Y-80855714D02*
X192412380Y-81522380D01*
X191983809Y-80855714D02*
X191983809Y-81379523D01*
X192031428Y-81474761D01*
X192126666Y-81522380D01*
X192269523Y-81522380D01*
X192364761Y-81474761D01*
X192412380Y-81427142D01*
X192840952Y-81474761D02*
X192936190Y-81522380D01*
X193126666Y-81522380D01*
X193221904Y-81474761D01*
X193269523Y-81379523D01*
X193269523Y-81331904D01*
X193221904Y-81236666D01*
X193126666Y-81189047D01*
X192983809Y-81189047D01*
X192888571Y-81141428D01*
X192840952Y-81046190D01*
X192840952Y-80998571D01*
X192888571Y-80903333D01*
X192983809Y-80855714D01*
X193126666Y-80855714D01*
X193221904Y-80903333D01*
X194412380Y-80617619D02*
X194460000Y-80570000D01*
X194555238Y-80522380D01*
X194793333Y-80522380D01*
X194888571Y-80570000D01*
X194936190Y-80617619D01*
X194983809Y-80712857D01*
X194983809Y-80808095D01*
X194936190Y-80950952D01*
X194364761Y-81522380D01*
X194983809Y-81522380D01*
X188936190Y-76374761D02*
X189079047Y-76422380D01*
X189317142Y-76422380D01*
X189412380Y-76374761D01*
X189460000Y-76327142D01*
X189507619Y-76231904D01*
X189507619Y-76136666D01*
X189460000Y-76041428D01*
X189412380Y-75993809D01*
X189317142Y-75946190D01*
X189126666Y-75898571D01*
X189031428Y-75850952D01*
X188983809Y-75803333D01*
X188936190Y-75708095D01*
X188936190Y-75612857D01*
X188983809Y-75517619D01*
X189031428Y-75470000D01*
X189126666Y-75422380D01*
X189364761Y-75422380D01*
X189507619Y-75470000D01*
X189793333Y-75755714D02*
X190174285Y-75755714D01*
X189936190Y-75422380D02*
X189936190Y-76279523D01*
X189983809Y-76374761D01*
X190079047Y-76422380D01*
X190174285Y-76422380D01*
X190936190Y-76422380D02*
X190936190Y-75898571D01*
X190888571Y-75803333D01*
X190793333Y-75755714D01*
X190602857Y-75755714D01*
X190507619Y-75803333D01*
X190936190Y-76374761D02*
X190840952Y-76422380D01*
X190602857Y-76422380D01*
X190507619Y-76374761D01*
X190460000Y-76279523D01*
X190460000Y-76184285D01*
X190507619Y-76089047D01*
X190602857Y-76041428D01*
X190840952Y-76041428D01*
X190936190Y-75993809D01*
X191269523Y-75755714D02*
X191650476Y-75755714D01*
X191412380Y-75422380D02*
X191412380Y-76279523D01*
X191460000Y-76374761D01*
X191555238Y-76422380D01*
X191650476Y-76422380D01*
X192412380Y-75755714D02*
X192412380Y-76422380D01*
X191983809Y-75755714D02*
X191983809Y-76279523D01*
X192031428Y-76374761D01*
X192126666Y-76422380D01*
X192269523Y-76422380D01*
X192364761Y-76374761D01*
X192412380Y-76327142D01*
X192840952Y-76374761D02*
X192936190Y-76422380D01*
X193126666Y-76422380D01*
X193221904Y-76374761D01*
X193269523Y-76279523D01*
X193269523Y-76231904D01*
X193221904Y-76136666D01*
X193126666Y-76089047D01*
X192983809Y-76089047D01*
X192888571Y-76041428D01*
X192840952Y-75946190D01*
X192840952Y-75898571D01*
X192888571Y-75803333D01*
X192983809Y-75755714D01*
X193126666Y-75755714D01*
X193221904Y-75803333D01*
X194983809Y-76422380D02*
X194412380Y-76422380D01*
X194698095Y-76422380D02*
X194698095Y-75422380D01*
X194602857Y-75565238D01*
X194507619Y-75660476D01*
X194412380Y-75708095D01*
D15*
X130461000Y-68009000D02*
G75*
G03X130461000Y-68009000I-381000J0D01*
G01*
X93504000Y-111874800D02*
X133255000Y-111874800D01*
X93504000Y-68821800D02*
X93504000Y-111874800D01*
X133255000Y-68821800D02*
X93504000Y-68821800D01*
X133255000Y-111874800D02*
X133255000Y-68821800D01*
D16*
G36*
X147904639Y-111251051D02*
G01*
X147991998Y-111284423D01*
X148076097Y-111364885D01*
X148182924Y-111512764D01*
X148239078Y-111597222D01*
X148471644Y-111950000D01*
X148472156Y-111597222D01*
X148472667Y-111244444D01*
X148924222Y-111244444D01*
X148924222Y-112881333D01*
X148740330Y-112881333D01*
X148640404Y-112871264D01*
X148555900Y-112828099D01*
X148464109Y-112732396D01*
X148342323Y-112564716D01*
X148302885Y-112506844D01*
X148049334Y-112132355D01*
X148032643Y-112506844D01*
X148015953Y-112881333D01*
X147569556Y-112881333D01*
X147569556Y-111244444D01*
X147788034Y-111244444D01*
X147904639Y-111251051D01*
X147904639Y-111251051D01*
G37*
X147904639Y-111251051D02*
X147991998Y-111284423D01*
X148076097Y-111364885D01*
X148182924Y-111512764D01*
X148239078Y-111597222D01*
X148471644Y-111950000D01*
X148472156Y-111597222D01*
X148472667Y-111244444D01*
X148924222Y-111244444D01*
X148924222Y-112881333D01*
X148740330Y-112881333D01*
X148640404Y-112871264D01*
X148555900Y-112828099D01*
X148464109Y-112732396D01*
X148342323Y-112564716D01*
X148302885Y-112506844D01*
X148049334Y-112132355D01*
X148032643Y-112506844D01*
X148015953Y-112881333D01*
X147569556Y-112881333D01*
X147569556Y-111244444D01*
X147788034Y-111244444D01*
X147904639Y-111251051D01*
G36*
X146498430Y-111540778D02*
G01*
X146499748Y-111837111D01*
X146653652Y-111554889D01*
X146748728Y-111392766D01*
X146829621Y-111305951D01*
X146931070Y-111268015D01*
X147047445Y-111255310D01*
X147193741Y-111250779D01*
X147278685Y-111259863D01*
X147287334Y-111266937D01*
X147260880Y-111327309D01*
X147192317Y-111454111D01*
X147118000Y-111583111D01*
X147026790Y-111746613D01*
X146965314Y-111873680D01*
X146948667Y-111925871D01*
X146972428Y-112002134D01*
X147034363Y-112145714D01*
X147110639Y-112304387D01*
X147202886Y-112495790D01*
X147277402Y-112663769D01*
X147311998Y-112754333D01*
X147327023Y-112831604D01*
X147292010Y-112868858D01*
X147181821Y-112880552D01*
X147091185Y-112881333D01*
X146830984Y-112881333D01*
X146664092Y-112528555D01*
X146497200Y-112175778D01*
X146497156Y-112528555D01*
X146497111Y-112881333D01*
X146045556Y-112881333D01*
X146045556Y-111244444D01*
X146497111Y-111244444D01*
X146498430Y-111540778D01*
X146498430Y-111540778D01*
G37*
X146498430Y-111540778D02*
X146499748Y-111837111D01*
X146653652Y-111554889D01*
X146748728Y-111392766D01*
X146829621Y-111305951D01*
X146931070Y-111268015D01*
X147047445Y-111255310D01*
X147193741Y-111250779D01*
X147278685Y-111259863D01*
X147287334Y-111266937D01*
X147260880Y-111327309D01*
X147192317Y-111454111D01*
X147118000Y-111583111D01*
X147026790Y-111746613D01*
X146965314Y-111873680D01*
X146948667Y-111925871D01*
X146972428Y-112002134D01*
X147034363Y-112145714D01*
X147110639Y-112304387D01*
X147202886Y-112495790D01*
X147277402Y-112663769D01*
X147311998Y-112754333D01*
X147327023Y-112831604D01*
X147292010Y-112868858D01*
X147181821Y-112880552D01*
X147091185Y-112881333D01*
X146830984Y-112881333D01*
X146664092Y-112528555D01*
X146497200Y-112175778D01*
X146497156Y-112528555D01*
X146497111Y-112881333D01*
X146045556Y-112881333D01*
X146045556Y-111244444D01*
X146497111Y-111244444D01*
X146498430Y-111540778D01*
G36*
X144803778Y-111526666D02*
G01*
X144807477Y-111693735D01*
X144830224Y-111777046D01*
X144889490Y-111805720D01*
X144973111Y-111808889D01*
X145073352Y-111802723D01*
X145123339Y-111764811D01*
X145140543Y-111666035D01*
X145142445Y-111526666D01*
X145142445Y-111244444D01*
X145706889Y-111244444D01*
X145706889Y-112881333D01*
X145142445Y-112881333D01*
X145142445Y-112204000D01*
X144803778Y-112204000D01*
X144803778Y-112881333D01*
X144295778Y-112881333D01*
X144295778Y-111244444D01*
X144803778Y-111244444D01*
X144803778Y-111526666D01*
X144803778Y-111526666D01*
G37*
X144803778Y-111526666D02*
X144807477Y-111693735D01*
X144830224Y-111777046D01*
X144889490Y-111805720D01*
X144973111Y-111808889D01*
X145073352Y-111802723D01*
X145123339Y-111764811D01*
X145140543Y-111666035D01*
X145142445Y-111526666D01*
X145142445Y-111244444D01*
X145706889Y-111244444D01*
X145706889Y-112881333D01*
X145142445Y-112881333D01*
X145142445Y-112204000D01*
X144803778Y-112204000D01*
X144803778Y-112881333D01*
X144295778Y-112881333D01*
X144295778Y-111244444D01*
X144803778Y-111244444D01*
X144803778Y-111526666D01*
G36*
X147192009Y-108623113D02*
G01*
X147322264Y-108712858D01*
X147523570Y-108853397D01*
X147785508Y-109037335D01*
X148097661Y-109257281D01*
X148449610Y-109505839D01*
X148830938Y-109775618D01*
X149231227Y-110059223D01*
X149640059Y-110349261D01*
X150047016Y-110638339D01*
X150441679Y-110919063D01*
X150813631Y-111184040D01*
X151152455Y-111425876D01*
X151447731Y-111637178D01*
X151689042Y-111810553D01*
X151865971Y-111938607D01*
X151968099Y-112013947D01*
X151988589Y-112030216D01*
X151950553Y-112067590D01*
X151830405Y-112162376D01*
X151638477Y-112307193D01*
X151385103Y-112494661D01*
X151080614Y-112717400D01*
X150735343Y-112968031D01*
X150359623Y-113239173D01*
X149963787Y-113523447D01*
X149558166Y-113813472D01*
X149153094Y-114101869D01*
X148758903Y-114381257D01*
X148385926Y-114644257D01*
X148044495Y-114883489D01*
X147744943Y-115091572D01*
X147497602Y-115261127D01*
X147312805Y-115384774D01*
X147200885Y-115455133D01*
X147175248Y-115468102D01*
X147140013Y-115429831D01*
X147120196Y-115305338D01*
X147118000Y-115231629D01*
X147077056Y-114969844D01*
X146958828Y-114783496D01*
X146770222Y-114680471D01*
X146619173Y-114661899D01*
X146375603Y-114704416D01*
X146207657Y-114830348D01*
X146117650Y-115037262D01*
X146102000Y-115205394D01*
X146088571Y-115391408D01*
X146047920Y-115469790D01*
X146031445Y-115472720D01*
X145972989Y-115439900D01*
X145831653Y-115347575D01*
X145616365Y-115201930D01*
X145336053Y-115009148D01*
X144999646Y-114775413D01*
X144616072Y-114506908D01*
X144194260Y-114209818D01*
X143743138Y-113890326D01*
X143606884Y-113793497D01*
X143149814Y-113468208D01*
X142720744Y-113162417D01*
X142328452Y-112882409D01*
X141981713Y-112634470D01*
X141689306Y-112424885D01*
X141460007Y-112259939D01*
X141302593Y-112145917D01*
X141225841Y-112089104D01*
X141219876Y-112084177D01*
X141258949Y-112047156D01*
X141379840Y-111952227D01*
X141418459Y-111923040D01*
X143277665Y-111923040D01*
X143292818Y-112240494D01*
X143410291Y-112551049D01*
X143625103Y-112845403D01*
X143932276Y-113114250D01*
X144292067Y-113331015D01*
X144886189Y-113573738D01*
X145541552Y-113738882D01*
X146234589Y-113823381D01*
X146941738Y-113824168D01*
X147548051Y-113754723D01*
X147973703Y-113671519D01*
X148324828Y-113577206D01*
X148639783Y-113459425D01*
X148956921Y-113305818D01*
X148980667Y-113293151D01*
X149255592Y-113135584D01*
X149456337Y-112990608D01*
X149614356Y-112830994D01*
X149761103Y-112629513D01*
X149778842Y-112602171D01*
X149917715Y-112297998D01*
X149948680Y-111994008D01*
X149876579Y-111695955D01*
X149706257Y-111409591D01*
X149442556Y-111140668D01*
X149090320Y-110894938D01*
X148654392Y-110678153D01*
X148139615Y-110496065D01*
X147964667Y-110447533D01*
X147590722Y-110375474D01*
X147146604Y-110330171D01*
X146665937Y-110311655D01*
X146182346Y-110319957D01*
X145729455Y-110355109D01*
X145340889Y-110417141D01*
X145227111Y-110444989D01*
X144728856Y-110609022D01*
X144283110Y-110809910D01*
X143904100Y-111038744D01*
X143606054Y-111286616D01*
X143403200Y-111544615D01*
X143369813Y-111607993D01*
X143277665Y-111923040D01*
X141418459Y-111923040D01*
X141572285Y-111806786D01*
X141826022Y-111618230D01*
X142130786Y-111393956D01*
X142476314Y-111141362D01*
X142852342Y-110867845D01*
X143248607Y-110580801D01*
X143654845Y-110287627D01*
X144060793Y-109995722D01*
X144456187Y-109712481D01*
X144830763Y-109445302D01*
X145174259Y-109201581D01*
X145476410Y-108988717D01*
X145726953Y-108814106D01*
X145915624Y-108685145D01*
X146032159Y-108609231D01*
X146065954Y-108591555D01*
X146086407Y-108642492D01*
X146100283Y-108773324D01*
X146103795Y-108887889D01*
X146118986Y-109077711D01*
X146155719Y-109232323D01*
X146182126Y-109285123D01*
X146337132Y-109404084D01*
X146546230Y-109454318D01*
X146768230Y-109427648D01*
X146814582Y-109410702D01*
X146983854Y-109295680D01*
X147082319Y-109113736D01*
X147117640Y-108849791D01*
X147118000Y-108813659D01*
X147123687Y-108673566D01*
X147137866Y-108596630D01*
X147143222Y-108591555D01*
X147192009Y-108623113D01*
X147192009Y-108623113D01*
G37*
X147192009Y-108623113D02*
X147322264Y-108712858D01*
X147523570Y-108853397D01*
X147785508Y-109037335D01*
X148097661Y-109257281D01*
X148449610Y-109505839D01*
X148830938Y-109775618D01*
X149231227Y-110059223D01*
X149640059Y-110349261D01*
X150047016Y-110638339D01*
X150441679Y-110919063D01*
X150813631Y-111184040D01*
X151152455Y-111425876D01*
X151447731Y-111637178D01*
X151689042Y-111810553D01*
X151865971Y-111938607D01*
X151968099Y-112013947D01*
X151988589Y-112030216D01*
X151950553Y-112067590D01*
X151830405Y-112162376D01*
X151638477Y-112307193D01*
X151385103Y-112494661D01*
X151080614Y-112717400D01*
X150735343Y-112968031D01*
X150359623Y-113239173D01*
X149963787Y-113523447D01*
X149558166Y-113813472D01*
X149153094Y-114101869D01*
X148758903Y-114381257D01*
X148385926Y-114644257D01*
X148044495Y-114883489D01*
X147744943Y-115091572D01*
X147497602Y-115261127D01*
X147312805Y-115384774D01*
X147200885Y-115455133D01*
X147175248Y-115468102D01*
X147140013Y-115429831D01*
X147120196Y-115305338D01*
X147118000Y-115231629D01*
X147077056Y-114969844D01*
X146958828Y-114783496D01*
X146770222Y-114680471D01*
X146619173Y-114661899D01*
X146375603Y-114704416D01*
X146207657Y-114830348D01*
X146117650Y-115037262D01*
X146102000Y-115205394D01*
X146088571Y-115391408D01*
X146047920Y-115469790D01*
X146031445Y-115472720D01*
X145972989Y-115439900D01*
X145831653Y-115347575D01*
X145616365Y-115201930D01*
X145336053Y-115009148D01*
X144999646Y-114775413D01*
X144616072Y-114506908D01*
X144194260Y-114209818D01*
X143743138Y-113890326D01*
X143606884Y-113793497D01*
X143149814Y-113468208D01*
X142720744Y-113162417D01*
X142328452Y-112882409D01*
X141981713Y-112634470D01*
X141689306Y-112424885D01*
X141460007Y-112259939D01*
X141302593Y-112145917D01*
X141225841Y-112089104D01*
X141219876Y-112084177D01*
X141258949Y-112047156D01*
X141379840Y-111952227D01*
X141418459Y-111923040D01*
X143277665Y-111923040D01*
X143292818Y-112240494D01*
X143410291Y-112551049D01*
X143625103Y-112845403D01*
X143932276Y-113114250D01*
X144292067Y-113331015D01*
X144886189Y-113573738D01*
X145541552Y-113738882D01*
X146234589Y-113823381D01*
X146941738Y-113824168D01*
X147548051Y-113754723D01*
X147973703Y-113671519D01*
X148324828Y-113577206D01*
X148639783Y-113459425D01*
X148956921Y-113305818D01*
X148980667Y-113293151D01*
X149255592Y-113135584D01*
X149456337Y-112990608D01*
X149614356Y-112830994D01*
X149761103Y-112629513D01*
X149778842Y-112602171D01*
X149917715Y-112297998D01*
X149948680Y-111994008D01*
X149876579Y-111695955D01*
X149706257Y-111409591D01*
X149442556Y-111140668D01*
X149090320Y-110894938D01*
X148654392Y-110678153D01*
X148139615Y-110496065D01*
X147964667Y-110447533D01*
X147590722Y-110375474D01*
X147146604Y-110330171D01*
X146665937Y-110311655D01*
X146182346Y-110319957D01*
X145729455Y-110355109D01*
X145340889Y-110417141D01*
X145227111Y-110444989D01*
X144728856Y-110609022D01*
X144283110Y-110809910D01*
X143904100Y-111038744D01*
X143606054Y-111286616D01*
X143403200Y-111544615D01*
X143369813Y-111607993D01*
X143277665Y-111923040D01*
X141418459Y-111923040D01*
X141572285Y-111806786D01*
X141826022Y-111618230D01*
X142130786Y-111393956D01*
X142476314Y-111141362D01*
X142852342Y-110867845D01*
X143248607Y-110580801D01*
X143654845Y-110287627D01*
X144060793Y-109995722D01*
X144456187Y-109712481D01*
X144830763Y-109445302D01*
X145174259Y-109201581D01*
X145476410Y-108988717D01*
X145726953Y-108814106D01*
X145915624Y-108685145D01*
X146032159Y-108609231D01*
X146065954Y-108591555D01*
X146086407Y-108642492D01*
X146100283Y-108773324D01*
X146103795Y-108887889D01*
X146118986Y-109077711D01*
X146155719Y-109232323D01*
X146182126Y-109285123D01*
X146337132Y-109404084D01*
X146546230Y-109454318D01*
X146768230Y-109427648D01*
X146814582Y-109410702D01*
X146983854Y-109295680D01*
X147082319Y-109113736D01*
X147117640Y-108849791D01*
X147118000Y-108813659D01*
X147123687Y-108673566D01*
X147137866Y-108596630D01*
X147143222Y-108591555D01*
X147192009Y-108623113D01*
G36*
X146607931Y-107080526D02*
G01*
X146652481Y-107097848D01*
X146721209Y-107134145D01*
X146819593Y-107193183D01*
X146953109Y-107278729D01*
X147127234Y-107394552D01*
X147347447Y-107544419D01*
X147619223Y-107732096D01*
X147948040Y-107961351D01*
X148339375Y-108235952D01*
X148798706Y-108559665D01*
X149331510Y-108936258D01*
X149943263Y-109369499D01*
X150639444Y-109863155D01*
X150915632Y-110059111D01*
X151409310Y-110410348D01*
X151874458Y-110743089D01*
X152303071Y-111051485D01*
X152687144Y-111329692D01*
X153018670Y-111571861D01*
X153289646Y-111772147D01*
X153492065Y-111924703D01*
X153617922Y-112023682D01*
X153659284Y-112062889D01*
X153614311Y-112104005D01*
X153485400Y-112203549D01*
X153281221Y-112355390D01*
X153010446Y-112553397D01*
X152681745Y-112791440D01*
X152303787Y-113063388D01*
X151885242Y-113363111D01*
X151434782Y-113684477D01*
X150961075Y-114021357D01*
X150472793Y-114367619D01*
X149978605Y-114717134D01*
X149487182Y-115063770D01*
X149007194Y-115401396D01*
X148547311Y-115723883D01*
X148116203Y-116025100D01*
X147722540Y-116298915D01*
X147374994Y-116539199D01*
X147082233Y-116739821D01*
X146852928Y-116894650D01*
X146695749Y-116997555D01*
X146619366Y-117042406D01*
X146615025Y-117043819D01*
X146546507Y-117016084D01*
X146399455Y-116930847D01*
X146186950Y-116796571D01*
X145922073Y-116621714D01*
X145617902Y-116414736D01*
X145306003Y-116197152D01*
X144390555Y-115550482D01*
X143548550Y-114954388D01*
X142781809Y-114410178D01*
X142092150Y-113919163D01*
X141481392Y-113482651D01*
X140951354Y-113101950D01*
X140503856Y-112778369D01*
X140140716Y-112513217D01*
X139863753Y-112307803D01*
X139674787Y-112163436D01*
X139575636Y-112081424D01*
X139559999Y-112062889D01*
X140810887Y-112062889D01*
X140855433Y-112102284D01*
X140982689Y-112200022D01*
X141183162Y-112349311D01*
X141447359Y-112543360D01*
X141765785Y-112775379D01*
X142128948Y-113038576D01*
X142527354Y-113326162D01*
X142951509Y-113631343D01*
X143391920Y-113947331D01*
X143839094Y-114267333D01*
X144283536Y-114584559D01*
X144715754Y-114892218D01*
X145126254Y-115183519D01*
X145505542Y-115451671D01*
X145844125Y-115689883D01*
X146132510Y-115891364D01*
X146361203Y-116049323D01*
X146520710Y-116156970D01*
X146601538Y-116207512D01*
X146609130Y-116210524D01*
X146659043Y-116178507D01*
X146792918Y-116086569D01*
X147002795Y-115940318D01*
X147280712Y-115745361D01*
X147618708Y-115507307D01*
X148008823Y-115231763D01*
X148443096Y-114924337D01*
X148913565Y-114590636D01*
X149412271Y-114236270D01*
X149460445Y-114202006D01*
X149963863Y-113843902D01*
X150441546Y-113504077D01*
X150885280Y-113188375D01*
X151286852Y-112902641D01*
X151638050Y-112652719D01*
X151930661Y-112444453D01*
X152156472Y-112283688D01*
X152307269Y-112176270D01*
X152374842Y-112128041D01*
X152376202Y-112127061D01*
X152385008Y-112105804D01*
X152366005Y-112068780D01*
X152313093Y-112011375D01*
X152220170Y-111928974D01*
X152081137Y-111816964D01*
X151889892Y-111670731D01*
X151640334Y-111485661D01*
X151326363Y-111257139D01*
X150941878Y-110980551D01*
X150480778Y-110651283D01*
X149936962Y-110264722D01*
X149565129Y-110001024D01*
X149055434Y-109640620D01*
X148572105Y-109300469D01*
X148123124Y-108986082D01*
X147716474Y-108702975D01*
X147360137Y-108456658D01*
X147062095Y-108252647D01*
X146830332Y-108096452D01*
X146672829Y-107993587D01*
X146597568Y-107949566D01*
X146592927Y-107948316D01*
X146532970Y-107981415D01*
X146391776Y-108073376D01*
X146178889Y-108217405D01*
X145903857Y-108406709D01*
X145576227Y-108634494D01*
X145205544Y-108893968D01*
X144801356Y-109178335D01*
X144373209Y-109480804D01*
X143930651Y-109794580D01*
X143483226Y-110112870D01*
X143040482Y-110428880D01*
X142611967Y-110735817D01*
X142207225Y-111026888D01*
X141835804Y-111295299D01*
X141507251Y-111534256D01*
X141231112Y-111736966D01*
X141016933Y-111896636D01*
X140874262Y-112006472D01*
X140812645Y-112059680D01*
X140810887Y-112062889D01*
X139559999Y-112062889D01*
X139604915Y-112022900D01*
X139733604Y-111924251D01*
X139937407Y-111773089D01*
X140207664Y-111575559D01*
X140535715Y-111337810D01*
X140912901Y-111065989D01*
X141330562Y-110766241D01*
X141780037Y-110444715D01*
X142252669Y-110107556D01*
X142739796Y-109760912D01*
X143232759Y-109410930D01*
X143722898Y-109063757D01*
X144201554Y-108725539D01*
X144660066Y-108402424D01*
X145089776Y-108100559D01*
X145482023Y-107826090D01*
X145828148Y-107585164D01*
X146119491Y-107383929D01*
X146347391Y-107228531D01*
X146503191Y-107125116D01*
X146578229Y-107079833D01*
X146582081Y-107078411D01*
X146607931Y-107080526D01*
X146607931Y-107080526D01*
G37*
X146607931Y-107080526D02*
X146652481Y-107097848D01*
X146721209Y-107134145D01*
X146819593Y-107193183D01*
X146953109Y-107278729D01*
X147127234Y-107394552D01*
X147347447Y-107544419D01*
X147619223Y-107732096D01*
X147948040Y-107961351D01*
X148339375Y-108235952D01*
X148798706Y-108559665D01*
X149331510Y-108936258D01*
X149943263Y-109369499D01*
X150639444Y-109863155D01*
X150915632Y-110059111D01*
X151409310Y-110410348D01*
X151874458Y-110743089D01*
X152303071Y-111051485D01*
X152687144Y-111329692D01*
X153018670Y-111571861D01*
X153289646Y-111772147D01*
X153492065Y-111924703D01*
X153617922Y-112023682D01*
X153659284Y-112062889D01*
X153614311Y-112104005D01*
X153485400Y-112203549D01*
X153281221Y-112355390D01*
X153010446Y-112553397D01*
X152681745Y-112791440D01*
X152303787Y-113063388D01*
X151885242Y-113363111D01*
X151434782Y-113684477D01*
X150961075Y-114021357D01*
X150472793Y-114367619D01*
X149978605Y-114717134D01*
X149487182Y-115063770D01*
X149007194Y-115401396D01*
X148547311Y-115723883D01*
X148116203Y-116025100D01*
X147722540Y-116298915D01*
X147374994Y-116539199D01*
X147082233Y-116739821D01*
X146852928Y-116894650D01*
X146695749Y-116997555D01*
X146619366Y-117042406D01*
X146615025Y-117043819D01*
X146546507Y-117016084D01*
X146399455Y-116930847D01*
X146186950Y-116796571D01*
X145922073Y-116621714D01*
X145617902Y-116414736D01*
X145306003Y-116197152D01*
X144390555Y-115550482D01*
X143548550Y-114954388D01*
X142781809Y-114410178D01*
X142092150Y-113919163D01*
X141481392Y-113482651D01*
X140951354Y-113101950D01*
X140503856Y-112778369D01*
X140140716Y-112513217D01*
X139863753Y-112307803D01*
X139674787Y-112163436D01*
X139575636Y-112081424D01*
X139559999Y-112062889D01*
X140810887Y-112062889D01*
X140855433Y-112102284D01*
X140982689Y-112200022D01*
X141183162Y-112349311D01*
X141447359Y-112543360D01*
X141765785Y-112775379D01*
X142128948Y-113038576D01*
X142527354Y-113326162D01*
X142951509Y-113631343D01*
X143391920Y-113947331D01*
X143839094Y-114267333D01*
X144283536Y-114584559D01*
X144715754Y-114892218D01*
X145126254Y-115183519D01*
X145505542Y-115451671D01*
X145844125Y-115689883D01*
X146132510Y-115891364D01*
X146361203Y-116049323D01*
X146520710Y-116156970D01*
X146601538Y-116207512D01*
X146609130Y-116210524D01*
X146659043Y-116178507D01*
X146792918Y-116086569D01*
X147002795Y-115940318D01*
X147280712Y-115745361D01*
X147618708Y-115507307D01*
X148008823Y-115231763D01*
X148443096Y-114924337D01*
X148913565Y-114590636D01*
X149412271Y-114236270D01*
X149460445Y-114202006D01*
X149963863Y-113843902D01*
X150441546Y-113504077D01*
X150885280Y-113188375D01*
X151286852Y-112902641D01*
X151638050Y-112652719D01*
X151930661Y-112444453D01*
X152156472Y-112283688D01*
X152307269Y-112176270D01*
X152374842Y-112128041D01*
X152376202Y-112127061D01*
X152385008Y-112105804D01*
X152366005Y-112068780D01*
X152313093Y-112011375D01*
X152220170Y-111928974D01*
X152081137Y-111816964D01*
X151889892Y-111670731D01*
X151640334Y-111485661D01*
X151326363Y-111257139D01*
X150941878Y-110980551D01*
X150480778Y-110651283D01*
X149936962Y-110264722D01*
X149565129Y-110001024D01*
X149055434Y-109640620D01*
X148572105Y-109300469D01*
X148123124Y-108986082D01*
X147716474Y-108702975D01*
X147360137Y-108456658D01*
X147062095Y-108252647D01*
X146830332Y-108096452D01*
X146672829Y-107993587D01*
X146597568Y-107949566D01*
X146592927Y-107948316D01*
X146532970Y-107981415D01*
X146391776Y-108073376D01*
X146178889Y-108217405D01*
X145903857Y-108406709D01*
X145576227Y-108634494D01*
X145205544Y-108893968D01*
X144801356Y-109178335D01*
X144373209Y-109480804D01*
X143930651Y-109794580D01*
X143483226Y-110112870D01*
X143040482Y-110428880D01*
X142611967Y-110735817D01*
X142207225Y-111026888D01*
X141835804Y-111295299D01*
X141507251Y-111534256D01*
X141231112Y-111736966D01*
X141016933Y-111896636D01*
X140874262Y-112006472D01*
X140812645Y-112059680D01*
X140810887Y-112062889D01*
X139559999Y-112062889D01*
X139604915Y-112022900D01*
X139733604Y-111924251D01*
X139937407Y-111773089D01*
X140207664Y-111575559D01*
X140535715Y-111337810D01*
X140912901Y-111065989D01*
X141330562Y-110766241D01*
X141780037Y-110444715D01*
X142252669Y-110107556D01*
X142739796Y-109760912D01*
X143232759Y-109410930D01*
X143722898Y-109063757D01*
X144201554Y-108725539D01*
X144660066Y-108402424D01*
X145089776Y-108100559D01*
X145482023Y-107826090D01*
X145828148Y-107585164D01*
X146119491Y-107383929D01*
X146347391Y-107228531D01*
X146503191Y-107125116D01*
X146578229Y-107079833D01*
X146582081Y-107078411D01*
X146607931Y-107080526D01*
G36*
X150786889Y-119428889D02*
G01*
X150448222Y-119428889D01*
X150448222Y-118017778D01*
X150786889Y-118017778D01*
X150786889Y-119428889D01*
X150786889Y-119428889D01*
G37*
X150786889Y-119428889D02*
X150448222Y-119428889D01*
X150448222Y-118017778D01*
X150786889Y-118017778D01*
X150786889Y-119428889D01*
G36*
X150222445Y-119428889D02*
G01*
X150081334Y-119428889D01*
X149997585Y-119419738D01*
X149955806Y-119373042D01*
X149941559Y-119259929D01*
X149940222Y-119146666D01*
X149940222Y-118864444D01*
X149432222Y-118864444D01*
X149432222Y-119146666D01*
X149428568Y-119313726D01*
X149405837Y-119397031D01*
X149346373Y-119425707D01*
X149261152Y-119428889D01*
X149090081Y-119428889D01*
X149105930Y-118737444D01*
X149121778Y-118046000D01*
X149277000Y-118028139D01*
X149368405Y-118023946D01*
X149414303Y-118056870D01*
X149430352Y-118153955D01*
X149432222Y-118296251D01*
X149432222Y-118582222D01*
X149940222Y-118582222D01*
X149940222Y-118300000D01*
X149944797Y-118132504D01*
X149968146Y-118048944D01*
X150024702Y-118020451D01*
X150081334Y-118017778D01*
X150222445Y-118017778D01*
X150222445Y-119428889D01*
X150222445Y-119428889D01*
G37*
X150222445Y-119428889D02*
X150081334Y-119428889D01*
X149997585Y-119419738D01*
X149955806Y-119373042D01*
X149941559Y-119259929D01*
X149940222Y-119146666D01*
X149940222Y-118864444D01*
X149432222Y-118864444D01*
X149432222Y-119146666D01*
X149428568Y-119313726D01*
X149405837Y-119397031D01*
X149346373Y-119425707D01*
X149261152Y-119428889D01*
X149090081Y-119428889D01*
X149105930Y-118737444D01*
X149121778Y-118046000D01*
X149277000Y-118028139D01*
X149368405Y-118023946D01*
X149414303Y-118056870D01*
X149430352Y-118153955D01*
X149432222Y-118296251D01*
X149432222Y-118582222D01*
X149940222Y-118582222D01*
X149940222Y-118300000D01*
X149944797Y-118132504D01*
X149968146Y-118048944D01*
X150024702Y-118020451D01*
X150081334Y-118017778D01*
X150222445Y-118017778D01*
X150222445Y-119428889D01*
G36*
X148542460Y-118042087D02*
G01*
X148751749Y-118144891D01*
X148809771Y-118198437D01*
X148907402Y-118334838D01*
X148902472Y-118429531D01*
X148794266Y-118489501D01*
X148779627Y-118493386D01*
X148642728Y-118494130D01*
X148535150Y-118406329D01*
X148406678Y-118321375D01*
X148261526Y-118323949D01*
X148141391Y-118406631D01*
X148101083Y-118483575D01*
X148070003Y-118664368D01*
X148074554Y-118859701D01*
X148111450Y-119019486D01*
X148139439Y-119068553D01*
X148262373Y-119140302D01*
X148410147Y-119128018D01*
X148539372Y-119037605D01*
X148558618Y-119011516D01*
X148666621Y-118910120D01*
X148758355Y-118905440D01*
X148874417Y-118958971D01*
X148899804Y-119049342D01*
X148843950Y-119194613D01*
X148757824Y-119323682D01*
X148645777Y-119395502D01*
X148474885Y-119425118D01*
X148331281Y-119428889D01*
X148142569Y-119409351D01*
X147998250Y-119333043D01*
X147912564Y-119255213D01*
X147811818Y-119140860D01*
X147759690Y-119028364D01*
X147740750Y-118872980D01*
X147738889Y-118751544D01*
X147748887Y-118539746D01*
X147787705Y-118393802D01*
X147868579Y-118267757D01*
X147883403Y-118249805D01*
X148076478Y-118096308D01*
X148306767Y-118026481D01*
X148542460Y-118042087D01*
X148542460Y-118042087D01*
G37*
X148542460Y-118042087D02*
X148751749Y-118144891D01*
X148809771Y-118198437D01*
X148907402Y-118334838D01*
X148902472Y-118429531D01*
X148794266Y-118489501D01*
X148779627Y-118493386D01*
X148642728Y-118494130D01*
X148535150Y-118406329D01*
X148406678Y-118321375D01*
X148261526Y-118323949D01*
X148141391Y-118406631D01*
X148101083Y-118483575D01*
X148070003Y-118664368D01*
X148074554Y-118859701D01*
X148111450Y-119019486D01*
X148139439Y-119068553D01*
X148262373Y-119140302D01*
X148410147Y-119128018D01*
X148539372Y-119037605D01*
X148558618Y-119011516D01*
X148666621Y-118910120D01*
X148758355Y-118905440D01*
X148874417Y-118958971D01*
X148899804Y-119049342D01*
X148843950Y-119194613D01*
X148757824Y-119323682D01*
X148645777Y-119395502D01*
X148474885Y-119425118D01*
X148331281Y-119428889D01*
X148142569Y-119409351D01*
X147998250Y-119333043D01*
X147912564Y-119255213D01*
X147811818Y-119140860D01*
X147759690Y-119028364D01*
X147740750Y-118872980D01*
X147738889Y-118751544D01*
X147748887Y-118539746D01*
X147787705Y-118393802D01*
X147868579Y-118267757D01*
X147883403Y-118249805D01*
X148076478Y-118096308D01*
X148306767Y-118026481D01*
X148542460Y-118042087D01*
G36*
X146515926Y-118029216D02*
G01*
X146570133Y-118034213D01*
X146613809Y-118045352D01*
X146654042Y-118075850D01*
X146697922Y-118138924D01*
X146752538Y-118247793D01*
X146824980Y-118415673D01*
X146922336Y-118655782D01*
X147051696Y-118981337D01*
X147122850Y-119160778D01*
X147229242Y-119428889D01*
X147038629Y-119428889D01*
X146900204Y-119412635D01*
X146832513Y-119347429D01*
X146812599Y-119287778D01*
X146776442Y-119199570D01*
X146703671Y-119158241D01*
X146559517Y-119146846D01*
X146523048Y-119146666D01*
X146356833Y-119156503D01*
X146263783Y-119197495D01*
X146205037Y-119286861D01*
X146204619Y-119287778D01*
X146115281Y-119398698D01*
X145974012Y-119428889D01*
X145859981Y-119416538D01*
X145834144Y-119367709D01*
X145844761Y-119330111D01*
X145997857Y-118923366D01*
X146064100Y-118750619D01*
X146390513Y-118750619D01*
X146415733Y-118837025D01*
X146522397Y-118864444D01*
X146613016Y-118855720D01*
X146633888Y-118807746D01*
X146599001Y-118687820D01*
X146598525Y-118686455D01*
X146552676Y-118571640D01*
X146514764Y-118551600D01*
X146460350Y-118612577D01*
X146390513Y-118750619D01*
X146064100Y-118750619D01*
X146117871Y-118610398D01*
X146211019Y-118379158D01*
X146283518Y-118217596D01*
X146341585Y-118113661D01*
X146391437Y-118055304D01*
X146439291Y-118030475D01*
X146491364Y-118027124D01*
X146515926Y-118029216D01*
X146515926Y-118029216D01*
G37*
X146515926Y-118029216D02*
X146570133Y-118034213D01*
X146613809Y-118045352D01*
X146654042Y-118075850D01*
X146697922Y-118138924D01*
X146752538Y-118247793D01*
X146824980Y-118415673D01*
X146922336Y-118655782D01*
X147051696Y-118981337D01*
X147122850Y-119160778D01*
X147229242Y-119428889D01*
X147038629Y-119428889D01*
X146900204Y-119412635D01*
X146832513Y-119347429D01*
X146812599Y-119287778D01*
X146776442Y-119199570D01*
X146703671Y-119158241D01*
X146559517Y-119146846D01*
X146523048Y-119146666D01*
X146356833Y-119156503D01*
X146263783Y-119197495D01*
X146205037Y-119286861D01*
X146204619Y-119287778D01*
X146115281Y-119398698D01*
X145974012Y-119428889D01*
X145859981Y-119416538D01*
X145834144Y-119367709D01*
X145844761Y-119330111D01*
X145997857Y-118923366D01*
X146064100Y-118750619D01*
X146390513Y-118750619D01*
X146415733Y-118837025D01*
X146522397Y-118864444D01*
X146613016Y-118855720D01*
X146633888Y-118807746D01*
X146599001Y-118687820D01*
X146598525Y-118686455D01*
X146552676Y-118571640D01*
X146514764Y-118551600D01*
X146460350Y-118612577D01*
X146390513Y-118750619D01*
X146064100Y-118750619D01*
X146117871Y-118610398D01*
X146211019Y-118379158D01*
X146283518Y-118217596D01*
X146341585Y-118113661D01*
X146391437Y-118055304D01*
X146439291Y-118030475D01*
X146491364Y-118027124D01*
X146515926Y-118029216D01*
G36*
X145989111Y-118158889D02*
G01*
X145974351Y-118254316D01*
X145907930Y-118293383D01*
X145791556Y-118300000D01*
X145594000Y-118300000D01*
X145594000Y-119428889D01*
X145255334Y-119428889D01*
X145255334Y-118300000D01*
X145057778Y-118300000D01*
X144924179Y-118289457D01*
X144869486Y-118242013D01*
X144860222Y-118158889D01*
X144860222Y-118017778D01*
X145989111Y-118017778D01*
X145989111Y-118158889D01*
X145989111Y-118158889D01*
G37*
X145989111Y-118158889D02*
X145974351Y-118254316D01*
X145907930Y-118293383D01*
X145791556Y-118300000D01*
X145594000Y-118300000D01*
X145594000Y-119428889D01*
X145255334Y-119428889D01*
X145255334Y-118300000D01*
X145057778Y-118300000D01*
X144924179Y-118289457D01*
X144869486Y-118242013D01*
X144860222Y-118158889D01*
X144860222Y-118017778D01*
X145989111Y-118017778D01*
X145989111Y-118158889D01*
G36*
X144459524Y-118018757D02*
G01*
X144616193Y-118025407D01*
X144702265Y-118043291D01*
X144738885Y-118077973D01*
X144747198Y-118135020D01*
X144747334Y-118158889D01*
X144740900Y-118234744D01*
X144704597Y-118276994D01*
X144612921Y-118295449D01*
X144440366Y-118299918D01*
X144380445Y-118300000D01*
X144183221Y-118302474D01*
X144073370Y-118316437D01*
X144025387Y-118351697D01*
X144013767Y-118418064D01*
X144013556Y-118441111D01*
X144020727Y-118519316D01*
X144059911Y-118561540D01*
X144157617Y-118578825D01*
X144340352Y-118582219D01*
X144352222Y-118582222D01*
X144539916Y-118585210D01*
X144641252Y-118601537D01*
X144682737Y-118642247D01*
X144690882Y-118718387D01*
X144690889Y-118723333D01*
X144683718Y-118801539D01*
X144644534Y-118843762D01*
X144546828Y-118861048D01*
X144364093Y-118864441D01*
X144352222Y-118864444D01*
X144164529Y-118867432D01*
X144063193Y-118883759D01*
X144021707Y-118924470D01*
X144013563Y-119000609D01*
X144013556Y-119005555D01*
X144019989Y-119081410D01*
X144056292Y-119123661D01*
X144147969Y-119142116D01*
X144320523Y-119146585D01*
X144380445Y-119146666D01*
X144577668Y-119149141D01*
X144687519Y-119163103D01*
X144735503Y-119198364D01*
X144747122Y-119264731D01*
X144747334Y-119287778D01*
X144743610Y-119353149D01*
X144718342Y-119394378D01*
X144650383Y-119417028D01*
X144518589Y-119426665D01*
X144301814Y-119428853D01*
X144211111Y-119428889D01*
X143674889Y-119428889D01*
X143674889Y-118017778D01*
X144211111Y-118017778D01*
X144459524Y-118018757D01*
X144459524Y-118018757D01*
G37*
X144459524Y-118018757D02*
X144616193Y-118025407D01*
X144702265Y-118043291D01*
X144738885Y-118077973D01*
X144747198Y-118135020D01*
X144747334Y-118158889D01*
X144740900Y-118234744D01*
X144704597Y-118276994D01*
X144612921Y-118295449D01*
X144440366Y-118299918D01*
X144380445Y-118300000D01*
X144183221Y-118302474D01*
X144073370Y-118316437D01*
X144025387Y-118351697D01*
X144013767Y-118418064D01*
X144013556Y-118441111D01*
X144020727Y-118519316D01*
X144059911Y-118561540D01*
X144157617Y-118578825D01*
X144340352Y-118582219D01*
X144352222Y-118582222D01*
X144539916Y-118585210D01*
X144641252Y-118601537D01*
X144682737Y-118642247D01*
X144690882Y-118718387D01*
X144690889Y-118723333D01*
X144683718Y-118801539D01*
X144644534Y-118843762D01*
X144546828Y-118861048D01*
X144364093Y-118864441D01*
X144352222Y-118864444D01*
X144164529Y-118867432D01*
X144063193Y-118883759D01*
X144021707Y-118924470D01*
X144013563Y-119000609D01*
X144013556Y-119005555D01*
X144019989Y-119081410D01*
X144056292Y-119123661D01*
X144147969Y-119142116D01*
X144320523Y-119146585D01*
X144380445Y-119146666D01*
X144577668Y-119149141D01*
X144687519Y-119163103D01*
X144735503Y-119198364D01*
X144747122Y-119264731D01*
X144747334Y-119287778D01*
X144743610Y-119353149D01*
X144718342Y-119394378D01*
X144650383Y-119417028D01*
X144518589Y-119426665D01*
X144301814Y-119428853D01*
X144211111Y-119428889D01*
X143674889Y-119428889D01*
X143674889Y-118017778D01*
X144211111Y-118017778D01*
X144459524Y-118018757D01*
G36*
X143274320Y-118019046D02*
G01*
X143431091Y-118026225D01*
X143517206Y-118044379D01*
X143553778Y-118078571D01*
X143561924Y-118133864D01*
X143562000Y-118146358D01*
X143526461Y-118248995D01*
X143429659Y-118411574D01*
X143286316Y-118610550D01*
X143217911Y-118696691D01*
X142873822Y-119118444D01*
X143217911Y-119135249D01*
X143407717Y-119147857D01*
X143510864Y-119169939D01*
X143553556Y-119213315D01*
X143562000Y-119289807D01*
X143562000Y-119290471D01*
X143558269Y-119353287D01*
X143533337Y-119393474D01*
X143466593Y-119416085D01*
X143337428Y-119426175D01*
X143125232Y-119428798D01*
X142997556Y-119428889D01*
X142433111Y-119428889D01*
X142433111Y-119283340D01*
X142475048Y-119150296D01*
X142597819Y-118950939D01*
X142775404Y-118718896D01*
X143117696Y-118300000D01*
X142803626Y-118300000D01*
X142624535Y-118296435D01*
X142530818Y-118277510D01*
X142495000Y-118230882D01*
X142489556Y-118158889D01*
X142493279Y-118093517D01*
X142518548Y-118052288D01*
X142586506Y-118029638D01*
X142718300Y-118020001D01*
X142935076Y-118017813D01*
X143025778Y-118017778D01*
X143274320Y-118019046D01*
X143274320Y-118019046D01*
G37*
X143274320Y-118019046D02*
X143431091Y-118026225D01*
X143517206Y-118044379D01*
X143553778Y-118078571D01*
X143561924Y-118133864D01*
X143562000Y-118146358D01*
X143526461Y-118248995D01*
X143429659Y-118411574D01*
X143286316Y-118610550D01*
X143217911Y-118696691D01*
X142873822Y-119118444D01*
X143217911Y-119135249D01*
X143407717Y-119147857D01*
X143510864Y-119169939D01*
X143553556Y-119213315D01*
X143562000Y-119289807D01*
X143562000Y-119290471D01*
X143558269Y-119353287D01*
X143533337Y-119393474D01*
X143466593Y-119416085D01*
X143337428Y-119426175D01*
X143125232Y-119428798D01*
X142997556Y-119428889D01*
X142433111Y-119428889D01*
X142433111Y-119283340D01*
X142475048Y-119150296D01*
X142597819Y-118950939D01*
X142775404Y-118718896D01*
X143117696Y-118300000D01*
X142803626Y-118300000D01*
X142624535Y-118296435D01*
X142530818Y-118277510D01*
X142495000Y-118230882D01*
X142489556Y-118158889D01*
X142493279Y-118093517D01*
X142518548Y-118052288D01*
X142586506Y-118029638D01*
X142718300Y-118020001D01*
X142935076Y-118017813D01*
X143025778Y-118017778D01*
X143274320Y-118019046D01*
D17*
X155080000Y-100440000D02*
X156410000Y-100440000D01*
X155080000Y-101770000D02*
X155080000Y-100440000D01*
X155080000Y-103040000D02*
X157740000Y-103040000D01*
X157740000Y-103040000D02*
X157740000Y-103100000D01*
X155080000Y-103040000D02*
X155080000Y-103100000D01*
X155080000Y-103100000D02*
X157740000Y-103100000D01*
X155080000Y-96090000D02*
X156410000Y-96090000D01*
X155080000Y-97420000D02*
X155080000Y-96090000D01*
X155080000Y-98690000D02*
X157740000Y-98690000D01*
X157740000Y-98690000D02*
X157740000Y-98750000D01*
X155080000Y-98690000D02*
X155080000Y-98750000D01*
X155080000Y-98750000D02*
X157740000Y-98750000D01*
X139433733Y-81600000D02*
X139776267Y-81600000D01*
X139433733Y-80580000D02*
X139776267Y-80580000D01*
X152120000Y-89220000D02*
X153450000Y-89220000D01*
X152120000Y-90550000D02*
X152120000Y-89220000D01*
X152120000Y-91820000D02*
X154780000Y-91820000D01*
X154780000Y-91820000D02*
X154780000Y-94420000D01*
X152120000Y-91820000D02*
X152120000Y-94420000D01*
X152120000Y-94420000D02*
X154780000Y-94420000D01*
X159337221Y-75640000D02*
X159662779Y-75640000D01*
X159337221Y-76660000D02*
X159662779Y-76660000D01*
X166290000Y-72987221D02*
X166290000Y-73312779D01*
X167310000Y-72987221D02*
X167310000Y-73312779D01*
X162828733Y-87285000D02*
X163171267Y-87285000D01*
X162828733Y-86265000D02*
X163171267Y-86265000D01*
X179719000Y-97302000D02*
X182502000Y-97302000D01*
X179719000Y-100652000D02*
X182502000Y-100652000D01*
X182502000Y-97302000D02*
X182502000Y-100658000D01*
X179719000Y-97302000D02*
X179719000Y-100658000D01*
X174995000Y-73069748D02*
X174995000Y-73592252D01*
X176415000Y-73069748D02*
X176415000Y-73592252D01*
X169035000Y-105200000D02*
X169035000Y-101750000D01*
X169035000Y-105200000D02*
X169035000Y-107150000D01*
X163915000Y-105200000D02*
X163915000Y-103250000D01*
X163915000Y-105200000D02*
X163915000Y-107150000D01*
D11*
X173800000Y-94625000D02*
X173800000Y-96225000D01*
X183875000Y-94625000D02*
X183875000Y-88875000D01*
X173225000Y-94625000D02*
X173225000Y-88875000D01*
X183875000Y-94625000D02*
X183225000Y-94625000D01*
X183875000Y-88875000D02*
X183225000Y-88875000D01*
X173225000Y-88875000D02*
X173875000Y-88875000D01*
X173225000Y-94625000D02*
X173800000Y-94625000D01*
X164150000Y-89550000D02*
X164150000Y-88200000D01*
X159025000Y-89550000D02*
X159025000Y-94200000D01*
X164275000Y-89550000D02*
X164275000Y-94200000D01*
X159025000Y-89550000D02*
X159250000Y-89550000D01*
X159025000Y-94200000D02*
X159250000Y-94200000D01*
X164275000Y-94200000D02*
X164050000Y-94200000D01*
X164275000Y-89550000D02*
X164150000Y-89550000D01*
D17*
X177353000Y-73916000D02*
X180153000Y-73916000D01*
X178753000Y-70696000D02*
X180153000Y-70696000D01*
X169940000Y-93653733D02*
X169940000Y-93996267D01*
X170960000Y-93653733D02*
X170960000Y-93996267D01*
X188971267Y-77040000D02*
X188628733Y-77040000D01*
X188971267Y-78060000D02*
X188628733Y-78060000D01*
X188971267Y-78890000D02*
X188628733Y-78890000D01*
X188971267Y-79910000D02*
X188628733Y-79910000D01*
X167185000Y-93996267D02*
X167185000Y-93653733D01*
X166165000Y-93996267D02*
X166165000Y-93653733D01*
X169085000Y-93996267D02*
X169085000Y-93653733D01*
X168065000Y-93996267D02*
X168065000Y-93653733D01*
X167185000Y-90146267D02*
X167185000Y-89803733D01*
X166165000Y-90146267D02*
X166165000Y-89803733D01*
X179371267Y-102990000D02*
X179028733Y-102990000D01*
X179371267Y-104010000D02*
X179028733Y-104010000D01*
X182921267Y-102990000D02*
X182578733Y-102990000D01*
X182921267Y-104010000D02*
X182578733Y-104010000D01*
X170390000Y-99203733D02*
X170390000Y-99546267D01*
X171410000Y-99203733D02*
X171410000Y-99546267D01*
X159728733Y-97935000D02*
X160071267Y-97935000D01*
X159728733Y-96915000D02*
X160071267Y-96915000D01*
X163228733Y-97935000D02*
X163571267Y-97935000D01*
X163228733Y-96915000D02*
X163571267Y-96915000D01*
X169085000Y-90146267D02*
X169085000Y-89803733D01*
X168065000Y-90146267D02*
X168065000Y-89803733D01*
X160746267Y-84415000D02*
X160403733Y-84415000D01*
X160746267Y-85435000D02*
X160403733Y-85435000D01*
X139776267Y-102170000D02*
X139433733Y-102170000D01*
X139776267Y-103190000D02*
X139433733Y-103190000D01*
X143930000Y-87998748D02*
X143930000Y-95771252D01*
X149250000Y-87998748D02*
X149250000Y-95771252D01*
X162190000Y-104828733D02*
X162190000Y-105171267D01*
X163210000Y-104828733D02*
X163210000Y-105171267D01*
X174910000Y-99521267D02*
X174910000Y-99178733D01*
X173890000Y-99521267D02*
X173890000Y-99178733D01*
X176610000Y-99521267D02*
X176610000Y-99178733D01*
X175590000Y-99521267D02*
X175590000Y-99178733D01*
X182565000Y-70318267D02*
X182565000Y-69975733D01*
X181545000Y-70318267D02*
X181545000Y-69975733D01*
X182565000Y-73733267D02*
X182565000Y-73390733D01*
X181545000Y-73733267D02*
X181545000Y-73390733D01*
X184220000Y-73741267D02*
X184220000Y-73398733D01*
X183200000Y-73741267D02*
X183200000Y-73398733D01*
X192770000Y-101970000D02*
X194100000Y-101970000D01*
X192770000Y-103300000D02*
X192770000Y-101970000D01*
X192770000Y-104570000D02*
X195430000Y-104570000D01*
X195430000Y-104570000D02*
X195430000Y-107170000D01*
X192770000Y-104570000D02*
X192770000Y-107170000D01*
X192770000Y-107170000D02*
X195430000Y-107170000D01*
X195480000Y-99380000D02*
X194150000Y-99380000D01*
X195480000Y-98050000D02*
X195480000Y-99380000D01*
X195480000Y-96780000D02*
X192820000Y-96780000D01*
X192820000Y-96780000D02*
X192820000Y-84020000D01*
X195480000Y-96780000D02*
X195480000Y-84020000D01*
X195480000Y-84020000D02*
X192820000Y-84020000D01*
X157550000Y-73450000D02*
X160700000Y-73450000D01*
X157550000Y-75150000D02*
X160700000Y-75150000D01*
X157550000Y-73450000D02*
X157550000Y-75150000D01*
X161900000Y-73450000D02*
X165050000Y-73450000D01*
X161900000Y-75150000D02*
X165050000Y-75150000D01*
X161900000Y-73450000D02*
X161900000Y-75150000D01*
X165700000Y-72900000D02*
X162550000Y-72900000D01*
X165700000Y-71200000D02*
X162550000Y-71200000D01*
X165700000Y-72900000D02*
X165700000Y-71200000D01*
X193421267Y-77040000D02*
X193078733Y-77040000D01*
X193421267Y-78060000D02*
X193078733Y-78060000D01*
X193421267Y-78890000D02*
X193078733Y-78890000D01*
X193421267Y-79910000D02*
X193078733Y-79910000D01*
X161350000Y-72900000D02*
X158200000Y-72900000D01*
X161350000Y-71200000D02*
X158200000Y-71200000D01*
X161350000Y-72900000D02*
X161350000Y-71200000D01*
X138510000Y-90020000D02*
X138510000Y-93170000D01*
X136810000Y-90020000D02*
X136810000Y-93170000D01*
X138510000Y-90020000D02*
X136810000Y-90020000D01*
X156900000Y-77940000D02*
X156900000Y-78440000D01*
X156650000Y-78190000D02*
X157150000Y-78190000D01*
X157390000Y-80945563D02*
X158454437Y-82010000D01*
X157390000Y-78554437D02*
X158454437Y-77490000D01*
X157390000Y-78554437D02*
X157390000Y-78690000D01*
X157390000Y-80945563D02*
X157390000Y-80810000D01*
X158454437Y-82010000D02*
X161910000Y-82010000D01*
X158454437Y-77490000D02*
X161910000Y-77490000D01*
X161910000Y-77490000D02*
X161910000Y-78690000D01*
X161910000Y-82010000D02*
X161910000Y-80810000D01*
X163637221Y-76710000D02*
X163962779Y-76710000D01*
X163637221Y-75690000D02*
X163962779Y-75690000D01*
X163737221Y-70610000D02*
X164062779Y-70610000D01*
X163737221Y-69590000D02*
X164062779Y-69590000D01*
X183092000Y-98780733D02*
X183092000Y-99123267D01*
X184112000Y-98780733D02*
X184112000Y-99123267D01*
X179112000Y-99123267D02*
X179112000Y-98780733D01*
X178092000Y-99123267D02*
X178092000Y-98780733D01*
X170960000Y-90146267D02*
X170960000Y-89803733D01*
X169940000Y-90146267D02*
X169940000Y-89803733D01*
X178615000Y-86360000D02*
X183000000Y-86360000D01*
X178615000Y-83340000D02*
X178615000Y-86360000D01*
X183000000Y-83340000D02*
X178615000Y-83340000D01*
X185940000Y-93603733D02*
X185940000Y-93946267D01*
X186960000Y-93603733D02*
X186960000Y-93946267D01*
X186960000Y-90421267D02*
X186960000Y-90078733D01*
X185940000Y-90421267D02*
X185940000Y-90078733D01*
X174910000Y-103071267D02*
X174910000Y-102728733D01*
X173890000Y-103071267D02*
X173890000Y-102728733D01*
X171410000Y-103071267D02*
X171410000Y-102728733D01*
X170390000Y-103071267D02*
X170390000Y-102728733D01*
X173160000Y-103071267D02*
X173160000Y-102728733D01*
X172140000Y-103071267D02*
X172140000Y-102728733D01*
X172140000Y-99178733D02*
X172140000Y-99521267D01*
X173160000Y-99178733D02*
X173160000Y-99521267D01*
X180563000Y-75144000D02*
X180063000Y-75144000D01*
X180313000Y-74894000D02*
X180313000Y-75394000D01*
X177557437Y-75634000D02*
X176493000Y-76698437D01*
X179948563Y-75634000D02*
X181013000Y-76698437D01*
X179948563Y-75634000D02*
X179813000Y-75634000D01*
X177557437Y-75634000D02*
X177693000Y-75634000D01*
X176493000Y-76698437D02*
X176493000Y-80154000D01*
X181013000Y-76698437D02*
X181013000Y-80154000D01*
X181013000Y-80154000D02*
X179813000Y-80154000D01*
X176493000Y-80154000D02*
X177693000Y-80154000D01*
X179021267Y-69002000D02*
X178678733Y-69002000D01*
X179021267Y-70022000D02*
X178678733Y-70022000D01*
X173290000Y-73164733D02*
X173290000Y-73507267D01*
X174310000Y-73164733D02*
X174310000Y-73507267D01*
X171639000Y-73150733D02*
X171639000Y-73493267D01*
X172659000Y-73150733D02*
X172659000Y-73493267D01*
X172659000Y-69683267D02*
X172659000Y-69340733D01*
X171639000Y-69683267D02*
X171639000Y-69340733D01*
X174310000Y-69683267D02*
X174310000Y-69340733D01*
X173290000Y-69683267D02*
X173290000Y-69340733D01*
X175961000Y-69683267D02*
X175961000Y-69340733D01*
X174941000Y-69683267D02*
X174941000Y-69340733D01*
D11*
X132152380Y-67883333D02*
X132866666Y-67883333D01*
X133009523Y-67930952D01*
X133104761Y-68026190D01*
X133152380Y-68169047D01*
X133152380Y-68264285D01*
X133152380Y-66883333D02*
X133152380Y-67454761D01*
X133152380Y-67169047D02*
X132152380Y-67169047D01*
X132295238Y-67264285D01*
X132390476Y-67359523D01*
X132438095Y-67454761D01*
X127357380Y-93538776D02*
X126357380Y-93538776D01*
X126357380Y-93300680D01*
X126405000Y-93157823D01*
X126500238Y-93062585D01*
X126595476Y-93014966D01*
X126785952Y-92967347D01*
X126928809Y-92967347D01*
X127119285Y-93014966D01*
X127214523Y-93062585D01*
X127309761Y-93157823D01*
X127357380Y-93300680D01*
X127357380Y-93538776D01*
X126357380Y-92681633D02*
X126357380Y-92110204D01*
X127357380Y-92395919D02*
X126357380Y-92395919D01*
X127357380Y-91253061D02*
X127357380Y-91824490D01*
X127357380Y-91538776D02*
X126357380Y-91538776D01*
X126500238Y-91634014D01*
X126595476Y-91729252D01*
X126643095Y-91824490D01*
X126357380Y-90919728D02*
X126357380Y-90300680D01*
X126738333Y-90634014D01*
X126738333Y-90491157D01*
X126785952Y-90395919D01*
X126833571Y-90348300D01*
X126928809Y-90300680D01*
X127166904Y-90300680D01*
X127262142Y-90348300D01*
X127309761Y-90395919D01*
X127357380Y-90491157D01*
X127357380Y-90776871D01*
X127309761Y-90872109D01*
X127262142Y-90919728D01*
X126976428Y-89872109D02*
X126976428Y-89110204D01*
X126357380Y-88205442D02*
X126357380Y-88395919D01*
X126405000Y-88491157D01*
X126452619Y-88538776D01*
X126595476Y-88634014D01*
X126785952Y-88681633D01*
X127166904Y-88681633D01*
X127262142Y-88634014D01*
X127309761Y-88586395D01*
X127357380Y-88491157D01*
X127357380Y-88300680D01*
X127309761Y-88205442D01*
X127262142Y-88157823D01*
X127166904Y-88110204D01*
X126928809Y-88110204D01*
X126833571Y-88157823D01*
X126785952Y-88205442D01*
X126738333Y-88300680D01*
X126738333Y-88491157D01*
X126785952Y-88586395D01*
X126833571Y-88634014D01*
X126928809Y-88681633D01*
X127357380Y-87681633D02*
X126357380Y-87681633D01*
X126357380Y-87300680D01*
X126405000Y-87205442D01*
X126452619Y-87157823D01*
X126547857Y-87110204D01*
X126690714Y-87110204D01*
X126785952Y-87157823D01*
X126833571Y-87205442D01*
X126881190Y-87300680D01*
X126881190Y-87681633D01*
X153876666Y-101272380D02*
X153876666Y-101986666D01*
X153829047Y-102129523D01*
X153733809Y-102224761D01*
X153590952Y-102272380D01*
X153495714Y-102272380D01*
X154829047Y-101272380D02*
X154352857Y-101272380D01*
X154305238Y-101748571D01*
X154352857Y-101700952D01*
X154448095Y-101653333D01*
X154686190Y-101653333D01*
X154781428Y-101700952D01*
X154829047Y-101748571D01*
X154876666Y-101843809D01*
X154876666Y-102081904D01*
X154829047Y-102177142D01*
X154781428Y-102224761D01*
X154686190Y-102272380D01*
X154448095Y-102272380D01*
X154352857Y-102224761D01*
X154305238Y-102177142D01*
X153695714Y-103552380D02*
X154029047Y-104552380D01*
X154362380Y-103552380D01*
X154648095Y-104504761D02*
X154790952Y-104552380D01*
X155029047Y-104552380D01*
X155124285Y-104504761D01*
X155171904Y-104457142D01*
X155219523Y-104361904D01*
X155219523Y-104266666D01*
X155171904Y-104171428D01*
X155124285Y-104123809D01*
X155029047Y-104076190D01*
X154838571Y-104028571D01*
X154743333Y-103980952D01*
X154695714Y-103933333D01*
X154648095Y-103838095D01*
X154648095Y-103742857D01*
X154695714Y-103647619D01*
X154743333Y-103600000D01*
X154838571Y-103552380D01*
X155076666Y-103552380D01*
X155219523Y-103600000D01*
X155648095Y-104028571D02*
X155981428Y-104028571D01*
X156124285Y-104552380D02*
X155648095Y-104552380D01*
X155648095Y-103552380D01*
X156124285Y-103552380D01*
X156552857Y-104552380D02*
X156552857Y-103552380D01*
X157124285Y-104552380D01*
X157124285Y-103552380D01*
X157552857Y-104504761D02*
X157695714Y-104552380D01*
X157933809Y-104552380D01*
X158029047Y-104504761D01*
X158076666Y-104457142D01*
X158124285Y-104361904D01*
X158124285Y-104266666D01*
X158076666Y-104171428D01*
X158029047Y-104123809D01*
X157933809Y-104076190D01*
X157743333Y-104028571D01*
X157648095Y-103980952D01*
X157600476Y-103933333D01*
X157552857Y-103838095D01*
X157552857Y-103742857D01*
X157600476Y-103647619D01*
X157648095Y-103600000D01*
X157743333Y-103552380D01*
X157981428Y-103552380D01*
X158124285Y-103600000D01*
X158552857Y-104028571D02*
X158886190Y-104028571D01*
X159029047Y-104552380D02*
X158552857Y-104552380D01*
X158552857Y-103552380D01*
X159029047Y-103552380D01*
X153776666Y-96922380D02*
X153776666Y-97636666D01*
X153729047Y-97779523D01*
X153633809Y-97874761D01*
X153490952Y-97922380D01*
X153395714Y-97922380D01*
X154205238Y-97017619D02*
X154252857Y-96970000D01*
X154348095Y-96922380D01*
X154586190Y-96922380D01*
X154681428Y-96970000D01*
X154729047Y-97017619D01*
X154776666Y-97112857D01*
X154776666Y-97208095D01*
X154729047Y-97350952D01*
X154157619Y-97922380D01*
X154776666Y-97922380D01*
X154029047Y-100202380D02*
X154029047Y-99202380D01*
X154457619Y-100154761D02*
X154600476Y-100202380D01*
X154838571Y-100202380D01*
X154933809Y-100154761D01*
X154981428Y-100107142D01*
X155029047Y-100011904D01*
X155029047Y-99916666D01*
X154981428Y-99821428D01*
X154933809Y-99773809D01*
X154838571Y-99726190D01*
X154648095Y-99678571D01*
X154552857Y-99630952D01*
X154505238Y-99583333D01*
X154457619Y-99488095D01*
X154457619Y-99392857D01*
X154505238Y-99297619D01*
X154552857Y-99250000D01*
X154648095Y-99202380D01*
X154886190Y-99202380D01*
X155029047Y-99250000D01*
X155457619Y-99678571D02*
X155790952Y-99678571D01*
X155933809Y-100202380D02*
X155457619Y-100202380D01*
X155457619Y-99202380D01*
X155933809Y-99202380D01*
X156362380Y-100202380D02*
X156362380Y-99202380D01*
X156933809Y-100202380D01*
X156933809Y-99202380D01*
X157362380Y-100154761D02*
X157505238Y-100202380D01*
X157743333Y-100202380D01*
X157838571Y-100154761D01*
X157886190Y-100107142D01*
X157933809Y-100011904D01*
X157933809Y-99916666D01*
X157886190Y-99821428D01*
X157838571Y-99773809D01*
X157743333Y-99726190D01*
X157552857Y-99678571D01*
X157457619Y-99630952D01*
X157410000Y-99583333D01*
X157362380Y-99488095D01*
X157362380Y-99392857D01*
X157410000Y-99297619D01*
X157457619Y-99250000D01*
X157552857Y-99202380D01*
X157790952Y-99202380D01*
X157933809Y-99250000D01*
X158362380Y-99678571D02*
X158695714Y-99678571D01*
X158838571Y-100202380D02*
X158362380Y-100202380D01*
X158362380Y-99202380D01*
X158838571Y-99202380D01*
X139438333Y-80112380D02*
X139105000Y-79636190D01*
X138866904Y-80112380D02*
X138866904Y-79112380D01*
X139247857Y-79112380D01*
X139343095Y-79160000D01*
X139390714Y-79207619D01*
X139438333Y-79302857D01*
X139438333Y-79445714D01*
X139390714Y-79540952D01*
X139343095Y-79588571D01*
X139247857Y-79636190D01*
X138866904Y-79636190D01*
X140295476Y-79112380D02*
X140105000Y-79112380D01*
X140009761Y-79160000D01*
X139962142Y-79207619D01*
X139866904Y-79350476D01*
X139819285Y-79540952D01*
X139819285Y-79921904D01*
X139866904Y-80017142D01*
X139914523Y-80064761D01*
X140009761Y-80112380D01*
X140200238Y-80112380D01*
X140295476Y-80064761D01*
X140343095Y-80017142D01*
X140390714Y-79921904D01*
X140390714Y-79683809D01*
X140343095Y-79588571D01*
X140295476Y-79540952D01*
X140200238Y-79493333D01*
X140009761Y-79493333D01*
X139914523Y-79540952D01*
X139866904Y-79588571D01*
X139819285Y-79683809D01*
X153116666Y-87672380D02*
X153116666Y-88386666D01*
X153069047Y-88529523D01*
X152973809Y-88624761D01*
X152830952Y-88672380D01*
X152735714Y-88672380D01*
X154021428Y-88005714D02*
X154021428Y-88672380D01*
X153783333Y-87624761D02*
X153545238Y-88339047D01*
X154164285Y-88339047D01*
X158807142Y-70407142D02*
X158759523Y-70454761D01*
X158616666Y-70502380D01*
X158521428Y-70502380D01*
X158378571Y-70454761D01*
X158283333Y-70359523D01*
X158235714Y-70264285D01*
X158188095Y-70073809D01*
X158188095Y-69930952D01*
X158235714Y-69740476D01*
X158283333Y-69645238D01*
X158378571Y-69550000D01*
X158521428Y-69502380D01*
X158616666Y-69502380D01*
X158759523Y-69550000D01*
X158807142Y-69597619D01*
X159188095Y-69597619D02*
X159235714Y-69550000D01*
X159330952Y-69502380D01*
X159569047Y-69502380D01*
X159664285Y-69550000D01*
X159711904Y-69597619D01*
X159759523Y-69692857D01*
X159759523Y-69788095D01*
X159711904Y-69930952D01*
X159140476Y-70502380D01*
X159759523Y-70502380D01*
X160140476Y-69597619D02*
X160188095Y-69550000D01*
X160283333Y-69502380D01*
X160521428Y-69502380D01*
X160616666Y-69550000D01*
X160664285Y-69597619D01*
X160711904Y-69692857D01*
X160711904Y-69788095D01*
X160664285Y-69930952D01*
X160092857Y-70502380D01*
X160711904Y-70502380D01*
X166717142Y-71227142D02*
X166669523Y-71274761D01*
X166526666Y-71322380D01*
X166431428Y-71322380D01*
X166288571Y-71274761D01*
X166193333Y-71179523D01*
X166145714Y-71084285D01*
X166098095Y-70893809D01*
X166098095Y-70750952D01*
X166145714Y-70560476D01*
X166193333Y-70465238D01*
X166288571Y-70370000D01*
X166431428Y-70322380D01*
X166526666Y-70322380D01*
X166669523Y-70370000D01*
X166717142Y-70417619D01*
X167098095Y-70417619D02*
X167145714Y-70370000D01*
X167240952Y-70322380D01*
X167479047Y-70322380D01*
X167574285Y-70370000D01*
X167621904Y-70417619D01*
X167669523Y-70512857D01*
X167669523Y-70608095D01*
X167621904Y-70750952D01*
X167050476Y-71322380D01*
X167669523Y-71322380D01*
X168288571Y-70322380D02*
X168383809Y-70322380D01*
X168479047Y-70370000D01*
X168526666Y-70417619D01*
X168574285Y-70512857D01*
X168621904Y-70703333D01*
X168621904Y-70941428D01*
X168574285Y-71131904D01*
X168526666Y-71227142D01*
X168479047Y-71274761D01*
X168383809Y-71322380D01*
X168288571Y-71322380D01*
X168193333Y-71274761D01*
X168145714Y-71227142D01*
X168098095Y-71131904D01*
X168050476Y-70941428D01*
X168050476Y-70703333D01*
X168098095Y-70512857D01*
X168145714Y-70417619D01*
X168193333Y-70370000D01*
X168288571Y-70322380D01*
X159057142Y-87157142D02*
X159009523Y-87204761D01*
X158866666Y-87252380D01*
X158771428Y-87252380D01*
X158628571Y-87204761D01*
X158533333Y-87109523D01*
X158485714Y-87014285D01*
X158438095Y-86823809D01*
X158438095Y-86680952D01*
X158485714Y-86490476D01*
X158533333Y-86395238D01*
X158628571Y-86300000D01*
X158771428Y-86252380D01*
X158866666Y-86252380D01*
X159009523Y-86300000D01*
X159057142Y-86347619D01*
X159438095Y-86347619D02*
X159485714Y-86300000D01*
X159580952Y-86252380D01*
X159819047Y-86252380D01*
X159914285Y-86300000D01*
X159961904Y-86347619D01*
X160009523Y-86442857D01*
X160009523Y-86538095D01*
X159961904Y-86680952D01*
X159390476Y-87252380D01*
X160009523Y-87252380D01*
X160866666Y-86585714D02*
X160866666Y-87252380D01*
X160628571Y-86204761D02*
X160390476Y-86919047D01*
X161009523Y-86919047D01*
X186926190Y-99776190D02*
X187402380Y-99776190D01*
X186402380Y-100109523D02*
X186926190Y-99776190D01*
X186402380Y-99442857D01*
X187402380Y-98585714D02*
X187402380Y-99157142D01*
X187402380Y-98871428D02*
X186402380Y-98871428D01*
X186545238Y-98966666D01*
X186640476Y-99061904D01*
X186688095Y-99157142D01*
X176057142Y-76466666D02*
X176104761Y-76514285D01*
X176152380Y-76657142D01*
X176152380Y-76752380D01*
X176104761Y-76895238D01*
X176009523Y-76990476D01*
X175914285Y-77038095D01*
X175723809Y-77085714D01*
X175580952Y-77085714D01*
X175390476Y-77038095D01*
X175295238Y-76990476D01*
X175200000Y-76895238D01*
X175152380Y-76752380D01*
X175152380Y-76657142D01*
X175200000Y-76514285D01*
X175247619Y-76466666D01*
X175152380Y-75609523D02*
X175152380Y-75800000D01*
X175200000Y-75895238D01*
X175247619Y-75942857D01*
X175390476Y-76038095D01*
X175580952Y-76085714D01*
X175961904Y-76085714D01*
X176057142Y-76038095D01*
X176104761Y-75990476D01*
X176152380Y-75895238D01*
X176152380Y-75704761D01*
X176104761Y-75609523D01*
X176057142Y-75561904D01*
X175961904Y-75514285D01*
X175723809Y-75514285D01*
X175628571Y-75561904D01*
X175580952Y-75609523D01*
X175533333Y-75704761D01*
X175533333Y-75895238D01*
X175580952Y-75990476D01*
X175628571Y-76038095D01*
X175723809Y-76085714D01*
X162402380Y-109061904D02*
X163211904Y-109061904D01*
X163307142Y-109014285D01*
X163354761Y-108966666D01*
X163402380Y-108871428D01*
X163402380Y-108680952D01*
X163354761Y-108585714D01*
X163307142Y-108538095D01*
X163211904Y-108490476D01*
X162402380Y-108490476D01*
X162735714Y-107585714D02*
X163402380Y-107585714D01*
X162354761Y-107823809D02*
X163069047Y-108061904D01*
X163069047Y-107442857D01*
X184402380Y-92561904D02*
X185211904Y-92561904D01*
X185307142Y-92514285D01*
X185354761Y-92466666D01*
X185402380Y-92371428D01*
X185402380Y-92180952D01*
X185354761Y-92085714D01*
X185307142Y-92038095D01*
X185211904Y-91990476D01*
X184402380Y-91990476D01*
X184402380Y-91609523D02*
X184402380Y-90990476D01*
X184783333Y-91323809D01*
X184783333Y-91180952D01*
X184830952Y-91085714D01*
X184878571Y-91038095D01*
X184973809Y-90990476D01*
X185211904Y-90990476D01*
X185307142Y-91038095D01*
X185354761Y-91085714D01*
X185402380Y-91180952D01*
X185402380Y-91466666D01*
X185354761Y-91561904D01*
X185307142Y-91609523D01*
X157402380Y-92636904D02*
X158211904Y-92636904D01*
X158307142Y-92589285D01*
X158354761Y-92541666D01*
X158402380Y-92446428D01*
X158402380Y-92255952D01*
X158354761Y-92160714D01*
X158307142Y-92113095D01*
X158211904Y-92065476D01*
X157402380Y-92065476D01*
X157497619Y-91636904D02*
X157450000Y-91589285D01*
X157402380Y-91494047D01*
X157402380Y-91255952D01*
X157450000Y-91160714D01*
X157497619Y-91113095D01*
X157592857Y-91065476D01*
X157688095Y-91065476D01*
X157830952Y-91113095D01*
X158402380Y-91684523D01*
X158402380Y-91065476D01*
X177938095Y-67252380D02*
X177938095Y-68061904D01*
X177985714Y-68157142D01*
X178033333Y-68204761D01*
X178128571Y-68252380D01*
X178319047Y-68252380D01*
X178414285Y-68204761D01*
X178461904Y-68157142D01*
X178509523Y-68061904D01*
X178509523Y-67252380D01*
X179509523Y-68252380D02*
X178938095Y-68252380D01*
X179223809Y-68252380D02*
X179223809Y-67252380D01*
X179128571Y-67395238D01*
X179033333Y-67490476D01*
X178938095Y-67538095D01*
X170912380Y-87512857D02*
X170436190Y-87846190D01*
X170912380Y-88084285D02*
X169912380Y-88084285D01*
X169912380Y-87703333D01*
X169960000Y-87608095D01*
X170007619Y-87560476D01*
X170102857Y-87512857D01*
X170245714Y-87512857D01*
X170340952Y-87560476D01*
X170388571Y-87608095D01*
X170436190Y-87703333D01*
X170436190Y-88084285D01*
X170007619Y-87131904D02*
X169960000Y-87084285D01*
X169912380Y-86989047D01*
X169912380Y-86750952D01*
X169960000Y-86655714D01*
X170007619Y-86608095D01*
X170102857Y-86560476D01*
X170198095Y-86560476D01*
X170340952Y-86608095D01*
X170912380Y-87179523D01*
X170912380Y-86560476D01*
X170007619Y-86179523D02*
X169960000Y-86131904D01*
X169912380Y-86036666D01*
X169912380Y-85798571D01*
X169960000Y-85703333D01*
X170007619Y-85655714D01*
X170102857Y-85608095D01*
X170198095Y-85608095D01*
X170340952Y-85655714D01*
X170912380Y-86227142D01*
X170912380Y-85608095D01*
X184917142Y-78022380D02*
X184583809Y-77546190D01*
X184345714Y-78022380D02*
X184345714Y-77022380D01*
X184726666Y-77022380D01*
X184821904Y-77070000D01*
X184869523Y-77117619D01*
X184917142Y-77212857D01*
X184917142Y-77355714D01*
X184869523Y-77450952D01*
X184821904Y-77498571D01*
X184726666Y-77546190D01*
X184345714Y-77546190D01*
X185298095Y-77117619D02*
X185345714Y-77070000D01*
X185440952Y-77022380D01*
X185679047Y-77022380D01*
X185774285Y-77070000D01*
X185821904Y-77117619D01*
X185869523Y-77212857D01*
X185869523Y-77308095D01*
X185821904Y-77450952D01*
X185250476Y-78022380D01*
X185869523Y-78022380D01*
X186821904Y-78022380D02*
X186250476Y-78022380D01*
X186536190Y-78022380D02*
X186536190Y-77022380D01*
X186440952Y-77165238D01*
X186345714Y-77260476D01*
X186250476Y-77308095D01*
X184917142Y-79822380D02*
X184583809Y-79346190D01*
X184345714Y-79822380D02*
X184345714Y-78822380D01*
X184726666Y-78822380D01*
X184821904Y-78870000D01*
X184869523Y-78917619D01*
X184917142Y-79012857D01*
X184917142Y-79155714D01*
X184869523Y-79250952D01*
X184821904Y-79298571D01*
X184726666Y-79346190D01*
X184345714Y-79346190D01*
X185298095Y-78917619D02*
X185345714Y-78870000D01*
X185440952Y-78822380D01*
X185679047Y-78822380D01*
X185774285Y-78870000D01*
X185821904Y-78917619D01*
X185869523Y-79012857D01*
X185869523Y-79108095D01*
X185821904Y-79250952D01*
X185250476Y-79822380D01*
X185869523Y-79822380D01*
X186488571Y-78822380D02*
X186583809Y-78822380D01*
X186679047Y-78870000D01*
X186726666Y-78917619D01*
X186774285Y-79012857D01*
X186821904Y-79203333D01*
X186821904Y-79441428D01*
X186774285Y-79631904D01*
X186726666Y-79727142D01*
X186679047Y-79774761D01*
X186583809Y-79822380D01*
X186488571Y-79822380D01*
X186393333Y-79774761D01*
X186345714Y-79727142D01*
X186298095Y-79631904D01*
X186250476Y-79441428D01*
X186250476Y-79203333D01*
X186298095Y-79012857D01*
X186345714Y-78917619D01*
X186393333Y-78870000D01*
X186488571Y-78822380D01*
X167152380Y-97692857D02*
X166676190Y-98026190D01*
X167152380Y-98264285D02*
X166152380Y-98264285D01*
X166152380Y-97883333D01*
X166200000Y-97788095D01*
X166247619Y-97740476D01*
X166342857Y-97692857D01*
X166485714Y-97692857D01*
X166580952Y-97740476D01*
X166628571Y-97788095D01*
X166676190Y-97883333D01*
X166676190Y-98264285D01*
X167152380Y-96740476D02*
X167152380Y-97311904D01*
X167152380Y-97026190D02*
X166152380Y-97026190D01*
X166295238Y-97121428D01*
X166390476Y-97216666D01*
X166438095Y-97311904D01*
X167152380Y-96264285D02*
X167152380Y-96073809D01*
X167104761Y-95978571D01*
X167057142Y-95930952D01*
X166914285Y-95835714D01*
X166723809Y-95788095D01*
X166342857Y-95788095D01*
X166247619Y-95835714D01*
X166200000Y-95883333D01*
X166152380Y-95978571D01*
X166152380Y-96169047D01*
X166200000Y-96264285D01*
X166247619Y-96311904D01*
X166342857Y-96359523D01*
X166580952Y-96359523D01*
X166676190Y-96311904D01*
X166723809Y-96264285D01*
X166771428Y-96169047D01*
X166771428Y-95978571D01*
X166723809Y-95883333D01*
X166676190Y-95835714D01*
X166580952Y-95788095D01*
X169152380Y-97692857D02*
X168676190Y-98026190D01*
X169152380Y-98264285D02*
X168152380Y-98264285D01*
X168152380Y-97883333D01*
X168200000Y-97788095D01*
X168247619Y-97740476D01*
X168342857Y-97692857D01*
X168485714Y-97692857D01*
X168580952Y-97740476D01*
X168628571Y-97788095D01*
X168676190Y-97883333D01*
X168676190Y-98264285D01*
X169152380Y-96740476D02*
X169152380Y-97311904D01*
X169152380Y-97026190D02*
X168152380Y-97026190D01*
X168295238Y-97121428D01*
X168390476Y-97216666D01*
X168438095Y-97311904D01*
X168580952Y-96169047D02*
X168533333Y-96264285D01*
X168485714Y-96311904D01*
X168390476Y-96359523D01*
X168342857Y-96359523D01*
X168247619Y-96311904D01*
X168200000Y-96264285D01*
X168152380Y-96169047D01*
X168152380Y-95978571D01*
X168200000Y-95883333D01*
X168247619Y-95835714D01*
X168342857Y-95788095D01*
X168390476Y-95788095D01*
X168485714Y-95835714D01*
X168533333Y-95883333D01*
X168580952Y-95978571D01*
X168580952Y-96169047D01*
X168628571Y-96264285D01*
X168676190Y-96311904D01*
X168771428Y-96359523D01*
X168961904Y-96359523D01*
X169057142Y-96311904D01*
X169104761Y-96264285D01*
X169152380Y-96169047D01*
X169152380Y-95978571D01*
X169104761Y-95883333D01*
X169057142Y-95835714D01*
X168961904Y-95788095D01*
X168771428Y-95788095D01*
X168676190Y-95835714D01*
X168628571Y-95883333D01*
X168580952Y-95978571D01*
X167152380Y-87442857D02*
X166676190Y-87776190D01*
X167152380Y-88014285D02*
X166152380Y-88014285D01*
X166152380Y-87633333D01*
X166200000Y-87538095D01*
X166247619Y-87490476D01*
X166342857Y-87442857D01*
X166485714Y-87442857D01*
X166580952Y-87490476D01*
X166628571Y-87538095D01*
X166676190Y-87633333D01*
X166676190Y-88014285D01*
X167152380Y-86490476D02*
X167152380Y-87061904D01*
X167152380Y-86776190D02*
X166152380Y-86776190D01*
X166295238Y-86871428D01*
X166390476Y-86966666D01*
X166438095Y-87061904D01*
X166152380Y-86157142D02*
X166152380Y-85490476D01*
X167152380Y-85919047D01*
X178557142Y-105382380D02*
X178223809Y-104906190D01*
X177985714Y-105382380D02*
X177985714Y-104382380D01*
X178366666Y-104382380D01*
X178461904Y-104430000D01*
X178509523Y-104477619D01*
X178557142Y-104572857D01*
X178557142Y-104715714D01*
X178509523Y-104810952D01*
X178461904Y-104858571D01*
X178366666Y-104906190D01*
X177985714Y-104906190D01*
X179509523Y-105382380D02*
X178938095Y-105382380D01*
X179223809Y-105382380D02*
X179223809Y-104382380D01*
X179128571Y-104525238D01*
X179033333Y-104620476D01*
X178938095Y-104668095D01*
X180366666Y-104382380D02*
X180176190Y-104382380D01*
X180080952Y-104430000D01*
X180033333Y-104477619D01*
X179938095Y-104620476D01*
X179890476Y-104810952D01*
X179890476Y-105191904D01*
X179938095Y-105287142D01*
X179985714Y-105334761D01*
X180080952Y-105382380D01*
X180271428Y-105382380D01*
X180366666Y-105334761D01*
X180414285Y-105287142D01*
X180461904Y-105191904D01*
X180461904Y-104953809D01*
X180414285Y-104858571D01*
X180366666Y-104810952D01*
X180271428Y-104763333D01*
X180080952Y-104763333D01*
X179985714Y-104810952D01*
X179938095Y-104858571D01*
X179890476Y-104953809D01*
X182107142Y-105382380D02*
X181773809Y-104906190D01*
X181535714Y-105382380D02*
X181535714Y-104382380D01*
X181916666Y-104382380D01*
X182011904Y-104430000D01*
X182059523Y-104477619D01*
X182107142Y-104572857D01*
X182107142Y-104715714D01*
X182059523Y-104810952D01*
X182011904Y-104858571D01*
X181916666Y-104906190D01*
X181535714Y-104906190D01*
X183059523Y-105382380D02*
X182488095Y-105382380D01*
X182773809Y-105382380D02*
X182773809Y-104382380D01*
X182678571Y-104525238D01*
X182583333Y-104620476D01*
X182488095Y-104668095D01*
X183964285Y-104382380D02*
X183488095Y-104382380D01*
X183440476Y-104858571D01*
X183488095Y-104810952D01*
X183583333Y-104763333D01*
X183821428Y-104763333D01*
X183916666Y-104810952D01*
X183964285Y-104858571D01*
X184011904Y-104953809D01*
X184011904Y-105191904D01*
X183964285Y-105287142D01*
X183916666Y-105334761D01*
X183821428Y-105382380D01*
X183583333Y-105382380D01*
X183488095Y-105334761D01*
X183440476Y-105287142D01*
X171402380Y-106942857D02*
X170926190Y-107276190D01*
X171402380Y-107514285D02*
X170402380Y-107514285D01*
X170402380Y-107133333D01*
X170450000Y-107038095D01*
X170497619Y-106990476D01*
X170592857Y-106942857D01*
X170735714Y-106942857D01*
X170830952Y-106990476D01*
X170878571Y-107038095D01*
X170926190Y-107133333D01*
X170926190Y-107514285D01*
X171402380Y-105990476D02*
X171402380Y-106561904D01*
X171402380Y-106276190D02*
X170402380Y-106276190D01*
X170545238Y-106371428D01*
X170640476Y-106466666D01*
X170688095Y-106561904D01*
X170735714Y-105133333D02*
X171402380Y-105133333D01*
X170354761Y-105371428D02*
X171069047Y-105609523D01*
X171069047Y-104990476D01*
X159307142Y-99352380D02*
X158973809Y-98876190D01*
X158735714Y-99352380D02*
X158735714Y-98352380D01*
X159116666Y-98352380D01*
X159211904Y-98400000D01*
X159259523Y-98447619D01*
X159307142Y-98542857D01*
X159307142Y-98685714D01*
X159259523Y-98780952D01*
X159211904Y-98828571D01*
X159116666Y-98876190D01*
X158735714Y-98876190D01*
X160259523Y-99352380D02*
X159688095Y-99352380D01*
X159973809Y-99352380D02*
X159973809Y-98352380D01*
X159878571Y-98495238D01*
X159783333Y-98590476D01*
X159688095Y-98638095D01*
X160592857Y-98352380D02*
X161211904Y-98352380D01*
X160878571Y-98733333D01*
X161021428Y-98733333D01*
X161116666Y-98780952D01*
X161164285Y-98828571D01*
X161211904Y-98923809D01*
X161211904Y-99161904D01*
X161164285Y-99257142D01*
X161116666Y-99304761D01*
X161021428Y-99352380D01*
X160735714Y-99352380D01*
X160640476Y-99304761D01*
X160592857Y-99257142D01*
X162757142Y-99352380D02*
X162423809Y-98876190D01*
X162185714Y-99352380D02*
X162185714Y-98352380D01*
X162566666Y-98352380D01*
X162661904Y-98400000D01*
X162709523Y-98447619D01*
X162757142Y-98542857D01*
X162757142Y-98685714D01*
X162709523Y-98780952D01*
X162661904Y-98828571D01*
X162566666Y-98876190D01*
X162185714Y-98876190D01*
X163709523Y-99352380D02*
X163138095Y-99352380D01*
X163423809Y-99352380D02*
X163423809Y-98352380D01*
X163328571Y-98495238D01*
X163233333Y-98590476D01*
X163138095Y-98638095D01*
X164090476Y-98447619D02*
X164138095Y-98400000D01*
X164233333Y-98352380D01*
X164471428Y-98352380D01*
X164566666Y-98400000D01*
X164614285Y-98447619D01*
X164661904Y-98542857D01*
X164661904Y-98638095D01*
X164614285Y-98780952D01*
X164042857Y-99352380D01*
X164661904Y-99352380D01*
X169152380Y-87442857D02*
X168676190Y-87776190D01*
X169152380Y-88014285D02*
X168152380Y-88014285D01*
X168152380Y-87633333D01*
X168200000Y-87538095D01*
X168247619Y-87490476D01*
X168342857Y-87442857D01*
X168485714Y-87442857D01*
X168580952Y-87490476D01*
X168628571Y-87538095D01*
X168676190Y-87633333D01*
X168676190Y-88014285D01*
X169152380Y-86490476D02*
X169152380Y-87061904D01*
X169152380Y-86776190D02*
X168152380Y-86776190D01*
X168295238Y-86871428D01*
X168390476Y-86966666D01*
X168438095Y-87061904D01*
X169152380Y-85538095D02*
X169152380Y-86109523D01*
X169152380Y-85823809D02*
X168152380Y-85823809D01*
X168295238Y-85919047D01*
X168390476Y-86014285D01*
X168438095Y-86109523D01*
X159932142Y-83752380D02*
X159598809Y-83276190D01*
X159360714Y-83752380D02*
X159360714Y-82752380D01*
X159741666Y-82752380D01*
X159836904Y-82800000D01*
X159884523Y-82847619D01*
X159932142Y-82942857D01*
X159932142Y-83085714D01*
X159884523Y-83180952D01*
X159836904Y-83228571D01*
X159741666Y-83276190D01*
X159360714Y-83276190D01*
X160884523Y-83752380D02*
X160313095Y-83752380D01*
X160598809Y-83752380D02*
X160598809Y-82752380D01*
X160503571Y-82895238D01*
X160408333Y-82990476D01*
X160313095Y-83038095D01*
X161503571Y-82752380D02*
X161598809Y-82752380D01*
X161694047Y-82800000D01*
X161741666Y-82847619D01*
X161789285Y-82942857D01*
X161836904Y-83133333D01*
X161836904Y-83371428D01*
X161789285Y-83561904D01*
X161741666Y-83657142D01*
X161694047Y-83704761D01*
X161598809Y-83752380D01*
X161503571Y-83752380D01*
X161408333Y-83704761D01*
X161360714Y-83657142D01*
X161313095Y-83561904D01*
X161265476Y-83371428D01*
X161265476Y-83133333D01*
X161313095Y-82942857D01*
X161360714Y-82847619D01*
X161408333Y-82800000D01*
X161503571Y-82752380D01*
X139438333Y-104562380D02*
X139105000Y-104086190D01*
X138866904Y-104562380D02*
X138866904Y-103562380D01*
X139247857Y-103562380D01*
X139343095Y-103610000D01*
X139390714Y-103657619D01*
X139438333Y-103752857D01*
X139438333Y-103895714D01*
X139390714Y-103990952D01*
X139343095Y-104038571D01*
X139247857Y-104086190D01*
X138866904Y-104086190D01*
X139914523Y-104562380D02*
X140105000Y-104562380D01*
X140200238Y-104514761D01*
X140247857Y-104467142D01*
X140343095Y-104324285D01*
X140390714Y-104133809D01*
X140390714Y-103752857D01*
X140343095Y-103657619D01*
X140295476Y-103610000D01*
X140200238Y-103562380D01*
X140009761Y-103562380D01*
X139914523Y-103610000D01*
X139866904Y-103657619D01*
X139819285Y-103752857D01*
X139819285Y-103990952D01*
X139866904Y-104086190D01*
X139914523Y-104133809D01*
X140009761Y-104181428D01*
X140200238Y-104181428D01*
X140295476Y-104133809D01*
X140343095Y-104086190D01*
X140390714Y-103990952D01*
X150642380Y-92051666D02*
X150166190Y-92385000D01*
X150642380Y-92623095D02*
X149642380Y-92623095D01*
X149642380Y-92242142D01*
X149690000Y-92146904D01*
X149737619Y-92099285D01*
X149832857Y-92051666D01*
X149975714Y-92051666D01*
X150070952Y-92099285D01*
X150118571Y-92146904D01*
X150166190Y-92242142D01*
X150166190Y-92623095D01*
X150070952Y-91480238D02*
X150023333Y-91575476D01*
X149975714Y-91623095D01*
X149880476Y-91670714D01*
X149832857Y-91670714D01*
X149737619Y-91623095D01*
X149690000Y-91575476D01*
X149642380Y-91480238D01*
X149642380Y-91289761D01*
X149690000Y-91194523D01*
X149737619Y-91146904D01*
X149832857Y-91099285D01*
X149880476Y-91099285D01*
X149975714Y-91146904D01*
X150023333Y-91194523D01*
X150070952Y-91289761D01*
X150070952Y-91480238D01*
X150118571Y-91575476D01*
X150166190Y-91623095D01*
X150261428Y-91670714D01*
X150451904Y-91670714D01*
X150547142Y-91623095D01*
X150594761Y-91575476D01*
X150642380Y-91480238D01*
X150642380Y-91289761D01*
X150594761Y-91194523D01*
X150547142Y-91146904D01*
X150451904Y-91099285D01*
X150261428Y-91099285D01*
X150166190Y-91146904D01*
X150118571Y-91194523D01*
X150070952Y-91289761D01*
X161652380Y-105216666D02*
X161176190Y-105550000D01*
X161652380Y-105788095D02*
X160652380Y-105788095D01*
X160652380Y-105407142D01*
X160700000Y-105311904D01*
X160747619Y-105264285D01*
X160842857Y-105216666D01*
X160985714Y-105216666D01*
X161080952Y-105264285D01*
X161128571Y-105311904D01*
X161176190Y-105407142D01*
X161176190Y-105788095D01*
X160652380Y-104883333D02*
X160652380Y-104216666D01*
X161652380Y-104645238D01*
X174902380Y-106966666D02*
X174426190Y-107300000D01*
X174902380Y-107538095D02*
X173902380Y-107538095D01*
X173902380Y-107157142D01*
X173950000Y-107061904D01*
X173997619Y-107014285D01*
X174092857Y-106966666D01*
X174235714Y-106966666D01*
X174330952Y-107014285D01*
X174378571Y-107061904D01*
X174426190Y-107157142D01*
X174426190Y-107538095D01*
X173902380Y-106061904D02*
X173902380Y-106538095D01*
X174378571Y-106585714D01*
X174330952Y-106538095D01*
X174283333Y-106442857D01*
X174283333Y-106204761D01*
X174330952Y-106109523D01*
X174378571Y-106061904D01*
X174473809Y-106014285D01*
X174711904Y-106014285D01*
X174807142Y-106061904D01*
X174854761Y-106109523D01*
X174902380Y-106204761D01*
X174902380Y-106442857D01*
X174854761Y-106538095D01*
X174807142Y-106585714D01*
X176652380Y-102466666D02*
X176176190Y-102800000D01*
X176652380Y-103038095D02*
X175652380Y-103038095D01*
X175652380Y-102657142D01*
X175700000Y-102561904D01*
X175747619Y-102514285D01*
X175842857Y-102466666D01*
X175985714Y-102466666D01*
X176080952Y-102514285D01*
X176128571Y-102561904D01*
X176176190Y-102657142D01*
X176176190Y-103038095D01*
X175985714Y-101609523D02*
X176652380Y-101609523D01*
X175604761Y-101847619D02*
X176319047Y-102085714D01*
X176319047Y-101466666D01*
X184158380Y-70313666D02*
X183682190Y-70647000D01*
X184158380Y-70885095D02*
X183158380Y-70885095D01*
X183158380Y-70504142D01*
X183206000Y-70408904D01*
X183253619Y-70361285D01*
X183348857Y-70313666D01*
X183491714Y-70313666D01*
X183586952Y-70361285D01*
X183634571Y-70408904D01*
X183682190Y-70504142D01*
X183682190Y-70885095D01*
X183158380Y-69980333D02*
X183158380Y-69361285D01*
X183539333Y-69694619D01*
X183539333Y-69551761D01*
X183586952Y-69456523D01*
X183634571Y-69408904D01*
X183729809Y-69361285D01*
X183967904Y-69361285D01*
X184063142Y-69408904D01*
X184110761Y-69456523D01*
X184158380Y-69551761D01*
X184158380Y-69837476D01*
X184110761Y-69932714D01*
X184063142Y-69980333D01*
X187012380Y-73686666D02*
X186536190Y-74020000D01*
X187012380Y-74258095D02*
X186012380Y-74258095D01*
X186012380Y-73877142D01*
X186060000Y-73781904D01*
X186107619Y-73734285D01*
X186202857Y-73686666D01*
X186345714Y-73686666D01*
X186440952Y-73734285D01*
X186488571Y-73781904D01*
X186536190Y-73877142D01*
X186536190Y-74258095D01*
X186107619Y-73305714D02*
X186060000Y-73258095D01*
X186012380Y-73162857D01*
X186012380Y-72924761D01*
X186060000Y-72829523D01*
X186107619Y-72781904D01*
X186202857Y-72734285D01*
X186298095Y-72734285D01*
X186440952Y-72781904D01*
X187012380Y-73353333D01*
X187012380Y-72734285D01*
X185662380Y-73686666D02*
X185186190Y-74020000D01*
X185662380Y-74258095D02*
X184662380Y-74258095D01*
X184662380Y-73877142D01*
X184710000Y-73781904D01*
X184757619Y-73734285D01*
X184852857Y-73686666D01*
X184995714Y-73686666D01*
X185090952Y-73734285D01*
X185138571Y-73781904D01*
X185186190Y-73877142D01*
X185186190Y-74258095D01*
X185662380Y-72734285D02*
X185662380Y-73305714D01*
X185662380Y-73020000D02*
X184662380Y-73020000D01*
X184805238Y-73115238D01*
X184900476Y-73210476D01*
X184948095Y-73305714D01*
X196402380Y-105383333D02*
X197116666Y-105383333D01*
X197259523Y-105430952D01*
X197354761Y-105526190D01*
X197402380Y-105669047D01*
X197402380Y-105764285D01*
X197402380Y-104907142D02*
X196402380Y-104907142D01*
X196402380Y-104526190D01*
X196450000Y-104430952D01*
X196497619Y-104383333D01*
X196592857Y-104335714D01*
X196735714Y-104335714D01*
X196830952Y-104383333D01*
X196878571Y-104430952D01*
X196926190Y-104526190D01*
X196926190Y-104907142D01*
X197402380Y-103383333D02*
X197402380Y-103954761D01*
X197402380Y-103669047D02*
X196402380Y-103669047D01*
X196545238Y-103764285D01*
X196640476Y-103859523D01*
X196688095Y-103954761D01*
X196402380Y-92133333D02*
X197116666Y-92133333D01*
X197259523Y-92180952D01*
X197354761Y-92276190D01*
X197402380Y-92419047D01*
X197402380Y-92514285D01*
X196402380Y-91752380D02*
X196402380Y-91133333D01*
X196783333Y-91466666D01*
X196783333Y-91323809D01*
X196830952Y-91228571D01*
X196878571Y-91180952D01*
X196973809Y-91133333D01*
X197211904Y-91133333D01*
X197307142Y-91180952D01*
X197354761Y-91228571D01*
X197402380Y-91323809D01*
X197402380Y-91609523D01*
X197354761Y-91704761D01*
X197307142Y-91752380D01*
X158211904Y-68752380D02*
X158211904Y-67752380D01*
X158450000Y-67752380D01*
X158592857Y-67800000D01*
X158688095Y-67895238D01*
X158735714Y-67990476D01*
X158783333Y-68180952D01*
X158783333Y-68323809D01*
X158735714Y-68514285D01*
X158688095Y-68609523D01*
X158592857Y-68704761D01*
X158450000Y-68752380D01*
X158211904Y-68752380D01*
X159116666Y-67752380D02*
X159783333Y-67752380D01*
X159354761Y-68752380D01*
X162711904Y-66502380D02*
X162711904Y-65502380D01*
X162950000Y-65502380D01*
X163092857Y-65550000D01*
X163188095Y-65645238D01*
X163235714Y-65740476D01*
X163283333Y-65930952D01*
X163283333Y-66073809D01*
X163235714Y-66264285D01*
X163188095Y-66359523D01*
X163092857Y-66454761D01*
X162950000Y-66502380D01*
X162711904Y-66502380D01*
X164140476Y-65502380D02*
X163950000Y-65502380D01*
X163854761Y-65550000D01*
X163807142Y-65597619D01*
X163711904Y-65740476D01*
X163664285Y-65930952D01*
X163664285Y-66311904D01*
X163711904Y-66407142D01*
X163759523Y-66454761D01*
X163854761Y-66502380D01*
X164045238Y-66502380D01*
X164140476Y-66454761D01*
X164188095Y-66407142D01*
X164235714Y-66311904D01*
X164235714Y-66073809D01*
X164188095Y-65978571D01*
X164140476Y-65930952D01*
X164045238Y-65883333D01*
X163854761Y-65883333D01*
X163759523Y-65930952D01*
X163711904Y-65978571D01*
X163664285Y-66073809D01*
X162711904Y-67752380D02*
X162711904Y-66752380D01*
X162950000Y-66752380D01*
X163092857Y-66800000D01*
X163188095Y-66895238D01*
X163235714Y-66990476D01*
X163283333Y-67180952D01*
X163283333Y-67323809D01*
X163235714Y-67514285D01*
X163188095Y-67609523D01*
X163092857Y-67704761D01*
X162950000Y-67752380D01*
X162711904Y-67752380D01*
X164188095Y-66752380D02*
X163711904Y-66752380D01*
X163664285Y-67228571D01*
X163711904Y-67180952D01*
X163807142Y-67133333D01*
X164045238Y-67133333D01*
X164140476Y-67180952D01*
X164188095Y-67228571D01*
X164235714Y-67323809D01*
X164235714Y-67561904D01*
X164188095Y-67657142D01*
X164140476Y-67704761D01*
X164045238Y-67752380D01*
X163807142Y-67752380D01*
X163711904Y-67704761D01*
X163664285Y-67657142D01*
X195221904Y-78022380D02*
X195221904Y-77022380D01*
X195460000Y-77022380D01*
X195602857Y-77070000D01*
X195698095Y-77165238D01*
X195745714Y-77260476D01*
X195793333Y-77450952D01*
X195793333Y-77593809D01*
X195745714Y-77784285D01*
X195698095Y-77879523D01*
X195602857Y-77974761D01*
X195460000Y-78022380D01*
X195221904Y-78022380D01*
X196650476Y-77355714D02*
X196650476Y-78022380D01*
X196412380Y-76974761D02*
X196174285Y-77689047D01*
X196793333Y-77689047D01*
X195221904Y-79822380D02*
X195221904Y-78822380D01*
X195460000Y-78822380D01*
X195602857Y-78870000D01*
X195698095Y-78965238D01*
X195745714Y-79060476D01*
X195793333Y-79250952D01*
X195793333Y-79393809D01*
X195745714Y-79584285D01*
X195698095Y-79679523D01*
X195602857Y-79774761D01*
X195460000Y-79822380D01*
X195221904Y-79822380D01*
X196126666Y-78822380D02*
X196745714Y-78822380D01*
X196412380Y-79203333D01*
X196555238Y-79203333D01*
X196650476Y-79250952D01*
X196698095Y-79298571D01*
X196745714Y-79393809D01*
X196745714Y-79631904D01*
X196698095Y-79727142D01*
X196650476Y-79774761D01*
X196555238Y-79822380D01*
X196269523Y-79822380D01*
X196174285Y-79774761D01*
X196126666Y-79727142D01*
X158211904Y-67252380D02*
X158211904Y-66252380D01*
X158450000Y-66252380D01*
X158592857Y-66300000D01*
X158688095Y-66395238D01*
X158735714Y-66490476D01*
X158783333Y-66680952D01*
X158783333Y-66823809D01*
X158735714Y-67014285D01*
X158688095Y-67109523D01*
X158592857Y-67204761D01*
X158450000Y-67252380D01*
X158211904Y-67252380D01*
X159164285Y-66347619D02*
X159211904Y-66300000D01*
X159307142Y-66252380D01*
X159545238Y-66252380D01*
X159640476Y-66300000D01*
X159688095Y-66347619D01*
X159735714Y-66442857D01*
X159735714Y-66538095D01*
X159688095Y-66680952D01*
X159116666Y-67252380D01*
X159735714Y-67252380D01*
X139962380Y-92658095D02*
X138962380Y-92658095D01*
X138962380Y-92420000D01*
X139010000Y-92277142D01*
X139105238Y-92181904D01*
X139200476Y-92134285D01*
X139390952Y-92086666D01*
X139533809Y-92086666D01*
X139724285Y-92134285D01*
X139819523Y-92181904D01*
X139914761Y-92277142D01*
X139962380Y-92420000D01*
X139962380Y-92658095D01*
X139962380Y-91134285D02*
X139962380Y-91705714D01*
X139962380Y-91420000D02*
X138962380Y-91420000D01*
X139105238Y-91515238D01*
X139200476Y-91610476D01*
X139248095Y-91705714D01*
X164807142Y-80157142D02*
X164759523Y-80204761D01*
X164616666Y-80252380D01*
X164521428Y-80252380D01*
X164378571Y-80204761D01*
X164283333Y-80109523D01*
X164235714Y-80014285D01*
X164188095Y-79823809D01*
X164188095Y-79680952D01*
X164235714Y-79490476D01*
X164283333Y-79395238D01*
X164378571Y-79300000D01*
X164521428Y-79252380D01*
X164616666Y-79252380D01*
X164759523Y-79300000D01*
X164807142Y-79347619D01*
X165188095Y-79347619D02*
X165235714Y-79300000D01*
X165330952Y-79252380D01*
X165569047Y-79252380D01*
X165664285Y-79300000D01*
X165711904Y-79347619D01*
X165759523Y-79442857D01*
X165759523Y-79538095D01*
X165711904Y-79680952D01*
X165140476Y-80252380D01*
X165759523Y-80252380D01*
X166092857Y-79252380D02*
X166711904Y-79252380D01*
X166378571Y-79633333D01*
X166521428Y-79633333D01*
X166616666Y-79680952D01*
X166664285Y-79728571D01*
X166711904Y-79823809D01*
X166711904Y-80061904D01*
X166664285Y-80157142D01*
X166616666Y-80204761D01*
X166521428Y-80252380D01*
X166235714Y-80252380D01*
X166140476Y-80204761D01*
X166092857Y-80157142D01*
X163307142Y-69057142D02*
X163259523Y-69104761D01*
X163116666Y-69152380D01*
X163021428Y-69152380D01*
X162878571Y-69104761D01*
X162783333Y-69009523D01*
X162735714Y-68914285D01*
X162688095Y-68723809D01*
X162688095Y-68580952D01*
X162735714Y-68390476D01*
X162783333Y-68295238D01*
X162878571Y-68200000D01*
X163021428Y-68152380D01*
X163116666Y-68152380D01*
X163259523Y-68200000D01*
X163307142Y-68247619D01*
X163688095Y-68247619D02*
X163735714Y-68200000D01*
X163830952Y-68152380D01*
X164069047Y-68152380D01*
X164164285Y-68200000D01*
X164211904Y-68247619D01*
X164259523Y-68342857D01*
X164259523Y-68438095D01*
X164211904Y-68580952D01*
X163640476Y-69152380D01*
X164259523Y-69152380D01*
X165211904Y-69152380D02*
X164640476Y-69152380D01*
X164926190Y-69152380D02*
X164926190Y-68152380D01*
X164830952Y-68295238D01*
X164735714Y-68390476D01*
X164640476Y-68438095D01*
X163307142Y-64907142D02*
X163259523Y-64954761D01*
X163116666Y-65002380D01*
X163021428Y-65002380D01*
X162878571Y-64954761D01*
X162783333Y-64859523D01*
X162735714Y-64764285D01*
X162688095Y-64573809D01*
X162688095Y-64430952D01*
X162735714Y-64240476D01*
X162783333Y-64145238D01*
X162878571Y-64050000D01*
X163021428Y-64002380D01*
X163116666Y-64002380D01*
X163259523Y-64050000D01*
X163307142Y-64097619D01*
X164259523Y-65002380D02*
X163688095Y-65002380D01*
X163973809Y-65002380D02*
X163973809Y-64002380D01*
X163878571Y-64145238D01*
X163783333Y-64240476D01*
X163688095Y-64288095D01*
X164735714Y-65002380D02*
X164926190Y-65002380D01*
X165021428Y-64954761D01*
X165069047Y-64907142D01*
X165164285Y-64764285D01*
X165211904Y-64573809D01*
X165211904Y-64192857D01*
X165164285Y-64097619D01*
X165116666Y-64050000D01*
X165021428Y-64002380D01*
X164830952Y-64002380D01*
X164735714Y-64050000D01*
X164688095Y-64097619D01*
X164640476Y-64192857D01*
X164640476Y-64430952D01*
X164688095Y-64526190D01*
X164735714Y-64573809D01*
X164830952Y-64621428D01*
X165021428Y-64621428D01*
X165116666Y-64573809D01*
X165164285Y-64526190D01*
X165211904Y-64430952D01*
X188807142Y-99442857D02*
X188854761Y-99490476D01*
X188902380Y-99633333D01*
X188902380Y-99728571D01*
X188854761Y-99871428D01*
X188759523Y-99966666D01*
X188664285Y-100014285D01*
X188473809Y-100061904D01*
X188330952Y-100061904D01*
X188140476Y-100014285D01*
X188045238Y-99966666D01*
X187950000Y-99871428D01*
X187902380Y-99728571D01*
X187902380Y-99633333D01*
X187950000Y-99490476D01*
X187997619Y-99442857D01*
X188902380Y-98490476D02*
X188902380Y-99061904D01*
X188902380Y-98776190D02*
X187902380Y-98776190D01*
X188045238Y-98871428D01*
X188140476Y-98966666D01*
X188188095Y-99061904D01*
X188330952Y-97919047D02*
X188283333Y-98014285D01*
X188235714Y-98061904D01*
X188140476Y-98109523D01*
X188092857Y-98109523D01*
X187997619Y-98061904D01*
X187950000Y-98014285D01*
X187902380Y-97919047D01*
X187902380Y-97728571D01*
X187950000Y-97633333D01*
X187997619Y-97585714D01*
X188092857Y-97538095D01*
X188140476Y-97538095D01*
X188235714Y-97585714D01*
X188283333Y-97633333D01*
X188330952Y-97728571D01*
X188330952Y-97919047D01*
X188378571Y-98014285D01*
X188426190Y-98061904D01*
X188521428Y-98109523D01*
X188711904Y-98109523D01*
X188807142Y-98061904D01*
X188854761Y-98014285D01*
X188902380Y-97919047D01*
X188902380Y-97728571D01*
X188854761Y-97633333D01*
X188807142Y-97585714D01*
X188711904Y-97538095D01*
X188521428Y-97538095D01*
X188426190Y-97585714D01*
X188378571Y-97633333D01*
X188330952Y-97728571D01*
X185807142Y-99442857D02*
X185854761Y-99490476D01*
X185902380Y-99633333D01*
X185902380Y-99728571D01*
X185854761Y-99871428D01*
X185759523Y-99966666D01*
X185664285Y-100014285D01*
X185473809Y-100061904D01*
X185330952Y-100061904D01*
X185140476Y-100014285D01*
X185045238Y-99966666D01*
X184950000Y-99871428D01*
X184902380Y-99728571D01*
X184902380Y-99633333D01*
X184950000Y-99490476D01*
X184997619Y-99442857D01*
X185902380Y-98490476D02*
X185902380Y-99061904D01*
X185902380Y-98776190D02*
X184902380Y-98776190D01*
X185045238Y-98871428D01*
X185140476Y-98966666D01*
X185188095Y-99061904D01*
X184902380Y-98157142D02*
X184902380Y-97490476D01*
X185902380Y-97919047D01*
X170807142Y-84212857D02*
X170854761Y-84260476D01*
X170902380Y-84403333D01*
X170902380Y-84498571D01*
X170854761Y-84641428D01*
X170759523Y-84736666D01*
X170664285Y-84784285D01*
X170473809Y-84831904D01*
X170330952Y-84831904D01*
X170140476Y-84784285D01*
X170045238Y-84736666D01*
X169950000Y-84641428D01*
X169902380Y-84498571D01*
X169902380Y-84403333D01*
X169950000Y-84260476D01*
X169997619Y-84212857D01*
X170902380Y-83260476D02*
X170902380Y-83831904D01*
X170902380Y-83546190D02*
X169902380Y-83546190D01*
X170045238Y-83641428D01*
X170140476Y-83736666D01*
X170188095Y-83831904D01*
X169902380Y-82403333D02*
X169902380Y-82593809D01*
X169950000Y-82689047D01*
X169997619Y-82736666D01*
X170140476Y-82831904D01*
X170330952Y-82879523D01*
X170711904Y-82879523D01*
X170807142Y-82831904D01*
X170854761Y-82784285D01*
X170902380Y-82689047D01*
X170902380Y-82498571D01*
X170854761Y-82403333D01*
X170807142Y-82355714D01*
X170711904Y-82308095D01*
X170473809Y-82308095D01*
X170378571Y-82355714D01*
X170330952Y-82403333D01*
X170283333Y-82498571D01*
X170283333Y-82689047D01*
X170330952Y-82784285D01*
X170378571Y-82831904D01*
X170473809Y-82879523D01*
X180607142Y-82857142D02*
X180559523Y-82904761D01*
X180416666Y-82952380D01*
X180321428Y-82952380D01*
X180178571Y-82904761D01*
X180083333Y-82809523D01*
X180035714Y-82714285D01*
X179988095Y-82523809D01*
X179988095Y-82380952D01*
X180035714Y-82190476D01*
X180083333Y-82095238D01*
X180178571Y-82000000D01*
X180321428Y-81952380D01*
X180416666Y-81952380D01*
X180559523Y-82000000D01*
X180607142Y-82047619D01*
X181559523Y-82952380D02*
X180988095Y-82952380D01*
X181273809Y-82952380D02*
X181273809Y-81952380D01*
X181178571Y-82095238D01*
X181083333Y-82190476D01*
X180988095Y-82238095D01*
X182464285Y-81952380D02*
X181988095Y-81952380D01*
X181940476Y-82428571D01*
X181988095Y-82380952D01*
X182083333Y-82333333D01*
X182321428Y-82333333D01*
X182416666Y-82380952D01*
X182464285Y-82428571D01*
X182511904Y-82523809D01*
X182511904Y-82761904D01*
X182464285Y-82857142D01*
X182416666Y-82904761D01*
X182321428Y-82952380D01*
X182083333Y-82952380D01*
X181988095Y-82904761D01*
X181940476Y-82857142D01*
X188557142Y-94417857D02*
X188604761Y-94465476D01*
X188652380Y-94608333D01*
X188652380Y-94703571D01*
X188604761Y-94846428D01*
X188509523Y-94941666D01*
X188414285Y-94989285D01*
X188223809Y-95036904D01*
X188080952Y-95036904D01*
X187890476Y-94989285D01*
X187795238Y-94941666D01*
X187700000Y-94846428D01*
X187652380Y-94703571D01*
X187652380Y-94608333D01*
X187700000Y-94465476D01*
X187747619Y-94417857D01*
X188652380Y-93465476D02*
X188652380Y-94036904D01*
X188652380Y-93751190D02*
X187652380Y-93751190D01*
X187795238Y-93846428D01*
X187890476Y-93941666D01*
X187938095Y-94036904D01*
X187985714Y-92608333D02*
X188652380Y-92608333D01*
X187604761Y-92846428D02*
X188319047Y-93084523D01*
X188319047Y-92465476D01*
X188557142Y-90892857D02*
X188604761Y-90940476D01*
X188652380Y-91083333D01*
X188652380Y-91178571D01*
X188604761Y-91321428D01*
X188509523Y-91416666D01*
X188414285Y-91464285D01*
X188223809Y-91511904D01*
X188080952Y-91511904D01*
X187890476Y-91464285D01*
X187795238Y-91416666D01*
X187700000Y-91321428D01*
X187652380Y-91178571D01*
X187652380Y-91083333D01*
X187700000Y-90940476D01*
X187747619Y-90892857D01*
X188652380Y-89940476D02*
X188652380Y-90511904D01*
X188652380Y-90226190D02*
X187652380Y-90226190D01*
X187795238Y-90321428D01*
X187890476Y-90416666D01*
X187938095Y-90511904D01*
X187652380Y-89607142D02*
X187652380Y-88988095D01*
X188033333Y-89321428D01*
X188033333Y-89178571D01*
X188080952Y-89083333D01*
X188128571Y-89035714D01*
X188223809Y-88988095D01*
X188461904Y-88988095D01*
X188557142Y-89035714D01*
X188604761Y-89083333D01*
X188652380Y-89178571D01*
X188652380Y-89464285D01*
X188604761Y-89559523D01*
X188557142Y-89607142D01*
X174807142Y-110192857D02*
X174854761Y-110240476D01*
X174902380Y-110383333D01*
X174902380Y-110478571D01*
X174854761Y-110621428D01*
X174759523Y-110716666D01*
X174664285Y-110764285D01*
X174473809Y-110811904D01*
X174330952Y-110811904D01*
X174140476Y-110764285D01*
X174045238Y-110716666D01*
X173950000Y-110621428D01*
X173902380Y-110478571D01*
X173902380Y-110383333D01*
X173950000Y-110240476D01*
X173997619Y-110192857D01*
X174902380Y-109240476D02*
X174902380Y-109811904D01*
X174902380Y-109526190D02*
X173902380Y-109526190D01*
X174045238Y-109621428D01*
X174140476Y-109716666D01*
X174188095Y-109811904D01*
X173997619Y-108859523D02*
X173950000Y-108811904D01*
X173902380Y-108716666D01*
X173902380Y-108478571D01*
X173950000Y-108383333D01*
X173997619Y-108335714D01*
X174092857Y-108288095D01*
X174188095Y-108288095D01*
X174330952Y-108335714D01*
X174902380Y-108907142D01*
X174902380Y-108288095D01*
X171307142Y-110192857D02*
X171354761Y-110240476D01*
X171402380Y-110383333D01*
X171402380Y-110478571D01*
X171354761Y-110621428D01*
X171259523Y-110716666D01*
X171164285Y-110764285D01*
X170973809Y-110811904D01*
X170830952Y-110811904D01*
X170640476Y-110764285D01*
X170545238Y-110716666D01*
X170450000Y-110621428D01*
X170402380Y-110478571D01*
X170402380Y-110383333D01*
X170450000Y-110240476D01*
X170497619Y-110192857D01*
X171402380Y-109240476D02*
X171402380Y-109811904D01*
X171402380Y-109526190D02*
X170402380Y-109526190D01*
X170545238Y-109621428D01*
X170640476Y-109716666D01*
X170688095Y-109811904D01*
X171402380Y-108288095D02*
X171402380Y-108859523D01*
X171402380Y-108573809D02*
X170402380Y-108573809D01*
X170545238Y-108669047D01*
X170640476Y-108764285D01*
X170688095Y-108859523D01*
X173057142Y-110192857D02*
X173104761Y-110240476D01*
X173152380Y-110383333D01*
X173152380Y-110478571D01*
X173104761Y-110621428D01*
X173009523Y-110716666D01*
X172914285Y-110764285D01*
X172723809Y-110811904D01*
X172580952Y-110811904D01*
X172390476Y-110764285D01*
X172295238Y-110716666D01*
X172200000Y-110621428D01*
X172152380Y-110478571D01*
X172152380Y-110383333D01*
X172200000Y-110240476D01*
X172247619Y-110192857D01*
X173152380Y-109240476D02*
X173152380Y-109811904D01*
X173152380Y-109526190D02*
X172152380Y-109526190D01*
X172295238Y-109621428D01*
X172390476Y-109716666D01*
X172438095Y-109811904D01*
X172152380Y-108621428D02*
X172152380Y-108526190D01*
X172200000Y-108430952D01*
X172247619Y-108383333D01*
X172342857Y-108335714D01*
X172533333Y-108288095D01*
X172771428Y-108288095D01*
X172961904Y-108335714D01*
X173057142Y-108383333D01*
X173104761Y-108430952D01*
X173152380Y-108526190D01*
X173152380Y-108621428D01*
X173104761Y-108716666D01*
X173057142Y-108764285D01*
X172961904Y-108811904D01*
X172771428Y-108859523D01*
X172533333Y-108859523D01*
X172342857Y-108811904D01*
X172247619Y-108764285D01*
X172200000Y-108716666D01*
X172152380Y-108621428D01*
X173057142Y-106966666D02*
X173104761Y-107014285D01*
X173152380Y-107157142D01*
X173152380Y-107252380D01*
X173104761Y-107395238D01*
X173009523Y-107490476D01*
X172914285Y-107538095D01*
X172723809Y-107585714D01*
X172580952Y-107585714D01*
X172390476Y-107538095D01*
X172295238Y-107490476D01*
X172200000Y-107395238D01*
X172152380Y-107252380D01*
X172152380Y-107157142D01*
X172200000Y-107014285D01*
X172247619Y-106966666D01*
X173152380Y-106490476D02*
X173152380Y-106300000D01*
X173104761Y-106204761D01*
X173057142Y-106157142D01*
X172914285Y-106061904D01*
X172723809Y-106014285D01*
X172342857Y-106014285D01*
X172247619Y-106061904D01*
X172200000Y-106109523D01*
X172152380Y-106204761D01*
X172152380Y-106395238D01*
X172200000Y-106490476D01*
X172247619Y-106538095D01*
X172342857Y-106585714D01*
X172580952Y-106585714D01*
X172676190Y-106538095D01*
X172723809Y-106490476D01*
X172771428Y-106395238D01*
X172771428Y-106204761D01*
X172723809Y-106109523D01*
X172676190Y-106061904D01*
X172580952Y-106014285D01*
X182310142Y-78060666D02*
X182357761Y-78108285D01*
X182405380Y-78251142D01*
X182405380Y-78346380D01*
X182357761Y-78489238D01*
X182262523Y-78584476D01*
X182167285Y-78632095D01*
X181976809Y-78679714D01*
X181833952Y-78679714D01*
X181643476Y-78632095D01*
X181548238Y-78584476D01*
X181453000Y-78489238D01*
X181405380Y-78346380D01*
X181405380Y-78251142D01*
X181453000Y-78108285D01*
X181500619Y-78060666D01*
X181833952Y-77489238D02*
X181786333Y-77584476D01*
X181738714Y-77632095D01*
X181643476Y-77679714D01*
X181595857Y-77679714D01*
X181500619Y-77632095D01*
X181453000Y-77584476D01*
X181405380Y-77489238D01*
X181405380Y-77298761D01*
X181453000Y-77203523D01*
X181500619Y-77155904D01*
X181595857Y-77108285D01*
X181643476Y-77108285D01*
X181738714Y-77155904D01*
X181786333Y-77203523D01*
X181833952Y-77298761D01*
X181833952Y-77489238D01*
X181881571Y-77584476D01*
X181929190Y-77632095D01*
X182024428Y-77679714D01*
X182214904Y-77679714D01*
X182310142Y-77632095D01*
X182357761Y-77584476D01*
X182405380Y-77489238D01*
X182405380Y-77298761D01*
X182357761Y-77203523D01*
X182310142Y-77155904D01*
X182214904Y-77108285D01*
X182024428Y-77108285D01*
X181929190Y-77155904D01*
X181881571Y-77203523D01*
X181833952Y-77298761D01*
X178533333Y-66657142D02*
X178485714Y-66704761D01*
X178342857Y-66752380D01*
X178247619Y-66752380D01*
X178104761Y-66704761D01*
X178009523Y-66609523D01*
X177961904Y-66514285D01*
X177914285Y-66323809D01*
X177914285Y-66180952D01*
X177961904Y-65990476D01*
X178009523Y-65895238D01*
X178104761Y-65800000D01*
X178247619Y-65752380D01*
X178342857Y-65752380D01*
X178485714Y-65800000D01*
X178533333Y-65847619D01*
X178866666Y-65752380D02*
X179533333Y-65752380D01*
X179104761Y-66752380D01*
X174157142Y-76216666D02*
X174204761Y-76264285D01*
X174252380Y-76407142D01*
X174252380Y-76502380D01*
X174204761Y-76645238D01*
X174109523Y-76740476D01*
X174014285Y-76788095D01*
X173823809Y-76835714D01*
X173680952Y-76835714D01*
X173490476Y-76788095D01*
X173395238Y-76740476D01*
X173300000Y-76645238D01*
X173252380Y-76502380D01*
X173252380Y-76407142D01*
X173300000Y-76264285D01*
X173347619Y-76216666D01*
X173252380Y-75311904D02*
X173252380Y-75788095D01*
X173728571Y-75835714D01*
X173680952Y-75788095D01*
X173633333Y-75692857D01*
X173633333Y-75454761D01*
X173680952Y-75359523D01*
X173728571Y-75311904D01*
X173823809Y-75264285D01*
X174061904Y-75264285D01*
X174157142Y-75311904D01*
X174204761Y-75359523D01*
X174252380Y-75454761D01*
X174252380Y-75692857D01*
X174204761Y-75788095D01*
X174157142Y-75835714D01*
X172506142Y-76216666D02*
X172553761Y-76264285D01*
X172601380Y-76407142D01*
X172601380Y-76502380D01*
X172553761Y-76645238D01*
X172458523Y-76740476D01*
X172363285Y-76788095D01*
X172172809Y-76835714D01*
X172029952Y-76835714D01*
X171839476Y-76788095D01*
X171744238Y-76740476D01*
X171649000Y-76645238D01*
X171601380Y-76502380D01*
X171601380Y-76407142D01*
X171649000Y-76264285D01*
X171696619Y-76216666D01*
X171934714Y-75359523D02*
X172601380Y-75359523D01*
X171553761Y-75597619D02*
X172268047Y-75835714D01*
X172268047Y-75216666D01*
X172506142Y-66884666D02*
X172553761Y-66932285D01*
X172601380Y-67075142D01*
X172601380Y-67170380D01*
X172553761Y-67313238D01*
X172458523Y-67408476D01*
X172363285Y-67456095D01*
X172172809Y-67503714D01*
X172029952Y-67503714D01*
X171839476Y-67456095D01*
X171744238Y-67408476D01*
X171649000Y-67313238D01*
X171601380Y-67170380D01*
X171601380Y-67075142D01*
X171649000Y-66932285D01*
X171696619Y-66884666D01*
X171601380Y-66551333D02*
X171601380Y-65932285D01*
X171982333Y-66265619D01*
X171982333Y-66122761D01*
X172029952Y-66027523D01*
X172077571Y-65979904D01*
X172172809Y-65932285D01*
X172410904Y-65932285D01*
X172506142Y-65979904D01*
X172553761Y-66027523D01*
X172601380Y-66122761D01*
X172601380Y-66408476D01*
X172553761Y-66503714D01*
X172506142Y-66551333D01*
X174157142Y-66884666D02*
X174204761Y-66932285D01*
X174252380Y-67075142D01*
X174252380Y-67170380D01*
X174204761Y-67313238D01*
X174109523Y-67408476D01*
X174014285Y-67456095D01*
X173823809Y-67503714D01*
X173680952Y-67503714D01*
X173490476Y-67456095D01*
X173395238Y-67408476D01*
X173300000Y-67313238D01*
X173252380Y-67170380D01*
X173252380Y-67075142D01*
X173300000Y-66932285D01*
X173347619Y-66884666D01*
X173347619Y-66503714D02*
X173300000Y-66456095D01*
X173252380Y-66360857D01*
X173252380Y-66122761D01*
X173300000Y-66027523D01*
X173347619Y-65979904D01*
X173442857Y-65932285D01*
X173538095Y-65932285D01*
X173680952Y-65979904D01*
X174252380Y-66551333D01*
X174252380Y-65932285D01*
X175808142Y-66884666D02*
X175855761Y-66932285D01*
X175903380Y-67075142D01*
X175903380Y-67170380D01*
X175855761Y-67313238D01*
X175760523Y-67408476D01*
X175665285Y-67456095D01*
X175474809Y-67503714D01*
X175331952Y-67503714D01*
X175141476Y-67456095D01*
X175046238Y-67408476D01*
X174951000Y-67313238D01*
X174903380Y-67170380D01*
X174903380Y-67075142D01*
X174951000Y-66932285D01*
X174998619Y-66884666D01*
X175903380Y-65932285D02*
X175903380Y-66503714D01*
X175903380Y-66218000D02*
X174903380Y-66218000D01*
X175046238Y-66313238D01*
X175141476Y-66408476D01*
X175189095Y-66503714D01*
M02*
