G04 #@! TF.GenerationSoftware,KiCad,Pcbnew,(5.1.2)-2*
G04 #@! TF.CreationDate,2020-01-18T23:29:07-05:00*
G04 #@! TF.ProjectId,PowerSenseModule,506f7765-7253-4656-9e73-654d6f64756c,1.0*
G04 #@! TF.SameCoordinates,Original*
G04 #@! TF.FileFunction,Soldermask,Top*
G04 #@! TF.FilePolarity,Negative*
%FSLAX46Y46*%
G04 Gerber Fmt 4.6, Leading zero omitted, Abs format (unit mm)*
G04 Created by KiCad (PCBNEW (5.1.2)-2) date 2020-01-18 23:29:07*
%MOMM*%
%LPD*%
G04 APERTURE LIST*
%ADD10C,0.381000*%
%ADD11C,0.100000*%
G04 APERTURE END LIST*
D10*
X193008000Y-74619000D02*
X192881000Y-74111000D01*
X194532000Y-70428000D02*
X194405000Y-69920000D01*
X193008000Y-74746000D02*
X194786000Y-71952000D01*
X193516000Y-71952000D02*
X195294000Y-69920000D01*
X194786000Y-71952000D02*
X193516000Y-71952000D01*
X192754000Y-75127000D02*
X193516000Y-74492000D01*
X193516000Y-74492000D02*
X193008000Y-74746000D01*
X192754000Y-72333000D02*
X194151000Y-72333000D01*
X194385000Y-69895000D02*
X192754000Y-72333000D01*
X194151000Y-72333000D02*
X193008000Y-74619000D01*
X193135000Y-72206000D02*
X194405000Y-72206000D01*
X192881000Y-74111000D02*
X192754000Y-75127000D01*
X194532000Y-70301000D02*
X193135000Y-72206000D01*
X195294000Y-69920000D02*
X194532000Y-70428000D01*
D11*
G36*
X195849943Y-113536248D02*
G01*
X196405189Y-113766238D01*
X196405190Y-113766239D01*
X196904899Y-114100134D01*
X197329866Y-114525101D01*
X197329867Y-114525103D01*
X197663762Y-115024811D01*
X197893752Y-115580057D01*
X198011000Y-116169501D01*
X198011000Y-116770499D01*
X197893752Y-117359943D01*
X197663762Y-117915189D01*
X197663761Y-117915190D01*
X197329866Y-118414899D01*
X196904899Y-118839866D01*
X196653347Y-119007948D01*
X196405189Y-119173762D01*
X195849943Y-119403752D01*
X195260499Y-119521000D01*
X194659501Y-119521000D01*
X194070057Y-119403752D01*
X193514811Y-119173762D01*
X193266653Y-119007948D01*
X193015101Y-118839866D01*
X192590134Y-118414899D01*
X192256239Y-117915190D01*
X192256238Y-117915189D01*
X192026248Y-117359943D01*
X191909000Y-116770499D01*
X191909000Y-116169501D01*
X192026248Y-115580057D01*
X192256238Y-115024811D01*
X192590133Y-114525103D01*
X192590134Y-114525101D01*
X193015101Y-114100134D01*
X193514810Y-113766239D01*
X193514811Y-113766238D01*
X194070057Y-113536248D01*
X194659501Y-113419000D01*
X195260499Y-113419000D01*
X195849943Y-113536248D01*
X195849943Y-113536248D01*
G37*
G36*
X179699499Y-111348445D02*
G01*
X179736995Y-111359820D01*
X179771554Y-111378292D01*
X179801847Y-111403153D01*
X179826708Y-111433446D01*
X179845180Y-111468005D01*
X179856555Y-111505501D01*
X179861000Y-111550638D01*
X179861000Y-112189362D01*
X179856555Y-112234499D01*
X179845180Y-112271995D01*
X179826708Y-112306554D01*
X179801847Y-112336847D01*
X179771554Y-112361708D01*
X179736995Y-112380180D01*
X179699499Y-112391555D01*
X179654362Y-112396000D01*
X178915638Y-112396000D01*
X178870501Y-112391555D01*
X178833005Y-112380180D01*
X178798446Y-112361708D01*
X178768153Y-112336847D01*
X178743292Y-112306554D01*
X178724820Y-112271995D01*
X178713445Y-112234499D01*
X178709000Y-112189362D01*
X178709000Y-111550638D01*
X178713445Y-111505501D01*
X178724820Y-111468005D01*
X178743292Y-111433446D01*
X178768153Y-111403153D01*
X178798446Y-111378292D01*
X178833005Y-111359820D01*
X178870501Y-111348445D01*
X178915638Y-111344000D01*
X179654362Y-111344000D01*
X179699499Y-111348445D01*
X179699499Y-111348445D01*
G37*
G36*
X177949499Y-111348445D02*
G01*
X177986995Y-111359820D01*
X178021554Y-111378292D01*
X178051847Y-111403153D01*
X178076708Y-111433446D01*
X178095180Y-111468005D01*
X178106555Y-111505501D01*
X178111000Y-111550638D01*
X178111000Y-112189362D01*
X178106555Y-112234499D01*
X178095180Y-112271995D01*
X178076708Y-112306554D01*
X178051847Y-112336847D01*
X178021554Y-112361708D01*
X177986995Y-112380180D01*
X177949499Y-112391555D01*
X177904362Y-112396000D01*
X177165638Y-112396000D01*
X177120501Y-112391555D01*
X177083005Y-112380180D01*
X177048446Y-112361708D01*
X177018153Y-112336847D01*
X176993292Y-112306554D01*
X176974820Y-112271995D01*
X176963445Y-112234499D01*
X176959000Y-112189362D01*
X176959000Y-111550638D01*
X176963445Y-111505501D01*
X176974820Y-111468005D01*
X176993292Y-111433446D01*
X177018153Y-111403153D01*
X177048446Y-111378292D01*
X177083005Y-111359820D01*
X177120501Y-111348445D01*
X177165638Y-111344000D01*
X177904362Y-111344000D01*
X177949499Y-111348445D01*
X177949499Y-111348445D01*
G37*
G36*
X181959499Y-111318445D02*
G01*
X181996995Y-111329820D01*
X182031554Y-111348292D01*
X182061847Y-111373153D01*
X182086708Y-111403446D01*
X182105180Y-111438005D01*
X182116555Y-111475501D01*
X182121000Y-111520638D01*
X182121000Y-112159362D01*
X182116555Y-112204499D01*
X182105180Y-112241995D01*
X182086708Y-112276554D01*
X182061847Y-112306847D01*
X182031554Y-112331708D01*
X181996995Y-112350180D01*
X181959499Y-112361555D01*
X181914362Y-112366000D01*
X181175638Y-112366000D01*
X181130501Y-112361555D01*
X181093005Y-112350180D01*
X181058446Y-112331708D01*
X181028153Y-112306847D01*
X181003292Y-112276554D01*
X180984820Y-112241995D01*
X180973445Y-112204499D01*
X180969000Y-112159362D01*
X180969000Y-111520638D01*
X180973445Y-111475501D01*
X180984820Y-111438005D01*
X181003292Y-111403446D01*
X181028153Y-111373153D01*
X181058446Y-111348292D01*
X181093005Y-111329820D01*
X181130501Y-111318445D01*
X181175638Y-111314000D01*
X181914362Y-111314000D01*
X181959499Y-111318445D01*
X181959499Y-111318445D01*
G37*
G36*
X183709499Y-111318445D02*
G01*
X183746995Y-111329820D01*
X183781554Y-111348292D01*
X183811847Y-111373153D01*
X183836708Y-111403446D01*
X183855180Y-111438005D01*
X183866555Y-111475501D01*
X183871000Y-111520638D01*
X183871000Y-112159362D01*
X183866555Y-112204499D01*
X183855180Y-112241995D01*
X183836708Y-112276554D01*
X183811847Y-112306847D01*
X183781554Y-112331708D01*
X183746995Y-112350180D01*
X183709499Y-112361555D01*
X183664362Y-112366000D01*
X182925638Y-112366000D01*
X182880501Y-112361555D01*
X182843005Y-112350180D01*
X182808446Y-112331708D01*
X182778153Y-112306847D01*
X182753292Y-112276554D01*
X182734820Y-112241995D01*
X182723445Y-112204499D01*
X182719000Y-112159362D01*
X182719000Y-111520638D01*
X182723445Y-111475501D01*
X182734820Y-111438005D01*
X182753292Y-111403446D01*
X182778153Y-111373153D01*
X182808446Y-111348292D01*
X182843005Y-111329820D01*
X182880501Y-111318445D01*
X182925638Y-111314000D01*
X183664362Y-111314000D01*
X183709499Y-111318445D01*
X183709499Y-111318445D01*
G37*
G36*
X181959499Y-109468445D02*
G01*
X181996995Y-109479820D01*
X182031554Y-109498292D01*
X182061847Y-109523153D01*
X182086708Y-109553446D01*
X182105180Y-109588005D01*
X182116555Y-109625501D01*
X182121000Y-109670638D01*
X182121000Y-110309362D01*
X182116555Y-110354499D01*
X182105180Y-110391995D01*
X182086708Y-110426554D01*
X182061847Y-110456847D01*
X182031554Y-110481708D01*
X181996995Y-110500180D01*
X181959499Y-110511555D01*
X181914362Y-110516000D01*
X181175638Y-110516000D01*
X181130501Y-110511555D01*
X181093005Y-110500180D01*
X181058446Y-110481708D01*
X181028153Y-110456847D01*
X181003292Y-110426554D01*
X180984820Y-110391995D01*
X180973445Y-110354499D01*
X180969000Y-110309362D01*
X180969000Y-109670638D01*
X180973445Y-109625501D01*
X180984820Y-109588005D01*
X181003292Y-109553446D01*
X181028153Y-109523153D01*
X181058446Y-109498292D01*
X181093005Y-109479820D01*
X181130501Y-109468445D01*
X181175638Y-109464000D01*
X181914362Y-109464000D01*
X181959499Y-109468445D01*
X181959499Y-109468445D01*
G37*
G36*
X183709499Y-109468445D02*
G01*
X183746995Y-109479820D01*
X183781554Y-109498292D01*
X183811847Y-109523153D01*
X183836708Y-109553446D01*
X183855180Y-109588005D01*
X183866555Y-109625501D01*
X183871000Y-109670638D01*
X183871000Y-110309362D01*
X183866555Y-110354499D01*
X183855180Y-110391995D01*
X183836708Y-110426554D01*
X183811847Y-110456847D01*
X183781554Y-110481708D01*
X183746995Y-110500180D01*
X183709499Y-110511555D01*
X183664362Y-110516000D01*
X182925638Y-110516000D01*
X182880501Y-110511555D01*
X182843005Y-110500180D01*
X182808446Y-110481708D01*
X182778153Y-110456847D01*
X182753292Y-110426554D01*
X182734820Y-110391995D01*
X182723445Y-110354499D01*
X182719000Y-110309362D01*
X182719000Y-109670638D01*
X182723445Y-109625501D01*
X182734820Y-109588005D01*
X182753292Y-109553446D01*
X182778153Y-109523153D01*
X182808446Y-109498292D01*
X182843005Y-109479820D01*
X182880501Y-109468445D01*
X182925638Y-109464000D01*
X183664362Y-109464000D01*
X183709499Y-109468445D01*
X183709499Y-109468445D01*
G37*
G36*
X179699499Y-109448445D02*
G01*
X179736995Y-109459820D01*
X179771554Y-109478292D01*
X179801847Y-109503153D01*
X179826708Y-109533446D01*
X179845180Y-109568005D01*
X179856555Y-109605501D01*
X179861000Y-109650638D01*
X179861000Y-110289362D01*
X179856555Y-110334499D01*
X179845180Y-110371995D01*
X179826708Y-110406554D01*
X179801847Y-110436847D01*
X179771554Y-110461708D01*
X179736995Y-110480180D01*
X179699499Y-110491555D01*
X179654362Y-110496000D01*
X178915638Y-110496000D01*
X178870501Y-110491555D01*
X178833005Y-110480180D01*
X178798446Y-110461708D01*
X178768153Y-110436847D01*
X178743292Y-110406554D01*
X178724820Y-110371995D01*
X178713445Y-110334499D01*
X178709000Y-110289362D01*
X178709000Y-109650638D01*
X178713445Y-109605501D01*
X178724820Y-109568005D01*
X178743292Y-109533446D01*
X178768153Y-109503153D01*
X178798446Y-109478292D01*
X178833005Y-109459820D01*
X178870501Y-109448445D01*
X178915638Y-109444000D01*
X179654362Y-109444000D01*
X179699499Y-109448445D01*
X179699499Y-109448445D01*
G37*
G36*
X177949499Y-109448445D02*
G01*
X177986995Y-109459820D01*
X178021554Y-109478292D01*
X178051847Y-109503153D01*
X178076708Y-109533446D01*
X178095180Y-109568005D01*
X178106555Y-109605501D01*
X178111000Y-109650638D01*
X178111000Y-110289362D01*
X178106555Y-110334499D01*
X178095180Y-110371995D01*
X178076708Y-110406554D01*
X178051847Y-110436847D01*
X178021554Y-110461708D01*
X177986995Y-110480180D01*
X177949499Y-110491555D01*
X177904362Y-110496000D01*
X177165638Y-110496000D01*
X177120501Y-110491555D01*
X177083005Y-110480180D01*
X177048446Y-110461708D01*
X177018153Y-110436847D01*
X176993292Y-110406554D01*
X176974820Y-110371995D01*
X176963445Y-110334499D01*
X176959000Y-110289362D01*
X176959000Y-109650638D01*
X176963445Y-109605501D01*
X176974820Y-109568005D01*
X176993292Y-109533446D01*
X177018153Y-109503153D01*
X177048446Y-109478292D01*
X177083005Y-109459820D01*
X177120501Y-109448445D01*
X177165638Y-109444000D01*
X177904362Y-109444000D01*
X177949499Y-109448445D01*
X177949499Y-109448445D01*
G37*
G36*
X168639928Y-106651764D02*
G01*
X168661009Y-106658160D01*
X168680445Y-106668548D01*
X168697476Y-106682524D01*
X168711452Y-106699555D01*
X168721840Y-106718991D01*
X168728236Y-106740072D01*
X168731000Y-106768140D01*
X168731000Y-108581860D01*
X168728236Y-108609928D01*
X168721840Y-108631009D01*
X168711452Y-108650445D01*
X168697476Y-108667476D01*
X168680445Y-108681452D01*
X168661009Y-108691840D01*
X168639928Y-108698236D01*
X168611860Y-108701000D01*
X168148140Y-108701000D01*
X168120072Y-108698236D01*
X168098991Y-108691840D01*
X168079555Y-108681452D01*
X168062524Y-108667476D01*
X168048548Y-108650445D01*
X168038160Y-108631009D01*
X168031764Y-108609928D01*
X168029000Y-108581860D01*
X168029000Y-106768140D01*
X168031764Y-106740072D01*
X168038160Y-106718991D01*
X168048548Y-106699555D01*
X168062524Y-106682524D01*
X168079555Y-106668548D01*
X168098991Y-106658160D01*
X168120072Y-106651764D01*
X168148140Y-106649000D01*
X168611860Y-106649000D01*
X168639928Y-106651764D01*
X168639928Y-106651764D01*
G37*
G36*
X164829928Y-106651764D02*
G01*
X164851009Y-106658160D01*
X164870445Y-106668548D01*
X164887476Y-106682524D01*
X164901452Y-106699555D01*
X164911840Y-106718991D01*
X164918236Y-106740072D01*
X164921000Y-106768140D01*
X164921000Y-108581860D01*
X164918236Y-108609928D01*
X164911840Y-108631009D01*
X164901452Y-108650445D01*
X164887476Y-108667476D01*
X164870445Y-108681452D01*
X164851009Y-108691840D01*
X164829928Y-108698236D01*
X164801860Y-108701000D01*
X164338140Y-108701000D01*
X164310072Y-108698236D01*
X164288991Y-108691840D01*
X164269555Y-108681452D01*
X164252524Y-108667476D01*
X164238548Y-108650445D01*
X164228160Y-108631009D01*
X164221764Y-108609928D01*
X164219000Y-108581860D01*
X164219000Y-106768140D01*
X164221764Y-106740072D01*
X164228160Y-106718991D01*
X164238548Y-106699555D01*
X164252524Y-106682524D01*
X164269555Y-106668548D01*
X164288991Y-106658160D01*
X164310072Y-106651764D01*
X164338140Y-106649000D01*
X164801860Y-106649000D01*
X164829928Y-106651764D01*
X164829928Y-106651764D01*
G37*
G36*
X166099928Y-106651764D02*
G01*
X166121009Y-106658160D01*
X166140445Y-106668548D01*
X166157476Y-106682524D01*
X166171452Y-106699555D01*
X166181840Y-106718991D01*
X166188236Y-106740072D01*
X166191000Y-106768140D01*
X166191000Y-108581860D01*
X166188236Y-108609928D01*
X166181840Y-108631009D01*
X166171452Y-108650445D01*
X166157476Y-108667476D01*
X166140445Y-108681452D01*
X166121009Y-108691840D01*
X166099928Y-108698236D01*
X166071860Y-108701000D01*
X165608140Y-108701000D01*
X165580072Y-108698236D01*
X165558991Y-108691840D01*
X165539555Y-108681452D01*
X165522524Y-108667476D01*
X165508548Y-108650445D01*
X165498160Y-108631009D01*
X165491764Y-108609928D01*
X165489000Y-108581860D01*
X165489000Y-106768140D01*
X165491764Y-106740072D01*
X165498160Y-106718991D01*
X165508548Y-106699555D01*
X165522524Y-106682524D01*
X165539555Y-106668548D01*
X165558991Y-106658160D01*
X165580072Y-106651764D01*
X165608140Y-106649000D01*
X166071860Y-106649000D01*
X166099928Y-106651764D01*
X166099928Y-106651764D01*
G37*
G36*
X167369928Y-106651764D02*
G01*
X167391009Y-106658160D01*
X167410445Y-106668548D01*
X167427476Y-106682524D01*
X167441452Y-106699555D01*
X167451840Y-106718991D01*
X167458236Y-106740072D01*
X167461000Y-106768140D01*
X167461000Y-108581860D01*
X167458236Y-108609928D01*
X167451840Y-108631009D01*
X167441452Y-108650445D01*
X167427476Y-108667476D01*
X167410445Y-108681452D01*
X167391009Y-108691840D01*
X167369928Y-108698236D01*
X167341860Y-108701000D01*
X166878140Y-108701000D01*
X166850072Y-108698236D01*
X166828991Y-108691840D01*
X166809555Y-108681452D01*
X166792524Y-108667476D01*
X166778548Y-108650445D01*
X166768160Y-108631009D01*
X166761764Y-108609928D01*
X166759000Y-108581860D01*
X166759000Y-106768140D01*
X166761764Y-106740072D01*
X166768160Y-106718991D01*
X166778548Y-106699555D01*
X166792524Y-106682524D01*
X166809555Y-106668548D01*
X166828991Y-106658160D01*
X166850072Y-106651764D01*
X166878140Y-106649000D01*
X167341860Y-106649000D01*
X167369928Y-106651764D01*
X167369928Y-106651764D01*
G37*
G36*
X163064499Y-105303445D02*
G01*
X163101995Y-105314820D01*
X163136554Y-105333292D01*
X163166847Y-105358153D01*
X163191708Y-105388446D01*
X163210180Y-105423005D01*
X163221555Y-105460501D01*
X163226000Y-105505638D01*
X163226000Y-106244362D01*
X163221555Y-106289499D01*
X163210180Y-106326995D01*
X163191708Y-106361554D01*
X163166847Y-106391847D01*
X163136554Y-106416708D01*
X163101995Y-106435180D01*
X163064499Y-106446555D01*
X163019362Y-106451000D01*
X162380638Y-106451000D01*
X162335501Y-106446555D01*
X162298005Y-106435180D01*
X162263446Y-106416708D01*
X162233153Y-106391847D01*
X162208292Y-106361554D01*
X162189820Y-106326995D01*
X162178445Y-106289499D01*
X162174000Y-106244362D01*
X162174000Y-105505638D01*
X162178445Y-105460501D01*
X162189820Y-105423005D01*
X162208292Y-105388446D01*
X162233153Y-105358153D01*
X162263446Y-105333292D01*
X162298005Y-105314820D01*
X162335501Y-105303445D01*
X162380638Y-105299000D01*
X163019362Y-105299000D01*
X163064499Y-105303445D01*
X163064499Y-105303445D01*
G37*
G36*
X143733131Y-100407523D02*
G01*
X143761628Y-100416167D01*
X143787889Y-100430204D01*
X143810906Y-100449094D01*
X143829796Y-100472111D01*
X143843833Y-100498372D01*
X143852477Y-100526869D01*
X143856000Y-100562640D01*
X143856000Y-104797360D01*
X143852477Y-104833131D01*
X143843833Y-104861628D01*
X143829796Y-104887889D01*
X143810906Y-104910906D01*
X143787889Y-104929796D01*
X143761628Y-104943833D01*
X143733131Y-104952477D01*
X143697360Y-104956000D01*
X140712640Y-104956000D01*
X140676869Y-104952477D01*
X140648372Y-104943833D01*
X140622111Y-104929796D01*
X140599094Y-104910906D01*
X140580204Y-104887889D01*
X140566167Y-104861628D01*
X140557523Y-104833131D01*
X140554000Y-104797360D01*
X140554000Y-100562640D01*
X140557523Y-100526869D01*
X140566167Y-100498372D01*
X140580204Y-100472111D01*
X140599094Y-100449094D01*
X140622111Y-100430204D01*
X140648372Y-100416167D01*
X140676869Y-100407523D01*
X140712640Y-100404000D01*
X143697360Y-100404000D01*
X143733131Y-100407523D01*
X143733131Y-100407523D01*
G37*
G36*
X138533131Y-100407523D02*
G01*
X138561628Y-100416167D01*
X138587889Y-100430204D01*
X138610906Y-100449094D01*
X138629796Y-100472111D01*
X138643833Y-100498372D01*
X138652477Y-100526869D01*
X138656000Y-100562640D01*
X138656000Y-104797360D01*
X138652477Y-104833131D01*
X138643833Y-104861628D01*
X138629796Y-104887889D01*
X138610906Y-104910906D01*
X138587889Y-104929796D01*
X138561628Y-104943833D01*
X138533131Y-104952477D01*
X138497360Y-104956000D01*
X135512640Y-104956000D01*
X135476869Y-104952477D01*
X135448372Y-104943833D01*
X135422111Y-104929796D01*
X135399094Y-104910906D01*
X135380204Y-104887889D01*
X135366167Y-104861628D01*
X135357523Y-104833131D01*
X135354000Y-104797360D01*
X135354000Y-100562640D01*
X135357523Y-100526869D01*
X135366167Y-100498372D01*
X135380204Y-100472111D01*
X135399094Y-100449094D01*
X135422111Y-100430204D01*
X135448372Y-100416167D01*
X135476869Y-100407523D01*
X135512640Y-100404000D01*
X138497360Y-100404000D01*
X138533131Y-100407523D01*
X138533131Y-100407523D01*
G37*
G36*
X163064499Y-103553445D02*
G01*
X163101995Y-103564820D01*
X163136554Y-103583292D01*
X163166847Y-103608153D01*
X163191708Y-103638446D01*
X163210180Y-103673005D01*
X163221555Y-103710501D01*
X163226000Y-103755638D01*
X163226000Y-104494362D01*
X163221555Y-104539499D01*
X163210180Y-104576995D01*
X163191708Y-104611554D01*
X163166847Y-104641847D01*
X163136554Y-104666708D01*
X163101995Y-104685180D01*
X163064499Y-104696555D01*
X163019362Y-104701000D01*
X162380638Y-104701000D01*
X162335501Y-104696555D01*
X162298005Y-104685180D01*
X162263446Y-104666708D01*
X162233153Y-104641847D01*
X162208292Y-104611554D01*
X162189820Y-104576995D01*
X162178445Y-104539499D01*
X162174000Y-104494362D01*
X162174000Y-103755638D01*
X162178445Y-103710501D01*
X162189820Y-103673005D01*
X162208292Y-103638446D01*
X162233153Y-103608153D01*
X162263446Y-103583292D01*
X162298005Y-103564820D01*
X162335501Y-103553445D01*
X162380638Y-103549000D01*
X163019362Y-103549000D01*
X163064499Y-103553445D01*
X163064499Y-103553445D01*
G37*
G36*
X171264499Y-103203445D02*
G01*
X171301995Y-103214820D01*
X171336554Y-103233292D01*
X171366847Y-103258153D01*
X171391708Y-103288446D01*
X171410180Y-103323005D01*
X171421555Y-103360501D01*
X171426000Y-103405638D01*
X171426000Y-104144362D01*
X171421555Y-104189499D01*
X171410180Y-104226995D01*
X171391708Y-104261554D01*
X171366847Y-104291847D01*
X171336554Y-104316708D01*
X171301995Y-104335180D01*
X171264499Y-104346555D01*
X171219362Y-104351000D01*
X170580638Y-104351000D01*
X170535501Y-104346555D01*
X170498005Y-104335180D01*
X170463446Y-104316708D01*
X170433153Y-104291847D01*
X170408292Y-104261554D01*
X170389820Y-104226995D01*
X170378445Y-104189499D01*
X170374000Y-104144362D01*
X170374000Y-103405638D01*
X170378445Y-103360501D01*
X170389820Y-103323005D01*
X170408292Y-103288446D01*
X170433153Y-103258153D01*
X170463446Y-103233292D01*
X170498005Y-103214820D01*
X170535501Y-103203445D01*
X170580638Y-103199000D01*
X171219362Y-103199000D01*
X171264499Y-103203445D01*
X171264499Y-103203445D01*
G37*
G36*
X173014499Y-103203445D02*
G01*
X173051995Y-103214820D01*
X173086554Y-103233292D01*
X173116847Y-103258153D01*
X173141708Y-103288446D01*
X173160180Y-103323005D01*
X173171555Y-103360501D01*
X173176000Y-103405638D01*
X173176000Y-104144362D01*
X173171555Y-104189499D01*
X173160180Y-104226995D01*
X173141708Y-104261554D01*
X173116847Y-104291847D01*
X173086554Y-104316708D01*
X173051995Y-104335180D01*
X173014499Y-104346555D01*
X172969362Y-104351000D01*
X172330638Y-104351000D01*
X172285501Y-104346555D01*
X172248005Y-104335180D01*
X172213446Y-104316708D01*
X172183153Y-104291847D01*
X172158292Y-104261554D01*
X172139820Y-104226995D01*
X172128445Y-104189499D01*
X172124000Y-104144362D01*
X172124000Y-103405638D01*
X172128445Y-103360501D01*
X172139820Y-103323005D01*
X172158292Y-103288446D01*
X172183153Y-103258153D01*
X172213446Y-103233292D01*
X172248005Y-103214820D01*
X172285501Y-103203445D01*
X172330638Y-103199000D01*
X172969362Y-103199000D01*
X173014499Y-103203445D01*
X173014499Y-103203445D01*
G37*
G36*
X129366585Y-101235002D02*
G01*
X129516410Y-101264804D01*
X129798674Y-101381721D01*
X130052705Y-101551459D01*
X130268741Y-101767495D01*
X130438479Y-102021526D01*
X130555396Y-102303790D01*
X130555396Y-102303791D01*
X130613631Y-102596555D01*
X130615000Y-102603440D01*
X130615000Y-102908960D01*
X130555396Y-103208610D01*
X130438479Y-103490874D01*
X130268741Y-103744905D01*
X130052705Y-103960941D01*
X129798674Y-104130679D01*
X129516410Y-104247596D01*
X129446238Y-104261554D01*
X129216761Y-104307200D01*
X128911239Y-104307200D01*
X128681762Y-104261554D01*
X128611590Y-104247596D01*
X128329326Y-104130679D01*
X128075295Y-103960941D01*
X127859259Y-103744905D01*
X127689521Y-103490874D01*
X127572604Y-103208610D01*
X127513000Y-102908960D01*
X127513000Y-102603440D01*
X127514370Y-102596555D01*
X127572604Y-102303791D01*
X127572604Y-102303790D01*
X127689521Y-102021526D01*
X127859259Y-101767495D01*
X128075295Y-101551459D01*
X128329326Y-101381721D01*
X128611590Y-101264804D01*
X128761415Y-101235002D01*
X128911239Y-101205200D01*
X129216761Y-101205200D01*
X129366585Y-101235002D01*
X129366585Y-101235002D01*
G37*
G36*
X178739499Y-102978445D02*
G01*
X178776995Y-102989820D01*
X178811554Y-103008292D01*
X178841847Y-103033153D01*
X178866708Y-103063446D01*
X178885180Y-103098005D01*
X178896555Y-103135501D01*
X178901000Y-103180638D01*
X178901000Y-103819362D01*
X178896555Y-103864499D01*
X178885180Y-103901995D01*
X178866708Y-103936554D01*
X178841847Y-103966847D01*
X178811554Y-103991708D01*
X178776995Y-104010180D01*
X178739499Y-104021555D01*
X178694362Y-104026000D01*
X177955638Y-104026000D01*
X177910501Y-104021555D01*
X177873005Y-104010180D01*
X177838446Y-103991708D01*
X177808153Y-103966847D01*
X177783292Y-103936554D01*
X177764820Y-103901995D01*
X177753445Y-103864499D01*
X177749000Y-103819362D01*
X177749000Y-103180638D01*
X177753445Y-103135501D01*
X177764820Y-103098005D01*
X177783292Y-103063446D01*
X177808153Y-103033153D01*
X177838446Y-103008292D01*
X177873005Y-102989820D01*
X177910501Y-102978445D01*
X177955638Y-102974000D01*
X178694362Y-102974000D01*
X178739499Y-102978445D01*
X178739499Y-102978445D01*
G37*
G36*
X180489499Y-102978445D02*
G01*
X180526995Y-102989820D01*
X180561554Y-103008292D01*
X180591847Y-103033153D01*
X180616708Y-103063446D01*
X180635180Y-103098005D01*
X180646555Y-103135501D01*
X180651000Y-103180638D01*
X180651000Y-103819362D01*
X180646555Y-103864499D01*
X180635180Y-103901995D01*
X180616708Y-103936554D01*
X180591847Y-103966847D01*
X180561554Y-103991708D01*
X180526995Y-104010180D01*
X180489499Y-104021555D01*
X180444362Y-104026000D01*
X179705638Y-104026000D01*
X179660501Y-104021555D01*
X179623005Y-104010180D01*
X179588446Y-103991708D01*
X179558153Y-103966847D01*
X179533292Y-103936554D01*
X179514820Y-103901995D01*
X179503445Y-103864499D01*
X179499000Y-103819362D01*
X179499000Y-103180638D01*
X179503445Y-103135501D01*
X179514820Y-103098005D01*
X179533292Y-103063446D01*
X179558153Y-103033153D01*
X179588446Y-103008292D01*
X179623005Y-102989820D01*
X179660501Y-102978445D01*
X179705638Y-102974000D01*
X180444362Y-102974000D01*
X180489499Y-102978445D01*
X180489499Y-102978445D01*
G37*
G36*
X184039499Y-102978445D02*
G01*
X184076995Y-102989820D01*
X184111554Y-103008292D01*
X184141847Y-103033153D01*
X184166708Y-103063446D01*
X184185180Y-103098005D01*
X184196555Y-103135501D01*
X184201000Y-103180638D01*
X184201000Y-103819362D01*
X184196555Y-103864499D01*
X184185180Y-103901995D01*
X184166708Y-103936554D01*
X184141847Y-103966847D01*
X184111554Y-103991708D01*
X184076995Y-104010180D01*
X184039499Y-104021555D01*
X183994362Y-104026000D01*
X183255638Y-104026000D01*
X183210501Y-104021555D01*
X183173005Y-104010180D01*
X183138446Y-103991708D01*
X183108153Y-103966847D01*
X183083292Y-103936554D01*
X183064820Y-103901995D01*
X183053445Y-103864499D01*
X183049000Y-103819362D01*
X183049000Y-103180638D01*
X183053445Y-103135501D01*
X183064820Y-103098005D01*
X183083292Y-103063446D01*
X183108153Y-103033153D01*
X183138446Y-103008292D01*
X183173005Y-102989820D01*
X183210501Y-102978445D01*
X183255638Y-102974000D01*
X183994362Y-102974000D01*
X184039499Y-102978445D01*
X184039499Y-102978445D01*
G37*
G36*
X182289499Y-102978445D02*
G01*
X182326995Y-102989820D01*
X182361554Y-103008292D01*
X182391847Y-103033153D01*
X182416708Y-103063446D01*
X182435180Y-103098005D01*
X182446555Y-103135501D01*
X182451000Y-103180638D01*
X182451000Y-103819362D01*
X182446555Y-103864499D01*
X182435180Y-103901995D01*
X182416708Y-103936554D01*
X182391847Y-103966847D01*
X182361554Y-103991708D01*
X182326995Y-104010180D01*
X182289499Y-104021555D01*
X182244362Y-104026000D01*
X181505638Y-104026000D01*
X181460501Y-104021555D01*
X181423005Y-104010180D01*
X181388446Y-103991708D01*
X181358153Y-103966847D01*
X181333292Y-103936554D01*
X181314820Y-103901995D01*
X181303445Y-103864499D01*
X181299000Y-103819362D01*
X181299000Y-103180638D01*
X181303445Y-103135501D01*
X181314820Y-103098005D01*
X181333292Y-103063446D01*
X181358153Y-103033153D01*
X181388446Y-103008292D01*
X181423005Y-102989820D01*
X181460501Y-102978445D01*
X181505638Y-102974000D01*
X182244362Y-102974000D01*
X182289499Y-102978445D01*
X182289499Y-102978445D01*
G37*
G36*
X164829928Y-101701764D02*
G01*
X164851009Y-101708160D01*
X164870445Y-101718548D01*
X164887476Y-101732524D01*
X164901452Y-101749555D01*
X164911840Y-101768991D01*
X164918236Y-101790072D01*
X164921000Y-101818140D01*
X164921000Y-103631860D01*
X164918236Y-103659928D01*
X164911840Y-103681009D01*
X164901452Y-103700445D01*
X164887476Y-103717476D01*
X164870445Y-103731452D01*
X164851009Y-103741840D01*
X164829928Y-103748236D01*
X164801860Y-103751000D01*
X164338140Y-103751000D01*
X164310072Y-103748236D01*
X164288991Y-103741840D01*
X164269555Y-103731452D01*
X164252524Y-103717476D01*
X164238548Y-103700445D01*
X164228160Y-103681009D01*
X164221764Y-103659928D01*
X164219000Y-103631860D01*
X164219000Y-101818140D01*
X164221764Y-101790072D01*
X164228160Y-101768991D01*
X164238548Y-101749555D01*
X164252524Y-101732524D01*
X164269555Y-101718548D01*
X164288991Y-101708160D01*
X164310072Y-101701764D01*
X164338140Y-101699000D01*
X164801860Y-101699000D01*
X164829928Y-101701764D01*
X164829928Y-101701764D01*
G37*
G36*
X166099928Y-101701764D02*
G01*
X166121009Y-101708160D01*
X166140445Y-101718548D01*
X166157476Y-101732524D01*
X166171452Y-101749555D01*
X166181840Y-101768991D01*
X166188236Y-101790072D01*
X166191000Y-101818140D01*
X166191000Y-103631860D01*
X166188236Y-103659928D01*
X166181840Y-103681009D01*
X166171452Y-103700445D01*
X166157476Y-103717476D01*
X166140445Y-103731452D01*
X166121009Y-103741840D01*
X166099928Y-103748236D01*
X166071860Y-103751000D01*
X165608140Y-103751000D01*
X165580072Y-103748236D01*
X165558991Y-103741840D01*
X165539555Y-103731452D01*
X165522524Y-103717476D01*
X165508548Y-103700445D01*
X165498160Y-103681009D01*
X165491764Y-103659928D01*
X165489000Y-103631860D01*
X165489000Y-101818140D01*
X165491764Y-101790072D01*
X165498160Y-101768991D01*
X165508548Y-101749555D01*
X165522524Y-101732524D01*
X165539555Y-101718548D01*
X165558991Y-101708160D01*
X165580072Y-101701764D01*
X165608140Y-101699000D01*
X166071860Y-101699000D01*
X166099928Y-101701764D01*
X166099928Y-101701764D01*
G37*
G36*
X167369928Y-101701764D02*
G01*
X167391009Y-101708160D01*
X167410445Y-101718548D01*
X167427476Y-101732524D01*
X167441452Y-101749555D01*
X167451840Y-101768991D01*
X167458236Y-101790072D01*
X167461000Y-101818140D01*
X167461000Y-103631860D01*
X167458236Y-103659928D01*
X167451840Y-103681009D01*
X167441452Y-103700445D01*
X167427476Y-103717476D01*
X167410445Y-103731452D01*
X167391009Y-103741840D01*
X167369928Y-103748236D01*
X167341860Y-103751000D01*
X166878140Y-103751000D01*
X166850072Y-103748236D01*
X166828991Y-103741840D01*
X166809555Y-103731452D01*
X166792524Y-103717476D01*
X166778548Y-103700445D01*
X166768160Y-103681009D01*
X166761764Y-103659928D01*
X166759000Y-103631860D01*
X166759000Y-101818140D01*
X166761764Y-101790072D01*
X166768160Y-101768991D01*
X166778548Y-101749555D01*
X166792524Y-101732524D01*
X166809555Y-101718548D01*
X166828991Y-101708160D01*
X166850072Y-101701764D01*
X166878140Y-101699000D01*
X167341860Y-101699000D01*
X167369928Y-101701764D01*
X167369928Y-101701764D01*
G37*
G36*
X168639928Y-101701764D02*
G01*
X168661009Y-101708160D01*
X168680445Y-101718548D01*
X168697476Y-101732524D01*
X168711452Y-101749555D01*
X168721840Y-101768991D01*
X168728236Y-101790072D01*
X168731000Y-101818140D01*
X168731000Y-103631860D01*
X168728236Y-103659928D01*
X168721840Y-103681009D01*
X168711452Y-103700445D01*
X168697476Y-103717476D01*
X168680445Y-103731452D01*
X168661009Y-103741840D01*
X168639928Y-103748236D01*
X168611860Y-103751000D01*
X168148140Y-103751000D01*
X168120072Y-103748236D01*
X168098991Y-103741840D01*
X168079555Y-103731452D01*
X168062524Y-103717476D01*
X168048548Y-103700445D01*
X168038160Y-103681009D01*
X168031764Y-103659928D01*
X168029000Y-103631860D01*
X168029000Y-101818140D01*
X168031764Y-101790072D01*
X168038160Y-101768991D01*
X168048548Y-101749555D01*
X168062524Y-101732524D01*
X168079555Y-101718548D01*
X168098991Y-101708160D01*
X168120072Y-101701764D01*
X168148140Y-101699000D01*
X168611860Y-101699000D01*
X168639928Y-101701764D01*
X168639928Y-101701764D01*
G37*
G36*
X171264499Y-101453445D02*
G01*
X171301995Y-101464820D01*
X171336554Y-101483292D01*
X171366847Y-101508153D01*
X171391708Y-101538446D01*
X171410180Y-101573005D01*
X171421555Y-101610501D01*
X171426000Y-101655638D01*
X171426000Y-102394362D01*
X171421555Y-102439499D01*
X171410180Y-102476995D01*
X171391708Y-102511554D01*
X171366847Y-102541847D01*
X171336554Y-102566708D01*
X171301995Y-102585180D01*
X171264499Y-102596555D01*
X171219362Y-102601000D01*
X170580638Y-102601000D01*
X170535501Y-102596555D01*
X170498005Y-102585180D01*
X170463446Y-102566708D01*
X170433153Y-102541847D01*
X170408292Y-102511554D01*
X170389820Y-102476995D01*
X170378445Y-102439499D01*
X170374000Y-102394362D01*
X170374000Y-101655638D01*
X170378445Y-101610501D01*
X170389820Y-101573005D01*
X170408292Y-101538446D01*
X170433153Y-101508153D01*
X170463446Y-101483292D01*
X170498005Y-101464820D01*
X170535501Y-101453445D01*
X170580638Y-101449000D01*
X171219362Y-101449000D01*
X171264499Y-101453445D01*
X171264499Y-101453445D01*
G37*
G36*
X173014499Y-101453445D02*
G01*
X173051995Y-101464820D01*
X173086554Y-101483292D01*
X173116847Y-101508153D01*
X173141708Y-101538446D01*
X173160180Y-101573005D01*
X173171555Y-101610501D01*
X173176000Y-101655638D01*
X173176000Y-102394362D01*
X173171555Y-102439499D01*
X173160180Y-102476995D01*
X173141708Y-102511554D01*
X173116847Y-102541847D01*
X173086554Y-102566708D01*
X173051995Y-102585180D01*
X173014499Y-102596555D01*
X172969362Y-102601000D01*
X172330638Y-102601000D01*
X172285501Y-102596555D01*
X172248005Y-102585180D01*
X172213446Y-102566708D01*
X172183153Y-102541847D01*
X172158292Y-102511554D01*
X172139820Y-102476995D01*
X172128445Y-102439499D01*
X172124000Y-102394362D01*
X172124000Y-101655638D01*
X172128445Y-101610501D01*
X172139820Y-101573005D01*
X172158292Y-101538446D01*
X172183153Y-101508153D01*
X172213446Y-101483292D01*
X172248005Y-101464820D01*
X172285501Y-101453445D01*
X172330638Y-101449000D01*
X172969362Y-101449000D01*
X173014499Y-101453445D01*
X173014499Y-101453445D01*
G37*
G36*
X171264499Y-99678445D02*
G01*
X171301995Y-99689820D01*
X171336554Y-99708292D01*
X171366847Y-99733153D01*
X171391708Y-99763446D01*
X171410180Y-99798005D01*
X171421555Y-99835501D01*
X171426000Y-99880638D01*
X171426000Y-100619362D01*
X171421555Y-100664499D01*
X171410180Y-100701995D01*
X171391708Y-100736554D01*
X171366847Y-100766847D01*
X171336554Y-100791708D01*
X171301995Y-100810180D01*
X171264499Y-100821555D01*
X171219362Y-100826000D01*
X170580638Y-100826000D01*
X170535501Y-100821555D01*
X170498005Y-100810180D01*
X170463446Y-100791708D01*
X170433153Y-100766847D01*
X170408292Y-100736554D01*
X170389820Y-100701995D01*
X170378445Y-100664499D01*
X170374000Y-100619362D01*
X170374000Y-99880638D01*
X170378445Y-99835501D01*
X170389820Y-99798005D01*
X170408292Y-99763446D01*
X170433153Y-99733153D01*
X170463446Y-99708292D01*
X170498005Y-99689820D01*
X170535501Y-99678445D01*
X170580638Y-99674000D01*
X171219362Y-99674000D01*
X171264499Y-99678445D01*
X171264499Y-99678445D01*
G37*
G36*
X174764499Y-99653445D02*
G01*
X174801995Y-99664820D01*
X174836554Y-99683292D01*
X174866847Y-99708153D01*
X174891708Y-99738446D01*
X174910180Y-99773005D01*
X174921555Y-99810501D01*
X174926000Y-99855638D01*
X174926000Y-100594362D01*
X174921555Y-100639499D01*
X174910180Y-100676995D01*
X174891708Y-100711554D01*
X174866847Y-100741847D01*
X174836554Y-100766708D01*
X174801995Y-100785180D01*
X174764499Y-100796555D01*
X174719362Y-100801000D01*
X174080638Y-100801000D01*
X174035501Y-100796555D01*
X173998005Y-100785180D01*
X173963446Y-100766708D01*
X173933153Y-100741847D01*
X173908292Y-100711554D01*
X173889820Y-100676995D01*
X173878445Y-100639499D01*
X173874000Y-100594362D01*
X173874000Y-99855638D01*
X173878445Y-99810501D01*
X173889820Y-99773005D01*
X173908292Y-99738446D01*
X173933153Y-99708153D01*
X173963446Y-99683292D01*
X173998005Y-99664820D01*
X174035501Y-99653445D01*
X174080638Y-99649000D01*
X174719362Y-99649000D01*
X174764499Y-99653445D01*
X174764499Y-99653445D01*
G37*
G36*
X173014499Y-99653445D02*
G01*
X173051995Y-99664820D01*
X173086554Y-99683292D01*
X173116847Y-99708153D01*
X173141708Y-99738446D01*
X173160180Y-99773005D01*
X173171555Y-99810501D01*
X173176000Y-99855638D01*
X173176000Y-100594362D01*
X173171555Y-100639499D01*
X173160180Y-100676995D01*
X173141708Y-100711554D01*
X173116847Y-100741847D01*
X173086554Y-100766708D01*
X173051995Y-100785180D01*
X173014499Y-100796555D01*
X172969362Y-100801000D01*
X172330638Y-100801000D01*
X172285501Y-100796555D01*
X172248005Y-100785180D01*
X172213446Y-100766708D01*
X172183153Y-100741847D01*
X172158292Y-100711554D01*
X172139820Y-100676995D01*
X172128445Y-100639499D01*
X172124000Y-100594362D01*
X172124000Y-99855638D01*
X172128445Y-99810501D01*
X172139820Y-99773005D01*
X172158292Y-99738446D01*
X172183153Y-99708153D01*
X172213446Y-99683292D01*
X172248005Y-99664820D01*
X172285501Y-99653445D01*
X172330638Y-99649000D01*
X172969362Y-99649000D01*
X173014499Y-99653445D01*
X173014499Y-99653445D01*
G37*
G36*
X176464499Y-99653445D02*
G01*
X176501995Y-99664820D01*
X176536554Y-99683292D01*
X176566847Y-99708153D01*
X176591708Y-99738446D01*
X176610180Y-99773005D01*
X176621555Y-99810501D01*
X176626000Y-99855638D01*
X176626000Y-100594362D01*
X176621555Y-100639499D01*
X176610180Y-100676995D01*
X176591708Y-100711554D01*
X176566847Y-100741847D01*
X176536554Y-100766708D01*
X176501995Y-100785180D01*
X176464499Y-100796555D01*
X176419362Y-100801000D01*
X175780638Y-100801000D01*
X175735501Y-100796555D01*
X175698005Y-100785180D01*
X175663446Y-100766708D01*
X175633153Y-100741847D01*
X175608292Y-100711554D01*
X175589820Y-100676995D01*
X175578445Y-100639499D01*
X175574000Y-100594362D01*
X175574000Y-99855638D01*
X175578445Y-99810501D01*
X175589820Y-99773005D01*
X175608292Y-99738446D01*
X175633153Y-99708153D01*
X175663446Y-99683292D01*
X175698005Y-99664820D01*
X175735501Y-99653445D01*
X175780638Y-99649000D01*
X176419362Y-99649000D01*
X176464499Y-99653445D01*
X176464499Y-99653445D01*
G37*
G36*
X178924499Y-99323445D02*
G01*
X178961995Y-99334820D01*
X178996554Y-99353292D01*
X179026847Y-99378153D01*
X179051708Y-99408446D01*
X179070180Y-99443005D01*
X179081555Y-99480501D01*
X179086000Y-99525638D01*
X179086000Y-100264362D01*
X179081555Y-100309499D01*
X179070180Y-100346995D01*
X179051708Y-100381554D01*
X179026847Y-100411847D01*
X178996554Y-100436708D01*
X178961995Y-100455180D01*
X178924499Y-100466555D01*
X178879362Y-100471000D01*
X178240638Y-100471000D01*
X178195501Y-100466555D01*
X178158005Y-100455180D01*
X178123446Y-100436708D01*
X178093153Y-100411847D01*
X178068292Y-100381554D01*
X178049820Y-100346995D01*
X178038445Y-100309499D01*
X178034000Y-100264362D01*
X178034000Y-99525638D01*
X178038445Y-99480501D01*
X178049820Y-99443005D01*
X178068292Y-99408446D01*
X178093153Y-99378153D01*
X178123446Y-99353292D01*
X178158005Y-99334820D01*
X178195501Y-99323445D01*
X178240638Y-99319000D01*
X178879362Y-99319000D01*
X178924499Y-99323445D01*
X178924499Y-99323445D01*
G37*
G36*
X184124499Y-99323445D02*
G01*
X184161995Y-99334820D01*
X184196554Y-99353292D01*
X184226847Y-99378153D01*
X184251708Y-99408446D01*
X184270180Y-99443005D01*
X184281555Y-99480501D01*
X184286000Y-99525638D01*
X184286000Y-100264362D01*
X184281555Y-100309499D01*
X184270180Y-100346995D01*
X184251708Y-100381554D01*
X184226847Y-100411847D01*
X184196554Y-100436708D01*
X184161995Y-100455180D01*
X184124499Y-100466555D01*
X184079362Y-100471000D01*
X183440638Y-100471000D01*
X183395501Y-100466555D01*
X183358005Y-100455180D01*
X183323446Y-100436708D01*
X183293153Y-100411847D01*
X183268292Y-100381554D01*
X183249820Y-100346995D01*
X183238445Y-100309499D01*
X183234000Y-100264362D01*
X183234000Y-99525638D01*
X183238445Y-99480501D01*
X183249820Y-99443005D01*
X183268292Y-99408446D01*
X183293153Y-99378153D01*
X183323446Y-99353292D01*
X183358005Y-99334820D01*
X183395501Y-99323445D01*
X183440638Y-99319000D01*
X184079362Y-99319000D01*
X184124499Y-99323445D01*
X184124499Y-99323445D01*
G37*
G36*
X180904373Y-99198926D02*
G01*
X180946566Y-99211725D01*
X180985444Y-99232506D01*
X181019525Y-99260475D01*
X181038375Y-99283444D01*
X181055702Y-99300771D01*
X181076076Y-99314385D01*
X181098715Y-99323762D01*
X181122749Y-99328542D01*
X181147253Y-99328542D01*
X181171286Y-99323761D01*
X181193925Y-99314384D01*
X181214299Y-99300770D01*
X181231625Y-99283444D01*
X181250475Y-99260475D01*
X181284556Y-99232506D01*
X181323434Y-99211725D01*
X181365627Y-99198926D01*
X181415641Y-99194000D01*
X182104359Y-99194000D01*
X182154373Y-99198926D01*
X182196566Y-99211725D01*
X182235444Y-99232506D01*
X182269525Y-99260475D01*
X182297494Y-99294556D01*
X182318275Y-99333434D01*
X182331074Y-99375627D01*
X182336000Y-99425641D01*
X182336000Y-100214359D01*
X182331074Y-100264373D01*
X182318275Y-100306566D01*
X182297494Y-100345444D01*
X182269525Y-100379525D01*
X182235444Y-100407494D01*
X182196566Y-100428275D01*
X182154373Y-100441074D01*
X182104359Y-100446000D01*
X181415641Y-100446000D01*
X181365627Y-100441074D01*
X181323434Y-100428275D01*
X181284556Y-100407494D01*
X181250475Y-100379525D01*
X181231625Y-100356556D01*
X181214298Y-100339229D01*
X181193924Y-100325615D01*
X181171285Y-100316238D01*
X181147251Y-100311458D01*
X181122747Y-100311458D01*
X181098714Y-100316239D01*
X181076075Y-100325616D01*
X181055701Y-100339230D01*
X181038375Y-100356556D01*
X181019525Y-100379525D01*
X180985444Y-100407494D01*
X180946566Y-100428275D01*
X180904373Y-100441074D01*
X180854359Y-100446000D01*
X180165641Y-100446000D01*
X180115627Y-100441074D01*
X180073434Y-100428275D01*
X180034556Y-100407494D01*
X180000475Y-100379525D01*
X179972506Y-100345444D01*
X179951725Y-100306566D01*
X179938926Y-100264373D01*
X179934000Y-100214359D01*
X179934000Y-99425641D01*
X179938926Y-99375627D01*
X179951725Y-99333434D01*
X179972506Y-99294556D01*
X180000475Y-99260475D01*
X180034556Y-99232506D01*
X180073434Y-99211725D01*
X180115627Y-99198926D01*
X180165641Y-99194000D01*
X180854359Y-99194000D01*
X180904373Y-99198926D01*
X180904373Y-99198926D01*
G37*
G36*
X171264499Y-97928445D02*
G01*
X171301995Y-97939820D01*
X171336554Y-97958292D01*
X171366847Y-97983153D01*
X171391708Y-98013446D01*
X171410180Y-98048005D01*
X171421555Y-98085501D01*
X171426000Y-98130638D01*
X171426000Y-98869362D01*
X171421555Y-98914499D01*
X171410180Y-98951995D01*
X171391708Y-98986554D01*
X171366847Y-99016847D01*
X171336554Y-99041708D01*
X171301995Y-99060180D01*
X171264499Y-99071555D01*
X171219362Y-99076000D01*
X170580638Y-99076000D01*
X170535501Y-99071555D01*
X170498005Y-99060180D01*
X170463446Y-99041708D01*
X170433153Y-99016847D01*
X170408292Y-98986554D01*
X170389820Y-98951995D01*
X170378445Y-98914499D01*
X170374000Y-98869362D01*
X170374000Y-98130638D01*
X170378445Y-98085501D01*
X170389820Y-98048005D01*
X170408292Y-98013446D01*
X170433153Y-97983153D01*
X170463446Y-97958292D01*
X170498005Y-97939820D01*
X170535501Y-97928445D01*
X170580638Y-97924000D01*
X171219362Y-97924000D01*
X171264499Y-97928445D01*
X171264499Y-97928445D01*
G37*
G36*
X195051000Y-99071000D02*
G01*
X193249000Y-99071000D01*
X193249000Y-97269000D01*
X195051000Y-97269000D01*
X195051000Y-99071000D01*
X195051000Y-99071000D01*
G37*
G36*
X173014499Y-97903445D02*
G01*
X173051995Y-97914820D01*
X173086554Y-97933292D01*
X173116847Y-97958153D01*
X173141708Y-97988446D01*
X173160180Y-98023005D01*
X173171555Y-98060501D01*
X173176000Y-98105638D01*
X173176000Y-98844362D01*
X173171555Y-98889499D01*
X173160180Y-98926995D01*
X173141708Y-98961554D01*
X173116847Y-98991847D01*
X173086554Y-99016708D01*
X173051995Y-99035180D01*
X173014499Y-99046555D01*
X172969362Y-99051000D01*
X172330638Y-99051000D01*
X172285501Y-99046555D01*
X172248005Y-99035180D01*
X172213446Y-99016708D01*
X172183153Y-98991847D01*
X172158292Y-98961554D01*
X172139820Y-98926995D01*
X172128445Y-98889499D01*
X172124000Y-98844362D01*
X172124000Y-98105638D01*
X172128445Y-98060501D01*
X172139820Y-98023005D01*
X172158292Y-97988446D01*
X172183153Y-97958153D01*
X172213446Y-97933292D01*
X172248005Y-97914820D01*
X172285501Y-97903445D01*
X172330638Y-97899000D01*
X172969362Y-97899000D01*
X173014499Y-97903445D01*
X173014499Y-97903445D01*
G37*
G36*
X176464499Y-97903445D02*
G01*
X176501995Y-97914820D01*
X176536554Y-97933292D01*
X176566847Y-97958153D01*
X176591708Y-97988446D01*
X176610180Y-98023005D01*
X176621555Y-98060501D01*
X176626000Y-98105638D01*
X176626000Y-98844362D01*
X176621555Y-98889499D01*
X176610180Y-98926995D01*
X176591708Y-98961554D01*
X176566847Y-98991847D01*
X176536554Y-99016708D01*
X176501995Y-99035180D01*
X176464499Y-99046555D01*
X176419362Y-99051000D01*
X175780638Y-99051000D01*
X175735501Y-99046555D01*
X175698005Y-99035180D01*
X175663446Y-99016708D01*
X175633153Y-98991847D01*
X175608292Y-98961554D01*
X175589820Y-98926995D01*
X175578445Y-98889499D01*
X175574000Y-98844362D01*
X175574000Y-98105638D01*
X175578445Y-98060501D01*
X175589820Y-98023005D01*
X175608292Y-97988446D01*
X175633153Y-97958153D01*
X175663446Y-97933292D01*
X175698005Y-97914820D01*
X175735501Y-97903445D01*
X175780638Y-97899000D01*
X176419362Y-97899000D01*
X176464499Y-97903445D01*
X176464499Y-97903445D01*
G37*
G36*
X174764499Y-97903445D02*
G01*
X174801995Y-97914820D01*
X174836554Y-97933292D01*
X174866847Y-97958153D01*
X174891708Y-97988446D01*
X174910180Y-98023005D01*
X174921555Y-98060501D01*
X174926000Y-98105638D01*
X174926000Y-98844362D01*
X174921555Y-98889499D01*
X174910180Y-98926995D01*
X174891708Y-98961554D01*
X174866847Y-98991847D01*
X174836554Y-99016708D01*
X174801995Y-99035180D01*
X174764499Y-99046555D01*
X174719362Y-99051000D01*
X174080638Y-99051000D01*
X174035501Y-99046555D01*
X173998005Y-99035180D01*
X173963446Y-99016708D01*
X173933153Y-98991847D01*
X173908292Y-98961554D01*
X173889820Y-98926995D01*
X173878445Y-98889499D01*
X173874000Y-98844362D01*
X173874000Y-98105638D01*
X173878445Y-98060501D01*
X173889820Y-98023005D01*
X173908292Y-97988446D01*
X173933153Y-97958153D01*
X173963446Y-97933292D01*
X173998005Y-97914820D01*
X174035501Y-97903445D01*
X174080638Y-97899000D01*
X174719362Y-97899000D01*
X174764499Y-97903445D01*
X174764499Y-97903445D01*
G37*
G36*
X180904373Y-97548926D02*
G01*
X180946566Y-97561725D01*
X180985444Y-97582506D01*
X181019525Y-97610475D01*
X181034375Y-97628570D01*
X181051702Y-97645897D01*
X181072076Y-97659511D01*
X181094715Y-97668888D01*
X181118749Y-97673668D01*
X181143253Y-97673668D01*
X181167286Y-97668887D01*
X181189925Y-97659510D01*
X181210299Y-97645896D01*
X181227625Y-97628570D01*
X181242475Y-97610475D01*
X181276556Y-97582506D01*
X181315434Y-97561725D01*
X181357627Y-97548926D01*
X181407641Y-97544000D01*
X182096359Y-97544000D01*
X182146373Y-97548926D01*
X182188566Y-97561725D01*
X182227444Y-97582506D01*
X182261525Y-97610475D01*
X182289494Y-97644556D01*
X182310275Y-97683434D01*
X182323074Y-97725627D01*
X182328000Y-97775641D01*
X182328000Y-98564359D01*
X182323074Y-98614373D01*
X182310275Y-98656566D01*
X182289494Y-98695444D01*
X182261525Y-98729525D01*
X182227444Y-98757494D01*
X182188566Y-98778275D01*
X182146373Y-98791074D01*
X182096359Y-98796000D01*
X181407641Y-98796000D01*
X181357627Y-98791074D01*
X181315434Y-98778275D01*
X181276556Y-98757494D01*
X181242475Y-98729525D01*
X181227625Y-98711430D01*
X181210298Y-98694103D01*
X181189924Y-98680489D01*
X181167285Y-98671112D01*
X181143251Y-98666332D01*
X181118747Y-98666332D01*
X181094714Y-98671113D01*
X181072075Y-98680490D01*
X181051701Y-98694104D01*
X181034375Y-98711430D01*
X181019525Y-98729525D01*
X180985444Y-98757494D01*
X180946566Y-98778275D01*
X180904373Y-98791074D01*
X180854359Y-98796000D01*
X180165641Y-98796000D01*
X180115627Y-98791074D01*
X180073434Y-98778275D01*
X180034556Y-98757494D01*
X180000475Y-98729525D01*
X179972506Y-98695444D01*
X179951725Y-98656566D01*
X179938926Y-98614373D01*
X179934000Y-98564359D01*
X179934000Y-97775641D01*
X179938926Y-97725627D01*
X179951725Y-97683434D01*
X179972506Y-97644556D01*
X180000475Y-97610475D01*
X180034556Y-97582506D01*
X180073434Y-97561725D01*
X180115627Y-97548926D01*
X180165641Y-97544000D01*
X180854359Y-97544000D01*
X180904373Y-97548926D01*
X180904373Y-97548926D01*
G37*
G36*
X178924499Y-97573445D02*
G01*
X178961995Y-97584820D01*
X178996554Y-97603292D01*
X179026847Y-97628153D01*
X179051708Y-97658446D01*
X179070180Y-97693005D01*
X179081555Y-97730501D01*
X179086000Y-97775638D01*
X179086000Y-98514362D01*
X179081555Y-98559499D01*
X179070180Y-98596995D01*
X179051708Y-98631554D01*
X179026847Y-98661847D01*
X178996554Y-98686708D01*
X178961995Y-98705180D01*
X178924499Y-98716555D01*
X178879362Y-98721000D01*
X178240638Y-98721000D01*
X178195501Y-98716555D01*
X178158005Y-98705180D01*
X178123446Y-98686708D01*
X178093153Y-98661847D01*
X178068292Y-98631554D01*
X178049820Y-98596995D01*
X178038445Y-98559499D01*
X178034000Y-98514362D01*
X178034000Y-97775638D01*
X178038445Y-97730501D01*
X178049820Y-97693005D01*
X178068292Y-97658446D01*
X178093153Y-97628153D01*
X178123446Y-97603292D01*
X178158005Y-97584820D01*
X178195501Y-97573445D01*
X178240638Y-97569000D01*
X178879362Y-97569000D01*
X178924499Y-97573445D01*
X178924499Y-97573445D01*
G37*
G36*
X184124499Y-97573445D02*
G01*
X184161995Y-97584820D01*
X184196554Y-97603292D01*
X184226847Y-97628153D01*
X184251708Y-97658446D01*
X184270180Y-97693005D01*
X184281555Y-97730501D01*
X184286000Y-97775638D01*
X184286000Y-98514362D01*
X184281555Y-98559499D01*
X184270180Y-98596995D01*
X184251708Y-98631554D01*
X184226847Y-98661847D01*
X184196554Y-98686708D01*
X184161995Y-98705180D01*
X184124499Y-98716555D01*
X184079362Y-98721000D01*
X183440638Y-98721000D01*
X183395501Y-98716555D01*
X183358005Y-98705180D01*
X183323446Y-98686708D01*
X183293153Y-98661847D01*
X183268292Y-98631554D01*
X183249820Y-98596995D01*
X183238445Y-98559499D01*
X183234000Y-98514362D01*
X183234000Y-97775638D01*
X183238445Y-97730501D01*
X183249820Y-97693005D01*
X183268292Y-97658446D01*
X183293153Y-97628153D01*
X183323446Y-97603292D01*
X183358005Y-97584820D01*
X183395501Y-97573445D01*
X183440638Y-97569000D01*
X184079362Y-97569000D01*
X184124499Y-97573445D01*
X184124499Y-97573445D01*
G37*
G36*
X164689499Y-96903445D02*
G01*
X164726995Y-96914820D01*
X164761554Y-96933292D01*
X164791847Y-96958153D01*
X164816708Y-96988446D01*
X164835180Y-97023005D01*
X164846555Y-97060501D01*
X164851000Y-97105638D01*
X164851000Y-97744362D01*
X164846555Y-97789499D01*
X164835180Y-97826995D01*
X164816708Y-97861554D01*
X164791847Y-97891847D01*
X164761554Y-97916708D01*
X164726995Y-97935180D01*
X164689499Y-97946555D01*
X164644362Y-97951000D01*
X163905638Y-97951000D01*
X163860501Y-97946555D01*
X163823005Y-97935180D01*
X163788446Y-97916708D01*
X163758153Y-97891847D01*
X163733292Y-97861554D01*
X163714820Y-97826995D01*
X163703445Y-97789499D01*
X163699000Y-97744362D01*
X163699000Y-97105638D01*
X163703445Y-97060501D01*
X163714820Y-97023005D01*
X163733292Y-96988446D01*
X163758153Y-96958153D01*
X163788446Y-96933292D01*
X163823005Y-96914820D01*
X163860501Y-96903445D01*
X163905638Y-96899000D01*
X164644362Y-96899000D01*
X164689499Y-96903445D01*
X164689499Y-96903445D01*
G37*
G36*
X159439499Y-96903445D02*
G01*
X159476995Y-96914820D01*
X159511554Y-96933292D01*
X159541847Y-96958153D01*
X159566708Y-96988446D01*
X159585180Y-97023005D01*
X159596555Y-97060501D01*
X159601000Y-97105638D01*
X159601000Y-97744362D01*
X159596555Y-97789499D01*
X159585180Y-97826995D01*
X159566708Y-97861554D01*
X159541847Y-97891847D01*
X159511554Y-97916708D01*
X159476995Y-97935180D01*
X159439499Y-97946555D01*
X159394362Y-97951000D01*
X158655638Y-97951000D01*
X158610501Y-97946555D01*
X158573005Y-97935180D01*
X158538446Y-97916708D01*
X158508153Y-97891847D01*
X158483292Y-97861554D01*
X158464820Y-97826995D01*
X158453445Y-97789499D01*
X158449000Y-97744362D01*
X158449000Y-97105638D01*
X158453445Y-97060501D01*
X158464820Y-97023005D01*
X158483292Y-96988446D01*
X158508153Y-96958153D01*
X158538446Y-96933292D01*
X158573005Y-96914820D01*
X158610501Y-96903445D01*
X158655638Y-96899000D01*
X159394362Y-96899000D01*
X159439499Y-96903445D01*
X159439499Y-96903445D01*
G37*
G36*
X162939499Y-96903445D02*
G01*
X162976995Y-96914820D01*
X163011554Y-96933292D01*
X163041847Y-96958153D01*
X163066708Y-96988446D01*
X163085180Y-97023005D01*
X163096555Y-97060501D01*
X163101000Y-97105638D01*
X163101000Y-97744362D01*
X163096555Y-97789499D01*
X163085180Y-97826995D01*
X163066708Y-97861554D01*
X163041847Y-97891847D01*
X163011554Y-97916708D01*
X162976995Y-97935180D01*
X162939499Y-97946555D01*
X162894362Y-97951000D01*
X162155638Y-97951000D01*
X162110501Y-97946555D01*
X162073005Y-97935180D01*
X162038446Y-97916708D01*
X162008153Y-97891847D01*
X161983292Y-97861554D01*
X161964820Y-97826995D01*
X161953445Y-97789499D01*
X161949000Y-97744362D01*
X161949000Y-97105638D01*
X161953445Y-97060501D01*
X161964820Y-97023005D01*
X161983292Y-96988446D01*
X162008153Y-96958153D01*
X162038446Y-96933292D01*
X162073005Y-96914820D01*
X162110501Y-96903445D01*
X162155638Y-96899000D01*
X162894362Y-96899000D01*
X162939499Y-96903445D01*
X162939499Y-96903445D01*
G37*
G36*
X161189499Y-96903445D02*
G01*
X161226995Y-96914820D01*
X161261554Y-96933292D01*
X161291847Y-96958153D01*
X161316708Y-96988446D01*
X161335180Y-97023005D01*
X161346555Y-97060501D01*
X161351000Y-97105638D01*
X161351000Y-97744362D01*
X161346555Y-97789499D01*
X161335180Y-97826995D01*
X161316708Y-97861554D01*
X161291847Y-97891847D01*
X161261554Y-97916708D01*
X161226995Y-97935180D01*
X161189499Y-97946555D01*
X161144362Y-97951000D01*
X160405638Y-97951000D01*
X160360501Y-97946555D01*
X160323005Y-97935180D01*
X160288446Y-97916708D01*
X160258153Y-97891847D01*
X160233292Y-97861554D01*
X160214820Y-97826995D01*
X160203445Y-97789499D01*
X160199000Y-97744362D01*
X160199000Y-97105638D01*
X160203445Y-97060501D01*
X160214820Y-97023005D01*
X160233292Y-96988446D01*
X160258153Y-96958153D01*
X160288446Y-96933292D01*
X160323005Y-96914820D01*
X160360501Y-96903445D01*
X160405638Y-96899000D01*
X161144362Y-96899000D01*
X161189499Y-96903445D01*
X161189499Y-96903445D01*
G37*
G36*
X124032585Y-94808802D02*
G01*
X124182410Y-94838604D01*
X124464674Y-94955521D01*
X124718705Y-95125259D01*
X124934741Y-95341295D01*
X125104479Y-95595326D01*
X125221396Y-95877590D01*
X125241064Y-95976466D01*
X125281000Y-96177239D01*
X125281000Y-96482761D01*
X125251198Y-96632585D01*
X125221396Y-96782410D01*
X125104479Y-97064674D01*
X124934741Y-97318705D01*
X124718705Y-97534741D01*
X124464674Y-97704479D01*
X124182410Y-97821396D01*
X124118467Y-97834115D01*
X123882761Y-97881000D01*
X123577239Y-97881000D01*
X123341533Y-97834115D01*
X123277590Y-97821396D01*
X122995326Y-97704479D01*
X122741295Y-97534741D01*
X122525259Y-97318705D01*
X122355521Y-97064674D01*
X122238604Y-96782410D01*
X122208802Y-96632585D01*
X122179000Y-96482761D01*
X122179000Y-96177239D01*
X122218936Y-95976466D01*
X122238604Y-95877590D01*
X122355521Y-95595326D01*
X122525259Y-95341295D01*
X122741295Y-95125259D01*
X122995326Y-94955521D01*
X123277590Y-94838604D01*
X123427415Y-94808802D01*
X123577239Y-94779000D01*
X123882761Y-94779000D01*
X124032585Y-94808802D01*
X124032585Y-94808802D01*
G37*
G36*
X130382585Y-94808802D02*
G01*
X130532410Y-94838604D01*
X130814674Y-94955521D01*
X131068705Y-95125259D01*
X131284741Y-95341295D01*
X131454479Y-95595326D01*
X131571396Y-95877590D01*
X131591064Y-95976466D01*
X131631000Y-96177239D01*
X131631000Y-96482761D01*
X131601198Y-96632585D01*
X131571396Y-96782410D01*
X131454479Y-97064674D01*
X131284741Y-97318705D01*
X131068705Y-97534741D01*
X130814674Y-97704479D01*
X130532410Y-97821396D01*
X130468467Y-97834115D01*
X130232761Y-97881000D01*
X129927239Y-97881000D01*
X129691533Y-97834115D01*
X129627590Y-97821396D01*
X129345326Y-97704479D01*
X129091295Y-97534741D01*
X128875259Y-97318705D01*
X128705521Y-97064674D01*
X128588604Y-96782410D01*
X128558802Y-96632585D01*
X128529000Y-96482761D01*
X128529000Y-96177239D01*
X128568936Y-95976466D01*
X128588604Y-95877590D01*
X128705521Y-95595326D01*
X128875259Y-95341295D01*
X129091295Y-95125259D01*
X129345326Y-94955521D01*
X129627590Y-94838604D01*
X129777415Y-94808802D01*
X129927239Y-94779000D01*
X130232761Y-94779000D01*
X130382585Y-94808802D01*
X130382585Y-94808802D01*
G37*
G36*
X149147339Y-95913019D02*
G01*
X149180681Y-95923134D01*
X149211406Y-95939557D01*
X149238340Y-95961660D01*
X149260443Y-95988594D01*
X149276866Y-96019319D01*
X149286981Y-96052661D01*
X149291000Y-96093471D01*
X149291000Y-97476529D01*
X149286981Y-97517339D01*
X149276866Y-97550681D01*
X149260443Y-97581406D01*
X149238340Y-97608340D01*
X149211406Y-97630443D01*
X149180681Y-97646866D01*
X149147339Y-97656981D01*
X149106529Y-97661000D01*
X144073471Y-97661000D01*
X144032661Y-97656981D01*
X143999319Y-97646866D01*
X143968594Y-97630443D01*
X143941660Y-97608340D01*
X143919557Y-97581406D01*
X143903134Y-97550681D01*
X143893019Y-97517339D01*
X143889000Y-97476529D01*
X143889000Y-96093471D01*
X143893019Y-96052661D01*
X143903134Y-96019319D01*
X143919557Y-95988594D01*
X143941660Y-95961660D01*
X143968594Y-95939557D01*
X143999319Y-95923134D01*
X144032661Y-95913019D01*
X144073471Y-95909000D01*
X149106529Y-95909000D01*
X149147339Y-95913019D01*
X149147339Y-95913019D01*
G37*
G36*
X194260443Y-94735519D02*
G01*
X194326627Y-94742037D01*
X194496466Y-94793557D01*
X194652991Y-94877222D01*
X194688729Y-94906552D01*
X194790186Y-94989814D01*
X194851477Y-95064499D01*
X194902778Y-95127009D01*
X194986443Y-95283534D01*
X195037963Y-95453373D01*
X195055359Y-95630000D01*
X195037963Y-95806627D01*
X194986443Y-95976466D01*
X194902778Y-96132991D01*
X194873448Y-96168729D01*
X194790186Y-96270186D01*
X194688729Y-96353448D01*
X194652991Y-96382778D01*
X194496466Y-96466443D01*
X194326627Y-96517963D01*
X194260443Y-96524481D01*
X194194260Y-96531000D01*
X194105740Y-96531000D01*
X194039557Y-96524481D01*
X193973373Y-96517963D01*
X193803534Y-96466443D01*
X193647009Y-96382778D01*
X193611271Y-96353448D01*
X193509814Y-96270186D01*
X193426552Y-96168729D01*
X193397222Y-96132991D01*
X193313557Y-95976466D01*
X193262037Y-95806627D01*
X193244641Y-95630000D01*
X193262037Y-95453373D01*
X193313557Y-95283534D01*
X193397222Y-95127009D01*
X193448523Y-95064499D01*
X193509814Y-94989814D01*
X193611271Y-94906552D01*
X193647009Y-94877222D01*
X193803534Y-94793557D01*
X193973373Y-94742037D01*
X194039558Y-94735518D01*
X194105740Y-94729000D01*
X194194260Y-94729000D01*
X194260443Y-94735519D01*
X194260443Y-94735519D01*
G37*
G36*
X138861000Y-96421000D02*
G01*
X136459000Y-96421000D01*
X136459000Y-92819000D01*
X138861000Y-92819000D01*
X138861000Y-96421000D01*
X138861000Y-96421000D01*
G37*
G36*
X183051000Y-96276000D02*
G01*
X174049000Y-96276000D01*
X174049000Y-94424000D01*
X183051000Y-94424000D01*
X183051000Y-96276000D01*
X183051000Y-96276000D01*
G37*
G36*
X163734928Y-93396764D02*
G01*
X163756009Y-93403160D01*
X163775445Y-93413548D01*
X163792476Y-93427524D01*
X163806452Y-93444555D01*
X163816840Y-93463991D01*
X163823236Y-93485072D01*
X163826000Y-93513140D01*
X163826000Y-95326860D01*
X163823236Y-95354928D01*
X163816840Y-95376009D01*
X163806452Y-95395445D01*
X163792476Y-95412476D01*
X163775445Y-95426452D01*
X163756009Y-95436840D01*
X163734928Y-95443236D01*
X163706860Y-95446000D01*
X163243140Y-95446000D01*
X163215072Y-95443236D01*
X163193991Y-95436840D01*
X163174555Y-95426452D01*
X163157524Y-95412476D01*
X163143548Y-95395445D01*
X163133160Y-95376009D01*
X163126764Y-95354928D01*
X163124000Y-95326860D01*
X163124000Y-93513140D01*
X163126764Y-93485072D01*
X163133160Y-93463991D01*
X163143548Y-93444555D01*
X163157524Y-93427524D01*
X163174555Y-93413548D01*
X163193991Y-93403160D01*
X163215072Y-93396764D01*
X163243140Y-93394000D01*
X163706860Y-93394000D01*
X163734928Y-93396764D01*
X163734928Y-93396764D01*
G37*
G36*
X157384928Y-93396764D02*
G01*
X157406009Y-93403160D01*
X157425445Y-93413548D01*
X157442476Y-93427524D01*
X157456452Y-93444555D01*
X157466840Y-93463991D01*
X157473236Y-93485072D01*
X157476000Y-93513140D01*
X157476000Y-95326860D01*
X157473236Y-95354928D01*
X157466840Y-95376009D01*
X157456452Y-95395445D01*
X157442476Y-95412476D01*
X157425445Y-95426452D01*
X157406009Y-95436840D01*
X157384928Y-95443236D01*
X157356860Y-95446000D01*
X156893140Y-95446000D01*
X156865072Y-95443236D01*
X156843991Y-95436840D01*
X156824555Y-95426452D01*
X156807524Y-95412476D01*
X156793548Y-95395445D01*
X156783160Y-95376009D01*
X156776764Y-95354928D01*
X156774000Y-95326860D01*
X156774000Y-93513140D01*
X156776764Y-93485072D01*
X156783160Y-93463991D01*
X156793548Y-93444555D01*
X156807524Y-93427524D01*
X156824555Y-93413548D01*
X156843991Y-93403160D01*
X156865072Y-93396764D01*
X156893140Y-93394000D01*
X157356860Y-93394000D01*
X157384928Y-93396764D01*
X157384928Y-93396764D01*
G37*
G36*
X165004928Y-93396764D02*
G01*
X165026009Y-93403160D01*
X165045445Y-93413548D01*
X165062476Y-93427524D01*
X165076452Y-93444555D01*
X165086840Y-93463991D01*
X165093236Y-93485072D01*
X165096000Y-93513140D01*
X165096000Y-95326860D01*
X165093236Y-95354928D01*
X165086840Y-95376009D01*
X165076452Y-95395445D01*
X165062476Y-95412476D01*
X165045445Y-95426452D01*
X165026009Y-95436840D01*
X165004928Y-95443236D01*
X164976860Y-95446000D01*
X164513140Y-95446000D01*
X164485072Y-95443236D01*
X164463991Y-95436840D01*
X164444555Y-95426452D01*
X164427524Y-95412476D01*
X164413548Y-95395445D01*
X164403160Y-95376009D01*
X164396764Y-95354928D01*
X164394000Y-95326860D01*
X164394000Y-93513140D01*
X164396764Y-93485072D01*
X164403160Y-93463991D01*
X164413548Y-93444555D01*
X164427524Y-93427524D01*
X164444555Y-93413548D01*
X164463991Y-93403160D01*
X164485072Y-93396764D01*
X164513140Y-93394000D01*
X164976860Y-93394000D01*
X165004928Y-93396764D01*
X165004928Y-93396764D01*
G37*
G36*
X159924928Y-93396764D02*
G01*
X159946009Y-93403160D01*
X159965445Y-93413548D01*
X159982476Y-93427524D01*
X159996452Y-93444555D01*
X160006840Y-93463991D01*
X160013236Y-93485072D01*
X160016000Y-93513140D01*
X160016000Y-95326860D01*
X160013236Y-95354928D01*
X160006840Y-95376009D01*
X159996452Y-95395445D01*
X159982476Y-95412476D01*
X159965445Y-95426452D01*
X159946009Y-95436840D01*
X159924928Y-95443236D01*
X159896860Y-95446000D01*
X159433140Y-95446000D01*
X159405072Y-95443236D01*
X159383991Y-95436840D01*
X159364555Y-95426452D01*
X159347524Y-95412476D01*
X159333548Y-95395445D01*
X159323160Y-95376009D01*
X159316764Y-95354928D01*
X159314000Y-95326860D01*
X159314000Y-93513140D01*
X159316764Y-93485072D01*
X159323160Y-93463991D01*
X159333548Y-93444555D01*
X159347524Y-93427524D01*
X159364555Y-93413548D01*
X159383991Y-93403160D01*
X159405072Y-93396764D01*
X159433140Y-93394000D01*
X159896860Y-93394000D01*
X159924928Y-93396764D01*
X159924928Y-93396764D01*
G37*
G36*
X162464928Y-93396764D02*
G01*
X162486009Y-93403160D01*
X162505445Y-93413548D01*
X162522476Y-93427524D01*
X162536452Y-93444555D01*
X162546840Y-93463991D01*
X162553236Y-93485072D01*
X162556000Y-93513140D01*
X162556000Y-95326860D01*
X162553236Y-95354928D01*
X162546840Y-95376009D01*
X162536452Y-95395445D01*
X162522476Y-95412476D01*
X162505445Y-95426452D01*
X162486009Y-95436840D01*
X162464928Y-95443236D01*
X162436860Y-95446000D01*
X161973140Y-95446000D01*
X161945072Y-95443236D01*
X161923991Y-95436840D01*
X161904555Y-95426452D01*
X161887524Y-95412476D01*
X161873548Y-95395445D01*
X161863160Y-95376009D01*
X161856764Y-95354928D01*
X161854000Y-95326860D01*
X161854000Y-93513140D01*
X161856764Y-93485072D01*
X161863160Y-93463991D01*
X161873548Y-93444555D01*
X161887524Y-93427524D01*
X161904555Y-93413548D01*
X161923991Y-93403160D01*
X161945072Y-93396764D01*
X161973140Y-93394000D01*
X162436860Y-93394000D01*
X162464928Y-93396764D01*
X162464928Y-93396764D01*
G37*
G36*
X158654928Y-93396764D02*
G01*
X158676009Y-93403160D01*
X158695445Y-93413548D01*
X158712476Y-93427524D01*
X158726452Y-93444555D01*
X158736840Y-93463991D01*
X158743236Y-93485072D01*
X158746000Y-93513140D01*
X158746000Y-95326860D01*
X158743236Y-95354928D01*
X158736840Y-95376009D01*
X158726452Y-95395445D01*
X158712476Y-95412476D01*
X158695445Y-95426452D01*
X158676009Y-95436840D01*
X158654928Y-95443236D01*
X158626860Y-95446000D01*
X158163140Y-95446000D01*
X158135072Y-95443236D01*
X158113991Y-95436840D01*
X158094555Y-95426452D01*
X158077524Y-95412476D01*
X158063548Y-95395445D01*
X158053160Y-95376009D01*
X158046764Y-95354928D01*
X158044000Y-95326860D01*
X158044000Y-93513140D01*
X158046764Y-93485072D01*
X158053160Y-93463991D01*
X158063548Y-93444555D01*
X158077524Y-93427524D01*
X158094555Y-93413548D01*
X158113991Y-93403160D01*
X158135072Y-93396764D01*
X158163140Y-93394000D01*
X158626860Y-93394000D01*
X158654928Y-93396764D01*
X158654928Y-93396764D01*
G37*
G36*
X161194928Y-93396764D02*
G01*
X161216009Y-93403160D01*
X161235445Y-93413548D01*
X161252476Y-93427524D01*
X161266452Y-93444555D01*
X161276840Y-93463991D01*
X161283236Y-93485072D01*
X161286000Y-93513140D01*
X161286000Y-95326860D01*
X161283236Y-95354928D01*
X161276840Y-95376009D01*
X161266452Y-95395445D01*
X161252476Y-95412476D01*
X161235445Y-95426452D01*
X161216009Y-95436840D01*
X161194928Y-95443236D01*
X161166860Y-95446000D01*
X160703140Y-95446000D01*
X160675072Y-95443236D01*
X160653991Y-95436840D01*
X160634555Y-95426452D01*
X160617524Y-95412476D01*
X160603548Y-95395445D01*
X160593160Y-95376009D01*
X160586764Y-95354928D01*
X160584000Y-95326860D01*
X160584000Y-93513140D01*
X160586764Y-93485072D01*
X160593160Y-93463991D01*
X160603548Y-93444555D01*
X160617524Y-93427524D01*
X160634555Y-93413548D01*
X160653991Y-93403160D01*
X160675072Y-93396764D01*
X160703140Y-93394000D01*
X161166860Y-93394000D01*
X161194928Y-93396764D01*
X161194928Y-93396764D01*
G37*
G36*
X170814499Y-94128445D02*
G01*
X170851995Y-94139820D01*
X170886554Y-94158292D01*
X170916847Y-94183153D01*
X170941708Y-94213446D01*
X170960180Y-94248005D01*
X170971555Y-94285501D01*
X170976000Y-94330638D01*
X170976000Y-95069362D01*
X170971555Y-95114499D01*
X170960180Y-95151995D01*
X170941708Y-95186554D01*
X170916847Y-95216847D01*
X170886554Y-95241708D01*
X170851995Y-95260180D01*
X170814499Y-95271555D01*
X170769362Y-95276000D01*
X170130638Y-95276000D01*
X170085501Y-95271555D01*
X170048005Y-95260180D01*
X170013446Y-95241708D01*
X169983153Y-95216847D01*
X169958292Y-95186554D01*
X169939820Y-95151995D01*
X169928445Y-95114499D01*
X169924000Y-95069362D01*
X169924000Y-94330638D01*
X169928445Y-94285501D01*
X169939820Y-94248005D01*
X169958292Y-94213446D01*
X169983153Y-94183153D01*
X170013446Y-94158292D01*
X170048005Y-94139820D01*
X170085501Y-94128445D01*
X170130638Y-94124000D01*
X170769362Y-94124000D01*
X170814499Y-94128445D01*
X170814499Y-94128445D01*
G37*
G36*
X167039499Y-94128445D02*
G01*
X167076995Y-94139820D01*
X167111554Y-94158292D01*
X167141847Y-94183153D01*
X167166708Y-94213446D01*
X167185180Y-94248005D01*
X167196555Y-94285501D01*
X167201000Y-94330638D01*
X167201000Y-95069362D01*
X167196555Y-95114499D01*
X167185180Y-95151995D01*
X167166708Y-95186554D01*
X167141847Y-95216847D01*
X167111554Y-95241708D01*
X167076995Y-95260180D01*
X167039499Y-95271555D01*
X166994362Y-95276000D01*
X166355638Y-95276000D01*
X166310501Y-95271555D01*
X166273005Y-95260180D01*
X166238446Y-95241708D01*
X166208153Y-95216847D01*
X166183292Y-95186554D01*
X166164820Y-95151995D01*
X166153445Y-95114499D01*
X166149000Y-95069362D01*
X166149000Y-94330638D01*
X166153445Y-94285501D01*
X166164820Y-94248005D01*
X166183292Y-94213446D01*
X166208153Y-94183153D01*
X166238446Y-94158292D01*
X166273005Y-94139820D01*
X166310501Y-94128445D01*
X166355638Y-94124000D01*
X166994362Y-94124000D01*
X167039499Y-94128445D01*
X167039499Y-94128445D01*
G37*
G36*
X168939499Y-94128445D02*
G01*
X168976995Y-94139820D01*
X169011554Y-94158292D01*
X169041847Y-94183153D01*
X169066708Y-94213446D01*
X169085180Y-94248005D01*
X169096555Y-94285501D01*
X169101000Y-94330638D01*
X169101000Y-95069362D01*
X169096555Y-95114499D01*
X169085180Y-95151995D01*
X169066708Y-95186554D01*
X169041847Y-95216847D01*
X169011554Y-95241708D01*
X168976995Y-95260180D01*
X168939499Y-95271555D01*
X168894362Y-95276000D01*
X168255638Y-95276000D01*
X168210501Y-95271555D01*
X168173005Y-95260180D01*
X168138446Y-95241708D01*
X168108153Y-95216847D01*
X168083292Y-95186554D01*
X168064820Y-95151995D01*
X168053445Y-95114499D01*
X168049000Y-95069362D01*
X168049000Y-94330638D01*
X168053445Y-94285501D01*
X168064820Y-94248005D01*
X168083292Y-94213446D01*
X168108153Y-94183153D01*
X168138446Y-94158292D01*
X168173005Y-94139820D01*
X168210501Y-94128445D01*
X168255638Y-94124000D01*
X168894362Y-94124000D01*
X168939499Y-94128445D01*
X168939499Y-94128445D01*
G37*
G36*
X186174499Y-94078445D02*
G01*
X186211995Y-94089820D01*
X186246554Y-94108292D01*
X186276847Y-94133153D01*
X186301708Y-94163446D01*
X186320180Y-94198005D01*
X186331555Y-94235501D01*
X186336000Y-94280638D01*
X186336000Y-95019362D01*
X186331555Y-95064499D01*
X186320180Y-95101995D01*
X186301708Y-95136554D01*
X186276847Y-95166847D01*
X186246554Y-95191708D01*
X186211995Y-95210180D01*
X186174499Y-95221555D01*
X186129362Y-95226000D01*
X185490638Y-95226000D01*
X185445501Y-95221555D01*
X185408005Y-95210180D01*
X185373446Y-95191708D01*
X185343153Y-95166847D01*
X185318292Y-95136554D01*
X185299820Y-95101995D01*
X185288445Y-95064499D01*
X185284000Y-95019362D01*
X185284000Y-94280638D01*
X185288445Y-94235501D01*
X185299820Y-94198005D01*
X185318292Y-94163446D01*
X185343153Y-94133153D01*
X185373446Y-94108292D01*
X185408005Y-94089820D01*
X185445501Y-94078445D01*
X185490638Y-94074000D01*
X186129362Y-94074000D01*
X186174499Y-94078445D01*
X186174499Y-94078445D01*
G37*
G36*
X194260443Y-92195519D02*
G01*
X194326627Y-92202037D01*
X194496466Y-92253557D01*
X194652991Y-92337222D01*
X194688729Y-92366552D01*
X194790186Y-92449814D01*
X194860506Y-92535501D01*
X194902778Y-92587009D01*
X194902779Y-92587011D01*
X194970407Y-92713532D01*
X194986443Y-92743534D01*
X195037963Y-92913373D01*
X195055359Y-93090000D01*
X195037963Y-93266627D01*
X194986584Y-93436000D01*
X194986442Y-93436468D01*
X194962277Y-93481677D01*
X194902778Y-93592991D01*
X194873448Y-93628729D01*
X194790186Y-93730186D01*
X194689546Y-93812778D01*
X194652991Y-93842778D01*
X194652989Y-93842779D01*
X194552594Y-93896442D01*
X194496466Y-93926443D01*
X194326627Y-93977963D01*
X194260443Y-93984481D01*
X194194260Y-93991000D01*
X194105740Y-93991000D01*
X194039558Y-93984482D01*
X193973373Y-93977963D01*
X193803534Y-93926443D01*
X193747407Y-93896442D01*
X193647011Y-93842779D01*
X193647009Y-93842778D01*
X193610454Y-93812778D01*
X193509814Y-93730186D01*
X193426552Y-93628729D01*
X193397222Y-93592991D01*
X193337723Y-93481677D01*
X193313558Y-93436468D01*
X193313416Y-93436000D01*
X193262037Y-93266627D01*
X193244641Y-93090000D01*
X193262037Y-92913373D01*
X193313557Y-92743534D01*
X193329594Y-92713532D01*
X193397221Y-92587011D01*
X193397222Y-92587009D01*
X193439494Y-92535501D01*
X193509814Y-92449814D01*
X193611271Y-92366552D01*
X193647009Y-92337222D01*
X193803534Y-92253557D01*
X193973373Y-92202037D01*
X194039557Y-92195519D01*
X194105740Y-92189000D01*
X194194260Y-92189000D01*
X194260443Y-92195519D01*
X194260443Y-92195519D01*
G37*
G36*
X152270442Y-92165518D02*
G01*
X152336627Y-92172037D01*
X152506466Y-92223557D01*
X152506468Y-92223558D01*
X152584729Y-92265390D01*
X152662991Y-92307222D01*
X152683435Y-92324000D01*
X152800186Y-92419814D01*
X152883448Y-92521271D01*
X152912778Y-92557009D01*
X152996443Y-92713534D01*
X153047963Y-92883373D01*
X153065359Y-93060000D01*
X153047963Y-93236627D01*
X152996443Y-93406466D01*
X152996442Y-93406468D01*
X152969977Y-93455980D01*
X152912778Y-93562991D01*
X152907436Y-93569500D01*
X152800186Y-93700186D01*
X152698729Y-93783448D01*
X152662991Y-93812778D01*
X152506466Y-93896443D01*
X152336627Y-93947963D01*
X152270442Y-93954482D01*
X152204260Y-93961000D01*
X152115740Y-93961000D01*
X152049558Y-93954482D01*
X151983373Y-93947963D01*
X151813534Y-93896443D01*
X151657009Y-93812778D01*
X151621271Y-93783448D01*
X151519814Y-93700186D01*
X151412564Y-93569500D01*
X151407222Y-93562991D01*
X151350023Y-93455980D01*
X151323558Y-93406468D01*
X151323557Y-93406466D01*
X151272037Y-93236627D01*
X151254641Y-93060000D01*
X151272037Y-92883373D01*
X151323557Y-92713534D01*
X151407222Y-92557009D01*
X151436552Y-92521271D01*
X151519814Y-92419814D01*
X151636565Y-92324000D01*
X151657009Y-92307222D01*
X151735272Y-92265389D01*
X151813532Y-92223558D01*
X151813534Y-92223557D01*
X151983373Y-92172037D01*
X152049558Y-92165518D01*
X152115740Y-92159000D01*
X152204260Y-92159000D01*
X152270442Y-92165518D01*
X152270442Y-92165518D01*
G37*
G36*
X168939499Y-92378445D02*
G01*
X168976995Y-92389820D01*
X169011554Y-92408292D01*
X169041847Y-92433153D01*
X169066708Y-92463446D01*
X169085180Y-92498005D01*
X169096555Y-92535501D01*
X169101000Y-92580638D01*
X169101000Y-93319362D01*
X169096555Y-93364499D01*
X169085180Y-93401995D01*
X169066708Y-93436554D01*
X169041847Y-93466847D01*
X169011554Y-93491708D01*
X168976995Y-93510180D01*
X168939499Y-93521555D01*
X168894362Y-93526000D01*
X168255638Y-93526000D01*
X168210501Y-93521555D01*
X168173005Y-93510180D01*
X168138446Y-93491708D01*
X168108153Y-93466847D01*
X168083292Y-93436554D01*
X168064820Y-93401995D01*
X168053445Y-93364499D01*
X168049000Y-93319362D01*
X168049000Y-92580638D01*
X168053445Y-92535501D01*
X168064820Y-92498005D01*
X168083292Y-92463446D01*
X168108153Y-92433153D01*
X168138446Y-92408292D01*
X168173005Y-92389820D01*
X168210501Y-92378445D01*
X168255638Y-92374000D01*
X168894362Y-92374000D01*
X168939499Y-92378445D01*
X168939499Y-92378445D01*
G37*
G36*
X167039499Y-92378445D02*
G01*
X167076995Y-92389820D01*
X167111554Y-92408292D01*
X167141847Y-92433153D01*
X167166708Y-92463446D01*
X167185180Y-92498005D01*
X167196555Y-92535501D01*
X167201000Y-92580638D01*
X167201000Y-93319362D01*
X167196555Y-93364499D01*
X167185180Y-93401995D01*
X167166708Y-93436554D01*
X167141847Y-93466847D01*
X167111554Y-93491708D01*
X167076995Y-93510180D01*
X167039499Y-93521555D01*
X166994362Y-93526000D01*
X166355638Y-93526000D01*
X166310501Y-93521555D01*
X166273005Y-93510180D01*
X166238446Y-93491708D01*
X166208153Y-93466847D01*
X166183292Y-93436554D01*
X166164820Y-93401995D01*
X166153445Y-93364499D01*
X166149000Y-93319362D01*
X166149000Y-92580638D01*
X166153445Y-92535501D01*
X166164820Y-92498005D01*
X166183292Y-92463446D01*
X166208153Y-92433153D01*
X166238446Y-92408292D01*
X166273005Y-92389820D01*
X166310501Y-92378445D01*
X166355638Y-92374000D01*
X166994362Y-92374000D01*
X167039499Y-92378445D01*
X167039499Y-92378445D01*
G37*
G36*
X170814499Y-92378445D02*
G01*
X170851995Y-92389820D01*
X170886554Y-92408292D01*
X170916847Y-92433153D01*
X170941708Y-92463446D01*
X170960180Y-92498005D01*
X170971555Y-92535501D01*
X170976000Y-92580638D01*
X170976000Y-93319362D01*
X170971555Y-93364499D01*
X170960180Y-93401995D01*
X170941708Y-93436554D01*
X170916847Y-93466847D01*
X170886554Y-93491708D01*
X170851995Y-93510180D01*
X170814499Y-93521555D01*
X170769362Y-93526000D01*
X170130638Y-93526000D01*
X170085501Y-93521555D01*
X170048005Y-93510180D01*
X170013446Y-93491708D01*
X169983153Y-93466847D01*
X169958292Y-93436554D01*
X169939820Y-93401995D01*
X169928445Y-93364499D01*
X169924000Y-93319362D01*
X169924000Y-92580638D01*
X169928445Y-92535501D01*
X169939820Y-92498005D01*
X169958292Y-92463446D01*
X169983153Y-92433153D01*
X170013446Y-92408292D01*
X170048005Y-92389820D01*
X170085501Y-92378445D01*
X170130638Y-92374000D01*
X170769362Y-92374000D01*
X170814499Y-92378445D01*
X170814499Y-92378445D01*
G37*
G36*
X186174499Y-92328445D02*
G01*
X186211995Y-92339820D01*
X186246554Y-92358292D01*
X186276847Y-92383153D01*
X186301708Y-92413446D01*
X186320180Y-92448005D01*
X186331555Y-92485501D01*
X186336000Y-92530638D01*
X186336000Y-93269362D01*
X186331555Y-93314499D01*
X186320180Y-93351995D01*
X186301708Y-93386554D01*
X186276847Y-93416847D01*
X186246554Y-93441708D01*
X186211995Y-93460180D01*
X186174499Y-93471555D01*
X186129362Y-93476000D01*
X185490638Y-93476000D01*
X185445501Y-93471555D01*
X185408005Y-93460180D01*
X185373446Y-93441708D01*
X185343153Y-93416847D01*
X185318292Y-93386554D01*
X185299820Y-93351995D01*
X185288445Y-93314499D01*
X185284000Y-93269362D01*
X185284000Y-92530638D01*
X185288445Y-92485501D01*
X185299820Y-92448005D01*
X185318292Y-92413446D01*
X185343153Y-92383153D01*
X185373446Y-92358292D01*
X185408005Y-92339820D01*
X185445501Y-92328445D01*
X185490638Y-92324000D01*
X186129362Y-92324000D01*
X186174499Y-92328445D01*
X186174499Y-92328445D01*
G37*
G36*
X130318381Y-90351031D02*
G01*
X130532410Y-90393604D01*
X130814674Y-90510521D01*
X131068705Y-90680259D01*
X131284741Y-90896295D01*
X131454479Y-91150326D01*
X131571396Y-91432590D01*
X131595569Y-91554115D01*
X131617935Y-91666555D01*
X131631000Y-91732240D01*
X131631000Y-92037760D01*
X131571396Y-92337410D01*
X131454479Y-92619674D01*
X131284741Y-92873705D01*
X131068705Y-93089741D01*
X130814674Y-93259479D01*
X130532410Y-93376396D01*
X130403715Y-93401995D01*
X130232761Y-93436000D01*
X129927239Y-93436000D01*
X129756285Y-93401995D01*
X129627590Y-93376396D01*
X129345326Y-93259479D01*
X129091295Y-93089741D01*
X128875259Y-92873705D01*
X128705521Y-92619674D01*
X128588604Y-92337410D01*
X128529000Y-92037760D01*
X128529000Y-91732240D01*
X128542066Y-91666555D01*
X128564431Y-91554115D01*
X128588604Y-91432590D01*
X128705521Y-91150326D01*
X128875259Y-90896295D01*
X129091295Y-90680259D01*
X129345326Y-90510521D01*
X129627590Y-90393604D01*
X129841619Y-90351031D01*
X129927239Y-90334000D01*
X130232761Y-90334000D01*
X130318381Y-90351031D01*
X130318381Y-90351031D01*
G37*
G36*
X123968381Y-90351031D02*
G01*
X124182410Y-90393604D01*
X124464674Y-90510521D01*
X124718705Y-90680259D01*
X124934741Y-90896295D01*
X125104479Y-91150326D01*
X125221396Y-91432590D01*
X125245569Y-91554115D01*
X125267935Y-91666555D01*
X125281000Y-91732240D01*
X125281000Y-92037760D01*
X125221396Y-92337410D01*
X125104479Y-92619674D01*
X124934741Y-92873705D01*
X124718705Y-93089741D01*
X124464674Y-93259479D01*
X124182410Y-93376396D01*
X124053715Y-93401995D01*
X123882761Y-93436000D01*
X123577239Y-93436000D01*
X123406285Y-93401995D01*
X123277590Y-93376396D01*
X122995326Y-93259479D01*
X122741295Y-93089741D01*
X122525259Y-92873705D01*
X122355521Y-92619674D01*
X122238604Y-92337410D01*
X122179000Y-92037760D01*
X122179000Y-91732240D01*
X122192066Y-91666555D01*
X122214431Y-91554115D01*
X122238604Y-91432590D01*
X122355521Y-91150326D01*
X122525259Y-90896295D01*
X122741295Y-90680259D01*
X122995326Y-90510521D01*
X123277590Y-90393604D01*
X123491619Y-90351031D01*
X123577239Y-90334000D01*
X123882761Y-90334000D01*
X123968381Y-90351031D01*
X123968381Y-90351031D01*
G37*
G36*
X117872381Y-90351031D02*
G01*
X118086410Y-90393604D01*
X118368674Y-90510521D01*
X118622705Y-90680259D01*
X118838741Y-90896295D01*
X119008479Y-91150326D01*
X119125396Y-91432590D01*
X119149569Y-91554115D01*
X119171935Y-91666555D01*
X119185000Y-91732240D01*
X119185000Y-92037760D01*
X119125396Y-92337410D01*
X119008479Y-92619674D01*
X118838741Y-92873705D01*
X118622705Y-93089741D01*
X118368674Y-93259479D01*
X118086410Y-93376396D01*
X117957715Y-93401995D01*
X117786761Y-93436000D01*
X117481239Y-93436000D01*
X117310285Y-93401995D01*
X117181590Y-93376396D01*
X116899326Y-93259479D01*
X116645295Y-93089741D01*
X116429259Y-92873705D01*
X116259521Y-92619674D01*
X116142604Y-92337410D01*
X116083000Y-92037760D01*
X116083000Y-91732240D01*
X116096066Y-91666555D01*
X116118431Y-91554115D01*
X116142604Y-91432590D01*
X116259521Y-91150326D01*
X116429259Y-90896295D01*
X116645295Y-90680259D01*
X116899326Y-90510521D01*
X117181590Y-90393604D01*
X117395619Y-90351031D01*
X117481239Y-90334000D01*
X117786761Y-90334000D01*
X117872381Y-90351031D01*
X117872381Y-90351031D01*
G37*
G36*
X186174499Y-90523445D02*
G01*
X186211995Y-90534820D01*
X186246554Y-90553292D01*
X186276847Y-90578153D01*
X186301708Y-90608446D01*
X186320180Y-90643005D01*
X186331555Y-90680501D01*
X186336000Y-90725638D01*
X186336000Y-91464362D01*
X186331555Y-91509499D01*
X186320180Y-91546995D01*
X186301708Y-91581554D01*
X186276847Y-91611847D01*
X186246554Y-91636708D01*
X186211995Y-91655180D01*
X186174499Y-91666555D01*
X186129362Y-91671000D01*
X185490638Y-91671000D01*
X185445501Y-91666555D01*
X185408005Y-91655180D01*
X185373446Y-91636708D01*
X185343153Y-91611847D01*
X185318292Y-91581554D01*
X185299820Y-91546995D01*
X185288445Y-91509499D01*
X185284000Y-91464362D01*
X185284000Y-90725638D01*
X185288445Y-90680501D01*
X185299820Y-90643005D01*
X185318292Y-90608446D01*
X185343153Y-90578153D01*
X185373446Y-90553292D01*
X185408005Y-90534820D01*
X185445501Y-90523445D01*
X185490638Y-90519000D01*
X186129362Y-90519000D01*
X186174499Y-90523445D01*
X186174499Y-90523445D01*
G37*
G36*
X194260443Y-89655519D02*
G01*
X194326627Y-89662037D01*
X194496466Y-89713557D01*
X194652991Y-89797222D01*
X194688729Y-89826552D01*
X194790186Y-89909814D01*
X194873448Y-90011271D01*
X194902778Y-90047009D01*
X194986443Y-90203534D01*
X195037963Y-90373373D01*
X195055359Y-90550000D01*
X195037963Y-90726627D01*
X194986443Y-90896466D01*
X194902778Y-91052991D01*
X194873448Y-91088729D01*
X194790186Y-91190186D01*
X194700673Y-91263646D01*
X194652991Y-91302778D01*
X194652989Y-91302779D01*
X194505383Y-91381677D01*
X194496466Y-91386443D01*
X194326627Y-91437963D01*
X194260442Y-91444482D01*
X194194260Y-91451000D01*
X194105740Y-91451000D01*
X194039558Y-91444482D01*
X193973373Y-91437963D01*
X193803534Y-91386443D01*
X193794618Y-91381677D01*
X193647011Y-91302779D01*
X193647009Y-91302778D01*
X193599327Y-91263646D01*
X193509814Y-91190186D01*
X193426552Y-91088729D01*
X193397222Y-91052991D01*
X193313557Y-90896466D01*
X193262037Y-90726627D01*
X193244641Y-90550000D01*
X193262037Y-90373373D01*
X193313557Y-90203534D01*
X193397222Y-90047009D01*
X193426552Y-90011271D01*
X193509814Y-89909814D01*
X193611271Y-89826552D01*
X193647009Y-89797222D01*
X193803534Y-89713557D01*
X193973373Y-89662037D01*
X194039558Y-89655518D01*
X194105740Y-89649000D01*
X194194260Y-89649000D01*
X194260443Y-89655519D01*
X194260443Y-89655519D01*
G37*
G36*
X167039499Y-90278445D02*
G01*
X167076995Y-90289820D01*
X167111554Y-90308292D01*
X167141847Y-90333153D01*
X167166708Y-90363446D01*
X167185180Y-90398005D01*
X167196555Y-90435501D01*
X167201000Y-90480638D01*
X167201000Y-91219362D01*
X167196555Y-91264499D01*
X167185180Y-91301995D01*
X167166708Y-91336554D01*
X167141847Y-91366847D01*
X167111554Y-91391708D01*
X167076995Y-91410180D01*
X167039499Y-91421555D01*
X166994362Y-91426000D01*
X166355638Y-91426000D01*
X166310501Y-91421555D01*
X166273005Y-91410180D01*
X166238446Y-91391708D01*
X166208153Y-91366847D01*
X166183292Y-91336554D01*
X166164820Y-91301995D01*
X166153445Y-91264499D01*
X166149000Y-91219362D01*
X166149000Y-90480638D01*
X166153445Y-90435501D01*
X166164820Y-90398005D01*
X166183292Y-90363446D01*
X166208153Y-90333153D01*
X166238446Y-90308292D01*
X166273005Y-90289820D01*
X166310501Y-90278445D01*
X166355638Y-90274000D01*
X166994362Y-90274000D01*
X167039499Y-90278445D01*
X167039499Y-90278445D01*
G37*
G36*
X170814499Y-90278445D02*
G01*
X170851995Y-90289820D01*
X170886554Y-90308292D01*
X170916847Y-90333153D01*
X170941708Y-90363446D01*
X170960180Y-90398005D01*
X170971555Y-90435501D01*
X170976000Y-90480638D01*
X170976000Y-91219362D01*
X170971555Y-91264499D01*
X170960180Y-91301995D01*
X170941708Y-91336554D01*
X170916847Y-91366847D01*
X170886554Y-91391708D01*
X170851995Y-91410180D01*
X170814499Y-91421555D01*
X170769362Y-91426000D01*
X170130638Y-91426000D01*
X170085501Y-91421555D01*
X170048005Y-91410180D01*
X170013446Y-91391708D01*
X169983153Y-91366847D01*
X169958292Y-91336554D01*
X169939820Y-91301995D01*
X169928445Y-91264499D01*
X169924000Y-91219362D01*
X169924000Y-90480638D01*
X169928445Y-90435501D01*
X169939820Y-90398005D01*
X169958292Y-90363446D01*
X169983153Y-90333153D01*
X170013446Y-90308292D01*
X170048005Y-90289820D01*
X170085501Y-90278445D01*
X170130638Y-90274000D01*
X170769362Y-90274000D01*
X170814499Y-90278445D01*
X170814499Y-90278445D01*
G37*
G36*
X168939499Y-90278445D02*
G01*
X168976995Y-90289820D01*
X169011554Y-90308292D01*
X169041847Y-90333153D01*
X169066708Y-90363446D01*
X169085180Y-90398005D01*
X169096555Y-90435501D01*
X169101000Y-90480638D01*
X169101000Y-91219362D01*
X169096555Y-91264499D01*
X169085180Y-91301995D01*
X169066708Y-91336554D01*
X169041847Y-91366847D01*
X169011554Y-91391708D01*
X168976995Y-91410180D01*
X168939499Y-91421555D01*
X168894362Y-91426000D01*
X168255638Y-91426000D01*
X168210501Y-91421555D01*
X168173005Y-91410180D01*
X168138446Y-91391708D01*
X168108153Y-91366847D01*
X168083292Y-91336554D01*
X168064820Y-91301995D01*
X168053445Y-91264499D01*
X168049000Y-91219362D01*
X168049000Y-90480638D01*
X168053445Y-90435501D01*
X168064820Y-90398005D01*
X168083292Y-90363446D01*
X168108153Y-90333153D01*
X168138446Y-90308292D01*
X168173005Y-90289820D01*
X168210501Y-90278445D01*
X168255638Y-90274000D01*
X168894362Y-90274000D01*
X168939499Y-90278445D01*
X168939499Y-90278445D01*
G37*
G36*
X153061000Y-91421000D02*
G01*
X151259000Y-91421000D01*
X151259000Y-89619000D01*
X153061000Y-89619000D01*
X153061000Y-91421000D01*
X153061000Y-91421000D01*
G37*
G36*
X138861000Y-91021000D02*
G01*
X136459000Y-91021000D01*
X136459000Y-87419000D01*
X138861000Y-87419000D01*
X138861000Y-91021000D01*
X138861000Y-91021000D01*
G37*
G36*
X157384928Y-88446764D02*
G01*
X157406009Y-88453160D01*
X157425445Y-88463548D01*
X157442476Y-88477524D01*
X157456452Y-88494555D01*
X157466840Y-88513991D01*
X157473236Y-88535072D01*
X157476000Y-88563140D01*
X157476000Y-90376860D01*
X157473236Y-90404928D01*
X157466840Y-90426009D01*
X157456452Y-90445445D01*
X157442476Y-90462476D01*
X157425445Y-90476452D01*
X157406009Y-90486840D01*
X157384928Y-90493236D01*
X157356860Y-90496000D01*
X156893140Y-90496000D01*
X156865072Y-90493236D01*
X156843991Y-90486840D01*
X156824555Y-90476452D01*
X156807524Y-90462476D01*
X156793548Y-90445445D01*
X156783160Y-90426009D01*
X156776764Y-90404928D01*
X156774000Y-90376860D01*
X156774000Y-88563140D01*
X156776764Y-88535072D01*
X156783160Y-88513991D01*
X156793548Y-88494555D01*
X156807524Y-88477524D01*
X156824555Y-88463548D01*
X156843991Y-88453160D01*
X156865072Y-88446764D01*
X156893140Y-88444000D01*
X157356860Y-88444000D01*
X157384928Y-88446764D01*
X157384928Y-88446764D01*
G37*
G36*
X158654928Y-88446764D02*
G01*
X158676009Y-88453160D01*
X158695445Y-88463548D01*
X158712476Y-88477524D01*
X158726452Y-88494555D01*
X158736840Y-88513991D01*
X158743236Y-88535072D01*
X158746000Y-88563140D01*
X158746000Y-90376860D01*
X158743236Y-90404928D01*
X158736840Y-90426009D01*
X158726452Y-90445445D01*
X158712476Y-90462476D01*
X158695445Y-90476452D01*
X158676009Y-90486840D01*
X158654928Y-90493236D01*
X158626860Y-90496000D01*
X158163140Y-90496000D01*
X158135072Y-90493236D01*
X158113991Y-90486840D01*
X158094555Y-90476452D01*
X158077524Y-90462476D01*
X158063548Y-90445445D01*
X158053160Y-90426009D01*
X158046764Y-90404928D01*
X158044000Y-90376860D01*
X158044000Y-88563140D01*
X158046764Y-88535072D01*
X158053160Y-88513991D01*
X158063548Y-88494555D01*
X158077524Y-88477524D01*
X158094555Y-88463548D01*
X158113991Y-88453160D01*
X158135072Y-88446764D01*
X158163140Y-88444000D01*
X158626860Y-88444000D01*
X158654928Y-88446764D01*
X158654928Y-88446764D01*
G37*
G36*
X159924928Y-88446764D02*
G01*
X159946009Y-88453160D01*
X159965445Y-88463548D01*
X159982476Y-88477524D01*
X159996452Y-88494555D01*
X160006840Y-88513991D01*
X160013236Y-88535072D01*
X160016000Y-88563140D01*
X160016000Y-90376860D01*
X160013236Y-90404928D01*
X160006840Y-90426009D01*
X159996452Y-90445445D01*
X159982476Y-90462476D01*
X159965445Y-90476452D01*
X159946009Y-90486840D01*
X159924928Y-90493236D01*
X159896860Y-90496000D01*
X159433140Y-90496000D01*
X159405072Y-90493236D01*
X159383991Y-90486840D01*
X159364555Y-90476452D01*
X159347524Y-90462476D01*
X159333548Y-90445445D01*
X159323160Y-90426009D01*
X159316764Y-90404928D01*
X159314000Y-90376860D01*
X159314000Y-88563140D01*
X159316764Y-88535072D01*
X159323160Y-88513991D01*
X159333548Y-88494555D01*
X159347524Y-88477524D01*
X159364555Y-88463548D01*
X159383991Y-88453160D01*
X159405072Y-88446764D01*
X159433140Y-88444000D01*
X159896860Y-88444000D01*
X159924928Y-88446764D01*
X159924928Y-88446764D01*
G37*
G36*
X161194928Y-88446764D02*
G01*
X161216009Y-88453160D01*
X161235445Y-88463548D01*
X161252476Y-88477524D01*
X161266452Y-88494555D01*
X161276840Y-88513991D01*
X161283236Y-88535072D01*
X161286000Y-88563140D01*
X161286000Y-90376860D01*
X161283236Y-90404928D01*
X161276840Y-90426009D01*
X161266452Y-90445445D01*
X161252476Y-90462476D01*
X161235445Y-90476452D01*
X161216009Y-90486840D01*
X161194928Y-90493236D01*
X161166860Y-90496000D01*
X160703140Y-90496000D01*
X160675072Y-90493236D01*
X160653991Y-90486840D01*
X160634555Y-90476452D01*
X160617524Y-90462476D01*
X160603548Y-90445445D01*
X160593160Y-90426009D01*
X160586764Y-90404928D01*
X160584000Y-90376860D01*
X160584000Y-88563140D01*
X160586764Y-88535072D01*
X160593160Y-88513991D01*
X160603548Y-88494555D01*
X160617524Y-88477524D01*
X160634555Y-88463548D01*
X160653991Y-88453160D01*
X160675072Y-88446764D01*
X160703140Y-88444000D01*
X161166860Y-88444000D01*
X161194928Y-88446764D01*
X161194928Y-88446764D01*
G37*
G36*
X162464928Y-88446764D02*
G01*
X162486009Y-88453160D01*
X162505445Y-88463548D01*
X162522476Y-88477524D01*
X162536452Y-88494555D01*
X162546840Y-88513991D01*
X162553236Y-88535072D01*
X162556000Y-88563140D01*
X162556000Y-90376860D01*
X162553236Y-90404928D01*
X162546840Y-90426009D01*
X162536452Y-90445445D01*
X162522476Y-90462476D01*
X162505445Y-90476452D01*
X162486009Y-90486840D01*
X162464928Y-90493236D01*
X162436860Y-90496000D01*
X161973140Y-90496000D01*
X161945072Y-90493236D01*
X161923991Y-90486840D01*
X161904555Y-90476452D01*
X161887524Y-90462476D01*
X161873548Y-90445445D01*
X161863160Y-90426009D01*
X161856764Y-90404928D01*
X161854000Y-90376860D01*
X161854000Y-88563140D01*
X161856764Y-88535072D01*
X161863160Y-88513991D01*
X161873548Y-88494555D01*
X161887524Y-88477524D01*
X161904555Y-88463548D01*
X161923991Y-88453160D01*
X161945072Y-88446764D01*
X161973140Y-88444000D01*
X162436860Y-88444000D01*
X162464928Y-88446764D01*
X162464928Y-88446764D01*
G37*
G36*
X163734928Y-88446764D02*
G01*
X163756009Y-88453160D01*
X163775445Y-88463548D01*
X163792476Y-88477524D01*
X163806452Y-88494555D01*
X163816840Y-88513991D01*
X163823236Y-88535072D01*
X163826000Y-88563140D01*
X163826000Y-90376860D01*
X163823236Y-90404928D01*
X163816840Y-90426009D01*
X163806452Y-90445445D01*
X163792476Y-90462476D01*
X163775445Y-90476452D01*
X163756009Y-90486840D01*
X163734928Y-90493236D01*
X163706860Y-90496000D01*
X163243140Y-90496000D01*
X163215072Y-90493236D01*
X163193991Y-90486840D01*
X163174555Y-90476452D01*
X163157524Y-90462476D01*
X163143548Y-90445445D01*
X163133160Y-90426009D01*
X163126764Y-90404928D01*
X163124000Y-90376860D01*
X163124000Y-88563140D01*
X163126764Y-88535072D01*
X163133160Y-88513991D01*
X163143548Y-88494555D01*
X163157524Y-88477524D01*
X163174555Y-88463548D01*
X163193991Y-88453160D01*
X163215072Y-88446764D01*
X163243140Y-88444000D01*
X163706860Y-88444000D01*
X163734928Y-88446764D01*
X163734928Y-88446764D01*
G37*
G36*
X165004928Y-88446764D02*
G01*
X165026009Y-88453160D01*
X165045445Y-88463548D01*
X165062476Y-88477524D01*
X165076452Y-88494555D01*
X165086840Y-88513991D01*
X165093236Y-88535072D01*
X165096000Y-88563140D01*
X165096000Y-90376860D01*
X165093236Y-90404928D01*
X165086840Y-90426009D01*
X165076452Y-90445445D01*
X165062476Y-90462476D01*
X165045445Y-90476452D01*
X165026009Y-90486840D01*
X165004928Y-90493236D01*
X164976860Y-90496000D01*
X164513140Y-90496000D01*
X164485072Y-90493236D01*
X164463991Y-90486840D01*
X164444555Y-90476452D01*
X164427524Y-90462476D01*
X164413548Y-90445445D01*
X164403160Y-90426009D01*
X164396764Y-90404928D01*
X164394000Y-90376860D01*
X164394000Y-88563140D01*
X164396764Y-88535072D01*
X164403160Y-88513991D01*
X164413548Y-88494555D01*
X164427524Y-88477524D01*
X164444555Y-88463548D01*
X164463991Y-88453160D01*
X164485072Y-88446764D01*
X164513140Y-88444000D01*
X164976860Y-88444000D01*
X165004928Y-88446764D01*
X165004928Y-88446764D01*
G37*
G36*
X186174499Y-88773445D02*
G01*
X186211995Y-88784820D01*
X186246554Y-88803292D01*
X186276847Y-88828153D01*
X186301708Y-88858446D01*
X186320180Y-88893005D01*
X186331555Y-88930501D01*
X186336000Y-88975638D01*
X186336000Y-89714362D01*
X186331555Y-89759499D01*
X186320180Y-89796995D01*
X186301708Y-89831554D01*
X186276847Y-89861847D01*
X186246554Y-89886708D01*
X186211995Y-89905180D01*
X186174499Y-89916555D01*
X186129362Y-89921000D01*
X185490638Y-89921000D01*
X185445501Y-89916555D01*
X185408005Y-89905180D01*
X185373446Y-89886708D01*
X185343153Y-89861847D01*
X185318292Y-89831554D01*
X185299820Y-89796995D01*
X185288445Y-89759499D01*
X185284000Y-89714362D01*
X185284000Y-88975638D01*
X185288445Y-88930501D01*
X185299820Y-88893005D01*
X185318292Y-88858446D01*
X185343153Y-88828153D01*
X185373446Y-88803292D01*
X185408005Y-88784820D01*
X185445501Y-88773445D01*
X185490638Y-88769000D01*
X186129362Y-88769000D01*
X186174499Y-88773445D01*
X186174499Y-88773445D01*
G37*
G36*
X167039499Y-88528445D02*
G01*
X167076995Y-88539820D01*
X167111554Y-88558292D01*
X167141847Y-88583153D01*
X167166708Y-88613446D01*
X167185180Y-88648005D01*
X167196555Y-88685501D01*
X167201000Y-88730638D01*
X167201000Y-89469362D01*
X167196555Y-89514499D01*
X167185180Y-89551995D01*
X167166708Y-89586554D01*
X167141847Y-89616847D01*
X167111554Y-89641708D01*
X167076995Y-89660180D01*
X167039499Y-89671555D01*
X166994362Y-89676000D01*
X166355638Y-89676000D01*
X166310501Y-89671555D01*
X166273005Y-89660180D01*
X166238446Y-89641708D01*
X166208153Y-89616847D01*
X166183292Y-89586554D01*
X166164820Y-89551995D01*
X166153445Y-89514499D01*
X166149000Y-89469362D01*
X166149000Y-88730638D01*
X166153445Y-88685501D01*
X166164820Y-88648005D01*
X166183292Y-88613446D01*
X166208153Y-88583153D01*
X166238446Y-88558292D01*
X166273005Y-88539820D01*
X166310501Y-88528445D01*
X166355638Y-88524000D01*
X166994362Y-88524000D01*
X167039499Y-88528445D01*
X167039499Y-88528445D01*
G37*
G36*
X168939499Y-88528445D02*
G01*
X168976995Y-88539820D01*
X169011554Y-88558292D01*
X169041847Y-88583153D01*
X169066708Y-88613446D01*
X169085180Y-88648005D01*
X169096555Y-88685501D01*
X169101000Y-88730638D01*
X169101000Y-89469362D01*
X169096555Y-89514499D01*
X169085180Y-89551995D01*
X169066708Y-89586554D01*
X169041847Y-89616847D01*
X169011554Y-89641708D01*
X168976995Y-89660180D01*
X168939499Y-89671555D01*
X168894362Y-89676000D01*
X168255638Y-89676000D01*
X168210501Y-89671555D01*
X168173005Y-89660180D01*
X168138446Y-89641708D01*
X168108153Y-89616847D01*
X168083292Y-89586554D01*
X168064820Y-89551995D01*
X168053445Y-89514499D01*
X168049000Y-89469362D01*
X168049000Y-88730638D01*
X168053445Y-88685501D01*
X168064820Y-88648005D01*
X168083292Y-88613446D01*
X168108153Y-88583153D01*
X168138446Y-88558292D01*
X168173005Y-88539820D01*
X168210501Y-88528445D01*
X168255638Y-88524000D01*
X168894362Y-88524000D01*
X168939499Y-88528445D01*
X168939499Y-88528445D01*
G37*
G36*
X170814499Y-88528445D02*
G01*
X170851995Y-88539820D01*
X170886554Y-88558292D01*
X170916847Y-88583153D01*
X170941708Y-88613446D01*
X170960180Y-88648005D01*
X170971555Y-88685501D01*
X170976000Y-88730638D01*
X170976000Y-89469362D01*
X170971555Y-89514499D01*
X170960180Y-89551995D01*
X170941708Y-89586554D01*
X170916847Y-89616847D01*
X170886554Y-89641708D01*
X170851995Y-89660180D01*
X170814499Y-89671555D01*
X170769362Y-89676000D01*
X170130638Y-89676000D01*
X170085501Y-89671555D01*
X170048005Y-89660180D01*
X170013446Y-89641708D01*
X169983153Y-89616847D01*
X169958292Y-89586554D01*
X169939820Y-89551995D01*
X169928445Y-89514499D01*
X169924000Y-89469362D01*
X169924000Y-88730638D01*
X169928445Y-88685501D01*
X169939820Y-88648005D01*
X169958292Y-88613446D01*
X169983153Y-88583153D01*
X170013446Y-88558292D01*
X170048005Y-88539820D01*
X170085501Y-88528445D01*
X170130638Y-88524000D01*
X170769362Y-88524000D01*
X170814499Y-88528445D01*
X170814499Y-88528445D01*
G37*
G36*
X183051000Y-89076000D02*
G01*
X174049000Y-89076000D01*
X174049000Y-87224000D01*
X183051000Y-87224000D01*
X183051000Y-89076000D01*
X183051000Y-89076000D01*
G37*
G36*
X130382585Y-85918802D02*
G01*
X130532410Y-85948604D01*
X130814674Y-86065521D01*
X131068705Y-86235259D01*
X131284741Y-86451295D01*
X131454479Y-86705326D01*
X131571396Y-86987590D01*
X131590635Y-87084309D01*
X131625922Y-87261708D01*
X131631000Y-87287240D01*
X131631000Y-87592760D01*
X131571396Y-87892410D01*
X131454479Y-88174674D01*
X131284741Y-88428705D01*
X131068705Y-88644741D01*
X130814674Y-88814479D01*
X130532410Y-88931396D01*
X130382585Y-88961198D01*
X130232761Y-88991000D01*
X129927239Y-88991000D01*
X129777415Y-88961198D01*
X129627590Y-88931396D01*
X129345326Y-88814479D01*
X129091295Y-88644741D01*
X128875259Y-88428705D01*
X128705521Y-88174674D01*
X128588604Y-87892410D01*
X128529000Y-87592760D01*
X128529000Y-87287240D01*
X128534079Y-87261708D01*
X128569365Y-87084309D01*
X128588604Y-86987590D01*
X128705521Y-86705326D01*
X128875259Y-86451295D01*
X129091295Y-86235259D01*
X129345326Y-86065521D01*
X129627590Y-85948604D01*
X129777415Y-85918802D01*
X129927239Y-85889000D01*
X130232761Y-85889000D01*
X130382585Y-85918802D01*
X130382585Y-85918802D01*
G37*
G36*
X124032585Y-85918802D02*
G01*
X124182410Y-85948604D01*
X124464674Y-86065521D01*
X124718705Y-86235259D01*
X124934741Y-86451295D01*
X125104479Y-86705326D01*
X125221396Y-86987590D01*
X125240635Y-87084309D01*
X125275922Y-87261708D01*
X125281000Y-87287240D01*
X125281000Y-87592760D01*
X125221396Y-87892410D01*
X125104479Y-88174674D01*
X124934741Y-88428705D01*
X124718705Y-88644741D01*
X124464674Y-88814479D01*
X124182410Y-88931396D01*
X124032585Y-88961198D01*
X123882761Y-88991000D01*
X123577239Y-88991000D01*
X123427415Y-88961198D01*
X123277590Y-88931396D01*
X122995326Y-88814479D01*
X122741295Y-88644741D01*
X122525259Y-88428705D01*
X122355521Y-88174674D01*
X122238604Y-87892410D01*
X122179000Y-87592760D01*
X122179000Y-87287240D01*
X122184079Y-87261708D01*
X122219365Y-87084309D01*
X122238604Y-86987590D01*
X122355521Y-86705326D01*
X122525259Y-86451295D01*
X122741295Y-86235259D01*
X122995326Y-86065521D01*
X123277590Y-85948604D01*
X123427415Y-85918802D01*
X123577239Y-85889000D01*
X123882761Y-85889000D01*
X124032585Y-85918802D01*
X124032585Y-85918802D01*
G37*
G36*
X194260442Y-87115518D02*
G01*
X194326627Y-87122037D01*
X194496466Y-87173557D01*
X194652991Y-87257222D01*
X194680965Y-87280180D01*
X194790186Y-87369814D01*
X194873448Y-87471271D01*
X194902778Y-87507009D01*
X194986443Y-87663534D01*
X195037963Y-87833373D01*
X195055359Y-88010000D01*
X195037963Y-88186627D01*
X194986443Y-88356466D01*
X194902778Y-88512991D01*
X194893743Y-88524000D01*
X194790186Y-88650186D01*
X194688729Y-88733448D01*
X194652991Y-88762778D01*
X194496466Y-88846443D01*
X194326627Y-88897963D01*
X194260442Y-88904482D01*
X194194260Y-88911000D01*
X194105740Y-88911000D01*
X194039557Y-88904481D01*
X193973373Y-88897963D01*
X193803534Y-88846443D01*
X193647009Y-88762778D01*
X193611271Y-88733448D01*
X193509814Y-88650186D01*
X193406257Y-88524000D01*
X193397222Y-88512991D01*
X193313557Y-88356466D01*
X193262037Y-88186627D01*
X193244641Y-88010000D01*
X193262037Y-87833373D01*
X193313557Y-87663534D01*
X193397222Y-87507009D01*
X193426552Y-87471271D01*
X193509814Y-87369814D01*
X193619035Y-87280180D01*
X193647009Y-87257222D01*
X193803534Y-87173557D01*
X193973373Y-87122037D01*
X194039558Y-87115518D01*
X194105740Y-87109000D01*
X194194260Y-87109000D01*
X194260442Y-87115518D01*
X194260442Y-87115518D01*
G37*
G36*
X149147339Y-86113019D02*
G01*
X149180681Y-86123134D01*
X149211406Y-86139557D01*
X149238340Y-86161660D01*
X149260443Y-86188594D01*
X149276866Y-86219319D01*
X149286981Y-86252661D01*
X149291000Y-86293471D01*
X149291000Y-87676529D01*
X149286981Y-87717339D01*
X149276866Y-87750681D01*
X149260443Y-87781406D01*
X149238340Y-87808340D01*
X149211406Y-87830443D01*
X149180681Y-87846866D01*
X149147339Y-87856981D01*
X149106529Y-87861000D01*
X144073471Y-87861000D01*
X144032661Y-87856981D01*
X143999319Y-87846866D01*
X143968594Y-87830443D01*
X143941660Y-87808340D01*
X143919557Y-87781406D01*
X143903134Y-87750681D01*
X143893019Y-87717339D01*
X143889000Y-87676529D01*
X143889000Y-86293471D01*
X143893019Y-86252661D01*
X143903134Y-86219319D01*
X143919557Y-86188594D01*
X143941660Y-86161660D01*
X143968594Y-86139557D01*
X143999319Y-86123134D01*
X144032661Y-86113019D01*
X144073471Y-86109000D01*
X149106529Y-86109000D01*
X149147339Y-86113019D01*
X149147339Y-86113019D01*
G37*
G36*
X160974499Y-86248445D02*
G01*
X161011995Y-86259820D01*
X161046554Y-86278292D01*
X161076847Y-86303153D01*
X161101708Y-86333446D01*
X161120180Y-86368005D01*
X161131555Y-86405501D01*
X161136000Y-86450638D01*
X161136000Y-87089362D01*
X161131555Y-87134499D01*
X161120180Y-87171995D01*
X161101708Y-87206554D01*
X161076847Y-87236847D01*
X161046554Y-87261708D01*
X161011995Y-87280180D01*
X160974499Y-87291555D01*
X160929362Y-87296000D01*
X160190638Y-87296000D01*
X160145501Y-87291555D01*
X160108005Y-87280180D01*
X160073446Y-87261708D01*
X160043153Y-87236847D01*
X160018292Y-87206554D01*
X159999820Y-87171995D01*
X159988445Y-87134499D01*
X159984000Y-87089362D01*
X159984000Y-86450638D01*
X159988445Y-86405501D01*
X159999820Y-86368005D01*
X160018292Y-86333446D01*
X160043153Y-86303153D01*
X160073446Y-86278292D01*
X160108005Y-86259820D01*
X160145501Y-86248445D01*
X160190638Y-86244000D01*
X160929362Y-86244000D01*
X160974499Y-86248445D01*
X160974499Y-86248445D01*
G37*
G36*
X162774499Y-86248445D02*
G01*
X162811995Y-86259820D01*
X162846554Y-86278292D01*
X162876847Y-86303153D01*
X162901708Y-86333446D01*
X162920180Y-86368005D01*
X162931555Y-86405501D01*
X162936000Y-86450638D01*
X162936000Y-87089362D01*
X162931555Y-87134499D01*
X162920180Y-87171995D01*
X162901708Y-87206554D01*
X162876847Y-87236847D01*
X162846554Y-87261708D01*
X162811995Y-87280180D01*
X162774499Y-87291555D01*
X162729362Y-87296000D01*
X161990638Y-87296000D01*
X161945501Y-87291555D01*
X161908005Y-87280180D01*
X161873446Y-87261708D01*
X161843153Y-87236847D01*
X161818292Y-87206554D01*
X161799820Y-87171995D01*
X161788445Y-87134499D01*
X161784000Y-87089362D01*
X161784000Y-86450638D01*
X161788445Y-86405501D01*
X161799820Y-86368005D01*
X161818292Y-86333446D01*
X161843153Y-86303153D01*
X161873446Y-86278292D01*
X161908005Y-86259820D01*
X161945501Y-86248445D01*
X161990638Y-86244000D01*
X162729362Y-86244000D01*
X162774499Y-86248445D01*
X162774499Y-86248445D01*
G37*
G36*
X159224499Y-86248445D02*
G01*
X159261995Y-86259820D01*
X159296554Y-86278292D01*
X159326847Y-86303153D01*
X159351708Y-86333446D01*
X159370180Y-86368005D01*
X159381555Y-86405501D01*
X159386000Y-86450638D01*
X159386000Y-87089362D01*
X159381555Y-87134499D01*
X159370180Y-87171995D01*
X159351708Y-87206554D01*
X159326847Y-87236847D01*
X159296554Y-87261708D01*
X159261995Y-87280180D01*
X159224499Y-87291555D01*
X159179362Y-87296000D01*
X158440638Y-87296000D01*
X158395501Y-87291555D01*
X158358005Y-87280180D01*
X158323446Y-87261708D01*
X158293153Y-87236847D01*
X158268292Y-87206554D01*
X158249820Y-87171995D01*
X158238445Y-87134499D01*
X158234000Y-87089362D01*
X158234000Y-86450638D01*
X158238445Y-86405501D01*
X158249820Y-86368005D01*
X158268292Y-86333446D01*
X158293153Y-86303153D01*
X158323446Y-86278292D01*
X158358005Y-86259820D01*
X158395501Y-86248445D01*
X158440638Y-86244000D01*
X159179362Y-86244000D01*
X159224499Y-86248445D01*
X159224499Y-86248445D01*
G37*
G36*
X164524499Y-86248445D02*
G01*
X164561995Y-86259820D01*
X164596554Y-86278292D01*
X164626847Y-86303153D01*
X164651708Y-86333446D01*
X164670180Y-86368005D01*
X164681555Y-86405501D01*
X164686000Y-86450638D01*
X164686000Y-87089362D01*
X164681555Y-87134499D01*
X164670180Y-87171995D01*
X164651708Y-87206554D01*
X164626847Y-87236847D01*
X164596554Y-87261708D01*
X164561995Y-87280180D01*
X164524499Y-87291555D01*
X164479362Y-87296000D01*
X163740638Y-87296000D01*
X163695501Y-87291555D01*
X163658005Y-87280180D01*
X163623446Y-87261708D01*
X163593153Y-87236847D01*
X163568292Y-87206554D01*
X163549820Y-87171995D01*
X163538445Y-87134499D01*
X163534000Y-87089362D01*
X163534000Y-86450638D01*
X163538445Y-86405501D01*
X163549820Y-86368005D01*
X163568292Y-86333446D01*
X163593153Y-86303153D01*
X163623446Y-86278292D01*
X163658005Y-86259820D01*
X163695501Y-86248445D01*
X163740638Y-86244000D01*
X164479362Y-86244000D01*
X164524499Y-86248445D01*
X164524499Y-86248445D01*
G37*
G36*
X194260443Y-84575519D02*
G01*
X194326627Y-84582037D01*
X194496466Y-84633557D01*
X194652991Y-84717222D01*
X194688729Y-84746552D01*
X194790186Y-84829814D01*
X194873448Y-84931271D01*
X194902778Y-84967009D01*
X194986443Y-85123534D01*
X195037963Y-85293373D01*
X195055359Y-85470000D01*
X195037963Y-85646627D01*
X194986443Y-85816466D01*
X194902778Y-85972991D01*
X194882419Y-85997798D01*
X194790186Y-86110186D01*
X194696891Y-86186750D01*
X194652991Y-86222778D01*
X194496466Y-86306443D01*
X194326627Y-86357963D01*
X194260443Y-86364481D01*
X194194260Y-86371000D01*
X194105740Y-86371000D01*
X194039557Y-86364481D01*
X193973373Y-86357963D01*
X193803534Y-86306443D01*
X193647009Y-86222778D01*
X193603109Y-86186750D01*
X193509814Y-86110186D01*
X193417581Y-85997798D01*
X193397222Y-85972991D01*
X193313557Y-85816466D01*
X193262037Y-85646627D01*
X193244641Y-85470000D01*
X193262037Y-85293373D01*
X193313557Y-85123534D01*
X193397222Y-84967009D01*
X193426552Y-84931271D01*
X193509814Y-84829814D01*
X193611271Y-84746552D01*
X193647009Y-84717222D01*
X193803534Y-84633557D01*
X193973373Y-84582037D01*
X194039557Y-84575519D01*
X194105740Y-84569000D01*
X194194260Y-84569000D01*
X194260443Y-84575519D01*
X194260443Y-84575519D01*
G37*
G36*
X183528048Y-83628122D02*
G01*
X183562387Y-83638539D01*
X183594036Y-83655456D01*
X183621778Y-83678222D01*
X183644544Y-83705964D01*
X183661461Y-83737613D01*
X183671878Y-83771952D01*
X183676000Y-83813807D01*
X183676000Y-85886193D01*
X183671878Y-85928048D01*
X183661461Y-85962387D01*
X183644544Y-85994036D01*
X183621778Y-86021778D01*
X183594036Y-86044544D01*
X183562387Y-86061461D01*
X183528048Y-86071878D01*
X183486193Y-86076000D01*
X182263807Y-86076000D01*
X182221952Y-86071878D01*
X182187613Y-86061461D01*
X182155964Y-86044544D01*
X182128222Y-86021778D01*
X182105456Y-85994036D01*
X182088539Y-85962387D01*
X182078122Y-85928048D01*
X182074000Y-85886193D01*
X182074000Y-83813807D01*
X182078122Y-83771952D01*
X182088539Y-83737613D01*
X182105456Y-83705964D01*
X182128222Y-83678222D01*
X182155964Y-83655456D01*
X182187613Y-83638539D01*
X182221952Y-83628122D01*
X182263807Y-83624000D01*
X183486193Y-83624000D01*
X183528048Y-83628122D01*
X183528048Y-83628122D01*
G37*
G36*
X180278048Y-83628122D02*
G01*
X180312387Y-83638539D01*
X180344036Y-83655456D01*
X180371778Y-83678222D01*
X180394544Y-83705964D01*
X180411461Y-83737613D01*
X180421878Y-83771952D01*
X180426000Y-83813807D01*
X180426000Y-85886193D01*
X180421878Y-85928048D01*
X180411461Y-85962387D01*
X180394544Y-85994036D01*
X180371778Y-86021778D01*
X180344036Y-86044544D01*
X180312387Y-86061461D01*
X180278048Y-86071878D01*
X180236193Y-86076000D01*
X179013807Y-86076000D01*
X178971952Y-86071878D01*
X178937613Y-86061461D01*
X178905964Y-86044544D01*
X178878222Y-86021778D01*
X178855456Y-85994036D01*
X178838539Y-85962387D01*
X178828122Y-85928048D01*
X178824000Y-85886193D01*
X178824000Y-83813807D01*
X178828122Y-83771952D01*
X178838539Y-83737613D01*
X178855456Y-83705964D01*
X178878222Y-83678222D01*
X178905964Y-83655456D01*
X178937613Y-83638539D01*
X178971952Y-83628122D01*
X179013807Y-83624000D01*
X180236193Y-83624000D01*
X180278048Y-83628122D01*
X180278048Y-83628122D01*
G37*
G36*
X160114499Y-84403445D02*
G01*
X160151995Y-84414820D01*
X160186554Y-84433292D01*
X160216847Y-84458153D01*
X160241708Y-84488446D01*
X160260180Y-84523005D01*
X160271555Y-84560501D01*
X160276000Y-84605638D01*
X160276000Y-85244362D01*
X160271555Y-85289499D01*
X160260180Y-85326995D01*
X160241708Y-85361554D01*
X160216847Y-85391847D01*
X160186554Y-85416708D01*
X160151995Y-85435180D01*
X160114499Y-85446555D01*
X160069362Y-85451000D01*
X159330638Y-85451000D01*
X159285501Y-85446555D01*
X159248005Y-85435180D01*
X159213446Y-85416708D01*
X159183153Y-85391847D01*
X159158292Y-85361554D01*
X159139820Y-85326995D01*
X159128445Y-85289499D01*
X159124000Y-85244362D01*
X159124000Y-84605638D01*
X159128445Y-84560501D01*
X159139820Y-84523005D01*
X159158292Y-84488446D01*
X159183153Y-84458153D01*
X159213446Y-84433292D01*
X159248005Y-84414820D01*
X159285501Y-84403445D01*
X159330638Y-84399000D01*
X160069362Y-84399000D01*
X160114499Y-84403445D01*
X160114499Y-84403445D01*
G37*
G36*
X161864499Y-84403445D02*
G01*
X161901995Y-84414820D01*
X161936554Y-84433292D01*
X161966847Y-84458153D01*
X161991708Y-84488446D01*
X162010180Y-84523005D01*
X162021555Y-84560501D01*
X162026000Y-84605638D01*
X162026000Y-85244362D01*
X162021555Y-85289499D01*
X162010180Y-85326995D01*
X161991708Y-85361554D01*
X161966847Y-85391847D01*
X161936554Y-85416708D01*
X161901995Y-85435180D01*
X161864499Y-85446555D01*
X161819362Y-85451000D01*
X161080638Y-85451000D01*
X161035501Y-85446555D01*
X160998005Y-85435180D01*
X160963446Y-85416708D01*
X160933153Y-85391847D01*
X160908292Y-85361554D01*
X160889820Y-85326995D01*
X160878445Y-85289499D01*
X160874000Y-85244362D01*
X160874000Y-84605638D01*
X160878445Y-84560501D01*
X160889820Y-84523005D01*
X160908292Y-84488446D01*
X160933153Y-84458153D01*
X160963446Y-84433292D01*
X160998005Y-84414820D01*
X161035501Y-84403445D01*
X161080638Y-84399000D01*
X161819362Y-84399000D01*
X161864499Y-84403445D01*
X161864499Y-84403445D01*
G37*
G36*
X143733131Y-78817523D02*
G01*
X143761628Y-78826167D01*
X143787889Y-78840204D01*
X143810906Y-78859094D01*
X143829796Y-78882111D01*
X143843833Y-78908372D01*
X143852477Y-78936869D01*
X143856000Y-78972640D01*
X143856000Y-83207360D01*
X143852477Y-83243131D01*
X143843833Y-83271628D01*
X143829796Y-83297889D01*
X143810906Y-83320906D01*
X143787889Y-83339796D01*
X143761628Y-83353833D01*
X143733131Y-83362477D01*
X143697360Y-83366000D01*
X140712640Y-83366000D01*
X140676869Y-83362477D01*
X140648372Y-83353833D01*
X140622111Y-83339796D01*
X140599094Y-83320906D01*
X140580204Y-83297889D01*
X140566167Y-83271628D01*
X140557523Y-83243131D01*
X140554000Y-83207360D01*
X140554000Y-78972640D01*
X140557523Y-78936869D01*
X140566167Y-78908372D01*
X140580204Y-78882111D01*
X140599094Y-78859094D01*
X140622111Y-78840204D01*
X140648372Y-78826167D01*
X140676869Y-78817523D01*
X140712640Y-78814000D01*
X143697360Y-78814000D01*
X143733131Y-78817523D01*
X143733131Y-78817523D01*
G37*
G36*
X138533131Y-78817523D02*
G01*
X138561628Y-78826167D01*
X138587889Y-78840204D01*
X138610906Y-78859094D01*
X138629796Y-78882111D01*
X138643833Y-78908372D01*
X138652477Y-78936869D01*
X138656000Y-78972640D01*
X138656000Y-83207360D01*
X138652477Y-83243131D01*
X138643833Y-83271628D01*
X138629796Y-83297889D01*
X138610906Y-83320906D01*
X138587889Y-83339796D01*
X138561628Y-83353833D01*
X138533131Y-83362477D01*
X138497360Y-83366000D01*
X135512640Y-83366000D01*
X135476869Y-83362477D01*
X135448372Y-83353833D01*
X135422111Y-83339796D01*
X135399094Y-83320906D01*
X135380204Y-83297889D01*
X135366167Y-83271628D01*
X135357523Y-83243131D01*
X135354000Y-83207360D01*
X135354000Y-78972640D01*
X135357523Y-78936869D01*
X135366167Y-78908372D01*
X135380204Y-78882111D01*
X135399094Y-78859094D01*
X135422111Y-78840204D01*
X135448372Y-78826167D01*
X135476869Y-78817523D01*
X135512640Y-78814000D01*
X138497360Y-78814000D01*
X138533131Y-78817523D01*
X138533131Y-78817523D01*
G37*
G36*
X129326512Y-79484631D02*
G01*
X129516410Y-79522404D01*
X129798674Y-79639321D01*
X130052705Y-79809059D01*
X130268741Y-80025095D01*
X130438479Y-80279126D01*
X130555396Y-80561390D01*
X130615000Y-80861040D01*
X130615000Y-81166560D01*
X130555396Y-81466210D01*
X130438479Y-81748474D01*
X130268741Y-82002505D01*
X130052705Y-82218541D01*
X129798674Y-82388279D01*
X129516410Y-82505196D01*
X129366585Y-82534998D01*
X129216761Y-82564800D01*
X128911239Y-82564800D01*
X128761415Y-82534998D01*
X128611590Y-82505196D01*
X128329326Y-82388279D01*
X128075295Y-82218541D01*
X127859259Y-82002505D01*
X127689521Y-81748474D01*
X127572604Y-81466210D01*
X127513000Y-81166560D01*
X127513000Y-80861040D01*
X127572604Y-80561390D01*
X127689521Y-80279126D01*
X127859259Y-80025095D01*
X128075295Y-79809059D01*
X128329326Y-79639321D01*
X128611590Y-79522404D01*
X128801488Y-79484631D01*
X128911239Y-79462800D01*
X129216761Y-79462800D01*
X129326512Y-79484631D01*
X129326512Y-79484631D01*
G37*
G36*
X187535562Y-79298181D02*
G01*
X187570481Y-79308774D01*
X187602663Y-79325976D01*
X187630873Y-79349127D01*
X187654024Y-79377337D01*
X187671226Y-79409519D01*
X187681819Y-79444438D01*
X187686000Y-79486895D01*
X187686000Y-80628105D01*
X187681819Y-80670562D01*
X187671226Y-80705481D01*
X187654024Y-80737663D01*
X187630873Y-80765873D01*
X187602663Y-80789024D01*
X187570481Y-80806226D01*
X187535562Y-80816819D01*
X187493105Y-80821000D01*
X185126895Y-80821000D01*
X185084438Y-80816819D01*
X185049519Y-80806226D01*
X185017337Y-80789024D01*
X184989127Y-80765873D01*
X184965976Y-80737663D01*
X184948774Y-80705481D01*
X184938181Y-80670562D01*
X184934000Y-80628105D01*
X184934000Y-79486895D01*
X184938181Y-79444438D01*
X184948774Y-79409519D01*
X184965976Y-79377337D01*
X184989127Y-79349127D01*
X185017337Y-79325976D01*
X185049519Y-79308774D01*
X185084438Y-79298181D01*
X185126895Y-79294000D01*
X187493105Y-79294000D01*
X187535562Y-79298181D01*
X187535562Y-79298181D01*
G37*
G36*
X183710562Y-79273181D02*
G01*
X183745481Y-79283774D01*
X183777663Y-79300976D01*
X183805873Y-79324127D01*
X183829024Y-79352337D01*
X183846226Y-79384519D01*
X183856819Y-79419438D01*
X183861000Y-79461895D01*
X183861000Y-80603105D01*
X183856819Y-80645562D01*
X183846226Y-80680481D01*
X183829024Y-80712663D01*
X183805873Y-80740873D01*
X183777663Y-80764024D01*
X183745481Y-80781226D01*
X183710562Y-80791819D01*
X183668105Y-80796000D01*
X181301895Y-80796000D01*
X181259438Y-80791819D01*
X181224519Y-80781226D01*
X181192337Y-80764024D01*
X181164127Y-80740873D01*
X181140976Y-80712663D01*
X181123774Y-80680481D01*
X181113181Y-80645562D01*
X181109000Y-80603105D01*
X181109000Y-79461895D01*
X181113181Y-79419438D01*
X181123774Y-79384519D01*
X181140976Y-79352337D01*
X181164127Y-79324127D01*
X181192337Y-79300976D01*
X181224519Y-79283774D01*
X181259438Y-79273181D01*
X181301895Y-79269000D01*
X183668105Y-79269000D01*
X183710562Y-79273181D01*
X183710562Y-79273181D01*
G37*
G36*
X159148674Y-77298465D02*
G01*
X159186367Y-77309899D01*
X159221103Y-77328466D01*
X159251548Y-77353452D01*
X159276534Y-77383897D01*
X159295101Y-77418633D01*
X159306535Y-77456326D01*
X159311000Y-77501661D01*
X159311000Y-78588339D01*
X159306535Y-78633674D01*
X159295101Y-78671367D01*
X159276534Y-78706103D01*
X159251548Y-78736548D01*
X159221103Y-78761534D01*
X159186367Y-78780101D01*
X159148674Y-78791535D01*
X159103339Y-78796000D01*
X158266661Y-78796000D01*
X158221326Y-78791535D01*
X158183633Y-78780101D01*
X158148897Y-78761534D01*
X158118452Y-78736548D01*
X158093466Y-78706103D01*
X158074899Y-78671367D01*
X158063465Y-78633674D01*
X158059000Y-78588339D01*
X158059000Y-77501661D01*
X158063465Y-77456326D01*
X158074899Y-77418633D01*
X158093466Y-77383897D01*
X158118452Y-77353452D01*
X158148897Y-77328466D01*
X158183633Y-77309899D01*
X158221326Y-77298465D01*
X158266661Y-77294000D01*
X159103339Y-77294000D01*
X159148674Y-77298465D01*
X159148674Y-77298465D01*
G37*
G36*
X161198674Y-77298465D02*
G01*
X161236367Y-77309899D01*
X161271103Y-77328466D01*
X161301548Y-77353452D01*
X161326534Y-77383897D01*
X161345101Y-77418633D01*
X161356535Y-77456326D01*
X161361000Y-77501661D01*
X161361000Y-78588339D01*
X161356535Y-78633674D01*
X161345101Y-78671367D01*
X161326534Y-78706103D01*
X161301548Y-78736548D01*
X161271103Y-78761534D01*
X161236367Y-78780101D01*
X161198674Y-78791535D01*
X161153339Y-78796000D01*
X160316661Y-78796000D01*
X160271326Y-78791535D01*
X160233633Y-78780101D01*
X160198897Y-78761534D01*
X160168452Y-78736548D01*
X160143466Y-78706103D01*
X160124899Y-78671367D01*
X160113465Y-78633674D01*
X160109000Y-78588339D01*
X160109000Y-77501661D01*
X160113465Y-77456326D01*
X160124899Y-77418633D01*
X160143466Y-77383897D01*
X160168452Y-77353452D01*
X160198897Y-77328466D01*
X160233633Y-77309899D01*
X160271326Y-77298465D01*
X160316661Y-77294000D01*
X161153339Y-77294000D01*
X161198674Y-77298465D01*
X161198674Y-77298465D01*
G37*
G36*
X176123062Y-75923181D02*
G01*
X176157981Y-75933774D01*
X176190163Y-75950976D01*
X176218373Y-75974127D01*
X176241524Y-76002337D01*
X176258726Y-76034519D01*
X176269319Y-76069438D01*
X176273500Y-76111895D01*
X176273500Y-78478105D01*
X176269319Y-78520562D01*
X176258726Y-78555481D01*
X176241524Y-78587663D01*
X176218373Y-78615873D01*
X176190163Y-78639024D01*
X176157981Y-78656226D01*
X176123062Y-78666819D01*
X176080605Y-78671000D01*
X174939395Y-78671000D01*
X174896938Y-78666819D01*
X174862019Y-78656226D01*
X174829837Y-78639024D01*
X174801627Y-78615873D01*
X174778476Y-78587663D01*
X174761274Y-78555481D01*
X174750681Y-78520562D01*
X174746500Y-78478105D01*
X174746500Y-76111895D01*
X174750681Y-76069438D01*
X174761274Y-76034519D01*
X174778476Y-76002337D01*
X174801627Y-75974127D01*
X174829837Y-75950976D01*
X174862019Y-75933774D01*
X174896938Y-75923181D01*
X174939395Y-75919000D01*
X176080605Y-75919000D01*
X176123062Y-75923181D01*
X176123062Y-75923181D01*
G37*
G36*
X179098062Y-75923181D02*
G01*
X179132981Y-75933774D01*
X179165163Y-75950976D01*
X179193373Y-75974127D01*
X179216524Y-76002337D01*
X179233726Y-76034519D01*
X179244319Y-76069438D01*
X179248500Y-76111895D01*
X179248500Y-78478105D01*
X179244319Y-78520562D01*
X179233726Y-78555481D01*
X179216524Y-78587663D01*
X179193373Y-78615873D01*
X179165163Y-78639024D01*
X179132981Y-78656226D01*
X179098062Y-78666819D01*
X179055605Y-78671000D01*
X177914395Y-78671000D01*
X177871938Y-78666819D01*
X177837019Y-78656226D01*
X177804837Y-78639024D01*
X177776627Y-78615873D01*
X177753476Y-78587663D01*
X177736274Y-78555481D01*
X177725681Y-78520562D01*
X177721500Y-78478105D01*
X177721500Y-76111895D01*
X177725681Y-76069438D01*
X177736274Y-76034519D01*
X177753476Y-76002337D01*
X177776627Y-75974127D01*
X177804837Y-75950976D01*
X177837019Y-75933774D01*
X177871938Y-75923181D01*
X177914395Y-75919000D01*
X179055605Y-75919000D01*
X179098062Y-75923181D01*
X179098062Y-75923181D01*
G37*
G36*
X187535562Y-76323181D02*
G01*
X187570481Y-76333774D01*
X187602663Y-76350976D01*
X187630873Y-76374127D01*
X187654024Y-76402337D01*
X187671226Y-76434519D01*
X187681819Y-76469438D01*
X187686000Y-76511895D01*
X187686000Y-77653105D01*
X187681819Y-77695562D01*
X187671226Y-77730481D01*
X187654024Y-77762663D01*
X187630873Y-77790873D01*
X187602663Y-77814024D01*
X187570481Y-77831226D01*
X187535562Y-77841819D01*
X187493105Y-77846000D01*
X185126895Y-77846000D01*
X185084438Y-77841819D01*
X185049519Y-77831226D01*
X185017337Y-77814024D01*
X184989127Y-77790873D01*
X184965976Y-77762663D01*
X184948774Y-77730481D01*
X184938181Y-77695562D01*
X184934000Y-77653105D01*
X184934000Y-76511895D01*
X184938181Y-76469438D01*
X184948774Y-76434519D01*
X184965976Y-76402337D01*
X184989127Y-76374127D01*
X185017337Y-76350976D01*
X185049519Y-76333774D01*
X185084438Y-76323181D01*
X185126895Y-76319000D01*
X187493105Y-76319000D01*
X187535562Y-76323181D01*
X187535562Y-76323181D01*
G37*
G36*
X183710562Y-76298181D02*
G01*
X183745481Y-76308774D01*
X183777663Y-76325976D01*
X183805873Y-76349127D01*
X183829024Y-76377337D01*
X183846226Y-76409519D01*
X183856819Y-76444438D01*
X183861000Y-76486895D01*
X183861000Y-77628105D01*
X183856819Y-77670562D01*
X183846226Y-77705481D01*
X183829024Y-77737663D01*
X183805873Y-77765873D01*
X183777663Y-77789024D01*
X183745481Y-77806226D01*
X183710562Y-77816819D01*
X183668105Y-77821000D01*
X181301895Y-77821000D01*
X181259438Y-77816819D01*
X181224519Y-77806226D01*
X181192337Y-77789024D01*
X181164127Y-77765873D01*
X181140976Y-77737663D01*
X181123774Y-77705481D01*
X181113181Y-77670562D01*
X181109000Y-77628105D01*
X181109000Y-76486895D01*
X181113181Y-76444438D01*
X181123774Y-76409519D01*
X181140976Y-76377337D01*
X181164127Y-76349127D01*
X181192337Y-76325976D01*
X181224519Y-76308774D01*
X181259438Y-76298181D01*
X181301895Y-76294000D01*
X183668105Y-76294000D01*
X183710562Y-76298181D01*
X183710562Y-76298181D01*
G37*
G36*
X165089499Y-75678445D02*
G01*
X165126995Y-75689820D01*
X165161554Y-75708292D01*
X165191847Y-75733153D01*
X165216708Y-75763446D01*
X165235180Y-75798005D01*
X165246555Y-75835501D01*
X165251000Y-75880638D01*
X165251000Y-76519362D01*
X165246555Y-76564499D01*
X165235180Y-76601995D01*
X165216708Y-76636554D01*
X165191847Y-76666847D01*
X165161554Y-76691708D01*
X165126995Y-76710180D01*
X165089499Y-76721555D01*
X165044362Y-76726000D01*
X164305638Y-76726000D01*
X164260501Y-76721555D01*
X164223005Y-76710180D01*
X164188446Y-76691708D01*
X164158153Y-76666847D01*
X164133292Y-76636554D01*
X164114820Y-76601995D01*
X164103445Y-76564499D01*
X164099000Y-76519362D01*
X164099000Y-75880638D01*
X164103445Y-75835501D01*
X164114820Y-75798005D01*
X164133292Y-75763446D01*
X164158153Y-75733153D01*
X164188446Y-75708292D01*
X164223005Y-75689820D01*
X164260501Y-75678445D01*
X164305638Y-75674000D01*
X165044362Y-75674000D01*
X165089499Y-75678445D01*
X165089499Y-75678445D01*
G37*
G36*
X163339499Y-75678445D02*
G01*
X163376995Y-75689820D01*
X163411554Y-75708292D01*
X163441847Y-75733153D01*
X163466708Y-75763446D01*
X163485180Y-75798005D01*
X163496555Y-75835501D01*
X163501000Y-75880638D01*
X163501000Y-76519362D01*
X163496555Y-76564499D01*
X163485180Y-76601995D01*
X163466708Y-76636554D01*
X163441847Y-76666847D01*
X163411554Y-76691708D01*
X163376995Y-76710180D01*
X163339499Y-76721555D01*
X163294362Y-76726000D01*
X162555638Y-76726000D01*
X162510501Y-76721555D01*
X162473005Y-76710180D01*
X162438446Y-76691708D01*
X162408153Y-76666847D01*
X162383292Y-76636554D01*
X162364820Y-76601995D01*
X162353445Y-76564499D01*
X162349000Y-76519362D01*
X162349000Y-75880638D01*
X162353445Y-75835501D01*
X162364820Y-75798005D01*
X162383292Y-75763446D01*
X162408153Y-75733153D01*
X162438446Y-75708292D01*
X162473005Y-75689820D01*
X162510501Y-75678445D01*
X162555638Y-75674000D01*
X163294362Y-75674000D01*
X163339499Y-75678445D01*
X163339499Y-75678445D01*
G37*
G36*
X160789499Y-75628445D02*
G01*
X160826995Y-75639820D01*
X160861554Y-75658292D01*
X160891847Y-75683153D01*
X160916708Y-75713446D01*
X160935180Y-75748005D01*
X160946555Y-75785501D01*
X160951000Y-75830638D01*
X160951000Y-76469362D01*
X160946555Y-76514499D01*
X160935180Y-76551995D01*
X160916708Y-76586554D01*
X160891847Y-76616847D01*
X160861554Y-76641708D01*
X160826995Y-76660180D01*
X160789499Y-76671555D01*
X160744362Y-76676000D01*
X160005638Y-76676000D01*
X159960501Y-76671555D01*
X159923005Y-76660180D01*
X159888446Y-76641708D01*
X159858153Y-76616847D01*
X159833292Y-76586554D01*
X159814820Y-76551995D01*
X159803445Y-76514499D01*
X159799000Y-76469362D01*
X159799000Y-75830638D01*
X159803445Y-75785501D01*
X159814820Y-75748005D01*
X159833292Y-75713446D01*
X159858153Y-75683153D01*
X159888446Y-75658292D01*
X159923005Y-75639820D01*
X159960501Y-75628445D01*
X160005638Y-75624000D01*
X160744362Y-75624000D01*
X160789499Y-75628445D01*
X160789499Y-75628445D01*
G37*
G36*
X159039499Y-75628445D02*
G01*
X159076995Y-75639820D01*
X159111554Y-75658292D01*
X159141847Y-75683153D01*
X159166708Y-75713446D01*
X159185180Y-75748005D01*
X159196555Y-75785501D01*
X159201000Y-75830638D01*
X159201000Y-76469362D01*
X159196555Y-76514499D01*
X159185180Y-76551995D01*
X159166708Y-76586554D01*
X159141847Y-76616847D01*
X159111554Y-76641708D01*
X159076995Y-76660180D01*
X159039499Y-76671555D01*
X158994362Y-76676000D01*
X158255638Y-76676000D01*
X158210501Y-76671555D01*
X158173005Y-76660180D01*
X158138446Y-76641708D01*
X158108153Y-76616847D01*
X158083292Y-76586554D01*
X158064820Y-76551995D01*
X158053445Y-76514499D01*
X158049000Y-76469362D01*
X158049000Y-75830638D01*
X158053445Y-75785501D01*
X158064820Y-75748005D01*
X158083292Y-75713446D01*
X158108153Y-75683153D01*
X158138446Y-75658292D01*
X158173005Y-75639820D01*
X158210501Y-75628445D01*
X158255638Y-75624000D01*
X158994362Y-75624000D01*
X159039499Y-75628445D01*
X159039499Y-75628445D01*
G37*
G36*
X184074499Y-73873445D02*
G01*
X184111995Y-73884820D01*
X184146554Y-73903292D01*
X184176847Y-73928153D01*
X184201708Y-73958446D01*
X184220180Y-73993005D01*
X184231555Y-74030501D01*
X184236000Y-74075638D01*
X184236000Y-74814362D01*
X184231555Y-74859499D01*
X184220180Y-74896995D01*
X184201708Y-74931554D01*
X184176847Y-74961847D01*
X184146554Y-74986708D01*
X184111995Y-75005180D01*
X184074499Y-75016555D01*
X184029362Y-75021000D01*
X183390638Y-75021000D01*
X183345501Y-75016555D01*
X183308005Y-75005180D01*
X183273446Y-74986708D01*
X183243153Y-74961847D01*
X183218292Y-74931554D01*
X183199820Y-74896995D01*
X183188445Y-74859499D01*
X183184000Y-74814362D01*
X183184000Y-74075638D01*
X183188445Y-74030501D01*
X183199820Y-73993005D01*
X183218292Y-73958446D01*
X183243153Y-73928153D01*
X183273446Y-73903292D01*
X183308005Y-73884820D01*
X183345501Y-73873445D01*
X183390638Y-73869000D01*
X184029362Y-73869000D01*
X184074499Y-73873445D01*
X184074499Y-73873445D01*
G37*
G36*
X182419499Y-73865445D02*
G01*
X182456995Y-73876820D01*
X182491554Y-73895292D01*
X182521847Y-73920153D01*
X182546708Y-73950446D01*
X182565180Y-73985005D01*
X182576555Y-74022501D01*
X182581000Y-74067638D01*
X182581000Y-74806362D01*
X182576555Y-74851499D01*
X182565180Y-74888995D01*
X182546708Y-74923554D01*
X182521847Y-74953847D01*
X182491554Y-74978708D01*
X182456995Y-74997180D01*
X182419499Y-75008555D01*
X182374362Y-75013000D01*
X181735638Y-75013000D01*
X181690501Y-75008555D01*
X181653005Y-74997180D01*
X181618446Y-74978708D01*
X181588153Y-74953847D01*
X181563292Y-74923554D01*
X181544820Y-74888995D01*
X181533445Y-74851499D01*
X181529000Y-74806362D01*
X181529000Y-74067638D01*
X181533445Y-74022501D01*
X181544820Y-73985005D01*
X181563292Y-73950446D01*
X181588153Y-73920153D01*
X181618446Y-73895292D01*
X181653005Y-73876820D01*
X181690501Y-73865445D01*
X181735638Y-73861000D01*
X182374362Y-73861000D01*
X182419499Y-73865445D01*
X182419499Y-73865445D01*
G37*
G36*
X171948674Y-73748465D02*
G01*
X171986367Y-73759899D01*
X172021103Y-73778466D01*
X172051548Y-73803452D01*
X172076534Y-73833897D01*
X172095101Y-73868633D01*
X172106535Y-73906326D01*
X172111000Y-73951661D01*
X172111000Y-74788339D01*
X172106535Y-74833674D01*
X172095101Y-74871367D01*
X172076534Y-74906103D01*
X172051548Y-74936548D01*
X172021103Y-74961534D01*
X171986367Y-74980101D01*
X171948674Y-74991535D01*
X171903339Y-74996000D01*
X170816661Y-74996000D01*
X170771326Y-74991535D01*
X170733633Y-74980101D01*
X170698897Y-74961534D01*
X170668452Y-74936548D01*
X170643466Y-74906103D01*
X170624899Y-74871367D01*
X170613465Y-74833674D01*
X170609000Y-74788339D01*
X170609000Y-73951661D01*
X170613465Y-73906326D01*
X170624899Y-73868633D01*
X170643466Y-73833897D01*
X170668452Y-73803452D01*
X170698897Y-73778466D01*
X170733633Y-73759899D01*
X170771326Y-73748465D01*
X170816661Y-73744000D01*
X171903339Y-73744000D01*
X171948674Y-73748465D01*
X171948674Y-73748465D01*
G37*
G36*
X174148674Y-73723465D02*
G01*
X174186367Y-73734899D01*
X174221103Y-73753466D01*
X174251548Y-73778452D01*
X174276534Y-73808897D01*
X174295101Y-73843633D01*
X174306535Y-73881326D01*
X174311000Y-73926661D01*
X174311000Y-74763339D01*
X174306535Y-74808674D01*
X174295101Y-74846367D01*
X174276534Y-74881103D01*
X174251548Y-74911548D01*
X174221103Y-74936534D01*
X174186367Y-74955101D01*
X174148674Y-74966535D01*
X174103339Y-74971000D01*
X173016661Y-74971000D01*
X172971326Y-74966535D01*
X172933633Y-74955101D01*
X172898897Y-74936534D01*
X172868452Y-74911548D01*
X172843466Y-74881103D01*
X172824899Y-74846367D01*
X172813465Y-74808674D01*
X172809000Y-74763339D01*
X172809000Y-73926661D01*
X172813465Y-73881326D01*
X172824899Y-73843633D01*
X172843466Y-73808897D01*
X172868452Y-73778452D01*
X172898897Y-73753466D01*
X172933633Y-73734899D01*
X172971326Y-73723465D01*
X173016661Y-73719000D01*
X174103339Y-73719000D01*
X174148674Y-73723465D01*
X174148674Y-73723465D01*
G37*
G36*
X176348674Y-73723465D02*
G01*
X176386367Y-73734899D01*
X176421103Y-73753466D01*
X176451548Y-73778452D01*
X176476534Y-73808897D01*
X176495101Y-73843633D01*
X176506535Y-73881326D01*
X176511000Y-73926661D01*
X176511000Y-74763339D01*
X176506535Y-74808674D01*
X176495101Y-74846367D01*
X176476534Y-74881103D01*
X176451548Y-74911548D01*
X176421103Y-74936534D01*
X176386367Y-74955101D01*
X176348674Y-74966535D01*
X176303339Y-74971000D01*
X175216661Y-74971000D01*
X175171326Y-74966535D01*
X175133633Y-74955101D01*
X175098897Y-74936534D01*
X175068452Y-74911548D01*
X175043466Y-74881103D01*
X175024899Y-74846367D01*
X175013465Y-74808674D01*
X175009000Y-74763339D01*
X175009000Y-73926661D01*
X175013465Y-73881326D01*
X175024899Y-73843633D01*
X175043466Y-73808897D01*
X175068452Y-73778452D01*
X175098897Y-73753466D01*
X175133633Y-73734899D01*
X175171326Y-73723465D01*
X175216661Y-73719000D01*
X176303339Y-73719000D01*
X176348674Y-73723465D01*
X176348674Y-73723465D01*
G37*
G36*
X161251000Y-74851000D02*
G01*
X160149000Y-74851000D01*
X160149000Y-73749000D01*
X161251000Y-73749000D01*
X161251000Y-74851000D01*
X161251000Y-74851000D01*
G37*
G36*
X158751000Y-74851000D02*
G01*
X157649000Y-74851000D01*
X157649000Y-73749000D01*
X158751000Y-73749000D01*
X158751000Y-74851000D01*
X158751000Y-74851000D01*
G37*
G36*
X163101000Y-74851000D02*
G01*
X161999000Y-74851000D01*
X161999000Y-73749000D01*
X163101000Y-73749000D01*
X163101000Y-74851000D01*
X163101000Y-74851000D01*
G37*
G36*
X165601000Y-74851000D02*
G01*
X164499000Y-74851000D01*
X164499000Y-73749000D01*
X165601000Y-73749000D01*
X165601000Y-74851000D01*
X165601000Y-74851000D01*
G37*
G36*
X167164499Y-73453445D02*
G01*
X167201995Y-73464820D01*
X167236554Y-73483292D01*
X167266847Y-73508153D01*
X167291708Y-73538446D01*
X167310180Y-73573005D01*
X167321555Y-73610501D01*
X167326000Y-73655638D01*
X167326000Y-74394362D01*
X167321555Y-74439499D01*
X167310180Y-74476995D01*
X167291708Y-74511554D01*
X167266847Y-74541847D01*
X167236554Y-74566708D01*
X167201995Y-74585180D01*
X167164499Y-74596555D01*
X167119362Y-74601000D01*
X166480638Y-74601000D01*
X166435501Y-74596555D01*
X166398005Y-74585180D01*
X166363446Y-74566708D01*
X166333153Y-74541847D01*
X166308292Y-74511554D01*
X166289820Y-74476995D01*
X166278445Y-74439499D01*
X166274000Y-74394362D01*
X166274000Y-73655638D01*
X166278445Y-73610501D01*
X166289820Y-73573005D01*
X166308292Y-73538446D01*
X166333153Y-73508153D01*
X166363446Y-73483292D01*
X166398005Y-73464820D01*
X166435501Y-73453445D01*
X166480638Y-73449000D01*
X167119362Y-73449000D01*
X167164499Y-73453445D01*
X167164499Y-73453445D01*
G37*
G36*
X177983051Y-71032284D02*
G01*
X177999443Y-71037257D01*
X178014555Y-71045334D01*
X178027798Y-71056202D01*
X178038666Y-71069445D01*
X178046743Y-71084557D01*
X178051716Y-71100949D01*
X178054000Y-71124141D01*
X178054000Y-71232763D01*
X178056402Y-71257149D01*
X178063515Y-71280598D01*
X178075066Y-71302209D01*
X178090611Y-71321151D01*
X178109553Y-71336696D01*
X178131164Y-71348247D01*
X178154613Y-71355360D01*
X178178999Y-71357762D01*
X178203385Y-71355360D01*
X178237922Y-71343003D01*
X178278783Y-71321163D01*
X178317123Y-71309532D01*
X178363140Y-71305000D01*
X179142860Y-71305000D01*
X179188877Y-71309532D01*
X179227217Y-71321163D01*
X179268078Y-71343003D01*
X179290717Y-71352380D01*
X179314750Y-71357160D01*
X179339254Y-71357160D01*
X179363288Y-71352379D01*
X179385926Y-71343002D01*
X179406301Y-71329388D01*
X179423627Y-71312060D01*
X179437241Y-71291686D01*
X179446618Y-71269047D01*
X179452000Y-71232763D01*
X179452000Y-71124141D01*
X179454284Y-71100949D01*
X179459257Y-71084557D01*
X179467334Y-71069445D01*
X179478202Y-71056202D01*
X179491445Y-71045334D01*
X179506557Y-71037257D01*
X179522949Y-71032284D01*
X179546141Y-71030000D01*
X180084859Y-71030000D01*
X180108051Y-71032284D01*
X180124443Y-71037257D01*
X180139555Y-71045334D01*
X180152798Y-71056202D01*
X180163666Y-71069445D01*
X180171743Y-71084557D01*
X180176716Y-71100949D01*
X180179000Y-71124141D01*
X180179000Y-71537859D01*
X180176716Y-71561051D01*
X180171742Y-71577446D01*
X180161249Y-71597078D01*
X180151872Y-71619717D01*
X180147092Y-71643750D01*
X180147092Y-71668254D01*
X180151873Y-71692287D01*
X180161249Y-71714922D01*
X180171742Y-71734554D01*
X180176716Y-71750949D01*
X180179000Y-71774141D01*
X180179000Y-72187859D01*
X180176716Y-72211051D01*
X180171742Y-72227446D01*
X180161249Y-72247078D01*
X180151872Y-72269717D01*
X180147092Y-72293750D01*
X180147092Y-72318254D01*
X180151873Y-72342287D01*
X180161249Y-72364922D01*
X180171742Y-72384554D01*
X180176716Y-72400949D01*
X180179000Y-72424141D01*
X180179000Y-72837859D01*
X180176716Y-72861051D01*
X180171742Y-72877446D01*
X180161249Y-72897078D01*
X180151872Y-72919717D01*
X180147092Y-72943750D01*
X180147092Y-72968254D01*
X180151873Y-72992287D01*
X180161249Y-73014922D01*
X180171742Y-73034554D01*
X180176716Y-73050949D01*
X180179000Y-73074141D01*
X180179000Y-73487859D01*
X180176716Y-73511051D01*
X180171743Y-73527443D01*
X180163666Y-73542555D01*
X180152798Y-73555798D01*
X180139555Y-73566666D01*
X180124443Y-73574743D01*
X180108051Y-73579716D01*
X180084859Y-73582000D01*
X179546141Y-73582000D01*
X179522949Y-73579716D01*
X179506557Y-73574743D01*
X179491445Y-73566666D01*
X179478202Y-73555798D01*
X179467334Y-73542555D01*
X179459257Y-73527443D01*
X179454284Y-73511051D01*
X179452000Y-73487859D01*
X179452000Y-73379237D01*
X179449598Y-73354851D01*
X179442485Y-73331402D01*
X179430934Y-73309791D01*
X179415389Y-73290849D01*
X179396447Y-73275304D01*
X179374836Y-73263753D01*
X179351387Y-73256640D01*
X179327001Y-73254238D01*
X179302615Y-73256640D01*
X179268078Y-73268997D01*
X179227217Y-73290837D01*
X179188877Y-73302468D01*
X179142860Y-73307000D01*
X178363140Y-73307000D01*
X178317123Y-73302468D01*
X178278783Y-73290837D01*
X178237922Y-73268997D01*
X178215283Y-73259620D01*
X178191250Y-73254840D01*
X178166746Y-73254840D01*
X178142712Y-73259621D01*
X178120074Y-73268998D01*
X178099699Y-73282612D01*
X178082373Y-73299940D01*
X178068759Y-73320314D01*
X178059382Y-73342953D01*
X178054000Y-73379237D01*
X178054000Y-73487859D01*
X178051716Y-73511051D01*
X178046743Y-73527443D01*
X178038666Y-73542555D01*
X178027798Y-73555798D01*
X178014555Y-73566666D01*
X177999443Y-73574743D01*
X177983051Y-73579716D01*
X177959859Y-73582000D01*
X177421141Y-73582000D01*
X177397949Y-73579716D01*
X177381557Y-73574743D01*
X177366445Y-73566666D01*
X177353202Y-73555798D01*
X177342334Y-73542555D01*
X177334257Y-73527443D01*
X177329284Y-73511051D01*
X177327000Y-73487859D01*
X177327000Y-73074141D01*
X177329284Y-73050949D01*
X177334258Y-73034554D01*
X177344751Y-73014922D01*
X177354128Y-72992283D01*
X177358908Y-72968250D01*
X177358908Y-72943746D01*
X177354127Y-72919713D01*
X177344751Y-72897078D01*
X177334258Y-72877446D01*
X177329284Y-72861051D01*
X177327000Y-72837859D01*
X177327000Y-72424141D01*
X177329284Y-72400949D01*
X177334258Y-72384554D01*
X177344751Y-72364922D01*
X177354128Y-72342283D01*
X177358908Y-72318250D01*
X177358908Y-72293746D01*
X177354127Y-72269713D01*
X177344751Y-72247078D01*
X177334258Y-72227446D01*
X177329284Y-72211051D01*
X177327000Y-72187859D01*
X177327000Y-71774141D01*
X177329284Y-71750949D01*
X177334258Y-71734554D01*
X177344751Y-71714922D01*
X177354128Y-71692283D01*
X177358908Y-71668250D01*
X177358908Y-71643746D01*
X177354127Y-71619713D01*
X177344751Y-71597078D01*
X177334258Y-71577446D01*
X177329284Y-71561051D01*
X177327000Y-71537859D01*
X177327000Y-71124141D01*
X177329284Y-71100949D01*
X177334257Y-71084557D01*
X177342334Y-71069445D01*
X177353202Y-71056202D01*
X177366445Y-71045334D01*
X177381557Y-71037257D01*
X177397949Y-71032284D01*
X177421141Y-71030000D01*
X177959859Y-71030000D01*
X177983051Y-71032284D01*
X177983051Y-71032284D01*
G37*
G36*
X184074499Y-72123445D02*
G01*
X184111995Y-72134820D01*
X184146554Y-72153292D01*
X184176847Y-72178153D01*
X184201708Y-72208446D01*
X184220180Y-72243005D01*
X184231555Y-72280501D01*
X184236000Y-72325638D01*
X184236000Y-73064362D01*
X184231555Y-73109499D01*
X184220180Y-73146995D01*
X184201708Y-73181554D01*
X184176847Y-73211847D01*
X184146554Y-73236708D01*
X184111995Y-73255180D01*
X184074499Y-73266555D01*
X184029362Y-73271000D01*
X183390638Y-73271000D01*
X183345501Y-73266555D01*
X183308005Y-73255180D01*
X183273446Y-73236708D01*
X183243153Y-73211847D01*
X183218292Y-73181554D01*
X183199820Y-73146995D01*
X183188445Y-73109499D01*
X183184000Y-73064362D01*
X183184000Y-72325638D01*
X183188445Y-72280501D01*
X183199820Y-72243005D01*
X183218292Y-72208446D01*
X183243153Y-72178153D01*
X183273446Y-72153292D01*
X183308005Y-72134820D01*
X183345501Y-72123445D01*
X183390638Y-72119000D01*
X184029362Y-72119000D01*
X184074499Y-72123445D01*
X184074499Y-72123445D01*
G37*
G36*
X182419499Y-72115445D02*
G01*
X182456995Y-72126820D01*
X182491554Y-72145292D01*
X182521847Y-72170153D01*
X182546708Y-72200446D01*
X182565180Y-72235005D01*
X182576555Y-72272501D01*
X182581000Y-72317638D01*
X182581000Y-73056362D01*
X182576555Y-73101499D01*
X182565180Y-73138995D01*
X182546708Y-73173554D01*
X182521847Y-73203847D01*
X182491554Y-73228708D01*
X182456995Y-73247180D01*
X182419499Y-73258555D01*
X182374362Y-73263000D01*
X181735638Y-73263000D01*
X181690501Y-73258555D01*
X181653005Y-73247180D01*
X181618446Y-73228708D01*
X181588153Y-73203847D01*
X181563292Y-73173554D01*
X181544820Y-73138995D01*
X181533445Y-73101499D01*
X181529000Y-73056362D01*
X181529000Y-72317638D01*
X181533445Y-72272501D01*
X181544820Y-72235005D01*
X181563292Y-72200446D01*
X181588153Y-72170153D01*
X181618446Y-72145292D01*
X181653005Y-72126820D01*
X181690501Y-72115445D01*
X181735638Y-72111000D01*
X182374362Y-72111000D01*
X182419499Y-72115445D01*
X182419499Y-72115445D01*
G37*
G36*
X171948674Y-71698465D02*
G01*
X171986367Y-71709899D01*
X172021103Y-71728466D01*
X172051548Y-71753452D01*
X172076534Y-71783897D01*
X172095101Y-71818633D01*
X172106535Y-71856326D01*
X172111000Y-71901661D01*
X172111000Y-72738339D01*
X172106535Y-72783674D01*
X172095101Y-72821367D01*
X172076534Y-72856103D01*
X172051548Y-72886548D01*
X172021103Y-72911534D01*
X171986367Y-72930101D01*
X171948674Y-72941535D01*
X171903339Y-72946000D01*
X170816661Y-72946000D01*
X170771326Y-72941535D01*
X170733633Y-72930101D01*
X170698897Y-72911534D01*
X170668452Y-72886548D01*
X170643466Y-72856103D01*
X170624899Y-72821367D01*
X170613465Y-72783674D01*
X170609000Y-72738339D01*
X170609000Y-71901661D01*
X170613465Y-71856326D01*
X170624899Y-71818633D01*
X170643466Y-71783897D01*
X170668452Y-71753452D01*
X170698897Y-71728466D01*
X170733633Y-71709899D01*
X170771326Y-71698465D01*
X170816661Y-71694000D01*
X171903339Y-71694000D01*
X171948674Y-71698465D01*
X171948674Y-71698465D01*
G37*
G36*
X174148674Y-71673465D02*
G01*
X174186367Y-71684899D01*
X174221103Y-71703466D01*
X174251548Y-71728452D01*
X174276534Y-71758897D01*
X174295101Y-71793633D01*
X174306535Y-71831326D01*
X174311000Y-71876661D01*
X174311000Y-72713339D01*
X174306535Y-72758674D01*
X174295101Y-72796367D01*
X174276534Y-72831103D01*
X174251548Y-72861548D01*
X174221103Y-72886534D01*
X174186367Y-72905101D01*
X174148674Y-72916535D01*
X174103339Y-72921000D01*
X173016661Y-72921000D01*
X172971326Y-72916535D01*
X172933633Y-72905101D01*
X172898897Y-72886534D01*
X172868452Y-72861548D01*
X172843466Y-72831103D01*
X172824899Y-72796367D01*
X172813465Y-72758674D01*
X172809000Y-72713339D01*
X172809000Y-71876661D01*
X172813465Y-71831326D01*
X172824899Y-71793633D01*
X172843466Y-71758897D01*
X172868452Y-71728452D01*
X172898897Y-71703466D01*
X172933633Y-71684899D01*
X172971326Y-71673465D01*
X173016661Y-71669000D01*
X174103339Y-71669000D01*
X174148674Y-71673465D01*
X174148674Y-71673465D01*
G37*
G36*
X176348674Y-71673465D02*
G01*
X176386367Y-71684899D01*
X176421103Y-71703466D01*
X176451548Y-71728452D01*
X176476534Y-71758897D01*
X176495101Y-71793633D01*
X176506535Y-71831326D01*
X176511000Y-71876661D01*
X176511000Y-72713339D01*
X176506535Y-72758674D01*
X176495101Y-72796367D01*
X176476534Y-72831103D01*
X176451548Y-72861548D01*
X176421103Y-72886534D01*
X176386367Y-72905101D01*
X176348674Y-72916535D01*
X176303339Y-72921000D01*
X175216661Y-72921000D01*
X175171326Y-72916535D01*
X175133633Y-72905101D01*
X175098897Y-72886534D01*
X175068452Y-72861548D01*
X175043466Y-72831103D01*
X175024899Y-72796367D01*
X175013465Y-72758674D01*
X175009000Y-72713339D01*
X175009000Y-71876661D01*
X175013465Y-71831326D01*
X175024899Y-71793633D01*
X175043466Y-71758897D01*
X175068452Y-71728452D01*
X175098897Y-71703466D01*
X175133633Y-71684899D01*
X175171326Y-71673465D01*
X175216661Y-71669000D01*
X176303339Y-71669000D01*
X176348674Y-71673465D01*
X176348674Y-71673465D01*
G37*
G36*
X167164499Y-71703445D02*
G01*
X167201995Y-71714820D01*
X167236554Y-71733292D01*
X167266847Y-71758153D01*
X167291708Y-71788446D01*
X167310180Y-71823005D01*
X167321555Y-71860501D01*
X167326000Y-71905638D01*
X167326000Y-72644362D01*
X167321555Y-72689499D01*
X167310180Y-72726995D01*
X167291708Y-72761554D01*
X167266847Y-72791847D01*
X167236554Y-72816708D01*
X167201995Y-72835180D01*
X167164499Y-72846555D01*
X167119362Y-72851000D01*
X166480638Y-72851000D01*
X166435501Y-72846555D01*
X166398005Y-72835180D01*
X166363446Y-72816708D01*
X166333153Y-72791847D01*
X166308292Y-72761554D01*
X166289820Y-72726995D01*
X166278445Y-72689499D01*
X166274000Y-72644362D01*
X166274000Y-71905638D01*
X166278445Y-71860501D01*
X166289820Y-71823005D01*
X166308292Y-71788446D01*
X166333153Y-71758153D01*
X166363446Y-71733292D01*
X166398005Y-71714820D01*
X166435501Y-71703445D01*
X166480638Y-71699000D01*
X167119362Y-71699000D01*
X167164499Y-71703445D01*
X167164499Y-71703445D01*
G37*
G36*
X158751000Y-72601000D02*
G01*
X157649000Y-72601000D01*
X157649000Y-71499000D01*
X158751000Y-71499000D01*
X158751000Y-72601000D01*
X158751000Y-72601000D01*
G37*
G36*
X161251000Y-72601000D02*
G01*
X160149000Y-72601000D01*
X160149000Y-71499000D01*
X161251000Y-71499000D01*
X161251000Y-72601000D01*
X161251000Y-72601000D01*
G37*
G36*
X163101000Y-72601000D02*
G01*
X161999000Y-72601000D01*
X161999000Y-71499000D01*
X163101000Y-71499000D01*
X163101000Y-72601000D01*
X163101000Y-72601000D01*
G37*
G36*
X165601000Y-72601000D02*
G01*
X164499000Y-72601000D01*
X164499000Y-71499000D01*
X165601000Y-71499000D01*
X165601000Y-72601000D01*
X165601000Y-72601000D01*
G37*
G36*
X182419499Y-70450445D02*
G01*
X182456995Y-70461820D01*
X182491554Y-70480292D01*
X182521847Y-70505153D01*
X182546708Y-70535446D01*
X182565180Y-70570005D01*
X182576555Y-70607501D01*
X182581000Y-70652638D01*
X182581000Y-71391362D01*
X182576555Y-71436499D01*
X182565180Y-71473995D01*
X182546708Y-71508554D01*
X182521847Y-71538847D01*
X182491554Y-71563708D01*
X182456995Y-71582180D01*
X182419499Y-71593555D01*
X182374362Y-71598000D01*
X181735638Y-71598000D01*
X181690501Y-71593555D01*
X181653005Y-71582180D01*
X181618446Y-71563708D01*
X181588153Y-71538847D01*
X181563292Y-71508554D01*
X181544820Y-71473995D01*
X181533445Y-71436499D01*
X181529000Y-71391362D01*
X181529000Y-70652638D01*
X181533445Y-70607501D01*
X181544820Y-70570005D01*
X181563292Y-70535446D01*
X181588153Y-70505153D01*
X181618446Y-70480292D01*
X181653005Y-70461820D01*
X181690501Y-70450445D01*
X181735638Y-70446000D01*
X182374362Y-70446000D01*
X182419499Y-70450445D01*
X182419499Y-70450445D01*
G37*
G36*
X163439499Y-69578445D02*
G01*
X163476995Y-69589820D01*
X163511554Y-69608292D01*
X163541847Y-69633153D01*
X163566708Y-69663446D01*
X163585180Y-69698005D01*
X163596555Y-69735501D01*
X163601000Y-69780638D01*
X163601000Y-70419362D01*
X163596555Y-70464499D01*
X163585180Y-70501995D01*
X163566708Y-70536554D01*
X163541847Y-70566847D01*
X163511554Y-70591708D01*
X163476995Y-70610180D01*
X163439499Y-70621555D01*
X163394362Y-70626000D01*
X162655638Y-70626000D01*
X162610501Y-70621555D01*
X162573005Y-70610180D01*
X162538446Y-70591708D01*
X162508153Y-70566847D01*
X162483292Y-70536554D01*
X162464820Y-70501995D01*
X162453445Y-70464499D01*
X162449000Y-70419362D01*
X162449000Y-69780638D01*
X162453445Y-69735501D01*
X162464820Y-69698005D01*
X162483292Y-69663446D01*
X162508153Y-69633153D01*
X162538446Y-69608292D01*
X162573005Y-69589820D01*
X162610501Y-69578445D01*
X162655638Y-69574000D01*
X163394362Y-69574000D01*
X163439499Y-69578445D01*
X163439499Y-69578445D01*
G37*
G36*
X165189499Y-69578445D02*
G01*
X165226995Y-69589820D01*
X165261554Y-69608292D01*
X165291847Y-69633153D01*
X165316708Y-69663446D01*
X165335180Y-69698005D01*
X165346555Y-69735501D01*
X165351000Y-69780638D01*
X165351000Y-70419362D01*
X165346555Y-70464499D01*
X165335180Y-70501995D01*
X165316708Y-70536554D01*
X165291847Y-70566847D01*
X165261554Y-70591708D01*
X165226995Y-70610180D01*
X165189499Y-70621555D01*
X165144362Y-70626000D01*
X164405638Y-70626000D01*
X164360501Y-70621555D01*
X164323005Y-70610180D01*
X164288446Y-70591708D01*
X164258153Y-70566847D01*
X164233292Y-70536554D01*
X164214820Y-70501995D01*
X164203445Y-70464499D01*
X164199000Y-70419362D01*
X164199000Y-69780638D01*
X164203445Y-69735501D01*
X164214820Y-69698005D01*
X164233292Y-69663446D01*
X164258153Y-69633153D01*
X164288446Y-69608292D01*
X164323005Y-69589820D01*
X164360501Y-69578445D01*
X164405638Y-69574000D01*
X165144362Y-69574000D01*
X165189499Y-69578445D01*
X165189499Y-69578445D01*
G37*
G36*
X171524499Y-69423445D02*
G01*
X171561995Y-69434820D01*
X171596554Y-69453292D01*
X171626847Y-69478153D01*
X171651708Y-69508446D01*
X171670180Y-69543005D01*
X171681555Y-69580501D01*
X171686000Y-69625638D01*
X171686000Y-70364362D01*
X171681555Y-70409499D01*
X171670180Y-70446995D01*
X171651708Y-70481554D01*
X171626847Y-70511847D01*
X171596554Y-70536708D01*
X171561995Y-70555180D01*
X171524499Y-70566555D01*
X171479362Y-70571000D01*
X170840638Y-70571000D01*
X170795501Y-70566555D01*
X170758005Y-70555180D01*
X170723446Y-70536708D01*
X170693153Y-70511847D01*
X170668292Y-70481554D01*
X170649820Y-70446995D01*
X170638445Y-70409499D01*
X170634000Y-70364362D01*
X170634000Y-69625638D01*
X170638445Y-69580501D01*
X170649820Y-69543005D01*
X170668292Y-69508446D01*
X170693153Y-69478153D01*
X170723446Y-69453292D01*
X170758005Y-69434820D01*
X170795501Y-69423445D01*
X170840638Y-69419000D01*
X171479362Y-69419000D01*
X171524499Y-69423445D01*
X171524499Y-69423445D01*
G37*
G36*
X174924499Y-69423445D02*
G01*
X174961995Y-69434820D01*
X174996554Y-69453292D01*
X175026847Y-69478153D01*
X175051708Y-69508446D01*
X175070180Y-69543005D01*
X175081555Y-69580501D01*
X175086000Y-69625638D01*
X175086000Y-70364362D01*
X175081555Y-70409499D01*
X175070180Y-70446995D01*
X175051708Y-70481554D01*
X175026847Y-70511847D01*
X174996554Y-70536708D01*
X174961995Y-70555180D01*
X174924499Y-70566555D01*
X174879362Y-70571000D01*
X174240638Y-70571000D01*
X174195501Y-70566555D01*
X174158005Y-70555180D01*
X174123446Y-70536708D01*
X174093153Y-70511847D01*
X174068292Y-70481554D01*
X174049820Y-70446995D01*
X174038445Y-70409499D01*
X174034000Y-70364362D01*
X174034000Y-69625638D01*
X174038445Y-69580501D01*
X174049820Y-69543005D01*
X174068292Y-69508446D01*
X174093153Y-69478153D01*
X174123446Y-69453292D01*
X174158005Y-69434820D01*
X174195501Y-69423445D01*
X174240638Y-69419000D01*
X174879362Y-69419000D01*
X174924499Y-69423445D01*
X174924499Y-69423445D01*
G37*
G36*
X173224499Y-69423445D02*
G01*
X173261995Y-69434820D01*
X173296554Y-69453292D01*
X173326847Y-69478153D01*
X173351708Y-69508446D01*
X173370180Y-69543005D01*
X173381555Y-69580501D01*
X173386000Y-69625638D01*
X173386000Y-70364362D01*
X173381555Y-70409499D01*
X173370180Y-70446995D01*
X173351708Y-70481554D01*
X173326847Y-70511847D01*
X173296554Y-70536708D01*
X173261995Y-70555180D01*
X173224499Y-70566555D01*
X173179362Y-70571000D01*
X172540638Y-70571000D01*
X172495501Y-70566555D01*
X172458005Y-70555180D01*
X172423446Y-70536708D01*
X172393153Y-70511847D01*
X172368292Y-70481554D01*
X172349820Y-70446995D01*
X172338445Y-70409499D01*
X172334000Y-70364362D01*
X172334000Y-69625638D01*
X172338445Y-69580501D01*
X172349820Y-69543005D01*
X172368292Y-69508446D01*
X172393153Y-69478153D01*
X172423446Y-69453292D01*
X172458005Y-69434820D01*
X172495501Y-69423445D01*
X172540638Y-69419000D01*
X173179362Y-69419000D01*
X173224499Y-69423445D01*
X173224499Y-69423445D01*
G37*
G36*
X176624499Y-69423445D02*
G01*
X176661995Y-69434820D01*
X176696554Y-69453292D01*
X176726847Y-69478153D01*
X176751708Y-69508446D01*
X176770180Y-69543005D01*
X176781555Y-69580501D01*
X176786000Y-69625638D01*
X176786000Y-70364362D01*
X176781555Y-70409499D01*
X176770180Y-70446995D01*
X176751708Y-70481554D01*
X176726847Y-70511847D01*
X176696554Y-70536708D01*
X176661995Y-70555180D01*
X176624499Y-70566555D01*
X176579362Y-70571000D01*
X175940638Y-70571000D01*
X175895501Y-70566555D01*
X175858005Y-70555180D01*
X175823446Y-70536708D01*
X175793153Y-70511847D01*
X175768292Y-70481554D01*
X175749820Y-70446995D01*
X175738445Y-70409499D01*
X175734000Y-70364362D01*
X175734000Y-69625638D01*
X175738445Y-69580501D01*
X175749820Y-69543005D01*
X175768292Y-69508446D01*
X175793153Y-69478153D01*
X175823446Y-69453292D01*
X175858005Y-69434820D01*
X175895501Y-69423445D01*
X175940638Y-69419000D01*
X176579362Y-69419000D01*
X176624499Y-69423445D01*
X176624499Y-69423445D01*
G37*
G36*
X178389499Y-68990445D02*
G01*
X178426995Y-69001820D01*
X178461554Y-69020292D01*
X178491847Y-69045153D01*
X178516708Y-69075446D01*
X178535180Y-69110005D01*
X178546555Y-69147501D01*
X178551000Y-69192638D01*
X178551000Y-69831362D01*
X178546555Y-69876499D01*
X178535180Y-69913995D01*
X178516708Y-69948554D01*
X178491847Y-69978847D01*
X178461554Y-70003708D01*
X178426995Y-70022180D01*
X178389499Y-70033555D01*
X178344362Y-70038000D01*
X177605638Y-70038000D01*
X177560501Y-70033555D01*
X177523005Y-70022180D01*
X177488446Y-70003708D01*
X177458153Y-69978847D01*
X177433292Y-69948554D01*
X177414820Y-69913995D01*
X177403445Y-69876499D01*
X177399000Y-69831362D01*
X177399000Y-69192638D01*
X177403445Y-69147501D01*
X177414820Y-69110005D01*
X177433292Y-69075446D01*
X177458153Y-69045153D01*
X177488446Y-69020292D01*
X177523005Y-69001820D01*
X177560501Y-68990445D01*
X177605638Y-68986000D01*
X178344362Y-68986000D01*
X178389499Y-68990445D01*
X178389499Y-68990445D01*
G37*
G36*
X180139499Y-68990445D02*
G01*
X180176995Y-69001820D01*
X180211554Y-69020292D01*
X180241847Y-69045153D01*
X180266708Y-69075446D01*
X180285180Y-69110005D01*
X180296555Y-69147501D01*
X180301000Y-69192638D01*
X180301000Y-69831362D01*
X180296555Y-69876499D01*
X180285180Y-69913995D01*
X180266708Y-69948554D01*
X180241847Y-69978847D01*
X180211554Y-70003708D01*
X180176995Y-70022180D01*
X180139499Y-70033555D01*
X180094362Y-70038000D01*
X179355638Y-70038000D01*
X179310501Y-70033555D01*
X179273005Y-70022180D01*
X179238446Y-70003708D01*
X179208153Y-69978847D01*
X179183292Y-69948554D01*
X179164820Y-69913995D01*
X179153445Y-69876499D01*
X179149000Y-69831362D01*
X179149000Y-69192638D01*
X179153445Y-69147501D01*
X179164820Y-69110005D01*
X179183292Y-69075446D01*
X179208153Y-69045153D01*
X179238446Y-69020292D01*
X179273005Y-69001820D01*
X179310501Y-68990445D01*
X179355638Y-68986000D01*
X180094362Y-68986000D01*
X180139499Y-68990445D01*
X180139499Y-68990445D01*
G37*
G36*
X182419499Y-68700445D02*
G01*
X182456995Y-68711820D01*
X182491554Y-68730292D01*
X182521847Y-68755153D01*
X182546708Y-68785446D01*
X182565180Y-68820005D01*
X182576555Y-68857501D01*
X182581000Y-68902638D01*
X182581000Y-69641362D01*
X182576555Y-69686499D01*
X182565180Y-69723995D01*
X182546708Y-69758554D01*
X182521847Y-69788847D01*
X182491554Y-69813708D01*
X182456995Y-69832180D01*
X182419499Y-69843555D01*
X182374362Y-69848000D01*
X181735638Y-69848000D01*
X181690501Y-69843555D01*
X181653005Y-69832180D01*
X181618446Y-69813708D01*
X181588153Y-69788847D01*
X181563292Y-69758554D01*
X181544820Y-69723995D01*
X181533445Y-69686499D01*
X181529000Y-69641362D01*
X181529000Y-68902638D01*
X181533445Y-68857501D01*
X181544820Y-68820005D01*
X181563292Y-68785446D01*
X181588153Y-68755153D01*
X181618446Y-68730292D01*
X181653005Y-68711820D01*
X181690501Y-68700445D01*
X181735638Y-68696000D01*
X182374362Y-68696000D01*
X182419499Y-68700445D01*
X182419499Y-68700445D01*
G37*
G36*
X176624499Y-67673445D02*
G01*
X176661995Y-67684820D01*
X176696554Y-67703292D01*
X176726847Y-67728153D01*
X176751708Y-67758446D01*
X176770180Y-67793005D01*
X176781555Y-67830501D01*
X176786000Y-67875638D01*
X176786000Y-68614362D01*
X176781555Y-68659499D01*
X176770180Y-68696995D01*
X176751708Y-68731554D01*
X176726847Y-68761847D01*
X176696554Y-68786708D01*
X176661995Y-68805180D01*
X176624499Y-68816555D01*
X176579362Y-68821000D01*
X175940638Y-68821000D01*
X175895501Y-68816555D01*
X175858005Y-68805180D01*
X175823446Y-68786708D01*
X175793153Y-68761847D01*
X175768292Y-68731554D01*
X175749820Y-68696995D01*
X175738445Y-68659499D01*
X175734000Y-68614362D01*
X175734000Y-67875638D01*
X175738445Y-67830501D01*
X175749820Y-67793005D01*
X175768292Y-67758446D01*
X175793153Y-67728153D01*
X175823446Y-67703292D01*
X175858005Y-67684820D01*
X175895501Y-67673445D01*
X175940638Y-67669000D01*
X176579362Y-67669000D01*
X176624499Y-67673445D01*
X176624499Y-67673445D01*
G37*
G36*
X174924499Y-67673445D02*
G01*
X174961995Y-67684820D01*
X174996554Y-67703292D01*
X175026847Y-67728153D01*
X175051708Y-67758446D01*
X175070180Y-67793005D01*
X175081555Y-67830501D01*
X175086000Y-67875638D01*
X175086000Y-68614362D01*
X175081555Y-68659499D01*
X175070180Y-68696995D01*
X175051708Y-68731554D01*
X175026847Y-68761847D01*
X174996554Y-68786708D01*
X174961995Y-68805180D01*
X174924499Y-68816555D01*
X174879362Y-68821000D01*
X174240638Y-68821000D01*
X174195501Y-68816555D01*
X174158005Y-68805180D01*
X174123446Y-68786708D01*
X174093153Y-68761847D01*
X174068292Y-68731554D01*
X174049820Y-68696995D01*
X174038445Y-68659499D01*
X174034000Y-68614362D01*
X174034000Y-67875638D01*
X174038445Y-67830501D01*
X174049820Y-67793005D01*
X174068292Y-67758446D01*
X174093153Y-67728153D01*
X174123446Y-67703292D01*
X174158005Y-67684820D01*
X174195501Y-67673445D01*
X174240638Y-67669000D01*
X174879362Y-67669000D01*
X174924499Y-67673445D01*
X174924499Y-67673445D01*
G37*
G36*
X173224499Y-67673445D02*
G01*
X173261995Y-67684820D01*
X173296554Y-67703292D01*
X173326847Y-67728153D01*
X173351708Y-67758446D01*
X173370180Y-67793005D01*
X173381555Y-67830501D01*
X173386000Y-67875638D01*
X173386000Y-68614362D01*
X173381555Y-68659499D01*
X173370180Y-68696995D01*
X173351708Y-68731554D01*
X173326847Y-68761847D01*
X173296554Y-68786708D01*
X173261995Y-68805180D01*
X173224499Y-68816555D01*
X173179362Y-68821000D01*
X172540638Y-68821000D01*
X172495501Y-68816555D01*
X172458005Y-68805180D01*
X172423446Y-68786708D01*
X172393153Y-68761847D01*
X172368292Y-68731554D01*
X172349820Y-68696995D01*
X172338445Y-68659499D01*
X172334000Y-68614362D01*
X172334000Y-67875638D01*
X172338445Y-67830501D01*
X172349820Y-67793005D01*
X172368292Y-67758446D01*
X172393153Y-67728153D01*
X172423446Y-67703292D01*
X172458005Y-67684820D01*
X172495501Y-67673445D01*
X172540638Y-67669000D01*
X173179362Y-67669000D01*
X173224499Y-67673445D01*
X173224499Y-67673445D01*
G37*
G36*
X171524499Y-67673445D02*
G01*
X171561995Y-67684820D01*
X171596554Y-67703292D01*
X171626847Y-67728153D01*
X171651708Y-67758446D01*
X171670180Y-67793005D01*
X171681555Y-67830501D01*
X171686000Y-67875638D01*
X171686000Y-68614362D01*
X171681555Y-68659499D01*
X171670180Y-68696995D01*
X171651708Y-68731554D01*
X171626847Y-68761847D01*
X171596554Y-68786708D01*
X171561995Y-68805180D01*
X171524499Y-68816555D01*
X171479362Y-68821000D01*
X170840638Y-68821000D01*
X170795501Y-68816555D01*
X170758005Y-68805180D01*
X170723446Y-68786708D01*
X170693153Y-68761847D01*
X170668292Y-68731554D01*
X170649820Y-68696995D01*
X170638445Y-68659499D01*
X170634000Y-68614362D01*
X170634000Y-67875638D01*
X170638445Y-67830501D01*
X170649820Y-67793005D01*
X170668292Y-67758446D01*
X170693153Y-67728153D01*
X170723446Y-67703292D01*
X170758005Y-67684820D01*
X170795501Y-67673445D01*
X170840638Y-67669000D01*
X171479362Y-67669000D01*
X171524499Y-67673445D01*
X171524499Y-67673445D01*
G37*
G36*
X195849943Y-61236248D02*
G01*
X196405189Y-61466238D01*
X196405190Y-61466239D01*
X196904899Y-61800134D01*
X197329866Y-62225101D01*
X197329867Y-62225103D01*
X197663762Y-62724811D01*
X197893752Y-63280057D01*
X198011000Y-63869501D01*
X198011000Y-64470499D01*
X197893752Y-65059943D01*
X197663762Y-65615189D01*
X197663761Y-65615190D01*
X197329866Y-66114899D01*
X196904899Y-66539866D01*
X196653347Y-66707948D01*
X196405189Y-66873762D01*
X195849943Y-67103752D01*
X195260499Y-67221000D01*
X194659501Y-67221000D01*
X194070057Y-67103752D01*
X193514811Y-66873762D01*
X193266653Y-66707948D01*
X193015101Y-66539866D01*
X192590134Y-66114899D01*
X192256239Y-65615190D01*
X192256238Y-65615189D01*
X192026248Y-65059943D01*
X191909000Y-64470499D01*
X191909000Y-63869501D01*
X192026248Y-63280057D01*
X192256238Y-62724811D01*
X192590133Y-62225103D01*
X192590134Y-62225101D01*
X193015101Y-61800134D01*
X193514810Y-61466239D01*
X193514811Y-61466238D01*
X194070057Y-61236248D01*
X194659501Y-61119000D01*
X195260499Y-61119000D01*
X195849943Y-61236248D01*
X195849943Y-61236248D01*
G37*
M02*
