G04 #@! TF.GenerationSoftware,KiCad,Pcbnew,(5.1.2)-1*
G04 #@! TF.CreationDate,2019-12-18T19:38:25-05:00*
G04 #@! TF.ProjectId,PowerSenseModule,506f7765-7253-4656-9e73-654d6f64756c,1.0*
G04 #@! TF.SameCoordinates,Original*
G04 #@! TF.FileFunction,Glue,Bot*
G04 #@! TF.FilePolarity,Positive*
%FSLAX46Y46*%
G04 Gerber Fmt 4.6, Leading zero omitted, Abs format (unit mm)*
G04 Created by KiCad (PCBNEW (5.1.2)-1) date 2019-12-18 19:38:25*
%MOMM*%
%LPD*%
G04 APERTURE LIST*
%ADD10C,0.100000*%
%ADD11C,0.150000*%
%ADD12C,0.300000*%
%ADD13C,0.400000*%
G04 APERTURE END LIST*
D10*
D11*
X177002200Y-166007200D02*
X177002200Y-198007200D01*
X285002200Y-198007200D01*
X285002200Y-166007200D01*
X177002200Y-166007200D01*
D10*
D11*
X10000000Y-10000000D02*
X10000000Y-200007200D01*
X287002200Y-200007200D01*
X287002200Y-10000000D01*
X10000000Y-10000000D01*
D10*
D11*
X12000000Y-12000000D02*
X12000000Y-198007200D01*
X285002200Y-198007200D01*
X285002200Y-12000000D01*
X12000000Y-12000000D01*
D10*
D11*
X60000000Y-12000000D02*
X60000000Y-10000000D01*
D10*
D11*
X110000000Y-12000000D02*
X110000000Y-10000000D01*
D10*
D11*
X160000000Y-12000000D02*
X160000000Y-10000000D01*
D10*
D11*
X210000000Y-12000000D02*
X210000000Y-10000000D01*
D10*
D11*
X260000000Y-12000000D02*
X260000000Y-10000000D01*
D10*
D11*
X36065476Y-11588095D02*
X35322619Y-11588095D01*
X35694047Y-11588095D02*
X35694047Y-10288095D01*
X35570238Y-10473809D01*
X35446428Y-10597619D01*
X35322619Y-10659523D01*
D10*
D11*
X85322619Y-10411904D02*
X85384523Y-10350000D01*
X85508333Y-10288095D01*
X85817857Y-10288095D01*
X85941666Y-10350000D01*
X86003571Y-10411904D01*
X86065476Y-10535714D01*
X86065476Y-10659523D01*
X86003571Y-10845238D01*
X85260714Y-11588095D01*
X86065476Y-11588095D01*
D10*
D11*
X135260714Y-10288095D02*
X136065476Y-10288095D01*
X135632142Y-10783333D01*
X135817857Y-10783333D01*
X135941666Y-10845238D01*
X136003571Y-10907142D01*
X136065476Y-11030952D01*
X136065476Y-11340476D01*
X136003571Y-11464285D01*
X135941666Y-11526190D01*
X135817857Y-11588095D01*
X135446428Y-11588095D01*
X135322619Y-11526190D01*
X135260714Y-11464285D01*
D10*
D11*
X185941666Y-10721428D02*
X185941666Y-11588095D01*
X185632142Y-10226190D02*
X185322619Y-11154761D01*
X186127380Y-11154761D01*
D10*
D11*
X236003571Y-10288095D02*
X235384523Y-10288095D01*
X235322619Y-10907142D01*
X235384523Y-10845238D01*
X235508333Y-10783333D01*
X235817857Y-10783333D01*
X235941666Y-10845238D01*
X236003571Y-10907142D01*
X236065476Y-11030952D01*
X236065476Y-11340476D01*
X236003571Y-11464285D01*
X235941666Y-11526190D01*
X235817857Y-11588095D01*
X235508333Y-11588095D01*
X235384523Y-11526190D01*
X235322619Y-11464285D01*
D10*
D11*
X285941666Y-10288095D02*
X285694047Y-10288095D01*
X285570238Y-10350000D01*
X285508333Y-10411904D01*
X285384523Y-10597619D01*
X285322619Y-10845238D01*
X285322619Y-11340476D01*
X285384523Y-11464285D01*
X285446428Y-11526190D01*
X285570238Y-11588095D01*
X285817857Y-11588095D01*
X285941666Y-11526190D01*
X286003571Y-11464285D01*
X286065476Y-11340476D01*
X286065476Y-11030952D01*
X286003571Y-10907142D01*
X285941666Y-10845238D01*
X285817857Y-10783333D01*
X285570238Y-10783333D01*
X285446428Y-10845238D01*
X285384523Y-10907142D01*
X285322619Y-11030952D01*
D10*
D11*
X60000000Y-198007200D02*
X60000000Y-200007200D01*
D10*
D11*
X110000000Y-198007200D02*
X110000000Y-200007200D01*
D10*
D11*
X160000000Y-198007200D02*
X160000000Y-200007200D01*
D10*
D11*
X210000000Y-198007200D02*
X210000000Y-200007200D01*
D10*
D11*
X260000000Y-198007200D02*
X260000000Y-200007200D01*
D10*
D11*
X36065476Y-199595295D02*
X35322619Y-199595295D01*
X35694047Y-199595295D02*
X35694047Y-198295295D01*
X35570238Y-198481009D01*
X35446428Y-198604819D01*
X35322619Y-198666723D01*
D10*
D11*
X85322619Y-198419104D02*
X85384523Y-198357200D01*
X85508333Y-198295295D01*
X85817857Y-198295295D01*
X85941666Y-198357200D01*
X86003571Y-198419104D01*
X86065476Y-198542914D01*
X86065476Y-198666723D01*
X86003571Y-198852438D01*
X85260714Y-199595295D01*
X86065476Y-199595295D01*
D10*
D11*
X135260714Y-198295295D02*
X136065476Y-198295295D01*
X135632142Y-198790533D01*
X135817857Y-198790533D01*
X135941666Y-198852438D01*
X136003571Y-198914342D01*
X136065476Y-199038152D01*
X136065476Y-199347676D01*
X136003571Y-199471485D01*
X135941666Y-199533390D01*
X135817857Y-199595295D01*
X135446428Y-199595295D01*
X135322619Y-199533390D01*
X135260714Y-199471485D01*
D10*
D11*
X185941666Y-198728628D02*
X185941666Y-199595295D01*
X185632142Y-198233390D02*
X185322619Y-199161961D01*
X186127380Y-199161961D01*
D10*
D11*
X236003571Y-198295295D02*
X235384523Y-198295295D01*
X235322619Y-198914342D01*
X235384523Y-198852438D01*
X235508333Y-198790533D01*
X235817857Y-198790533D01*
X235941666Y-198852438D01*
X236003571Y-198914342D01*
X236065476Y-199038152D01*
X236065476Y-199347676D01*
X236003571Y-199471485D01*
X235941666Y-199533390D01*
X235817857Y-199595295D01*
X235508333Y-199595295D01*
X235384523Y-199533390D01*
X235322619Y-199471485D01*
D10*
D11*
X285941666Y-198295295D02*
X285694047Y-198295295D01*
X285570238Y-198357200D01*
X285508333Y-198419104D01*
X285384523Y-198604819D01*
X285322619Y-198852438D01*
X285322619Y-199347676D01*
X285384523Y-199471485D01*
X285446428Y-199533390D01*
X285570238Y-199595295D01*
X285817857Y-199595295D01*
X285941666Y-199533390D01*
X286003571Y-199471485D01*
X286065476Y-199347676D01*
X286065476Y-199038152D01*
X286003571Y-198914342D01*
X285941666Y-198852438D01*
X285817857Y-198790533D01*
X285570238Y-198790533D01*
X285446428Y-198852438D01*
X285384523Y-198914342D01*
X285322619Y-199038152D01*
D10*
D11*
X10000000Y-60000000D02*
X12000000Y-60000000D01*
D10*
D11*
X10000000Y-110000000D02*
X12000000Y-110000000D01*
D10*
D11*
X10000000Y-160000000D02*
X12000000Y-160000000D01*
D10*
D11*
X10690476Y-35216666D02*
X11309523Y-35216666D01*
X10566666Y-35588095D02*
X11000000Y-34288095D01*
X11433333Y-35588095D01*
D10*
D11*
X11092857Y-84907142D02*
X11278571Y-84969047D01*
X11340476Y-85030952D01*
X11402380Y-85154761D01*
X11402380Y-85340476D01*
X11340476Y-85464285D01*
X11278571Y-85526190D01*
X11154761Y-85588095D01*
X10659523Y-85588095D01*
X10659523Y-84288095D01*
X11092857Y-84288095D01*
X11216666Y-84350000D01*
X11278571Y-84411904D01*
X11340476Y-84535714D01*
X11340476Y-84659523D01*
X11278571Y-84783333D01*
X11216666Y-84845238D01*
X11092857Y-84907142D01*
X10659523Y-84907142D01*
D10*
D11*
X11402380Y-135464285D02*
X11340476Y-135526190D01*
X11154761Y-135588095D01*
X11030952Y-135588095D01*
X10845238Y-135526190D01*
X10721428Y-135402380D01*
X10659523Y-135278571D01*
X10597619Y-135030952D01*
X10597619Y-134845238D01*
X10659523Y-134597619D01*
X10721428Y-134473809D01*
X10845238Y-134350000D01*
X11030952Y-134288095D01*
X11154761Y-134288095D01*
X11340476Y-134350000D01*
X11402380Y-134411904D01*
D10*
D11*
X10659523Y-185588095D02*
X10659523Y-184288095D01*
X10969047Y-184288095D01*
X11154761Y-184350000D01*
X11278571Y-184473809D01*
X11340476Y-184597619D01*
X11402380Y-184845238D01*
X11402380Y-185030952D01*
X11340476Y-185278571D01*
X11278571Y-185402380D01*
X11154761Y-185526190D01*
X10969047Y-185588095D01*
X10659523Y-185588095D01*
D10*
D11*
X287002200Y-60000000D02*
X285002200Y-60000000D01*
D10*
D11*
X287002200Y-110000000D02*
X285002200Y-110000000D01*
D10*
D11*
X287002200Y-160000000D02*
X285002200Y-160000000D01*
D10*
D11*
X285692676Y-35216666D02*
X286311723Y-35216666D01*
X285568866Y-35588095D02*
X286002200Y-34288095D01*
X286435533Y-35588095D01*
D10*
D11*
X286095057Y-84907142D02*
X286280771Y-84969047D01*
X286342676Y-85030952D01*
X286404580Y-85154761D01*
X286404580Y-85340476D01*
X286342676Y-85464285D01*
X286280771Y-85526190D01*
X286156961Y-85588095D01*
X285661723Y-85588095D01*
X285661723Y-84288095D01*
X286095057Y-84288095D01*
X286218866Y-84350000D01*
X286280771Y-84411904D01*
X286342676Y-84535714D01*
X286342676Y-84659523D01*
X286280771Y-84783333D01*
X286218866Y-84845238D01*
X286095057Y-84907142D01*
X285661723Y-84907142D01*
D10*
D11*
X286404580Y-135464285D02*
X286342676Y-135526190D01*
X286156961Y-135588095D01*
X286033152Y-135588095D01*
X285847438Y-135526190D01*
X285723628Y-135402380D01*
X285661723Y-135278571D01*
X285599819Y-135030952D01*
X285599819Y-134845238D01*
X285661723Y-134597619D01*
X285723628Y-134473809D01*
X285847438Y-134350000D01*
X286033152Y-134288095D01*
X286156961Y-134288095D01*
X286342676Y-134350000D01*
X286404580Y-134411904D01*
D10*
D11*
X285661723Y-185588095D02*
X285661723Y-184288095D01*
X285971247Y-184288095D01*
X286156961Y-184350000D01*
X286280771Y-184473809D01*
X286342676Y-184597619D01*
X286404580Y-184845238D01*
X286404580Y-185030952D01*
X286342676Y-185278571D01*
X286280771Y-185402380D01*
X286156961Y-185526190D01*
X285971247Y-185588095D01*
X285661723Y-185588095D01*
D10*
D11*
X200434342Y-193785771D02*
X200434342Y-192285771D01*
X200791485Y-192285771D01*
X201005771Y-192357200D01*
X201148628Y-192500057D01*
X201220057Y-192642914D01*
X201291485Y-192928628D01*
X201291485Y-193142914D01*
X201220057Y-193428628D01*
X201148628Y-193571485D01*
X201005771Y-193714342D01*
X200791485Y-193785771D01*
X200434342Y-193785771D01*
X202577200Y-193785771D02*
X202577200Y-193000057D01*
X202505771Y-192857200D01*
X202362914Y-192785771D01*
X202077200Y-192785771D01*
X201934342Y-192857200D01*
X202577200Y-193714342D02*
X202434342Y-193785771D01*
X202077200Y-193785771D01*
X201934342Y-193714342D01*
X201862914Y-193571485D01*
X201862914Y-193428628D01*
X201934342Y-193285771D01*
X202077200Y-193214342D01*
X202434342Y-193214342D01*
X202577200Y-193142914D01*
X203077200Y-192785771D02*
X203648628Y-192785771D01*
X203291485Y-192285771D02*
X203291485Y-193571485D01*
X203362914Y-193714342D01*
X203505771Y-193785771D01*
X203648628Y-193785771D01*
X204720057Y-193714342D02*
X204577200Y-193785771D01*
X204291485Y-193785771D01*
X204148628Y-193714342D01*
X204077200Y-193571485D01*
X204077200Y-193000057D01*
X204148628Y-192857200D01*
X204291485Y-192785771D01*
X204577200Y-192785771D01*
X204720057Y-192857200D01*
X204791485Y-193000057D01*
X204791485Y-193142914D01*
X204077200Y-193285771D01*
X205434342Y-193642914D02*
X205505771Y-193714342D01*
X205434342Y-193785771D01*
X205362914Y-193714342D01*
X205434342Y-193642914D01*
X205434342Y-193785771D01*
X205434342Y-192857200D02*
X205505771Y-192928628D01*
X205434342Y-193000057D01*
X205362914Y-192928628D01*
X205434342Y-192857200D01*
X205434342Y-193000057D01*
X207220057Y-192428628D02*
X207291485Y-192357200D01*
X207434342Y-192285771D01*
X207791485Y-192285771D01*
X207934342Y-192357200D01*
X208005771Y-192428628D01*
X208077200Y-192571485D01*
X208077200Y-192714342D01*
X208005771Y-192928628D01*
X207148628Y-193785771D01*
X208077200Y-193785771D01*
X209005771Y-192285771D02*
X209148628Y-192285771D01*
X209291485Y-192357200D01*
X209362914Y-192428628D01*
X209434342Y-192571485D01*
X209505771Y-192857200D01*
X209505771Y-193214342D01*
X209434342Y-193500057D01*
X209362914Y-193642914D01*
X209291485Y-193714342D01*
X209148628Y-193785771D01*
X209005771Y-193785771D01*
X208862914Y-193714342D01*
X208791485Y-193642914D01*
X208720057Y-193500057D01*
X208648628Y-193214342D01*
X208648628Y-192857200D01*
X208720057Y-192571485D01*
X208791485Y-192428628D01*
X208862914Y-192357200D01*
X209005771Y-192285771D01*
X210934342Y-193785771D02*
X210077200Y-193785771D01*
X210505771Y-193785771D02*
X210505771Y-192285771D01*
X210362914Y-192500057D01*
X210220057Y-192642914D01*
X210077200Y-192714342D01*
X211648628Y-193785771D02*
X211934342Y-193785771D01*
X212077200Y-193714342D01*
X212148628Y-193642914D01*
X212291485Y-193428628D01*
X212362914Y-193142914D01*
X212362914Y-192571485D01*
X212291485Y-192428628D01*
X212220057Y-192357200D01*
X212077200Y-192285771D01*
X211791485Y-192285771D01*
X211648628Y-192357200D01*
X211577200Y-192428628D01*
X211505771Y-192571485D01*
X211505771Y-192928628D01*
X211577200Y-193071485D01*
X211648628Y-193142914D01*
X211791485Y-193214342D01*
X212077200Y-193214342D01*
X212220057Y-193142914D01*
X212291485Y-193071485D01*
X212362914Y-192928628D01*
X213005771Y-193214342D02*
X214148628Y-193214342D01*
X215648628Y-193785771D02*
X214791485Y-193785771D01*
X215220057Y-193785771D02*
X215220057Y-192285771D01*
X215077200Y-192500057D01*
X214934342Y-192642914D01*
X214791485Y-192714342D01*
X216220057Y-192428628D02*
X216291485Y-192357200D01*
X216434342Y-192285771D01*
X216791485Y-192285771D01*
X216934342Y-192357200D01*
X217005771Y-192428628D01*
X217077200Y-192571485D01*
X217077200Y-192714342D01*
X217005771Y-192928628D01*
X216148628Y-193785771D01*
X217077200Y-193785771D01*
X217720057Y-193214342D02*
X218862914Y-193214342D01*
X220362914Y-193785771D02*
X219505771Y-193785771D01*
X219934342Y-193785771D02*
X219934342Y-192285771D01*
X219791485Y-192500057D01*
X219648628Y-192642914D01*
X219505771Y-192714342D01*
X221220057Y-192928628D02*
X221077200Y-192857200D01*
X221005771Y-192785771D01*
X220934342Y-192642914D01*
X220934342Y-192571485D01*
X221005771Y-192428628D01*
X221077200Y-192357200D01*
X221220057Y-192285771D01*
X221505771Y-192285771D01*
X221648628Y-192357200D01*
X221720057Y-192428628D01*
X221791485Y-192571485D01*
X221791485Y-192642914D01*
X221720057Y-192785771D01*
X221648628Y-192857200D01*
X221505771Y-192928628D01*
X221220057Y-192928628D01*
X221077200Y-193000057D01*
X221005771Y-193071485D01*
X220934342Y-193214342D01*
X220934342Y-193500057D01*
X221005771Y-193642914D01*
X221077200Y-193714342D01*
X221220057Y-193785771D01*
X221505771Y-193785771D01*
X221648628Y-193714342D01*
X221720057Y-193642914D01*
X221791485Y-193500057D01*
X221791485Y-193214342D01*
X221720057Y-193071485D01*
X221648628Y-193000057D01*
X221505771Y-192928628D01*
D10*
D11*
X177002200Y-194507200D02*
X285002200Y-194507200D01*
D10*
D11*
X178434342Y-196585771D02*
X178434342Y-195085771D01*
X179291485Y-196585771D02*
X178648628Y-195728628D01*
X179291485Y-195085771D02*
X178434342Y-195942914D01*
X179934342Y-196585771D02*
X179934342Y-195585771D01*
X179934342Y-195085771D02*
X179862914Y-195157200D01*
X179934342Y-195228628D01*
X180005771Y-195157200D01*
X179934342Y-195085771D01*
X179934342Y-195228628D01*
X181505771Y-196442914D02*
X181434342Y-196514342D01*
X181220057Y-196585771D01*
X181077200Y-196585771D01*
X180862914Y-196514342D01*
X180720057Y-196371485D01*
X180648628Y-196228628D01*
X180577200Y-195942914D01*
X180577200Y-195728628D01*
X180648628Y-195442914D01*
X180720057Y-195300057D01*
X180862914Y-195157200D01*
X181077200Y-195085771D01*
X181220057Y-195085771D01*
X181434342Y-195157200D01*
X181505771Y-195228628D01*
X182791485Y-196585771D02*
X182791485Y-195800057D01*
X182720057Y-195657200D01*
X182577200Y-195585771D01*
X182291485Y-195585771D01*
X182148628Y-195657200D01*
X182791485Y-196514342D02*
X182648628Y-196585771D01*
X182291485Y-196585771D01*
X182148628Y-196514342D01*
X182077200Y-196371485D01*
X182077200Y-196228628D01*
X182148628Y-196085771D01*
X182291485Y-196014342D01*
X182648628Y-196014342D01*
X182791485Y-195942914D01*
X184148628Y-196585771D02*
X184148628Y-195085771D01*
X184148628Y-196514342D02*
X184005771Y-196585771D01*
X183720057Y-196585771D01*
X183577200Y-196514342D01*
X183505771Y-196442914D01*
X183434342Y-196300057D01*
X183434342Y-195871485D01*
X183505771Y-195728628D01*
X183577200Y-195657200D01*
X183720057Y-195585771D01*
X184005771Y-195585771D01*
X184148628Y-195657200D01*
X186005771Y-195800057D02*
X186505771Y-195800057D01*
X186720057Y-196585771D02*
X186005771Y-196585771D01*
X186005771Y-195085771D01*
X186720057Y-195085771D01*
X187362914Y-196442914D02*
X187434342Y-196514342D01*
X187362914Y-196585771D01*
X187291485Y-196514342D01*
X187362914Y-196442914D01*
X187362914Y-196585771D01*
X188077200Y-196585771D02*
X188077200Y-195085771D01*
X188434342Y-195085771D01*
X188648628Y-195157200D01*
X188791485Y-195300057D01*
X188862914Y-195442914D01*
X188934342Y-195728628D01*
X188934342Y-195942914D01*
X188862914Y-196228628D01*
X188791485Y-196371485D01*
X188648628Y-196514342D01*
X188434342Y-196585771D01*
X188077200Y-196585771D01*
X189577200Y-196442914D02*
X189648628Y-196514342D01*
X189577200Y-196585771D01*
X189505771Y-196514342D01*
X189577200Y-196442914D01*
X189577200Y-196585771D01*
X190220057Y-196157200D02*
X190934342Y-196157200D01*
X190077200Y-196585771D02*
X190577200Y-195085771D01*
X191077200Y-196585771D01*
X191577200Y-196442914D02*
X191648628Y-196514342D01*
X191577200Y-196585771D01*
X191505771Y-196514342D01*
X191577200Y-196442914D01*
X191577200Y-196585771D01*
X194577200Y-196585771D02*
X194577200Y-195085771D01*
X194720057Y-196014342D02*
X195148628Y-196585771D01*
X195148628Y-195585771D02*
X194577200Y-196157200D01*
X195791485Y-196585771D02*
X195791485Y-195585771D01*
X195791485Y-195085771D02*
X195720057Y-195157200D01*
X195791485Y-195228628D01*
X195862914Y-195157200D01*
X195791485Y-195085771D01*
X195791485Y-195228628D01*
X197148628Y-196514342D02*
X197005771Y-196585771D01*
X196720057Y-196585771D01*
X196577200Y-196514342D01*
X196505771Y-196442914D01*
X196434342Y-196300057D01*
X196434342Y-195871485D01*
X196505771Y-195728628D01*
X196577200Y-195657200D01*
X196720057Y-195585771D01*
X197005771Y-195585771D01*
X197148628Y-195657200D01*
X198434342Y-196585771D02*
X198434342Y-195800057D01*
X198362914Y-195657200D01*
X198220057Y-195585771D01*
X197934342Y-195585771D01*
X197791485Y-195657200D01*
X198434342Y-196514342D02*
X198291485Y-196585771D01*
X197934342Y-196585771D01*
X197791485Y-196514342D01*
X197720057Y-196371485D01*
X197720057Y-196228628D01*
X197791485Y-196085771D01*
X197934342Y-196014342D01*
X198291485Y-196014342D01*
X198434342Y-195942914D01*
X199791485Y-196585771D02*
X199791485Y-195085771D01*
X199791485Y-196514342D02*
X199648628Y-196585771D01*
X199362914Y-196585771D01*
X199220057Y-196514342D01*
X199148628Y-196442914D01*
X199077200Y-196300057D01*
X199077200Y-195871485D01*
X199148628Y-195728628D01*
X199220057Y-195657200D01*
X199362914Y-195585771D01*
X199648628Y-195585771D01*
X199791485Y-195657200D01*
X202077200Y-197157200D02*
X202005771Y-197085771D01*
X201862914Y-196871485D01*
X201791485Y-196728628D01*
X201720057Y-196514342D01*
X201648628Y-196157200D01*
X201648628Y-195871485D01*
X201720057Y-195514342D01*
X201791485Y-195300057D01*
X201862914Y-195157200D01*
X202005771Y-194942914D01*
X202077200Y-194871485D01*
X203362914Y-195085771D02*
X202648628Y-195085771D01*
X202577200Y-195800057D01*
X202648628Y-195728628D01*
X202791485Y-195657200D01*
X203148628Y-195657200D01*
X203291485Y-195728628D01*
X203362914Y-195800057D01*
X203434342Y-195942914D01*
X203434342Y-196300057D01*
X203362914Y-196442914D01*
X203291485Y-196514342D01*
X203148628Y-196585771D01*
X202791485Y-196585771D01*
X202648628Y-196514342D01*
X202577200Y-196442914D01*
X204077200Y-196442914D02*
X204148628Y-196514342D01*
X204077200Y-196585771D01*
X204005771Y-196514342D01*
X204077200Y-196442914D01*
X204077200Y-196585771D01*
X205577200Y-196585771D02*
X204720057Y-196585771D01*
X205148628Y-196585771D02*
X205148628Y-195085771D01*
X205005771Y-195300057D01*
X204862914Y-195442914D01*
X204720057Y-195514342D01*
X206220057Y-196442914D02*
X206291485Y-196514342D01*
X206220057Y-196585771D01*
X206148628Y-196514342D01*
X206220057Y-196442914D01*
X206220057Y-196585771D01*
X206862914Y-195228628D02*
X206934342Y-195157200D01*
X207077200Y-195085771D01*
X207434342Y-195085771D01*
X207577200Y-195157200D01*
X207648628Y-195228628D01*
X207720057Y-195371485D01*
X207720057Y-195514342D01*
X207648628Y-195728628D01*
X206791485Y-196585771D01*
X207720057Y-196585771D01*
X208220057Y-197157200D02*
X208291485Y-197085771D01*
X208434342Y-196871485D01*
X208505771Y-196728628D01*
X208577200Y-196514342D01*
X208648628Y-196157200D01*
X208648628Y-195871485D01*
X208577200Y-195514342D01*
X208505771Y-195300057D01*
X208434342Y-195157200D01*
X208291485Y-194942914D01*
X208220057Y-194871485D01*
X209362914Y-196014342D02*
X210505771Y-196014342D01*
X212005771Y-196585771D02*
X211148628Y-196585771D01*
X211577200Y-196585771D02*
X211577200Y-195085771D01*
X211434342Y-195300057D01*
X211291485Y-195442914D01*
X211148628Y-195514342D01*
D10*
D11*
X177002200Y-191507200D02*
X285002200Y-191507200D01*
D10*
D12*
X264411485Y-193785771D02*
X263911485Y-193071485D01*
X263554342Y-193785771D02*
X263554342Y-192285771D01*
X264125771Y-192285771D01*
X264268628Y-192357200D01*
X264340057Y-192428628D01*
X264411485Y-192571485D01*
X264411485Y-192785771D01*
X264340057Y-192928628D01*
X264268628Y-193000057D01*
X264125771Y-193071485D01*
X263554342Y-193071485D01*
X265625771Y-193714342D02*
X265482914Y-193785771D01*
X265197200Y-193785771D01*
X265054342Y-193714342D01*
X264982914Y-193571485D01*
X264982914Y-193000057D01*
X265054342Y-192857200D01*
X265197200Y-192785771D01*
X265482914Y-192785771D01*
X265625771Y-192857200D01*
X265697200Y-193000057D01*
X265697200Y-193142914D01*
X264982914Y-193285771D01*
X266197200Y-192785771D02*
X266554342Y-193785771D01*
X266911485Y-192785771D01*
X267482914Y-193642914D02*
X267554342Y-193714342D01*
X267482914Y-193785771D01*
X267411485Y-193714342D01*
X267482914Y-193642914D01*
X267482914Y-193785771D01*
X267482914Y-192857200D02*
X267554342Y-192928628D01*
X267482914Y-193000057D01*
X267411485Y-192928628D01*
X267482914Y-192857200D01*
X267482914Y-193000057D01*
X270125771Y-193785771D02*
X269268628Y-193785771D01*
X269697200Y-193785771D02*
X269697200Y-192285771D01*
X269554342Y-192500057D01*
X269411485Y-192642914D01*
X269268628Y-192714342D01*
X270768628Y-193642914D02*
X270840057Y-193714342D01*
X270768628Y-193785771D01*
X270697200Y-193714342D01*
X270768628Y-193642914D01*
X270768628Y-193785771D01*
X271768628Y-192285771D02*
X271911485Y-192285771D01*
X272054342Y-192357200D01*
X272125771Y-192428628D01*
X272197200Y-192571485D01*
X272268628Y-192857200D01*
X272268628Y-193214342D01*
X272197200Y-193500057D01*
X272125771Y-193642914D01*
X272054342Y-193714342D01*
X271911485Y-193785771D01*
X271768628Y-193785771D01*
X271625771Y-193714342D01*
X271554342Y-193642914D01*
X271482914Y-193500057D01*
X271411485Y-193214342D01*
X271411485Y-192857200D01*
X271482914Y-192571485D01*
X271554342Y-192428628D01*
X271625771Y-192357200D01*
X271768628Y-192285771D01*
D10*
D11*
X178362914Y-193714342D02*
X178577200Y-193785771D01*
X178934342Y-193785771D01*
X179077200Y-193714342D01*
X179148628Y-193642914D01*
X179220057Y-193500057D01*
X179220057Y-193357200D01*
X179148628Y-193214342D01*
X179077200Y-193142914D01*
X178934342Y-193071485D01*
X178648628Y-193000057D01*
X178505771Y-192928628D01*
X178434342Y-192857200D01*
X178362914Y-192714342D01*
X178362914Y-192571485D01*
X178434342Y-192428628D01*
X178505771Y-192357200D01*
X178648628Y-192285771D01*
X179005771Y-192285771D01*
X179220057Y-192357200D01*
X179862914Y-193785771D02*
X179862914Y-192785771D01*
X179862914Y-192285771D02*
X179791485Y-192357200D01*
X179862914Y-192428628D01*
X179934342Y-192357200D01*
X179862914Y-192285771D01*
X179862914Y-192428628D01*
X180434342Y-192785771D02*
X181220057Y-192785771D01*
X180434342Y-193785771D01*
X181220057Y-193785771D01*
X182362914Y-193714342D02*
X182220057Y-193785771D01*
X181934342Y-193785771D01*
X181791485Y-193714342D01*
X181720057Y-193571485D01*
X181720057Y-193000057D01*
X181791485Y-192857200D01*
X181934342Y-192785771D01*
X182220057Y-192785771D01*
X182362914Y-192857200D01*
X182434342Y-193000057D01*
X182434342Y-193142914D01*
X181720057Y-193285771D01*
X183077200Y-193642914D02*
X183148628Y-193714342D01*
X183077200Y-193785771D01*
X183005771Y-193714342D01*
X183077200Y-193642914D01*
X183077200Y-193785771D01*
X183077200Y-192857200D02*
X183148628Y-192928628D01*
X183077200Y-193000057D01*
X183005771Y-192928628D01*
X183077200Y-192857200D01*
X183077200Y-193000057D01*
X184862914Y-193357200D02*
X185577200Y-193357200D01*
X184720057Y-193785771D02*
X185220057Y-192285771D01*
X185720057Y-193785771D01*
X186862914Y-192785771D02*
X186862914Y-193785771D01*
X186505771Y-192214342D02*
X186148628Y-193285771D01*
X187077200Y-193285771D01*
D10*
D11*
X263434342Y-196585771D02*
X263434342Y-195085771D01*
X264791485Y-196585771D02*
X264791485Y-195085771D01*
X264791485Y-196514342D02*
X264648628Y-196585771D01*
X264362914Y-196585771D01*
X264220057Y-196514342D01*
X264148628Y-196442914D01*
X264077200Y-196300057D01*
X264077200Y-195871485D01*
X264148628Y-195728628D01*
X264220057Y-195657200D01*
X264362914Y-195585771D01*
X264648628Y-195585771D01*
X264791485Y-195657200D01*
X265505771Y-196442914D02*
X265577200Y-196514342D01*
X265505771Y-196585771D01*
X265434342Y-196514342D01*
X265505771Y-196442914D01*
X265505771Y-196585771D01*
X265505771Y-195657200D02*
X265577200Y-195728628D01*
X265505771Y-195800057D01*
X265434342Y-195728628D01*
X265505771Y-195657200D01*
X265505771Y-195800057D01*
X268148628Y-196585771D02*
X267291485Y-196585771D01*
X267720057Y-196585771D02*
X267720057Y-195085771D01*
X267577200Y-195300057D01*
X267434342Y-195442914D01*
X267291485Y-195514342D01*
X269862914Y-195014342D02*
X268577200Y-196942914D01*
X271148628Y-196585771D02*
X270291485Y-196585771D01*
X270720057Y-196585771D02*
X270720057Y-195085771D01*
X270577200Y-195300057D01*
X270434342Y-195442914D01*
X270291485Y-195514342D01*
D10*
D11*
X177002200Y-187507200D02*
X285002200Y-187507200D01*
D10*
D13*
X178714580Y-188211961D02*
X179857438Y-188211961D01*
X179036009Y-190211961D02*
X179286009Y-188211961D01*
X180274104Y-190211961D02*
X180440771Y-188878628D01*
X180524104Y-188211961D02*
X180416961Y-188307200D01*
X180500295Y-188402438D01*
X180607438Y-188307200D01*
X180524104Y-188211961D01*
X180500295Y-188402438D01*
X181107438Y-188878628D02*
X181869342Y-188878628D01*
X181476485Y-188211961D02*
X181262200Y-189926247D01*
X181333628Y-190116723D01*
X181512200Y-190211961D01*
X181702676Y-190211961D01*
X182655057Y-190211961D02*
X182476485Y-190116723D01*
X182405057Y-189926247D01*
X182619342Y-188211961D01*
X184190771Y-190116723D02*
X183988390Y-190211961D01*
X183607438Y-190211961D01*
X183428866Y-190116723D01*
X183357438Y-189926247D01*
X183452676Y-189164342D01*
X183571723Y-188973866D01*
X183774104Y-188878628D01*
X184155057Y-188878628D01*
X184333628Y-188973866D01*
X184405057Y-189164342D01*
X184381247Y-189354819D01*
X183405057Y-189545295D01*
X185155057Y-190021485D02*
X185238390Y-190116723D01*
X185131247Y-190211961D01*
X185047914Y-190116723D01*
X185155057Y-190021485D01*
X185131247Y-190211961D01*
X185286009Y-188973866D02*
X185369342Y-189069104D01*
X185262200Y-189164342D01*
X185178866Y-189069104D01*
X185286009Y-188973866D01*
X185262200Y-189164342D01*
X187607438Y-190211961D02*
X187857438Y-188211961D01*
X188619342Y-188211961D01*
X188797914Y-188307200D01*
X188881247Y-188402438D01*
X188952676Y-188592914D01*
X188916961Y-188878628D01*
X188797914Y-189069104D01*
X188690771Y-189164342D01*
X188488390Y-189259580D01*
X187726485Y-189259580D01*
X189893152Y-190211961D02*
X189714580Y-190116723D01*
X189631247Y-190021485D01*
X189559819Y-189831009D01*
X189631247Y-189259580D01*
X189750295Y-189069104D01*
X189857438Y-188973866D01*
X190059819Y-188878628D01*
X190345533Y-188878628D01*
X190524104Y-188973866D01*
X190607438Y-189069104D01*
X190678866Y-189259580D01*
X190607438Y-189831009D01*
X190488390Y-190021485D01*
X190381247Y-190116723D01*
X190178866Y-190211961D01*
X189893152Y-190211961D01*
X191393152Y-188878628D02*
X191607438Y-190211961D01*
X192107438Y-189259580D01*
X192369342Y-190211961D01*
X192916961Y-188878628D01*
X194286009Y-190116723D02*
X194083628Y-190211961D01*
X193702676Y-190211961D01*
X193524104Y-190116723D01*
X193452676Y-189926247D01*
X193547914Y-189164342D01*
X193666961Y-188973866D01*
X193869342Y-188878628D01*
X194250295Y-188878628D01*
X194428866Y-188973866D01*
X194500295Y-189164342D01*
X194476485Y-189354819D01*
X193500295Y-189545295D01*
X195226485Y-190211961D02*
X195393152Y-188878628D01*
X195345533Y-189259580D02*
X195464580Y-189069104D01*
X195571723Y-188973866D01*
X195774104Y-188878628D01*
X195964580Y-188878628D01*
X197905057Y-190116723D02*
X198178866Y-190211961D01*
X198655057Y-190211961D01*
X198857438Y-190116723D01*
X198964580Y-190021485D01*
X199083628Y-189831009D01*
X199107438Y-189640533D01*
X199036009Y-189450057D01*
X198952676Y-189354819D01*
X198774104Y-189259580D01*
X198405057Y-189164342D01*
X198226485Y-189069104D01*
X198143152Y-188973866D01*
X198071723Y-188783390D01*
X198095533Y-188592914D01*
X198214580Y-188402438D01*
X198321723Y-188307200D01*
X198524104Y-188211961D01*
X199000295Y-188211961D01*
X199274104Y-188307200D01*
X200666961Y-190116723D02*
X200464580Y-190211961D01*
X200083628Y-190211961D01*
X199905057Y-190116723D01*
X199833628Y-189926247D01*
X199928866Y-189164342D01*
X200047914Y-188973866D01*
X200250295Y-188878628D01*
X200631247Y-188878628D01*
X200809819Y-188973866D01*
X200881247Y-189164342D01*
X200857438Y-189354819D01*
X199881247Y-189545295D01*
X201774104Y-188878628D02*
X201607438Y-190211961D01*
X201750295Y-189069104D02*
X201857438Y-188973866D01*
X202059819Y-188878628D01*
X202345533Y-188878628D01*
X202524104Y-188973866D01*
X202595533Y-189164342D01*
X202464580Y-190211961D01*
X203333628Y-190116723D02*
X203512200Y-190211961D01*
X203893152Y-190211961D01*
X204095533Y-190116723D01*
X204214580Y-189926247D01*
X204226485Y-189831009D01*
X204155057Y-189640533D01*
X203976485Y-189545295D01*
X203690771Y-189545295D01*
X203512200Y-189450057D01*
X203440771Y-189259580D01*
X203452676Y-189164342D01*
X203571723Y-188973866D01*
X203774104Y-188878628D01*
X204059819Y-188878628D01*
X204238390Y-188973866D01*
X205809819Y-190116723D02*
X205607438Y-190211961D01*
X205226485Y-190211961D01*
X205047914Y-190116723D01*
X204976485Y-189926247D01*
X205071723Y-189164342D01*
X205190771Y-188973866D01*
X205393152Y-188878628D01*
X205774104Y-188878628D01*
X205952676Y-188973866D01*
X206024104Y-189164342D01*
X206000295Y-189354819D01*
X205024104Y-189545295D01*
X208274104Y-190211961D02*
X208524104Y-188211961D01*
X209012200Y-189640533D01*
X209857438Y-188211961D01*
X209607438Y-190211961D01*
X210845533Y-190211961D02*
X210666961Y-190116723D01*
X210583628Y-190021485D01*
X210512200Y-189831009D01*
X210583628Y-189259580D01*
X210702676Y-189069104D01*
X210809819Y-188973866D01*
X211012200Y-188878628D01*
X211297914Y-188878628D01*
X211476485Y-188973866D01*
X211559819Y-189069104D01*
X211631247Y-189259580D01*
X211559819Y-189831009D01*
X211440771Y-190021485D01*
X211333628Y-190116723D01*
X211131247Y-190211961D01*
X210845533Y-190211961D01*
X213226485Y-190211961D02*
X213476485Y-188211961D01*
X213238390Y-190116723D02*
X213036009Y-190211961D01*
X212655057Y-190211961D01*
X212476485Y-190116723D01*
X212393152Y-190021485D01*
X212321723Y-189831009D01*
X212393152Y-189259580D01*
X212512200Y-189069104D01*
X212619342Y-188973866D01*
X212821723Y-188878628D01*
X213202676Y-188878628D01*
X213381247Y-188973866D01*
X215202676Y-188878628D02*
X215036009Y-190211961D01*
X214345533Y-188878628D02*
X214214580Y-189926247D01*
X214286009Y-190116723D01*
X214464580Y-190211961D01*
X214750295Y-190211961D01*
X214952676Y-190116723D01*
X215059819Y-190021485D01*
X216274104Y-190211961D02*
X216095533Y-190116723D01*
X216024104Y-189926247D01*
X216238390Y-188211961D01*
X217809819Y-190116723D02*
X217607438Y-190211961D01*
X217226485Y-190211961D01*
X217047914Y-190116723D01*
X216976485Y-189926247D01*
X217071723Y-189164342D01*
X217190771Y-188973866D01*
X217393152Y-188878628D01*
X217774104Y-188878628D01*
X217952676Y-188973866D01*
X218024104Y-189164342D01*
X218000295Y-189354819D01*
X217024104Y-189545295D01*
D10*
D11*
X178934342Y-185600057D02*
X178434342Y-185600057D01*
X178434342Y-186385771D02*
X178434342Y-184885771D01*
X179148628Y-184885771D01*
X179720057Y-186385771D02*
X179720057Y-185385771D01*
X179720057Y-184885771D02*
X179648628Y-184957200D01*
X179720057Y-185028628D01*
X179791485Y-184957200D01*
X179720057Y-184885771D01*
X179720057Y-185028628D01*
X180648628Y-186385771D02*
X180505771Y-186314342D01*
X180434342Y-186171485D01*
X180434342Y-184885771D01*
X181791485Y-186314342D02*
X181648628Y-186385771D01*
X181362914Y-186385771D01*
X181220057Y-186314342D01*
X181148628Y-186171485D01*
X181148628Y-185600057D01*
X181220057Y-185457200D01*
X181362914Y-185385771D01*
X181648628Y-185385771D01*
X181791485Y-185457200D01*
X181862914Y-185600057D01*
X181862914Y-185742914D01*
X181148628Y-185885771D01*
X182505771Y-186242914D02*
X182577200Y-186314342D01*
X182505771Y-186385771D01*
X182434342Y-186314342D01*
X182505771Y-186242914D01*
X182505771Y-186385771D01*
X182505771Y-185457200D02*
X182577200Y-185528628D01*
X182505771Y-185600057D01*
X182434342Y-185528628D01*
X182505771Y-185457200D01*
X182505771Y-185600057D01*
X184362914Y-186385771D02*
X184362914Y-184885771D01*
X184934342Y-184885771D01*
X185077200Y-184957200D01*
X185148628Y-185028628D01*
X185220057Y-185171485D01*
X185220057Y-185385771D01*
X185148628Y-185528628D01*
X185077200Y-185600057D01*
X184934342Y-185671485D01*
X184362914Y-185671485D01*
X186077200Y-186385771D02*
X185934342Y-186314342D01*
X185862914Y-186242914D01*
X185791485Y-186100057D01*
X185791485Y-185671485D01*
X185862914Y-185528628D01*
X185934342Y-185457200D01*
X186077200Y-185385771D01*
X186291485Y-185385771D01*
X186434342Y-185457200D01*
X186505771Y-185528628D01*
X186577200Y-185671485D01*
X186577200Y-186100057D01*
X186505771Y-186242914D01*
X186434342Y-186314342D01*
X186291485Y-186385771D01*
X186077200Y-186385771D01*
X187077200Y-185385771D02*
X187362914Y-186385771D01*
X187648628Y-185671485D01*
X187934342Y-186385771D01*
X188220057Y-185385771D01*
X189362914Y-186314342D02*
X189220057Y-186385771D01*
X188934342Y-186385771D01*
X188791485Y-186314342D01*
X188720057Y-186171485D01*
X188720057Y-185600057D01*
X188791485Y-185457200D01*
X188934342Y-185385771D01*
X189220057Y-185385771D01*
X189362914Y-185457200D01*
X189434342Y-185600057D01*
X189434342Y-185742914D01*
X188720057Y-185885771D01*
X190077200Y-186385771D02*
X190077200Y-185385771D01*
X190077200Y-185671485D02*
X190148628Y-185528628D01*
X190220057Y-185457200D01*
X190362914Y-185385771D01*
X190505771Y-185385771D01*
X190934342Y-186314342D02*
X191148628Y-186385771D01*
X191505771Y-186385771D01*
X191648628Y-186314342D01*
X191720057Y-186242914D01*
X191791485Y-186100057D01*
X191791485Y-185957200D01*
X191720057Y-185814342D01*
X191648628Y-185742914D01*
X191505771Y-185671485D01*
X191220057Y-185600057D01*
X191077200Y-185528628D01*
X191005771Y-185457200D01*
X190934342Y-185314342D01*
X190934342Y-185171485D01*
X191005771Y-185028628D01*
X191077200Y-184957200D01*
X191220057Y-184885771D01*
X191577200Y-184885771D01*
X191791485Y-184957200D01*
X193005771Y-186314342D02*
X192862914Y-186385771D01*
X192577200Y-186385771D01*
X192434342Y-186314342D01*
X192362914Y-186171485D01*
X192362914Y-185600057D01*
X192434342Y-185457200D01*
X192577200Y-185385771D01*
X192862914Y-185385771D01*
X193005771Y-185457200D01*
X193077200Y-185600057D01*
X193077200Y-185742914D01*
X192362914Y-185885771D01*
X193720057Y-185385771D02*
X193720057Y-186385771D01*
X193720057Y-185528628D02*
X193791485Y-185457200D01*
X193934342Y-185385771D01*
X194148628Y-185385771D01*
X194291485Y-185457200D01*
X194362914Y-185600057D01*
X194362914Y-186385771D01*
X195005771Y-186314342D02*
X195148628Y-186385771D01*
X195434342Y-186385771D01*
X195577200Y-186314342D01*
X195648628Y-186171485D01*
X195648628Y-186100057D01*
X195577200Y-185957200D01*
X195434342Y-185885771D01*
X195220057Y-185885771D01*
X195077200Y-185814342D01*
X195005771Y-185671485D01*
X195005771Y-185600057D01*
X195077200Y-185457200D01*
X195220057Y-185385771D01*
X195434342Y-185385771D01*
X195577200Y-185457200D01*
X196862914Y-186314342D02*
X196720057Y-186385771D01*
X196434342Y-186385771D01*
X196291485Y-186314342D01*
X196220057Y-186171485D01*
X196220057Y-185600057D01*
X196291485Y-185457200D01*
X196434342Y-185385771D01*
X196720057Y-185385771D01*
X196862914Y-185457200D01*
X196934342Y-185600057D01*
X196934342Y-185742914D01*
X196220057Y-185885771D01*
X197577200Y-186385771D02*
X197577200Y-184885771D01*
X198077200Y-185957200D01*
X198577200Y-184885771D01*
X198577200Y-186385771D01*
X199505771Y-186385771D02*
X199362914Y-186314342D01*
X199291485Y-186242914D01*
X199220057Y-186100057D01*
X199220057Y-185671485D01*
X199291485Y-185528628D01*
X199362914Y-185457200D01*
X199505771Y-185385771D01*
X199720057Y-185385771D01*
X199862914Y-185457200D01*
X199934342Y-185528628D01*
X200005771Y-185671485D01*
X200005771Y-186100057D01*
X199934342Y-186242914D01*
X199862914Y-186314342D01*
X199720057Y-186385771D01*
X199505771Y-186385771D01*
X201291485Y-186385771D02*
X201291485Y-184885771D01*
X201291485Y-186314342D02*
X201148628Y-186385771D01*
X200862914Y-186385771D01*
X200720057Y-186314342D01*
X200648628Y-186242914D01*
X200577200Y-186100057D01*
X200577200Y-185671485D01*
X200648628Y-185528628D01*
X200720057Y-185457200D01*
X200862914Y-185385771D01*
X201148628Y-185385771D01*
X201291485Y-185457200D01*
X202648628Y-185385771D02*
X202648628Y-186385771D01*
X202005771Y-185385771D02*
X202005771Y-186171485D01*
X202077200Y-186314342D01*
X202220057Y-186385771D01*
X202434342Y-186385771D01*
X202577200Y-186314342D01*
X202648628Y-186242914D01*
X203577200Y-186385771D02*
X203434342Y-186314342D01*
X203362914Y-186171485D01*
X203362914Y-184885771D01*
X204720057Y-186314342D02*
X204577200Y-186385771D01*
X204291485Y-186385771D01*
X204148628Y-186314342D01*
X204077200Y-186171485D01*
X204077200Y-185600057D01*
X204148628Y-185457200D01*
X204291485Y-185385771D01*
X204577200Y-185385771D01*
X204720057Y-185457200D01*
X204791485Y-185600057D01*
X204791485Y-185742914D01*
X204077200Y-185885771D01*
X205434342Y-186242914D02*
X205505771Y-186314342D01*
X205434342Y-186385771D01*
X205362914Y-186314342D01*
X205434342Y-186242914D01*
X205434342Y-186385771D01*
X206148628Y-186385771D02*
X206148628Y-184885771D01*
X206291485Y-185814342D02*
X206720057Y-186385771D01*
X206720057Y-185385771D02*
X206148628Y-185957200D01*
X207362914Y-186385771D02*
X207362914Y-185385771D01*
X207362914Y-184885771D02*
X207291485Y-184957200D01*
X207362914Y-185028628D01*
X207434342Y-184957200D01*
X207362914Y-184885771D01*
X207362914Y-185028628D01*
X208720057Y-186314342D02*
X208577200Y-186385771D01*
X208291485Y-186385771D01*
X208148628Y-186314342D01*
X208077200Y-186242914D01*
X208005771Y-186100057D01*
X208005771Y-185671485D01*
X208077200Y-185528628D01*
X208148628Y-185457200D01*
X208291485Y-185385771D01*
X208577200Y-185385771D01*
X208720057Y-185457200D01*
X210005771Y-186385771D02*
X210005771Y-185600057D01*
X209934342Y-185457200D01*
X209791485Y-185385771D01*
X209505771Y-185385771D01*
X209362914Y-185457200D01*
X210005771Y-186314342D02*
X209862914Y-186385771D01*
X209505771Y-186385771D01*
X209362914Y-186314342D01*
X209291485Y-186171485D01*
X209291485Y-186028628D01*
X209362914Y-185885771D01*
X209505771Y-185814342D01*
X209862914Y-185814342D01*
X210005771Y-185742914D01*
X211362914Y-186385771D02*
X211362914Y-184885771D01*
X211362914Y-186314342D02*
X211220057Y-186385771D01*
X210934342Y-186385771D01*
X210791485Y-186314342D01*
X210720057Y-186242914D01*
X210648628Y-186100057D01*
X210648628Y-185671485D01*
X210720057Y-185528628D01*
X210791485Y-185457200D01*
X210934342Y-185385771D01*
X211220057Y-185385771D01*
X211362914Y-185457200D01*
X211720057Y-186528628D02*
X212862914Y-186528628D01*
X213220057Y-185385771D02*
X213220057Y-186885771D01*
X213220057Y-185457200D02*
X213362914Y-185385771D01*
X213648628Y-185385771D01*
X213791485Y-185457200D01*
X213862914Y-185528628D01*
X213934342Y-185671485D01*
X213934342Y-186100057D01*
X213862914Y-186242914D01*
X213791485Y-186314342D01*
X213648628Y-186385771D01*
X213362914Y-186385771D01*
X213220057Y-186314342D01*
X215220057Y-186314342D02*
X215077200Y-186385771D01*
X214791485Y-186385771D01*
X214648628Y-186314342D01*
X214577200Y-186242914D01*
X214505771Y-186100057D01*
X214505771Y-185671485D01*
X214577200Y-185528628D01*
X214648628Y-185457200D01*
X214791485Y-185385771D01*
X215077200Y-185385771D01*
X215220057Y-185457200D01*
X215862914Y-186385771D02*
X215862914Y-184885771D01*
X215862914Y-185457200D02*
X216005771Y-185385771D01*
X216291485Y-185385771D01*
X216434342Y-185457200D01*
X216505771Y-185528628D01*
X216577200Y-185671485D01*
X216577200Y-186100057D01*
X216505771Y-186242914D01*
X216434342Y-186314342D01*
X216291485Y-186385771D01*
X216005771Y-186385771D01*
X215862914Y-186314342D01*
D10*
D11*
X177002200Y-181507200D02*
X285002200Y-181507200D01*
D10*
D11*
X178362914Y-183614342D02*
X178577200Y-183685771D01*
X178934342Y-183685771D01*
X179077200Y-183614342D01*
X179148628Y-183542914D01*
X179220057Y-183400057D01*
X179220057Y-183257200D01*
X179148628Y-183114342D01*
X179077200Y-183042914D01*
X178934342Y-182971485D01*
X178648628Y-182900057D01*
X178505771Y-182828628D01*
X178434342Y-182757200D01*
X178362914Y-182614342D01*
X178362914Y-182471485D01*
X178434342Y-182328628D01*
X178505771Y-182257200D01*
X178648628Y-182185771D01*
X179005771Y-182185771D01*
X179220057Y-182257200D01*
X179862914Y-183685771D02*
X179862914Y-182185771D01*
X180505771Y-183685771D02*
X180505771Y-182900057D01*
X180434342Y-182757200D01*
X180291485Y-182685771D01*
X180077200Y-182685771D01*
X179934342Y-182757200D01*
X179862914Y-182828628D01*
X181791485Y-183614342D02*
X181648628Y-183685771D01*
X181362914Y-183685771D01*
X181220057Y-183614342D01*
X181148628Y-183471485D01*
X181148628Y-182900057D01*
X181220057Y-182757200D01*
X181362914Y-182685771D01*
X181648628Y-182685771D01*
X181791485Y-182757200D01*
X181862914Y-182900057D01*
X181862914Y-183042914D01*
X181148628Y-183185771D01*
X183077200Y-183614342D02*
X182934342Y-183685771D01*
X182648628Y-183685771D01*
X182505771Y-183614342D01*
X182434342Y-183471485D01*
X182434342Y-182900057D01*
X182505771Y-182757200D01*
X182648628Y-182685771D01*
X182934342Y-182685771D01*
X183077200Y-182757200D01*
X183148628Y-182900057D01*
X183148628Y-183042914D01*
X182434342Y-183185771D01*
X183577200Y-182685771D02*
X184148628Y-182685771D01*
X183791485Y-182185771D02*
X183791485Y-183471485D01*
X183862914Y-183614342D01*
X184005771Y-183685771D01*
X184148628Y-183685771D01*
X184648628Y-183542914D02*
X184720057Y-183614342D01*
X184648628Y-183685771D01*
X184577200Y-183614342D01*
X184648628Y-183542914D01*
X184648628Y-183685771D01*
X184648628Y-182757200D02*
X184720057Y-182828628D01*
X184648628Y-182900057D01*
X184577200Y-182828628D01*
X184648628Y-182757200D01*
X184648628Y-182900057D01*
D10*
D12*
X178554342Y-179185771D02*
X178554342Y-180400057D01*
X178625771Y-180542914D01*
X178697200Y-180614342D01*
X178840057Y-180685771D01*
X179125771Y-180685771D01*
X179268628Y-180614342D01*
X179340057Y-180542914D01*
X179411485Y-180400057D01*
X179411485Y-179185771D01*
X180125771Y-179685771D02*
X180125771Y-180685771D01*
X180125771Y-179828628D02*
X180197200Y-179757200D01*
X180340057Y-179685771D01*
X180554342Y-179685771D01*
X180697200Y-179757200D01*
X180768628Y-179900057D01*
X180768628Y-180685771D01*
X181482914Y-180685771D02*
X181482914Y-179685771D01*
X181482914Y-179185771D02*
X181411485Y-179257200D01*
X181482914Y-179328628D01*
X181554342Y-179257200D01*
X181482914Y-179185771D01*
X181482914Y-179328628D01*
X182054342Y-179685771D02*
X182411485Y-180685771D01*
X182768628Y-179685771D01*
X183911485Y-180614342D02*
X183768628Y-180685771D01*
X183482914Y-180685771D01*
X183340057Y-180614342D01*
X183268628Y-180471485D01*
X183268628Y-179900057D01*
X183340057Y-179757200D01*
X183482914Y-179685771D01*
X183768628Y-179685771D01*
X183911485Y-179757200D01*
X183982914Y-179900057D01*
X183982914Y-180042914D01*
X183268628Y-180185771D01*
X184625771Y-180685771D02*
X184625771Y-179685771D01*
X184625771Y-179971485D02*
X184697200Y-179828628D01*
X184768628Y-179757200D01*
X184911485Y-179685771D01*
X185054342Y-179685771D01*
X185482914Y-180614342D02*
X185625771Y-180685771D01*
X185911485Y-180685771D01*
X186054342Y-180614342D01*
X186125771Y-180471485D01*
X186125771Y-180400057D01*
X186054342Y-180257200D01*
X185911485Y-180185771D01*
X185697200Y-180185771D01*
X185554342Y-180114342D01*
X185482914Y-179971485D01*
X185482914Y-179900057D01*
X185554342Y-179757200D01*
X185697200Y-179685771D01*
X185911485Y-179685771D01*
X186054342Y-179757200D01*
X186768628Y-180685771D02*
X186768628Y-179685771D01*
X186768628Y-179185771D02*
X186697200Y-179257200D01*
X186768628Y-179328628D01*
X186840057Y-179257200D01*
X186768628Y-179185771D01*
X186768628Y-179328628D01*
X187268628Y-179685771D02*
X187840057Y-179685771D01*
X187482914Y-179185771D02*
X187482914Y-180471485D01*
X187554342Y-180614342D01*
X187697200Y-180685771D01*
X187840057Y-180685771D01*
X188197200Y-179685771D02*
X188554342Y-180685771D01*
X188911485Y-179685771D02*
X188554342Y-180685771D01*
X188411485Y-181042914D01*
X188340057Y-181114342D01*
X188197200Y-181185771D01*
X190840057Y-180685771D02*
X190697200Y-180614342D01*
X190625771Y-180542914D01*
X190554342Y-180400057D01*
X190554342Y-179971485D01*
X190625771Y-179828628D01*
X190697200Y-179757200D01*
X190840057Y-179685771D01*
X191054342Y-179685771D01*
X191197200Y-179757200D01*
X191268628Y-179828628D01*
X191340057Y-179971485D01*
X191340057Y-180400057D01*
X191268628Y-180542914D01*
X191197200Y-180614342D01*
X191054342Y-180685771D01*
X190840057Y-180685771D01*
X191768628Y-179685771D02*
X192340057Y-179685771D01*
X191982914Y-180685771D02*
X191982914Y-179400057D01*
X192054342Y-179257200D01*
X192197200Y-179185771D01*
X192340057Y-179185771D01*
X194840057Y-180542914D02*
X194768628Y-180614342D01*
X194554342Y-180685771D01*
X194411485Y-180685771D01*
X194197200Y-180614342D01*
X194054342Y-180471485D01*
X193982914Y-180328628D01*
X193911485Y-180042914D01*
X193911485Y-179828628D01*
X193982914Y-179542914D01*
X194054342Y-179400057D01*
X194197200Y-179257200D01*
X194411485Y-179185771D01*
X194554342Y-179185771D01*
X194768628Y-179257200D01*
X194840057Y-179328628D01*
X196054342Y-180614342D02*
X195911485Y-180685771D01*
X195625771Y-180685771D01*
X195482914Y-180614342D01*
X195411485Y-180471485D01*
X195411485Y-179900057D01*
X195482914Y-179757200D01*
X195625771Y-179685771D01*
X195911485Y-179685771D01*
X196054342Y-179757200D01*
X196125771Y-179900057D01*
X196125771Y-180042914D01*
X195411485Y-180185771D01*
X196768628Y-179685771D02*
X196768628Y-180685771D01*
X196768628Y-179828628D02*
X196840057Y-179757200D01*
X196982914Y-179685771D01*
X197197200Y-179685771D01*
X197340057Y-179757200D01*
X197411485Y-179900057D01*
X197411485Y-180685771D01*
X197911485Y-179685771D02*
X198482914Y-179685771D01*
X198125771Y-179185771D02*
X198125771Y-180471485D01*
X198197200Y-180614342D01*
X198340057Y-180685771D01*
X198482914Y-180685771D01*
X198982914Y-180685771D02*
X198982914Y-179685771D01*
X198982914Y-179971485D02*
X199054342Y-179828628D01*
X199125771Y-179757200D01*
X199268628Y-179685771D01*
X199411485Y-179685771D01*
X200554342Y-180685771D02*
X200554342Y-179900057D01*
X200482914Y-179757200D01*
X200340057Y-179685771D01*
X200054342Y-179685771D01*
X199911485Y-179757200D01*
X200554342Y-180614342D02*
X200411485Y-180685771D01*
X200054342Y-180685771D01*
X199911485Y-180614342D01*
X199840057Y-180471485D01*
X199840057Y-180328628D01*
X199911485Y-180185771D01*
X200054342Y-180114342D01*
X200411485Y-180114342D01*
X200554342Y-180042914D01*
X201482914Y-180685771D02*
X201340057Y-180614342D01*
X201268628Y-180471485D01*
X201268628Y-179185771D01*
X203697200Y-179900057D02*
X203197200Y-179900057D01*
X203197200Y-180685771D02*
X203197200Y-179185771D01*
X203911485Y-179185771D01*
X204697200Y-180685771D02*
X204554342Y-180614342D01*
X204482914Y-180471485D01*
X204482914Y-179185771D01*
X205482914Y-180685771D02*
X205340057Y-180614342D01*
X205268628Y-180542914D01*
X205197200Y-180400057D01*
X205197200Y-179971485D01*
X205268628Y-179828628D01*
X205340057Y-179757200D01*
X205482914Y-179685771D01*
X205697200Y-179685771D01*
X205840057Y-179757200D01*
X205911485Y-179828628D01*
X205982914Y-179971485D01*
X205982914Y-180400057D01*
X205911485Y-180542914D01*
X205840057Y-180614342D01*
X205697200Y-180685771D01*
X205482914Y-180685771D01*
X206625771Y-180685771D02*
X206625771Y-179685771D01*
X206625771Y-179971485D02*
X206697200Y-179828628D01*
X206768628Y-179757200D01*
X206911485Y-179685771D01*
X207054342Y-179685771D01*
X207554342Y-180685771D02*
X207554342Y-179685771D01*
X207554342Y-179185771D02*
X207482914Y-179257200D01*
X207554342Y-179328628D01*
X207625771Y-179257200D01*
X207554342Y-179185771D01*
X207554342Y-179328628D01*
X208911485Y-180685771D02*
X208911485Y-179185771D01*
X208911485Y-180614342D02*
X208768628Y-180685771D01*
X208482914Y-180685771D01*
X208340057Y-180614342D01*
X208268628Y-180542914D01*
X208197200Y-180400057D01*
X208197200Y-179971485D01*
X208268628Y-179828628D01*
X208340057Y-179757200D01*
X208482914Y-179685771D01*
X208768628Y-179685771D01*
X208911485Y-179757200D01*
X210268628Y-180685771D02*
X210268628Y-179900057D01*
X210197200Y-179757200D01*
X210054342Y-179685771D01*
X209768628Y-179685771D01*
X209625771Y-179757200D01*
X210268628Y-180614342D02*
X210125771Y-180685771D01*
X209768628Y-180685771D01*
X209625771Y-180614342D01*
X209554342Y-180471485D01*
X209554342Y-180328628D01*
X209625771Y-180185771D01*
X209768628Y-180114342D01*
X210125771Y-180114342D01*
X210268628Y-180042914D01*
X212125771Y-180114342D02*
X213268628Y-180114342D01*
X215125771Y-180685771D02*
X215125771Y-179185771D01*
X215125771Y-179900057D02*
X215982914Y-179900057D01*
X215982914Y-180685771D02*
X215982914Y-179185771D01*
X216697200Y-180685771D02*
X216697200Y-179185771D01*
X217554342Y-180685771D02*
X216911485Y-179828628D01*
X217554342Y-179185771D02*
X216697200Y-180042914D01*
X218197200Y-180685771D02*
X218197200Y-179185771D01*
X219054342Y-180685771D01*
X219054342Y-179185771D01*
X220768628Y-179185771D02*
X221768628Y-179185771D01*
X220768628Y-180685771D01*
X221768628Y-180685771D01*
X222911485Y-180614342D02*
X222768628Y-180685771D01*
X222482914Y-180685771D01*
X222340057Y-180614342D01*
X222268628Y-180471485D01*
X222268628Y-179900057D01*
X222340057Y-179757200D01*
X222482914Y-179685771D01*
X222768628Y-179685771D01*
X222911485Y-179757200D01*
X222982914Y-179900057D01*
X222982914Y-180042914D01*
X222268628Y-180185771D01*
X223411485Y-179685771D02*
X223982914Y-179685771D01*
X223625771Y-179185771D02*
X223625771Y-180471485D01*
X223697200Y-180614342D01*
X223840057Y-180685771D01*
X223982914Y-180685771D01*
X225125771Y-180685771D02*
X225125771Y-179900057D01*
X225054342Y-179757200D01*
X224911485Y-179685771D01*
X224625771Y-179685771D01*
X224482914Y-179757200D01*
X225125771Y-180614342D02*
X224982914Y-180685771D01*
X224625771Y-180685771D01*
X224482914Y-180614342D01*
X224411485Y-180471485D01*
X224411485Y-180328628D01*
X224482914Y-180185771D01*
X224625771Y-180114342D01*
X224982914Y-180114342D01*
X225125771Y-180042914D01*
X227840057Y-180542914D02*
X227768628Y-180614342D01*
X227554342Y-180685771D01*
X227411485Y-180685771D01*
X227197200Y-180614342D01*
X227054342Y-180471485D01*
X226982914Y-180328628D01*
X226911485Y-180042914D01*
X226911485Y-179828628D01*
X226982914Y-179542914D01*
X227054342Y-179400057D01*
X227197200Y-179257200D01*
X227411485Y-179185771D01*
X227554342Y-179185771D01*
X227768628Y-179257200D01*
X227840057Y-179328628D01*
X228482914Y-180685771D02*
X228482914Y-179185771D01*
X229125771Y-180685771D02*
X229125771Y-179900057D01*
X229054342Y-179757200D01*
X228911485Y-179685771D01*
X228697200Y-179685771D01*
X228554342Y-179757200D01*
X228482914Y-179828628D01*
X229840057Y-180685771D02*
X229840057Y-179685771D01*
X229840057Y-179185771D02*
X229768628Y-179257200D01*
X229840057Y-179328628D01*
X229911485Y-179257200D01*
X229840057Y-179185771D01*
X229840057Y-179328628D01*
D10*
D11*
X197002200Y-191507200D02*
X197002200Y-194507200D01*
D10*
D11*
X261002200Y-191507200D02*
X261002200Y-198007200D01*
M02*
