M48
; DRILL file {KiCad (5.1.2)-2} date 1/18/2020 11:38:26 PM
; FORMAT={-:-/ absolute / inch / decimal}
; #@! TF.CreationDate,2020-01-18T23:38:26-05:00
; #@! TF.GenerationSoftware,Kicad,Pcbnew,(5.1.2)-2
; #@! TF.FileFunction,Plated,1,2,PTH
FMAT,2
INCH
T1C0.0157
T2C0.0394
T3C0.0720
T4C0.1339
%
G90
G05
T1
X3.4305Y-2.8945
X4.7697Y-4.3858
X4.7697Y-4.4193
X4.7756Y-2.8799
X4.7756Y-2.9134
X4.8071Y-4.3858
X4.8071Y-4.4193
X4.813Y-2.8799
X4.813Y-2.9134
X5.2947Y-4.428
X5.2947Y-4.4594
X5.2947Y-4.4909
X5.3262Y-4.428
X5.3262Y-4.4594
X5.3262Y-4.4909
X5.3577Y-4.428
X5.3577Y-4.4594
X5.3577Y-4.4909
X5.3892Y-4.428
X5.3892Y-4.4594
X5.3892Y-4.4929
X5.4207Y-4.428
X5.4207Y-4.4594
X5.4207Y-4.4929
X5.7071Y-3.5854
X5.7071Y-3.6169
X5.7071Y-3.6484
X5.7386Y-3.5854
X5.7386Y-3.6169
X5.7386Y-3.6484
X5.7701Y-3.5854
X5.7701Y-3.6169
X5.7701Y-3.6484
X5.8016Y-3.5854
X5.8016Y-3.6169
X5.8016Y-3.6504
X5.8331Y-3.5854
X5.8331Y-3.6169
X5.8331Y-3.6504
X6.1815Y-3.2104
X6.1815Y-3.2419
X6.1815Y-3.2734
X6.213Y-3.2104
X6.213Y-3.2419
X6.213Y-3.2734
X6.2346Y-3.3551
X6.2957Y-4.0362
X6.3311Y-4.3846
X6.4094Y-4.3059
X6.4232Y-4.0374
X6.463Y-3.1071
X6.463Y-3.1386
X6.463Y-3.1701
X6.4793Y-4.3573
X6.4945Y-3.1071
X6.4945Y-3.1386
X6.4945Y-3.1701
X6.5142Y-3.8346
X6.5236Y-3.4154
X6.526Y-3.1071
X6.526Y-3.1386
X6.526Y-3.1701
X6.5575Y-3.1071
X6.5575Y-3.1386
X6.5575Y-3.172
X6.5614Y-3.7754
X6.589Y-3.1071
X6.589Y-3.1386
X6.589Y-3.172
X6.6156Y-3.0215
X6.6299Y-4.1339
X6.65Y-3.0215
X6.65Y-3.0579
X6.6713Y-3.9114
X6.6772Y-3.9902
X6.6831Y-4.2382
X6.7106Y-3.4528
X6.7563Y-3.1366
X6.7563Y-3.1681
X6.7563Y-3.1996
X6.7878Y-3.1366
X6.7878Y-3.1681
X6.7878Y-3.1996
X6.8193Y-3.1366
X6.8193Y-3.1681
X6.8193Y-3.1996
X6.8508Y-3.1366
X6.8508Y-3.1681
X6.8508Y-3.2016
X6.8665Y-3.6612
X6.8823Y-3.1366
X6.8823Y-3.1681
X6.8823Y-3.2016
X6.8878Y-3.5335
X6.9094Y-3.5846
X6.9232Y-4.0807
X6.9705Y-3.5768
X6.9866Y-3.3728
X7.0949Y-3.0333
X7.2986Y-3.8994
X7.2986Y-3.9329
X7.3321Y-3.8994
X7.3321Y-3.9348
X7.3425Y-4.0748
X7.3459Y-3.3108
X7.3459Y-3.3423
X7.3774Y-3.3108
X7.3774Y-3.3423
X7.4035Y-3.622
X7.4089Y-3.3108
X7.4089Y-3.3423
X7.5063Y-3.9555
X7.5063Y-3.987
X7.5063Y-4.0185
X7.5378Y-3.9555
X7.5378Y-3.987
X7.5378Y-4.0185
T2
X5.9906Y-3.5638
X5.9906Y-3.6638
X7.6437Y-3.365
X7.6437Y-3.465
X7.6437Y-3.565
X7.6437Y-3.665
X7.6437Y-3.765
X7.6437Y-3.865
T3
X4.8713Y-3.4425
X4.8713Y-3.6175
X4.8713Y-3.7925
X5.1213Y-3.4425
X5.1213Y-3.6175
X5.1213Y-3.7925
T4
X7.6756Y-2.5264
X7.6756Y-4.5854
T0
M30
