M48
; DRILL file {KiCad (5.1.2)-1} date 12/18/2019 7:38:22 PM
; FORMAT={-:-/ absolute / inch / decimal}
; #@! TF.CreationDate,2019-12-18T19:38:22-05:00
; #@! TF.GenerationSoftware,Kicad,Pcbnew,(5.1.2)-1
; #@! TF.FileFunction,Plated,1,2,PTH
FMAT,2
INCH
T1C0.0157
T2C0.0394
T3C0.0720
T4C0.1063
%
G90
G05
T1
X4.6913Y-3.9693
X4.6913Y-4.0008
X4.6913Y-4.0323
X4.6913Y-4.0638
X6.1106Y-3.1346
X6.1106Y-3.1701
X6.1677Y-3.6878
X6.3228Y-4.3051
X6.3671Y-4.0374
X6.4094Y-4.3051
X6.4232Y-4.0374
X6.4793Y-4.3573
X6.4882Y-3.6201
X6.4921Y-3.1634
X6.4921Y-3.1969
X6.5Y-3.7283
X6.5004Y-3.6878
X6.5236Y-3.4154
X6.5276Y-3.8346
X6.5295Y-3.1634
X6.5295Y-3.1969
X6.6299Y-4.1339
X6.6358Y-2.8681
X6.6358Y-2.9075
X6.6358Y-2.9469
X6.6575Y-3.8976
X6.6772Y-3.9902
X6.6831Y-4.2382
X6.7106Y-3.4528
X6.8878Y-3.5335
X6.9094Y-3.5846
X6.9232Y-4.0807
X6.9705Y-3.5768
X7.0118Y-3.3819
X7.1181Y-2.9882
X7.3055Y-3.7843
X7.3055Y-3.8177
X7.339Y-3.7843
X7.339Y-3.8197
X7.3425Y-4.0748
X7.4035Y-3.622
T2
X7.6417Y-4.0669
X7.6417Y-4.1669
X6.1579Y-4.0067
X7.6437Y-3.3602
X7.6437Y-3.4602
X7.6437Y-3.5602
X7.6437Y-3.6602
X7.6437Y-3.7602
X7.6437Y-3.8602
X6.1579Y-3.8354
X6.0413Y-3.565
X6.0413Y-3.665
T3
X4.8713Y-3.4425
X4.8713Y-3.6175
X4.8713Y-3.7925
X5.1213Y-3.4425
X5.1213Y-3.6175
X5.1213Y-3.7925
T4
X3.8012Y-2.5039
X7.6457Y-2.5059
X3.8016Y-4.6051
X7.6953Y-4.6051
T0
M30
