%FSLAX45Y45*%
G04 Gerber Fmt 4.5, Leading zero omitted, Abs format (unit mm)*
G04 Created by KiCad (PCBNEW (5.1.2)-2) date 2020-01-18 23:38:27*
%MOMM*%
%LPD*%
G04 APERTURE LIST*
%ADD10C,0.050000*%
%ADD11C,0.200000*%
%ADD12C,0.300000*%
G04 APERTURE END LIST*
D10*
X19996000Y-5917000D02*
X10891000Y-5917000D01*
X10891000Y-5917000D02*
X10891000Y-12147000D01*
X19996000Y-5917000D02*
X19996000Y-12147000D01*
X10891000Y-12147000D02*
X19996000Y-12147000D01*
D11*
X11613400Y-9038500D02*
X11913400Y-9338500D01*
X11913400Y-9038500D02*
X11613400Y-9338500D01*
X12756400Y-7951380D02*
X13056400Y-8251380D01*
X13056400Y-7951380D02*
X12756400Y-8251380D01*
X12756400Y-10125620D02*
X13056400Y-10425620D01*
X13056400Y-10125620D02*
X12756400Y-10425620D01*
D12*
X11174928Y-12615214D02*
X11174928Y-12315214D01*
X11246357Y-12315214D01*
X11289214Y-12329500D01*
X11317786Y-12358071D01*
X11332071Y-12386643D01*
X11346357Y-12443786D01*
X11346357Y-12486643D01*
X11332071Y-12543786D01*
X11317786Y-12572357D01*
X11289214Y-12600929D01*
X11246357Y-12615214D01*
X11174928Y-12615214D01*
X11474928Y-12615214D02*
X11474928Y-12415214D01*
X11474928Y-12472357D02*
X11489214Y-12443786D01*
X11503500Y-12429500D01*
X11532071Y-12415214D01*
X11560643Y-12415214D01*
X11660643Y-12615214D02*
X11660643Y-12415214D01*
X11660643Y-12315214D02*
X11646357Y-12329500D01*
X11660643Y-12343786D01*
X11674928Y-12329500D01*
X11660643Y-12315214D01*
X11660643Y-12343786D01*
X11846357Y-12615214D02*
X11817786Y-12600929D01*
X11803500Y-12572357D01*
X11803500Y-12315214D01*
X12003500Y-12615214D02*
X11974928Y-12600929D01*
X11960643Y-12572357D01*
X11960643Y-12315214D01*
X12346357Y-12615214D02*
X12346357Y-12315214D01*
X12446357Y-12529500D01*
X12546357Y-12315214D01*
X12546357Y-12615214D01*
X12817786Y-12615214D02*
X12817786Y-12458071D01*
X12803500Y-12429500D01*
X12774928Y-12415214D01*
X12717786Y-12415214D01*
X12689214Y-12429500D01*
X12817786Y-12600929D02*
X12789214Y-12615214D01*
X12717786Y-12615214D01*
X12689214Y-12600929D01*
X12674928Y-12572357D01*
X12674928Y-12543786D01*
X12689214Y-12515214D01*
X12717786Y-12500929D01*
X12789214Y-12500929D01*
X12817786Y-12486643D01*
X12960643Y-12415214D02*
X12960643Y-12715214D01*
X12960643Y-12429500D02*
X12989214Y-12415214D01*
X13046357Y-12415214D01*
X13074928Y-12429500D01*
X13089214Y-12443786D01*
X13103500Y-12472357D01*
X13103500Y-12558071D01*
X13089214Y-12586643D01*
X13074928Y-12600929D01*
X13046357Y-12615214D01*
X12989214Y-12615214D01*
X12960643Y-12600929D01*
X13232071Y-12586643D02*
X13246357Y-12600929D01*
X13232071Y-12615214D01*
X13217786Y-12600929D01*
X13232071Y-12586643D01*
X13232071Y-12615214D01*
X13232071Y-12429500D02*
X13246357Y-12443786D01*
X13232071Y-12458071D01*
X13217786Y-12443786D01*
X13232071Y-12429500D01*
X13232071Y-12458071D01*
X10588500Y-12959500D02*
X10888500Y-13259500D01*
X10888500Y-12959500D02*
X10588500Y-13259500D01*
X11146357Y-12945214D02*
X11332071Y-12945214D01*
X11232071Y-13059500D01*
X11274928Y-13059500D01*
X11303500Y-13073786D01*
X11317786Y-13088071D01*
X11332071Y-13116643D01*
X11332071Y-13188071D01*
X11317786Y-13216643D01*
X11303500Y-13230929D01*
X11274928Y-13245214D01*
X11189214Y-13245214D01*
X11160643Y-13230929D01*
X11146357Y-13216643D01*
X11460643Y-13216643D02*
X11474928Y-13230929D01*
X11460643Y-13245214D01*
X11446357Y-13230929D01*
X11460643Y-13216643D01*
X11460643Y-13245214D01*
X11660643Y-12945214D02*
X11689214Y-12945214D01*
X11717786Y-12959500D01*
X11732071Y-12973786D01*
X11746357Y-13002357D01*
X11760643Y-13059500D01*
X11760643Y-13130929D01*
X11746357Y-13188071D01*
X11732071Y-13216643D01*
X11717786Y-13230929D01*
X11689214Y-13245214D01*
X11660643Y-13245214D01*
X11632071Y-13230929D01*
X11617786Y-13216643D01*
X11603500Y-13188071D01*
X11589214Y-13130929D01*
X11589214Y-13059500D01*
X11603500Y-13002357D01*
X11617786Y-12973786D01*
X11632071Y-12959500D01*
X11660643Y-12945214D01*
X11946357Y-12945214D02*
X11974928Y-12945214D01*
X12003500Y-12959500D01*
X12017786Y-12973786D01*
X12032071Y-13002357D01*
X12046357Y-13059500D01*
X12046357Y-13130929D01*
X12032071Y-13188071D01*
X12017786Y-13216643D01*
X12003500Y-13230929D01*
X11974928Y-13245214D01*
X11946357Y-13245214D01*
X11917786Y-13230929D01*
X11903500Y-13216643D01*
X11889214Y-13188071D01*
X11874928Y-13130929D01*
X11874928Y-13059500D01*
X11889214Y-13002357D01*
X11903500Y-12973786D01*
X11917786Y-12959500D01*
X11946357Y-12945214D01*
X12174928Y-13245214D02*
X12174928Y-13045214D01*
X12174928Y-13073786D02*
X12189214Y-13059500D01*
X12217786Y-13045214D01*
X12260643Y-13045214D01*
X12289214Y-13059500D01*
X12303500Y-13088071D01*
X12303500Y-13245214D01*
X12303500Y-13088071D02*
X12317786Y-13059500D01*
X12346357Y-13045214D01*
X12389214Y-13045214D01*
X12417786Y-13059500D01*
X12432071Y-13088071D01*
X12432071Y-13245214D01*
X12574928Y-13245214D02*
X12574928Y-13045214D01*
X12574928Y-13073786D02*
X12589214Y-13059500D01*
X12617786Y-13045214D01*
X12660643Y-13045214D01*
X12689214Y-13059500D01*
X12703500Y-13088071D01*
X12703500Y-13245214D01*
X12703500Y-13088071D02*
X12717786Y-13059500D01*
X12746357Y-13045214D01*
X12789214Y-13045214D01*
X12817786Y-13059500D01*
X12832071Y-13088071D01*
X12832071Y-13245214D01*
X13417786Y-12930929D02*
X13160643Y-13316643D01*
X13803500Y-12945214D02*
X13832071Y-12945214D01*
X13860643Y-12959500D01*
X13874928Y-12973786D01*
X13889214Y-13002357D01*
X13903500Y-13059500D01*
X13903500Y-13130929D01*
X13889214Y-13188071D01*
X13874928Y-13216643D01*
X13860643Y-13230929D01*
X13832071Y-13245214D01*
X13803500Y-13245214D01*
X13774928Y-13230929D01*
X13760643Y-13216643D01*
X13746357Y-13188071D01*
X13732071Y-13130929D01*
X13732071Y-13059500D01*
X13746357Y-13002357D01*
X13760643Y-12973786D01*
X13774928Y-12959500D01*
X13803500Y-12945214D01*
X14032071Y-13216643D02*
X14046357Y-13230929D01*
X14032071Y-13245214D01*
X14017786Y-13230929D01*
X14032071Y-13216643D01*
X14032071Y-13245214D01*
X14332071Y-13245214D02*
X14160643Y-13245214D01*
X14246357Y-13245214D02*
X14246357Y-12945214D01*
X14217786Y-12988071D01*
X14189214Y-13016643D01*
X14160643Y-13030929D01*
X14617786Y-13245214D02*
X14446357Y-13245214D01*
X14532071Y-13245214D02*
X14532071Y-12945214D01*
X14503500Y-12988071D01*
X14474928Y-13016643D01*
X14446357Y-13030929D01*
X14789214Y-13073786D02*
X14760643Y-13059500D01*
X14746357Y-13045214D01*
X14732071Y-13016643D01*
X14732071Y-13002357D01*
X14746357Y-12973786D01*
X14760643Y-12959500D01*
X14789214Y-12945214D01*
X14846357Y-12945214D01*
X14874928Y-12959500D01*
X14889214Y-12973786D01*
X14903500Y-13002357D01*
X14903500Y-13016643D01*
X14889214Y-13045214D01*
X14874928Y-13059500D01*
X14846357Y-13073786D01*
X14789214Y-13073786D01*
X14760643Y-13088071D01*
X14746357Y-13102357D01*
X14732071Y-13130929D01*
X14732071Y-13188071D01*
X14746357Y-13216643D01*
X14760643Y-13230929D01*
X14789214Y-13245214D01*
X14846357Y-13245214D01*
X14874928Y-13230929D01*
X14889214Y-13216643D01*
X14903500Y-13188071D01*
X14903500Y-13130929D01*
X14889214Y-13102357D01*
X14874928Y-13088071D01*
X14846357Y-13073786D01*
X15017786Y-12945214D02*
X15017786Y-13002357D01*
X15132071Y-12945214D02*
X15132071Y-13002357D01*
X15574928Y-13359500D02*
X15560643Y-13345214D01*
X15532071Y-13302357D01*
X15517786Y-13273786D01*
X15503500Y-13230929D01*
X15489214Y-13159500D01*
X15489214Y-13102357D01*
X15503500Y-13030929D01*
X15517786Y-12988071D01*
X15532071Y-12959500D01*
X15560643Y-12916643D01*
X15574928Y-12902357D01*
X15660643Y-12945214D02*
X15846357Y-12945214D01*
X15746357Y-13059500D01*
X15789214Y-13059500D01*
X15817786Y-13073786D01*
X15832071Y-13088071D01*
X15846357Y-13116643D01*
X15846357Y-13188071D01*
X15832071Y-13216643D01*
X15817786Y-13230929D01*
X15789214Y-13245214D01*
X15703500Y-13245214D01*
X15674928Y-13230929D01*
X15660643Y-13216643D01*
X16203500Y-13245214D02*
X16203500Y-12945214D01*
X16332071Y-13245214D02*
X16332071Y-13088071D01*
X16317786Y-13059500D01*
X16289214Y-13045214D01*
X16246357Y-13045214D01*
X16217786Y-13059500D01*
X16203500Y-13073786D01*
X16517786Y-13245214D02*
X16489214Y-13230929D01*
X16474928Y-13216643D01*
X16460643Y-13188071D01*
X16460643Y-13102357D01*
X16474928Y-13073786D01*
X16489214Y-13059500D01*
X16517786Y-13045214D01*
X16560643Y-13045214D01*
X16589214Y-13059500D01*
X16603500Y-13073786D01*
X16617786Y-13102357D01*
X16617786Y-13188071D01*
X16603500Y-13216643D01*
X16589214Y-13230929D01*
X16560643Y-13245214D01*
X16517786Y-13245214D01*
X16789214Y-13245214D02*
X16760643Y-13230929D01*
X16746357Y-13202357D01*
X16746357Y-12945214D01*
X17017786Y-13230929D02*
X16989214Y-13245214D01*
X16932071Y-13245214D01*
X16903500Y-13230929D01*
X16889214Y-13202357D01*
X16889214Y-13088071D01*
X16903500Y-13059500D01*
X16932071Y-13045214D01*
X16989214Y-13045214D01*
X17017786Y-13059500D01*
X17032071Y-13088071D01*
X17032071Y-13116643D01*
X16889214Y-13145214D01*
X17146357Y-13230929D02*
X17174928Y-13245214D01*
X17232071Y-13245214D01*
X17260643Y-13230929D01*
X17274928Y-13202357D01*
X17274928Y-13188071D01*
X17260643Y-13159500D01*
X17232071Y-13145214D01*
X17189214Y-13145214D01*
X17160643Y-13130929D01*
X17146357Y-13102357D01*
X17146357Y-13088071D01*
X17160643Y-13059500D01*
X17189214Y-13045214D01*
X17232071Y-13045214D01*
X17260643Y-13059500D01*
X17374928Y-13359500D02*
X17389214Y-13345214D01*
X17417786Y-13302357D01*
X17432071Y-13273786D01*
X17446357Y-13230929D01*
X17460643Y-13159500D01*
X17460643Y-13102357D01*
X17446357Y-13030929D01*
X17432071Y-12988071D01*
X17417786Y-12959500D01*
X17389214Y-12916643D01*
X17374928Y-12902357D01*
X17917786Y-13359500D02*
X17903500Y-13345214D01*
X17874928Y-13302357D01*
X17860643Y-13273786D01*
X17846357Y-13230929D01*
X17832071Y-13159500D01*
X17832071Y-13102357D01*
X17846357Y-13030929D01*
X17860643Y-12988071D01*
X17874928Y-12959500D01*
X17903500Y-12916643D01*
X17917786Y-12902357D01*
X18032071Y-13045214D02*
X18032071Y-13245214D01*
X18032071Y-13073786D02*
X18046357Y-13059500D01*
X18074928Y-13045214D01*
X18117786Y-13045214D01*
X18146357Y-13059500D01*
X18160643Y-13088071D01*
X18160643Y-13245214D01*
X18346357Y-13245214D02*
X18317786Y-13230929D01*
X18303500Y-13216643D01*
X18289214Y-13188071D01*
X18289214Y-13102357D01*
X18303500Y-13073786D01*
X18317786Y-13059500D01*
X18346357Y-13045214D01*
X18389214Y-13045214D01*
X18417786Y-13059500D01*
X18432071Y-13073786D01*
X18446357Y-13102357D01*
X18446357Y-13188071D01*
X18432071Y-13216643D01*
X18417786Y-13230929D01*
X18389214Y-13245214D01*
X18346357Y-13245214D01*
X18532071Y-13045214D02*
X18646357Y-13045214D01*
X18574928Y-12945214D02*
X18574928Y-13202357D01*
X18589214Y-13230929D01*
X18617786Y-13245214D01*
X18646357Y-13245214D01*
X18974928Y-13045214D02*
X18974928Y-13345214D01*
X18974928Y-13059500D02*
X19003500Y-13045214D01*
X19060643Y-13045214D01*
X19089214Y-13059500D01*
X19103500Y-13073786D01*
X19117786Y-13102357D01*
X19117786Y-13188071D01*
X19103500Y-13216643D01*
X19089214Y-13230929D01*
X19060643Y-13245214D01*
X19003500Y-13245214D01*
X18974928Y-13230929D01*
X19289214Y-13245214D02*
X19260643Y-13230929D01*
X19246357Y-13202357D01*
X19246357Y-12945214D01*
X19532071Y-13245214D02*
X19532071Y-13088071D01*
X19517786Y-13059500D01*
X19489214Y-13045214D01*
X19432071Y-13045214D01*
X19403500Y-13059500D01*
X19532071Y-13230929D02*
X19503500Y-13245214D01*
X19432071Y-13245214D01*
X19403500Y-13230929D01*
X19389214Y-13202357D01*
X19389214Y-13173786D01*
X19403500Y-13145214D01*
X19432071Y-13130929D01*
X19503500Y-13130929D01*
X19532071Y-13116643D01*
X19632071Y-13045214D02*
X19746357Y-13045214D01*
X19674928Y-12945214D02*
X19674928Y-13202357D01*
X19689214Y-13230929D01*
X19717786Y-13245214D01*
X19746357Y-13245214D01*
X19960643Y-13230929D02*
X19932071Y-13245214D01*
X19874928Y-13245214D01*
X19846357Y-13230929D01*
X19832071Y-13202357D01*
X19832071Y-13088071D01*
X19846357Y-13059500D01*
X19874928Y-13045214D01*
X19932071Y-13045214D01*
X19960643Y-13059500D01*
X19974928Y-13088071D01*
X19974928Y-13116643D01*
X19832071Y-13145214D01*
X20232071Y-13245214D02*
X20232071Y-12945214D01*
X20232071Y-13230929D02*
X20203500Y-13245214D01*
X20146357Y-13245214D01*
X20117786Y-13230929D01*
X20103500Y-13216643D01*
X20089214Y-13188071D01*
X20089214Y-13102357D01*
X20103500Y-13073786D01*
X20117786Y-13059500D01*
X20146357Y-13045214D01*
X20203500Y-13045214D01*
X20232071Y-13059500D01*
X20346357Y-13359500D02*
X20360643Y-13345214D01*
X20389214Y-13302357D01*
X20403500Y-13273786D01*
X20417786Y-13230929D01*
X20432071Y-13159500D01*
X20432071Y-13102357D01*
X20417786Y-13030929D01*
X20403500Y-12988071D01*
X20389214Y-12959500D01*
X20360643Y-12916643D01*
X20346357Y-12902357D01*
M02*
